<svg fill="none" height="39" viewBox="0 0 32 39" width="32" xmlns="http://www.w3.org/2000/svg"><path d="m31.1844 36.129h-1.3594v-29.41947c0-.85517-.7304-1.5484-1.6314-1.5484h-22.83879c-.90098 0-1.63134.69323-1.63134 1.5484v29.41947h-1.35946c-.45045 0-.81567.3467-.81567.7742v1.2904h30.45176v-1.2904c0-.4275-.3652-.7742-.8157-.7742zm-20.9356-26.0646c0-.42757.3653-.77421.8157-.77421h2.7189c.4505 0 .8157.34664.8157.77421v2.5806c0 .4276-.3652.7742-.8157.7742h-2.7189c-.4504 0-.8157-.3466-.8157-.7742zm0 6.1936c0-.4276.3653-.7742.8157-.7742h2.7189c.4505 0 .8157.3466.8157.7742v2.5806c0 .4276-.3652.7742-.8157.7742h-2.7189c-.4504 0-.8157-.3466-.8157-.7742zm3.5346 9.5484h-2.7189c-.4504 0-.8157-.3466-.8157-.7742v-2.5807c0-.4275.3653-.7741.8157-.7741h2.7189c.4505 0 .8157.3466.8157.7741v2.5807c0 .4276-.3652.7742-.8157.7742zm5.166 10.3226h-4.3503v-5.4193c0-.4276.3652-.7742.8157-.7742h2.7189c.4504 0 .8157.3466.8157.7742zm4.3502-11.0968c0 .4276-.3652.7742-.8157.7742h-2.7189c-.4504 0-.8156-.3466-.8156-.7742v-2.5807c0-.4275.3652-.7741.8156-.7741h2.7189c.4505 0 .8157.3466.8157.7741zm0-6.1936c0 .4276-.3652.7742-.8157.7742h-2.7189c-.4504 0-.8156-.3466-.8156-.7742v-2.5806c0-.4276.3652-.7742.8156-.7742h2.7189c.4505 0 .8157.3466.8157.7742zm0-6.1936c0 .4276-.3652.7742-.8157.7742h-2.7189c-.4504 0-.8156-.3466-.8156-.7742v-2.5806c0-.42757.3652-.77421.8156-.77421h2.7189c.4505 0 .8157.34664.8157.77421z" fill="#153a67"/><path d="m0 0h11.871v24.2582h-11.871z" fill="#0065f2"/><path d="m8.11608 20.8035h-4.36131c-.09226 0-.16775.0772-.16775.1716v.3431c0 .0944.07549.1716.16775.1716h4.36131c.09226 0 .16774-.0772.16774-.1716v-.3431c0-.0944-.07548-.1716-.16774-.1716zm.67097-3.4311c-.27782 0-.50323.2306-.50323.5147 0 .0761.01678.1469.04613.2123l-.75903.4653c-.16146.0987-.37009.0429-.46339-.1243l-.85444-1.529c.11217-.0944.18556-.2359.18556-.3967 0-.2842-.2254-.5147-.50323-.5147-.27782 0-.50323.2305-.50323.5147 0 .1608.07339.3023.18557.3967l-.85444 1.529c-.09331.1672-.30299.223-.46339.1243l-.75799-.4653c.02831-.0643.04613-.1362.04613-.2123 0-.2841-.2254-.5147-.50323-.5147-.27782 0-.50427.2306-.50427.5147s.2254.5147.50322.5147c.02726 0 .05452-.0043.08073-.0086l.75799 2.0672h4.02583l.75799-2.0672c.02621.0043.05346.0086.08072.0086.27783 0 .50323-.2306.50323-.5147s-.2254-.5147-.50323-.5147z" fill="#fff"/></svg>