<svg fill="none" height="39" viewBox="0 0 33 39" width="33" xmlns="http://www.w3.org/2000/svg"><path d="m31.1844 36.0645h-1.3595v-29.41947c0-.85517-.7304-1.5484-1.6313-1.5484h-22.8388c-.90097 0-1.63134.69323-1.63134 1.5484v29.41947h-1.35945c-.45045 0-.81567.3466-.81567.7742v1.2903h30.45166v-1.2903c0-.4276-.3652-.7742-.8156-.7742zm-20.9356-26.06463c0-.42755.3652-.77419.8157-.77419h2.7189c.4504 0 .8157.34664.8157.77419v2.58063c0 .4276-.3653.7742-.8157.7742h-2.7189c-.4505 0-.8157-.3466-.8157-.7742zm0 6.19353c0-.4275.3652-.7742.8157-.7742h2.7189c.4504 0 .8157.3467.8157.7742v2.5807c0 .4275-.3653.7742-.8157.7742h-2.7189c-.4505 0-.8157-.3467-.8157-.7742zm3.5346 9.5485h-2.7189c-.4505 0-.8157-.3467-.8157-.7742v-2.5807c0-.4275.3652-.7742.8157-.7742h2.7189c.4504 0 .8157.3467.8157.7742v2.5807c0 .4275-.3653.7742-.8157.7742zm5.1659 10.3226h-4.3502v-5.4194c0-.4276.3652-.7742.8156-.7742h2.7189c.4505 0 .8157.3466.8157.7742zm4.3503-11.0968c0 .4275-.3653.7742-.8157.7742h-2.7189c-.4505 0-.8157-.3467-.8157-.7742v-2.5807c0-.4275.3652-.7742.8157-.7742h2.7189c.4504 0 .8157.3467.8157.7742zm0-6.1936c0 .4275-.3653.7742-.8157.7742h-2.7189c-.4505 0-.8157-.3467-.8157-.7742v-2.5807c0-.4275.3652-.7742.8157-.7742h2.7189c.4504 0 .8157.3467.8157.7742zm0-6.1936c0 .4276-.3653.7742-.8157.7742h-2.7189c-.4505 0-.8157-.3466-.8157-.7742v-2.58063c0-.42755.3652-.77419.8157-.77419h2.7189c.4504 0 .8157.34664.8157.77419z" fill="#153a67"/><circle cx="10" cy="10" fill="#34cdb2" r="10"/><path clip-rule="evenodd" d="m16.5255 9.21296c-.7199-.61111-1.6042-.37268-2.0463-.04167l-1.3982 1.05321h-.0764c-.0046-.87959-.706-1.56941-1.6018-1.56941h-3.33336c-.6574 0-1.30324.21759-1.81713.6088l-.65509.50463h-1.47685c-.2037 0-.37037.16666-.37037.37038v.3704c0 .2037.16667.3703.37037.3703h1.85185l.95602-.7291c.32407-.24772.72685-.38198 1.14352-.38198h3.33334c.6458 0 .6736.93058-.0255.93058h-1.38423c-.17593 0-.31944.1435-.31944.3194v.0023c0 .176.14351.3195.31944.3195h3.11343c.2245 0 .4444-.0741.6227-.2084l1.419-1.0671c.1921-.14351.4745-.15508.6574 0 .2338.1968.2152.5347-.0209.7107l-2.3287 1.7476c-.1805.1343-.3981.2084-.6227.2084h-8.71523c-.2037 0-.37037.1666-.37037.3703v.3704c0 .2037.16667.3704.37037.3704h8.72223c.4606 0 .9097-.1505 1.2778-.4283l2.3333-1.7569c.3843-.2893.6134-.7292.6273-1.2037.0162-.47454-.1875-.92824-.5555-1.24074z" fill="#fff" fill-rule="evenodd"/></svg>