<svg width="25" height="24" viewBox="0 0 25 24" fill="none" xmlns="http://www.w3.org/2000/svg">
<path d="M2 22.2857C2 23.2339 2.67031 24 3.5 24H21.5C22.3297 24 23 23.2339 23 22.2857V6.85714H2V22.2857ZM9.5 10.9286C9.5 10.575 9.75313 10.2857 10.0625 10.2857H14.9375C15.2469 10.2857 15.5 10.575 15.5 10.9286V11.3571C15.5 11.7107 15.2469 12 14.9375 12H10.0625C9.75313 12 9.5 11.7107 9.5 11.3571V10.9286ZM23 0H2C1.17031 0 0.5 0.766071 0.5 1.71429V4.28571C0.5 4.75714 0.8375 5.14286 1.25 5.14286H23.75C24.1625 5.14286 24.5 4.75714 24.5 4.28571V1.71429C24.5 0.766071 23.8297 0 23 0Z" fill="black"/>
</svg>
