<?xml version="1.0" encoding="utf-8"?>
<!-- Generator: Adobe Illustrator 28.1.0, SVG Export Plug-In . SVG Version: 6.00 Build 0)  -->
<svg version="1.1" id="Laag_1" xmlns="http://www.w3.org/2000/svg" xmlns:xlink="http://www.w3.org/1999/xlink" x="0px" y="0px"
	 viewBox="0 0 1275 410" style="enable-background:new 0 0 1275 410;" xml:space="preserve">
<style type="text/css">
	.st0{fill:#E5F1F9;}
	.st1{fill:#FFFFFF;}
	.st2{fill:#007BC7;}
	.st3{fill:#C3CACC;}
	.st4{fill:#A1A8AA;}
	.st5{fill:#E8E8E8;}
	.st6{fill:#D8D8D7;}
	.st7{fill:#ECECEC;}
	.st8{fill:#D9D9D9;}
	.st9{fill:#C6C6C5;}
	.st10{fill:#CCCCD2;}
	.st11{fill:#B6B7BB;}
	.st12{fill:#70B5E0;}
	.st13{fill:none;}
	.st14{fill:#90CBE8;}
	.st15{fill:#75B8E1;}
	.st16{fill:#B2D7EE;}
	.st17{fill:#154273;}
	.st18{fill:#2A2C31;}
	.st19{fill:#868686;}
	.st20{fill:#1E1F23;}
	.st21{fill:#09090A;}
	.st22{fill:#0A1926;}
	.st23{fill:#575756;}
	.st24{clip-path:url(#SVGID_00000179631811596848500740000014107344690023735477_);}
	.st25{fill:#80BDE3;}
	.st26{fill:#4CA3D8;}
	.st27{fill:#3395D2;}
	.st28{fill:#66B0DD;}
	.st29{fill:#BCE0F1;}
	.st30{fill:#B1DAEF;}
	.st31{fill:#9BD0EB;}
	.st32{fill:#A6D5ED;}
	.st33{fill:#E9F5FA;}
	.st34{fill:#C7E5F4;}
	.st35{clip-path:url(#SVGID_00000142859618930058799390000013139646195248615808_);}
	.st36{fill:#F4AD74;}
	.st37{fill:#303031;}
	.st38{fill:#DBA48D;}
	.st39{fill:#252F5B;}
	.st40{fill:#1D1E1C;}
	.st41{fill:#26282D;}
	.st42{fill:none;stroke:#9BCEE9;stroke-width:0.2424;stroke-miterlimit:10;stroke-dasharray:0.4941,0.4941;}
	.st43{fill:#E16F0D;}
	.st44{fill:#E78C3E;}
	.st45{fill:#CCCBCB;}
	.st46{fill:#1988CD;}
	.st47{opacity:0.3;fill:#007BC7;}
	.st48{fill:#E5F2F9;}
	.st49{fill:#CCE5F4;}
	.st50{clip-path:url(#SVGID_00000129163527446260017340000005914096877494006427_);}
	.st51{fill:#8E8F8F;}
	.st52{fill:#6A787E;}
	.st53{fill:#465457;}
	.st54{fill:#0068B3;}
	.st55{fill:#92D2F4;}
	.st56{fill:#00518B;}
	.st57{fill:#C5C2C2;}
	.st58{fill:#01689A;}
	.st59{fill:#2C5581;}
	.st60{fill:#333333;}
	.st61{fill:#E58D6D;}
	.st62{fill:#242E5B;}
	.st63{fill:#1E3F90;}
	.st64{fill:#F5AE74;}
	.st65{fill:#1D1D1B;}
	.st66{fill:#006633;}
	.st67{clip-path:url(#SVGID_00000016762541007423435260000010444284645062004157_);}
	.st68{fill:#00466E;}
	.st69{fill:#FBC984;}
	.st70{fill:#F89E54;}
	.st71{fill:#C81619;}
	.st72{fill:#D89265;}
</style>
<g>
	<rect x="0.3" y="17.14" class="st0" width="1274.7" height="392.86"/>
	<path class="st1" d="M977.17,354.39h278.69c6.42-15.12,21.94-73.42-2.21-108.21c-11.61-16.73-38.68-32.16-30.88-46.81
		c12.36-23.2-11.86-38.25-15.77-40.94c-20.88-14.38-44.53-13.8-74.01-11.83c-1.52,0.1-3.02,0.24-4.51,0.41
		c-3.42,0.39-6.78,0.97-10.04,1.75c-2.29,0.55-4.54,1.2-6.73,1.95h0c-1.38,0.47-2.73,0.99-4.06,1.55c-1.98,0.83-3.9,1.75-5.75,2.77
		c-0.48,0.27-0.96,0.54-1.44,0.82c-3.09,1.83-5.98,3.94-8.62,6.36c-4.68,4.3-9.36,7.11-14.02,8.85
		c-26.38,9.87-58.05-9.89-90.06,25.19c-18.69,20.48,20.35,44.33,0,62.74C953.52,289.99,970.53,338.89,977.17,354.39z"/>
	<path class="st1" d="M392.8,355.46H24.41C-6.13,332.8,1.34,252.23,26.84,238.4c27.45-14.88-7.89-53.95,34.4-70.66
		c27.61-10.91,72.93,29.93,91.21,6.45c21.48-27.58,57.15-61.16,123.6-35.07c51.25,20.12,35.61,20.27,119.48,31.95
		c43.12,6.01,34.79,57.39,30.77,68.01c-3.5,9.25-46.77,33.91-14.57,54.11C458.95,322.83,393.91,354.92,392.8,355.46z"/>
	<path class="st1" d="M517.25,355.46h274.18c22.73-17.58,11.03-70.49-7.95-81.21c-20.43-11.54,12.01-51.47-19.46-64.43
		c-20.55-8.46-48.4,0.99-62.01-17.23c-15.98-21.4-42.54-47.45-91.99-27.21c-38.14,15.61-17.43,45.71-79.84,54.78
		c-32.09,4.66-25.89,44.53-22.9,52.77c2.61,7.18,19.85,18.56-4.11,34.23C468.01,330.14,516.42,355.04,517.25,355.46z"/>
	<g>
		<g>
			
				<ellipse transform="matrix(0.9871 -0.1602 0.1602 0.9871 -9.254 54.2665)" class="st2" cx="331.97" cy="84.53" rx="21.49" ry="21.5"/>
			<path class="st1" d="M345.46,81.15l-12.84-11.81c-0.1-0.09-0.23-0.14-0.37-0.14c-0.14,0-0.27,0.05-0.37,0.14l-12.84,11.81
				c-0.11,0.1-0.2,0.22-0.26,0.36c-0.06,0.14-0.09,0.29-0.09,0.43v0.8c0,0.3,0.24,0.54,0.54,0.54h2.17v11.39h8.13v-8.13h5.42v8.13
				h8.13V83.29h2.17c0.07,0,0.14-0.01,0.21-0.04c0.07-0.03,0.13-0.07,0.18-0.12c0.05-0.05,0.09-0.11,0.12-0.18
				c0.03-0.07,0.04-0.14,0.04-0.21v-0.8c0-0.15-0.03-0.3-0.09-0.43C345.65,81.37,345.57,81.25,345.46,81.15"/>
		</g>
		<polygon class="st2" points="325.59,102.6 332.25,102.6 338.91,102.6 332.25,115.07 		"/>
	</g>
	<g>
		<rect x="137.34" y="206.77" class="st3" width="14.83" height="36.73"/>
		<rect x="137.34" y="206.77" class="st4" width="14.83" height="6.89"/>
		<rect x="136.32" y="203.33" class="st3" width="16.88" height="8.46"/>
		<polyline class="st5" points="161.19,339.01 44.64,339.01 44.64,256.08 102.92,200.13 161.19,256.08 161.19,339.01 		"/>
		<polygon class="st6" points="102.92,200.13 44.64,256.08 44.64,262.44 103.35,211.29 161.19,262.44 161.19,256.08 		"/>
		<polygon class="st2" points="103.78,188.69 33.72,255.94 40.8,262.44 103.78,201.97 166.76,262.44 172.12,254.29 		"/>
		<g>
			<polyline class="st3" points="161.19,354.83 44.64,354.83 44.64,339.01 161.19,339.01 161.19,354.83 			"/>
			<polyline class="st4" points="161.19,341.97 44.64,341.97 44.64,339.01 161.19,339.01 161.19,341.97 			"/>
			<polyline class="st7" points="125.1,344.94 80.74,344.94 80.74,339.01 125.1,339.01 125.1,344.94 			"/>
			<polyline class="st8" points="128.09,350.87 77.75,350.87 77.75,344.94 128.09,344.94 128.09,350.87 			"/>
			<polyline class="st9" points="130.52,356.81 75.31,356.81 75.31,350.87 130.52,350.87 130.52,356.81 			"/>
			<polyline class="st10" points="125.1,275.02 81.61,275.02 81.61,339.01 125.1,339.01 125.1,275.02 			"/>
			<polyline class="st11" points="117.21,275.02 89.5,275.02 89.5,339.01 117.21,339.01 117.21,275.02 			"/>
			<polyline class="st12" points="114.74,279.19 91.97,279.19 91.97,339.01 114.74,339.01 114.74,279.19 			"/>
			<rect x="93.76" y="288.36" class="st13" width="5.65" height="45.7"/>
			<rect x="94.46" y="289.42" class="st14" width="4.24" height="43.8"/>
		</g>
		<g>
			<rect x="133.38" y="284.4" class="st1" width="20.13" height="38.71"/>
			<rect x="135.22" y="286.17" class="st15" width="16.46" height="35.18"/>
			<polygon class="st14" points="135.22,321.35 135.22,286.17 151.68,286.17 			"/>
			<rect x="134.16" y="302.35" class="st1" width="18.58" height="2.61"/>
			<rect x="142.14" y="285.53" class="st1" width="2.61" height="36.38"/>
		</g>
		<rect x="91.97" y="225.56" class="st1" width="20.13" height="38.71"/>
		<rect x="93.81" y="227.33" class="st15" width="16.46" height="35.18"/>
		<polygon class="st14" points="93.81,262.51 93.81,227.33 110.27,227.33 		"/>
		<rect x="92.75" y="243.5" class="st1" width="18.58" height="2.61"/>
		<rect x="100.73" y="226.69" class="st1" width="2.61" height="36.38"/>
		<g>
			<rect x="53.85" y="284.4" class="st1" width="20.13" height="38.71"/>
			<rect x="55.68" y="286.17" class="st15" width="16.46" height="35.18"/>
			<polygon class="st14" points="55.68,321.35 55.68,286.17 72.14,286.17 			"/>
			<rect x="54.62" y="302.35" class="st1" width="18.58" height="2.61"/>
			<rect x="62.61" y="285.53" class="st1" width="2.61" height="36.38"/>
		</g>
		<path class="st14" d="M161.19,341.97H125.1v2.97h2.99v5.93h2.44v3.96h30.67v-7.42V341.97 M44.64,339.01L44.64,339.01v8.16v7.67
			h30.67v-3.96h2.44v-5.93h2.99v-2.97h-36.1V339.01"/>
		<path class="st12" d="M80.74,339.01h-36.1v2.97h36.1V339.01 M161.19,339.01L161.19,339.01H125.1v2.97h36.09V339.01"/>
	</g>
	<rect y="354.52" class="st16" width="1274.5" height="55.48"/>
	<g>
		<circle class="st17" cx="212.61" cy="18.1" r="16.5"/>
		<g>
			<path class="st1" d="M209.37,12.05c1.21-0.34,2.69-0.59,3.79-0.59h1.36v12.41h-2.48v-10.3c-0.76,0-1.82,0.08-2.67,0.26V12.05z"/>
		</g>
	</g>
	<g>
		<circle class="st17" cx="622.57" cy="18.1" r="16.5"/>
		<g>
			<path class="st1" d="M618.15,11.74c1.04-0.26,2.08-0.42,3.08-0.42c2.63,0,4.14,1.36,4.14,3.56c0,1.59-0.66,2.65-2.54,3.96
				l-1.02,0.72c-1.19,0.81-1.63,1.4-1.85,2.27h5.6l-0.02,2.04h-7.63l-0.26-1.74c0.26-1.5,1.04-2.67,2.48-3.79l1.25-0.95
				c1-0.78,1.4-1.36,1.4-2.21c0-1.12-0.68-1.72-1.99-1.72c-0.97,0-1.68,0.09-2.65,0.34V11.74z"/>
		</g>
	</g>
	<g>
		<circle class="st17" cx="1061.83" cy="18.1" r="16.5"/>
		<g>
			<path class="st1" d="M1058.85,11.46h6.89l0.32,1.97c-0.62,1.38-1.27,2.27-2.52,3.05v0.04c1.76,0.42,2.76,1.63,2.76,3.27
				c0,2.52-2.4,4.26-6.04,4.26h-1.61v-1.89h1.57c2.25,0,3.48-0.8,3.48-2.23c0-0.97-0.64-1.63-1.82-2.02
				c-0.78,0.38-1.36,0.59-2.23,0.78l-0.42-1.84c2.1-0.59,3.67-1.68,4.6-3.33h-5V11.46z"/>
		</g>
	</g>
	<g>
		<g>
			<path class="st18" d="M61.43,343.48v8.51c0,1.57,1.27,2.84,2.84,2.84h6.54c1.57,0,2.83-1.27,2.83-2.84v-8.51H61.43z"/>
			<path class="st19" d="M67.85,353.09c-2.72-1.92-3.86-6.15-2.87-9.51h-3.55v8.41c0,1.57,1.27,2.84,2.84,2.84h6.54
				c0.61,0,1.18-0.2,1.64-0.52C70.87,354.44,69.25,354.07,67.85,353.09z"/>
		</g>
		<g>
			<path class="st18" d="M14.97,343.48v8.51c0,1.57,1.27,2.84,2.84,2.84h6.54c1.57,0,2.83-1.27,2.83-2.84v-8.51H14.97z"/>
			<path class="st19" d="M21.4,353.09c-2.72-1.92-3.86-6.15-2.87-9.51h-3.55v8.41c0,1.57,1.27,2.84,2.84,2.84h6.54
				c0.61,0,1.18-0.2,1.64-0.52C24.41,354.44,22.8,354.07,21.4,353.09z"/>
		</g>
		<g>
			<path class="st20" d="M18.6,317.13c0,0-4.73-2.79-6.85-0.37c0,0-0.66,2.63,1.59,3.06l3.98,1.09v2.85h1.28v-3.48
				C18.6,320.28,19.49,318.85,18.6,317.13z"/>
			<path class="st20" d="M70.73,317.13c0,0,4.73-2.79,6.85-0.37c0,0,0.66,2.63-1.59,3.06l-3.98,1.09v2.85h-1.28v-3.48
				C70.73,320.28,69.85,318.85,70.73,317.13z"/>
		</g>
		<rect x="14.97" y="343.87" class="st21" width="58.66" height="4.79"/>
		<path class="st2" d="M75.53,328.15l-4.35-6.8h-0.06L66,310.69c-1.65-3.51-3.1-4.51-5.16-4.51H44.8h-0.33H28.43
			c-2.05,0-3.51,1-5.16,4.51l-5.11,10.66l-4.35,6.8c0,0-1,1.59-1.2,5.18v12.35c0,0,1,3.65,8.36,1.46l1.69-0.56h6.87h10.95h8.36H59.8
			h6.87l1.69,0.56c7.37,2.19,8.36-1.46,8.36-1.46v-12.35C76.53,329.74,75.53,328.15,75.53,328.15z"/>
		<path class="st22" d="M68.13,318.85c0,1.14-0.96,2.06-2.14,2.06H23.22c-1.18,0-2.14-0.92-2.14-2.06l3.97-7.75
			c1.27-2.32,2.05-3.33,4.69-3.33h28.27c4.51-0.02,4.55,1.83,5.94,3.75L68.13,318.85z"/>
		<path class="st1" d="M64.47,318.29c0.25-0.21,0.3-0.56-0.02-1.13l-2.62-4.59c-0.87-1.2-0.9-2.36-3.72-2.35H46.76
			c-0.21,1.1-0.18,2.24,0.19,3.38c0.64,1.96,1.85,3.67,3.63,4.68H64.47z"/>
		<path class="st23" d="M37.32,311.93c-0.24-1.42-0.22-2.81-0.01-4.16h-7.58c-2.64,0-3.42,1.01-4.69,3.33l-3.97,7.75
			c0,1.14,0.96,2.06,2.14,2.06H42.1C39.57,318.56,37.9,315.39,37.32,311.93z"/>
		<path class="st8" d="M12.61,337.17v8.5c0,0,1,3.65,8.36,1.46l1.69-0.56h6.87h10.95h8.36H59.8h6.87l1.69,0.56
			c7.37,2.19,8.36-1.46,8.36-1.46v-8.5l-31.96,3.52L12.61,337.17z"/>
		<g>
			<path class="st1" d="M16.86,327.35c0,0-2.99,2.73-2.39,7.24l13.34,3.71c0,0,2.59-3.71-1-5.48L16.86,327.35z"/>
			<path class="st22" d="M15.86,333.39c-0.35-2.63,0.52-4.64,1.3-5.87l-0.31-0.17c0,0-2.99,2.73-2.39,7.24l13.34,3.71
				c0,0,0.41-0.58,0.67-1.4L15.86,333.39z"/>
		</g>
		<path class="st8" d="M19.86,341.88c0,1.1-0.89,1.99-1.99,1.99c-1.1,0-1.99-0.89-1.99-1.99c0-1.1,0.89-1.99,1.99-1.99
			C18.97,339.89,19.86,340.78,19.86,341.88z"/>
		<path class="st8" d="M73.66,341.88c0,1.1-0.89,1.99-1.99,1.99c-1.1,0-1.99-0.89-1.99-1.99c0-1.1,0.89-1.99,1.99-1.99
			C72.76,339.89,73.66,340.78,73.66,341.88z"/>
		<g>
			<rect x="33.58" y="331.33" class="st22" width="22.17" height="1.49"/>
			<rect x="32.19" y="333.49" class="st22" width="24.96" height="1.49"/>
			<rect x="30.31" y="335.68" class="st22" width="28.71" height="1.49"/>
		</g>
		<g>
			<path class="st1" d="M72.11,327.35c0,0,2.99,2.73,2.39,7.24l-13.34,3.71c0,0-2.59-3.71,1-5.48L72.11,327.35z"/>
			<path class="st22" d="M73.11,333.39c0.35-2.63-0.52-4.64-1.3-5.87l0.31-0.17c0,0,2.99,2.73,2.39,7.24l-13.34,3.71
				c0,0-0.41-0.58-0.67-1.4L73.11,333.39z"/>
		</g>
	</g>
	<g>
		<defs>
			<rect id="SVGID_1_" x="1083.19" y="158.37" width="182.92" height="195.97"/>
		</defs>
		<clipPath id="SVGID_00000072974099836901030950000010328970540977298326_">
			<use xlink:href="#SVGID_1_"  style="overflow:visible;"/>
		</clipPath>
		<g style="clip-path:url(#SVGID_00000072974099836901030950000010328970540977298326_);">
			<rect x="1216.59" y="206.77" class="st3" width="14.83" height="36.73"/>
			<rect x="1216.59" y="206.77" class="st4" width="14.83" height="6.89"/>
			<rect x="1215.57" y="203.33" class="st3" width="16.88" height="8.46"/>
			<polyline class="st5" points="1240.44,339.01 1123.89,339.01 1123.89,256.08 1182.17,200.13 1240.44,256.08 1240.44,339.01 			
				"/>
			<polygon class="st6" points="1182.17,200.13 1123.89,256.08 1123.89,262.44 1182.6,211.29 1240.44,262.44 1240.44,256.08 			"/>
			<polygon class="st2" points="1183.03,188.69 1112.97,255.94 1120.05,262.44 1183.03,201.97 1246.01,262.44 1251.37,254.29 			"/>
			<g>
				<polyline class="st3" points="1240.44,354.83 1123.89,354.83 1123.89,339.01 1240.44,339.01 1240.44,354.83 				"/>
				<polyline class="st4" points="1240.44,341.97 1123.89,341.97 1123.89,339.01 1240.44,339.01 1240.44,341.97 				"/>
				<polyline class="st7" points="1204.35,344.94 1159.99,344.94 1159.99,339.01 1204.35,339.01 1204.35,344.94 				"/>
				<polyline class="st8" points="1207.34,350.87 1157,350.87 1157,344.94 1207.34,344.94 1207.34,350.87 				"/>
				<polyline class="st9" points="1209.77,356.81 1154.56,356.81 1154.56,350.87 1209.77,350.87 1209.77,356.81 				"/>
				<polyline class="st10" points="1204.35,275.02 1160.86,275.02 1160.86,339.01 1204.35,339.01 1204.35,275.02 				"/>
				<polyline class="st11" points="1196.46,275.02 1168.75,275.02 1168.75,339.01 1196.46,339.01 1196.46,275.02 				"/>
				<polyline class="st12" points="1193.99,279.19 1171.22,279.19 1171.22,339.01 1193.99,339.01 1193.99,279.19 				"/>
				<rect x="1173.01" y="288.36" class="st13" width="5.65" height="45.7"/>
				<rect x="1173.71" y="289.42" class="st14" width="4.24" height="43.8"/>
			</g>
			<g>
				<rect x="1212.63" y="284.4" class="st1" width="20.13" height="38.71"/>
				<rect x="1214.47" y="286.17" class="st15" width="16.46" height="35.18"/>
				<polygon class="st14" points="1214.47,321.35 1214.47,286.17 1230.93,286.17 				"/>
				<rect x="1213.41" y="302.35" class="st1" width="18.58" height="2.61"/>
				<rect x="1221.39" y="285.53" class="st1" width="2.61" height="36.38"/>
			</g>
			<rect x="1171.22" y="225.56" class="st1" width="20.13" height="38.71"/>
			<rect x="1173.06" y="227.33" class="st15" width="16.46" height="35.18"/>
			<polygon class="st14" points="1173.06,262.51 1173.06,227.33 1189.52,227.33 			"/>
			<rect x="1172" y="243.5" class="st1" width="18.58" height="2.61"/>
			<rect x="1179.98" y="226.69" class="st1" width="2.61" height="36.38"/>
			<g>
				<rect x="1133.1" y="284.4" class="st1" width="20.13" height="38.71"/>
				<rect x="1134.93" y="286.17" class="st15" width="16.46" height="35.18"/>
				<polygon class="st14" points="1134.93,321.35 1134.93,286.17 1151.39,286.17 				"/>
				<rect x="1133.87" y="302.35" class="st1" width="18.58" height="2.61"/>
				<rect x="1141.86" y="285.53" class="st1" width="2.61" height="36.38"/>
			</g>
			<path class="st14" d="M1240.44,341.97h-36.09v2.97h2.99v5.93h2.44v3.96h30.67v-7.42V341.97 M1123.89,339.01L1123.89,339.01v8.16
				v7.67h30.67v-3.96h2.44v-5.93h2.99v-2.97h-36.1V339.01"/>
			<path class="st12" d="M1159.99,339.01h-36.1v2.97h36.1V339.01 M1240.44,339.01L1240.44,339.01h-36.09v2.97h36.09V339.01"/>
		</g>
	</g>
	<g>
		<g>
			<g>
				<circle class="st2" cx="414.28" cy="181.91" r="21.49"/>
			</g>
			<polygon class="st2" points="407.62,199.98 414.28,199.98 420.94,199.98 414.28,212.45 			"/>
		</g>
		<g>
			<path class="st1" d="M414.28,185.93c6.63,0,11.83-2.85,11.83-6.49v-3.09c0-3.63-5.2-6.48-11.83-6.48
				c-6.63,0-11.83,2.84-11.83,6.48v3.09c0,0.8,0.27,1.56,0.73,2.27c-0.47,0.7-0.73,1.45-0.73,2.25v3.09c0,3.64,5.2,6.49,11.83,6.49
				c6.63,0,11.83-2.85,11.83-6.49v-3.09c0-0.17-0.02-0.34-0.05-0.51c-0.6,0.76-3.86,4.34-11.5,4.34c-6.77,0-9.11-3.26-9.35-3.7
				c-0.1-0.18-0.17-0.37-0.06-0.48C407.3,185.03,410.56,185.93,414.28,185.93 M404.73,176.63c0-2.4,4.27-4.35,9.55-4.35
				s9.55,1.95,9.55,4.35c0,2.4-4.27,4.35-9.55,4.35S404.73,179.04,404.73,176.63"/>
			<path class="st1" d="M412.47,178.09v0.57h1.31v-0.47c0.26,0.02,0.57,0.02,0.86,0.02h0.32v0.45h1.28v-0.52
				c2.35-0.25,3.47-1.07,3.47-2.26c0-0.46-0.05-0.66-0.26-1.14h-1.74c0.18,0.44,0.24,0.66,0.24,1.06c0,0.52-0.5,0.94-1.72,1.13
				v-1.49h-1.28v1.6c-0.16,0.01-0.32,0.02-0.52,0.02c-0.23,0-0.44-0.01-0.66-0.02v-1.6h-1.31v1.48c-1.18-0.18-1.8-0.56-1.8-1.16
				c0-0.34,0.06-0.55,0.21-0.97h-1.83c-0.15,0.36-0.2,0.61-0.2,0.95C408.85,176.94,410.06,177.79,412.47,178.09"/>
		</g>
	</g>
	<g>
		<g>
			<g>
				<circle class="st2" cx="825.46" cy="77.45" r="21.49"/>
			</g>
			<polygon class="st2" points="818.8,95.52 825.46,95.52 832.12,95.52 825.46,107.99 			"/>
		</g>
		<g>
			<path class="st1" d="M825.46,81.47c6.63,0,11.83-2.85,11.83-6.49v-3.09c0-3.63-5.2-6.48-11.83-6.48
				c-6.63,0-11.83,2.84-11.83,6.48v3.09c0,0.8,0.27,1.56,0.73,2.27c-0.47,0.7-0.73,1.45-0.73,2.25v3.09c0,3.64,5.2,6.49,11.83,6.49
				c6.63,0,11.83-2.85,11.83-6.49V79.5c0-0.17-0.02-0.34-0.05-0.51c-0.6,0.76-3.86,4.34-11.5,4.34c-6.77,0-9.11-3.26-9.35-3.7
				c-0.1-0.18-0.17-0.37-0.06-0.48C818.48,80.57,821.74,81.47,825.46,81.47 M815.91,72.18c0-2.4,4.28-4.35,9.55-4.35
				c5.27,0,9.55,1.95,9.55,4.35s-4.27,4.35-9.55,4.35C820.19,76.53,815.91,74.58,815.91,72.18"/>
			<path class="st1" d="M823.65,73.63v0.57h1.31v-0.47c0.26,0.02,0.57,0.02,0.86,0.02h0.32v0.45h1.28v-0.52
				c2.35-0.25,3.47-1.07,3.47-2.26c0-0.46-0.05-0.66-0.26-1.14h-1.74c0.18,0.44,0.24,0.66,0.24,1.06c0,0.52-0.5,0.94-1.72,1.13
				v-1.49h-1.28v1.6c-0.16,0.01-0.32,0.02-0.52,0.02c-0.23,0-0.44-0.01-0.66-0.02v-1.6h-1.31v1.48c-1.18-0.18-1.8-0.56-1.8-1.16
				c0-0.34,0.06-0.55,0.21-0.97h-1.83c-0.15,0.36-0.2,0.61-0.2,0.95C820.03,72.48,821.24,73.33,823.65,73.63"/>
		</g>
	</g>
	<g>
		<g>
			
				<ellipse transform="matrix(0.9871 -0.1602 0.1602 0.9871 -2.7457 122.7942)" class="st2" cx="760.27" cy="78.43" rx="21.49" ry="21.5"/>
			<path class="st1" d="M773.76,75.04l-12.84-11.81c-0.1-0.09-0.23-0.14-0.37-0.14c-0.14,0-0.27,0.05-0.37,0.14l-12.84,11.81
				c-0.11,0.1-0.2,0.22-0.26,0.36c-0.06,0.14-0.09,0.29-0.09,0.43v0.8c0,0.3,0.24,0.54,0.54,0.54h2.17v11.39h8.13v-8.13h5.42v8.13
				h8.13V77.18h2.17c0.07,0,0.14-0.01,0.21-0.04c0.07-0.03,0.13-0.07,0.18-0.12c0.05-0.05,0.09-0.11,0.12-0.18
				c0.03-0.07,0.04-0.14,0.04-0.21v-0.8c0-0.15-0.03-0.3-0.09-0.43C773.96,75.27,773.87,75.14,773.76,75.04"/>
		</g>
		<polygon class="st2" points="753.89,96.5 760.55,96.5 767.22,96.5 760.55,108.97 		"/>
	</g>
	<g>
		<path class="st17" d="M715.2,228.08h-20v-1.5h20V228.08z M680.2,228.08h-20v-1.5h20V228.08z M645.2,228.08h-20v-1.5h20V228.08z
			 M610.2,228.08h-20v-1.5h20V228.08z M575.2,228.08h-20v-1.5h20V228.08z M540.2,228.08h-20v-1.5h20V228.08z M505.2,228.08h-20v-1.5
			h20V228.08z M470.2,228.08h-20v-1.5h20V228.08z"/>
		<g>
			<path class="st17" d="M715.73,234.53c-0.22-0.35-0.12-0.81,0.23-1.04l9.68-6.16l-9.68-6.16c-0.35-0.22-0.45-0.69-0.23-1.04
				s0.69-0.45,1.04-0.23l10.67,6.8c0.22,0.14,0.35,0.38,0.35,0.63s-0.13,0.5-0.35,0.63l-10.67,6.8c-0.13,0.08-0.27,0.12-0.4,0.12
				C716.12,234.88,715.87,234.75,715.73,234.53z"/>
		</g>
	</g>
	<g>
		<path class="st17" d="M728.73,147.74h-0.75v-1.5h0.75V147.74z M712.98,147.74h-20v-1.5h20V147.74z M677.98,147.74h-20v-1.5h20
			V147.74z M642.98,147.74h-20v-1.5h20V147.74z M607.98,147.74h-20v-1.5h20V147.74z M572.98,147.74h-20v-1.5h20V147.74z
			 M537.98,147.74h-20v-1.5h20V147.74z M502.98,147.74h-20v-1.5h20V147.74z M467.98,147.74h-20v-1.5h20V147.74z M432.98,147.74h-20
			v-1.5h20V147.74z M397.98,147.74h-20v-1.5h20V147.74z"/>
		<g>
			<path class="st17" d="M718.48,154.19c-0.22-0.35-0.12-0.81,0.23-1.04l9.68-6.16l-9.68-6.16c-0.35-0.22-0.45-0.69-0.23-1.04
				c0.22-0.35,0.69-0.45,1.04-0.23l10.67,6.8c0.22,0.14,0.35,0.38,0.35,0.63c0,0.26-0.13,0.5-0.35,0.63l-10.67,6.8
				c-0.13,0.08-0.27,0.12-0.4,0.12C718.87,154.54,718.63,154.42,718.48,154.19z"/>
		</g>
	</g>
	<g>
		<path class="st17" d="M1009.23,268.52h-1.5v-20h1.5V268.52z M1009.23,233.52h-1.5v-20h1.5V233.52z M1009.23,198.52h-1.5v-10.33
			h-8.17v-1.5h9.67V198.52z M984.56,188.19h-20v-1.5h20V188.19z M949.56,188.19h-20v-1.5h20V188.19z M914.56,188.19h-20v-1.5h20
			V188.19z M879.56,188.19h-20v-1.5h20V188.19z M844.56,188.19h-20v-1.5h20V188.19z M809.56,188.19h-4.1v-1.5h4.1V188.19z"/>
		<g>
			<path class="st17" d="M1015.68,258.27c-0.35-0.22-0.81-0.12-1.04,0.23l-6.16,9.68l-6.16-9.68c-0.22-0.35-0.69-0.45-1.04-0.23
				s-0.45,0.69-0.23,1.04l6.8,10.67c0.14,0.22,0.38,0.35,0.63,0.35s0.5-0.13,0.63-0.35l6.8-10.67c0.08-0.13,0.12-0.27,0.12-0.4
				C1016.03,258.66,1015.9,258.41,1015.68,258.27z"/>
		</g>
	</g>
	<g>
		<g>
			<circle class="st2" cx="568.43" cy="186.73" r="21.49"/>
		</g>
		<g>
			<g>
				<g>
					<path class="st1" d="M578.98,190.21c-1.44,4.36-5.55,7.52-10.38,7.52c-5.7,0-10.56-4.43-10.9-10.3
						c0.03-0.02,0.07-0.02,0.13,0.07c0.09,0.14,0.55,1.43,0.57,1.51l1.47,0.87c0.35,0.21,0.8,0.13,1.06-0.18
						c0.26-0.31,0.26-0.77,0-1.08l-3.68-4.36c-0.16-0.19-0.41-0.3-0.66-0.3c-0.25-0.01-0.5,0.1-0.66,0.3l-3.68,4.36
						c-0.26,0.31-0.26,0.77,0,1.08c0.26,0.31,0.71,0.39,1.06,0.18l1.82-1.07c0.97,6.55,6.64,11.59,13.45,11.59
						c6.12,0,11.3-4.06,13.01-9.62C580.82,191.25,579.8,191.2,578.98,190.21 M584.93,184.25c-0.26-0.31-0.71-0.39-1.06-0.18
						l-1.78,1.05c-0.83-6.72-6.56-11.93-13.5-11.93c-6.28,0-11.57,4.27-13.13,10.06c0.75-0.54,1.9-0.53,2.67,0.38
						c1.36-4.5,5.53-7.78,10.47-7.78c5.9,0,10.77,4.71,10.92,10.66c-0.03,0.03-0.08,0.03-0.14-0.07c-0.07-0.13-0.4-1.16-0.5-1.45
						l-1.56-0.92c-0.35-0.21-0.8-0.13-1.06,0.18c-0.26,0.31-0.26,0.77,0,1.08l3.68,4.37c0.16,0.19,0.41,0.3,0.66,0.3
						c0.25,0.01,0.5-0.1,0.66-0.3l3.68-4.37C585.2,185.02,585.2,184.57,584.93,184.25"/>
				</g>
			</g>
		</g>
	</g>
	<g>
		<g>
			<g>
				<rect x="301.66" y="134.97" class="st25" width="67.18" height="219.56"/>
				<rect x="286.9" y="134.97" class="st26" width="14.77" height="219.56"/>
				<rect x="304.08" y="140.83" class="st1" width="62.36" height="213.7"/>
				<rect x="301.66" y="147.47" class="st25" width="67.18" height="2.54"/>
				<rect x="301.66" y="156.65" class="st25" width="67.18" height="2.54"/>
				<rect x="301.66" y="165.83" class="st25" width="67.18" height="2.54"/>
				<rect x="301.66" y="175.01" class="st25" width="67.18" height="2.54"/>
				<rect x="301.66" y="184.19" class="st25" width="67.18" height="2.54"/>
				<rect x="301.66" y="193.37" class="st25" width="67.18" height="2.54"/>
				<rect x="301.66" y="202.55" class="st25" width="67.18" height="2.54"/>
				<rect x="301.66" y="211.73" class="st25" width="67.18" height="2.54"/>
				<rect x="301.66" y="220.91" class="st25" width="67.18" height="2.54"/>
				<rect x="301.66" y="230.09" class="st25" width="67.18" height="2.54"/>
				<rect x="301.66" y="239.27" class="st25" width="67.18" height="2.54"/>
				<rect x="301.66" y="248.44" class="st25" width="67.18" height="2.54"/>
				<rect x="301.66" y="257.62" class="st25" width="67.18" height="2.54"/>
				<rect x="301.66" y="266.8" class="st25" width="67.18" height="2.54"/>
				<rect x="301.66" y="275.98" class="st25" width="67.18" height="2.54"/>
				<rect x="301.66" y="285.16" class="st25" width="67.18" height="2.54"/>
				<rect x="301.66" y="294.34" class="st25" width="67.18" height="2.54"/>
				<rect x="301.66" y="303.52" class="st25" width="67.18" height="2.54"/>
				<rect x="301.66" y="312.7" class="st25" width="67.18" height="2.54"/>
				<rect x="301.66" y="321.88" class="st25" width="67.18" height="2.54"/>
				<rect x="301.66" y="331.06" class="st25" width="67.18" height="2.54"/>
				<rect x="301.66" y="340.24" class="st25" width="67.18" height="2.54"/>
				<g>
					<rect x="314.43" y="140.83" class="st25" width="0.26" height="212.83"/>
					<rect x="304.08" y="140.83" class="st25" width="0.26" height="212.83"/>
					<rect x="324.77" y="140.83" class="st25" width="0.26" height="212.83"/>
					<rect x="335.12" y="140.83" class="st25" width="0.26" height="212.83"/>
					<rect x="345.47" y="140.83" class="st25" width="0.26" height="212.83"/>
					<rect x="355.82" y="140.83" class="st25" width="0.26" height="212.83"/>
					<rect x="366.17" y="140.83" class="st25" width="0.26" height="212.83"/>
				</g>
				<g>
					<rect x="314.03" y="140.83" class="st26" width="0.39" height="6.64"/>
					<rect x="324.38" y="140.83" class="st26" width="0.39" height="6.64"/>
					<rect x="334.73" y="140.83" class="st26" width="0.39" height="6.64"/>
					<rect x="345.08" y="140.83" class="st26" width="0.39" height="6.64"/>
					<rect x="355.43" y="140.83" class="st26" width="0.39" height="6.64"/>
					<rect x="365.78" y="140.83" class="st26" width="0.39" height="6.64"/>
				</g>
				<g>
					<rect x="314.03" y="150.01" class="st26" width="0.39" height="6.64"/>
					<rect x="324.38" y="150.01" class="st26" width="0.39" height="6.64"/>
					<rect x="334.73" y="150.01" class="st26" width="0.39" height="6.64"/>
					<rect x="345.08" y="150.01" class="st26" width="0.39" height="6.64"/>
					<rect x="355.43" y="150.01" class="st26" width="0.39" height="6.64"/>
					<rect x="365.78" y="150.01" class="st26" width="0.39" height="6.64"/>
				</g>
				<g>
					<rect x="314.03" y="159.19" class="st26" width="0.39" height="6.64"/>
					<rect x="324.38" y="159.19" class="st26" width="0.39" height="6.64"/>
					<rect x="334.73" y="159.19" class="st26" width="0.39" height="6.64"/>
					<rect x="345.08" y="159.19" class="st26" width="0.39" height="6.64"/>
					<rect x="355.43" y="159.19" class="st26" width="0.39" height="6.64"/>
					<rect x="365.78" y="159.19" class="st26" width="0.39" height="6.64"/>
				</g>
				<g>
					<rect x="314.03" y="168.37" class="st26" width="0.39" height="6.64"/>
					<rect x="324.38" y="168.37" class="st26" width="0.39" height="6.64"/>
					<rect x="334.73" y="168.37" class="st26" width="0.39" height="6.64"/>
					<rect x="345.08" y="168.37" class="st26" width="0.39" height="6.64"/>
					<rect x="355.43" y="168.37" class="st26" width="0.39" height="6.64"/>
					<rect x="365.78" y="168.37" class="st26" width="0.39" height="6.64"/>
				</g>
				<g>
					<rect x="314.03" y="177.55" class="st26" width="0.39" height="6.64"/>
					<rect x="324.38" y="177.55" class="st26" width="0.39" height="6.64"/>
					<rect x="334.73" y="177.55" class="st26" width="0.39" height="6.64"/>
					<rect x="345.08" y="177.55" class="st26" width="0.39" height="6.64"/>
					<rect x="355.43" y="177.55" class="st26" width="0.39" height="6.64"/>
					<rect x="365.78" y="177.55" class="st26" width="0.39" height="6.64"/>
				</g>
				<g>
					<rect x="314.03" y="186.73" class="st26" width="0.39" height="6.64"/>
					<rect x="324.38" y="186.73" class="st26" width="0.39" height="6.64"/>
					<rect x="334.73" y="186.73" class="st26" width="0.39" height="6.64"/>
					<rect x="345.08" y="186.73" class="st26" width="0.39" height="6.64"/>
					<rect x="355.43" y="186.73" class="st26" width="0.39" height="6.64"/>
					<rect x="365.78" y="186.73" class="st26" width="0.39" height="6.64"/>
				</g>
				<g>
					<rect x="314.03" y="195.91" class="st26" width="0.39" height="6.64"/>
					<rect x="324.38" y="195.91" class="st26" width="0.39" height="6.64"/>
					<rect x="334.73" y="195.91" class="st26" width="0.39" height="6.64"/>
					<rect x="345.08" y="195.91" class="st26" width="0.39" height="6.64"/>
					<rect x="355.43" y="195.91" class="st26" width="0.39" height="6.64"/>
					<rect x="365.78" y="195.91" class="st26" width="0.39" height="6.64"/>
				</g>
				<g>
					<rect x="314.03" y="205.09" class="st26" width="0.39" height="6.64"/>
					<rect x="324.38" y="205.09" class="st26" width="0.39" height="6.64"/>
					<rect x="334.73" y="205.09" class="st26" width="0.39" height="6.64"/>
					<rect x="345.08" y="205.09" class="st26" width="0.39" height="6.64"/>
					<rect x="355.43" y="205.09" class="st26" width="0.39" height="6.64"/>
					<rect x="365.78" y="205.09" class="st26" width="0.39" height="6.64"/>
				</g>
				<g>
					<rect x="314.03" y="214.27" class="st26" width="0.39" height="6.64"/>
					<rect x="324.38" y="214.27" class="st26" width="0.39" height="6.64"/>
					<rect x="334.73" y="214.27" class="st26" width="0.39" height="6.64"/>
					<rect x="345.08" y="214.27" class="st26" width="0.39" height="6.64"/>
					<rect x="355.43" y="214.27" class="st26" width="0.39" height="6.64"/>
					<rect x="365.78" y="214.27" class="st26" width="0.39" height="6.64"/>
				</g>
				<g>
					<rect x="314.03" y="223.45" class="st26" width="0.39" height="6.64"/>
					<rect x="324.38" y="223.45" class="st26" width="0.39" height="6.64"/>
					<rect x="334.73" y="223.45" class="st26" width="0.39" height="6.64"/>
					<rect x="345.08" y="223.45" class="st26" width="0.39" height="6.64"/>
					<rect x="355.43" y="223.45" class="st26" width="0.39" height="6.64"/>
					<rect x="365.78" y="223.45" class="st26" width="0.39" height="6.64"/>
				</g>
				<g>
					<rect x="314.03" y="232.62" class="st26" width="0.39" height="6.64"/>
					<rect x="324.38" y="232.62" class="st26" width="0.39" height="6.64"/>
					<rect x="334.73" y="232.62" class="st26" width="0.39" height="6.64"/>
					<rect x="345.08" y="232.62" class="st26" width="0.39" height="6.64"/>
					<rect x="355.43" y="232.62" class="st26" width="0.39" height="6.64"/>
					<rect x="365.78" y="232.62" class="st26" width="0.39" height="6.64"/>
				</g>
				<g>
					<rect x="314.03" y="241.8" class="st26" width="0.39" height="6.64"/>
					<rect x="324.38" y="241.8" class="st26" width="0.39" height="6.64"/>
					<rect x="334.73" y="241.8" class="st26" width="0.39" height="6.64"/>
					<rect x="345.08" y="241.8" class="st26" width="0.39" height="6.64"/>
					<rect x="355.43" y="241.8" class="st26" width="0.39" height="6.64"/>
					<rect x="365.78" y="241.8" class="st26" width="0.39" height="6.64"/>
				</g>
				<g>
					<rect x="314.03" y="250.98" class="st26" width="0.39" height="6.64"/>
					<rect x="324.38" y="250.98" class="st26" width="0.39" height="6.64"/>
					<rect x="334.73" y="250.98" class="st26" width="0.39" height="6.64"/>
					<rect x="345.08" y="250.98" class="st26" width="0.39" height="6.64"/>
					<rect x="355.43" y="250.98" class="st26" width="0.39" height="6.64"/>
					<rect x="365.78" y="250.98" class="st26" width="0.39" height="6.64"/>
				</g>
				<g>
					<rect x="314.03" y="260.16" class="st26" width="0.39" height="6.64"/>
					<rect x="324.38" y="260.16" class="st26" width="0.39" height="6.64"/>
					<rect x="334.73" y="260.16" class="st26" width="0.39" height="6.64"/>
					<rect x="345.08" y="260.16" class="st26" width="0.39" height="6.64"/>
					<rect x="355.43" y="260.16" class="st26" width="0.39" height="6.64"/>
					<rect x="365.78" y="260.16" class="st26" width="0.39" height="6.64"/>
				</g>
				<g>
					<rect x="314.03" y="269.34" class="st26" width="0.39" height="6.64"/>
					<rect x="324.38" y="269.34" class="st26" width="0.39" height="6.64"/>
					<rect x="334.73" y="269.34" class="st26" width="0.39" height="6.64"/>
					<rect x="345.08" y="269.34" class="st26" width="0.39" height="6.64"/>
					<rect x="355.43" y="269.34" class="st26" width="0.39" height="6.64"/>
					<rect x="365.78" y="269.34" class="st26" width="0.39" height="6.64"/>
				</g>
				<g>
					<rect x="314.03" y="278.52" class="st26" width="0.39" height="6.64"/>
					<rect x="324.38" y="278.52" class="st26" width="0.39" height="6.64"/>
					<rect x="334.73" y="278.52" class="st26" width="0.39" height="6.64"/>
					<rect x="345.08" y="278.52" class="st26" width="0.39" height="6.64"/>
					<rect x="355.43" y="278.52" class="st26" width="0.39" height="6.64"/>
					<rect x="365.78" y="278.52" class="st26" width="0.39" height="6.64"/>
				</g>
				<g>
					<rect x="314.03" y="287.7" class="st26" width="0.39" height="6.64"/>
					<rect x="324.38" y="287.7" class="st26" width="0.39" height="6.64"/>
					<rect x="334.73" y="287.7" class="st26" width="0.39" height="6.64"/>
					<rect x="345.08" y="287.7" class="st26" width="0.39" height="6.64"/>
					<rect x="355.43" y="287.7" class="st26" width="0.39" height="6.64"/>
					<rect x="365.78" y="287.7" class="st26" width="0.39" height="6.64"/>
				</g>
				<g>
					<rect x="314.03" y="296.88" class="st26" width="0.39" height="6.64"/>
					<rect x="324.38" y="296.88" class="st26" width="0.39" height="6.64"/>
					<rect x="334.73" y="296.88" class="st26" width="0.39" height="6.64"/>
					<rect x="345.08" y="296.88" class="st26" width="0.39" height="6.64"/>
					<rect x="355.43" y="296.88" class="st26" width="0.39" height="6.64"/>
					<rect x="365.78" y="296.88" class="st26" width="0.39" height="6.64"/>
				</g>
				<g>
					<rect x="314.03" y="306.06" class="st26" width="0.39" height="6.64"/>
					<rect x="324.38" y="306.06" class="st26" width="0.39" height="6.64"/>
					<rect x="334.73" y="306.06" class="st26" width="0.39" height="6.64"/>
					<rect x="345.08" y="306.06" class="st26" width="0.39" height="6.64"/>
					<rect x="355.43" y="306.06" class="st26" width="0.39" height="6.64"/>
					<rect x="365.78" y="306.06" class="st26" width="0.39" height="6.64"/>
				</g>
				<g>
					<rect x="314.03" y="315.24" class="st26" width="0.39" height="6.64"/>
					<rect x="324.38" y="315.24" class="st26" width="0.39" height="6.64"/>
					<rect x="334.73" y="315.24" class="st26" width="0.39" height="6.64"/>
					<rect x="345.08" y="315.24" class="st26" width="0.39" height="6.64"/>
					<rect x="355.43" y="315.24" class="st26" width="0.39" height="6.64"/>
					<rect x="365.78" y="315.24" class="st26" width="0.39" height="6.64"/>
				</g>
				<g>
					<rect x="314.03" y="324.42" class="st26" width="0.39" height="6.64"/>
					<rect x="324.38" y="324.42" class="st26" width="0.39" height="6.64"/>
					<rect x="334.73" y="324.42" class="st26" width="0.39" height="6.64"/>
					<rect x="345.08" y="324.42" class="st26" width="0.39" height="6.64"/>
					<rect x="355.43" y="324.42" class="st26" width="0.39" height="6.64"/>
					<rect x="365.78" y="324.42" class="st26" width="0.39" height="6.64"/>
				</g>
				<g>
					<rect x="314.03" y="333.6" class="st26" width="0.39" height="6.64"/>
					<rect x="324.38" y="333.6" class="st26" width="0.39" height="6.64"/>
					<rect x="334.73" y="333.6" class="st26" width="0.39" height="6.64"/>
					<rect x="345.08" y="333.6" class="st26" width="0.39" height="6.64"/>
					<rect x="355.43" y="333.6" class="st26" width="0.39" height="6.64"/>
					<rect x="365.78" y="333.6" class="st26" width="0.39" height="6.64"/>
				</g>
				<g>
					
						<rect x="322.99" y="343.62" transform="matrix(-1 -1.224647e-16 1.224647e-16 -1 669.7404 697.5579)" class="st1" width="23.75" height="10.32"/>
					
						<rect x="321" y="340.55" transform="matrix(-1 -1.224647e-16 1.224647e-16 -1 670.7238 683.733)" class="st26" width="28.72" height="2.64"/>
					
						<rect x="320.13" y="340.55" transform="matrix(-1 -1.224647e-16 1.224647e-16 -1 641.1338 683.733)" class="st27" width="0.87" height="2.64"/>
					
						<rect x="320.75" y="343.19" transform="matrix(-1 -1.224647e-16 1.224647e-16 -1 669.9814 687.2419)" class="st25" width="28.48" height="0.87"/>
					
						<rect x="320.75" y="353.66" transform="matrix(-1 -1.224647e-16 1.224647e-16 -1 669.9814 708.1909)" class="st25" width="28.48" height="0.87"/>
					
						<rect x="346.26" y="343.19" transform="matrix(-1 -1.224647e-16 1.224647e-16 -1 693.4857 697.7164)" class="st25" width="0.97" height="11.34"/>
					<g>
						
							<rect x="347.72" y="343.19" transform="matrix(-1 -1.224647e-16 1.224647e-16 -1 696.9456 697.7164)" class="st25" width="1.52" height="11.34"/>
						
							<rect x="347.23" y="343.19" transform="matrix(-1 -1.224647e-16 1.224647e-16 -1 694.9428 697.7164)" class="st26" width="0.49" height="11.34"/>
					</g>
					
						<rect x="339.58" y="343.19" transform="matrix(-1 -1.224647e-16 1.224647e-16 -1 680.1255 697.7164)" class="st25" width="0.97" height="11.34"/>
					
						<rect x="342.55" y="343.19" transform="matrix(-1 -1.224647e-16 1.224647e-16 -1 686.0701 697.7164)" class="st25" width="0.97" height="11.34"/>
					
						<rect x="335.87" y="343.19" transform="matrix(-1 -1.224647e-16 1.224647e-16 -1 672.7098 697.7164)" class="st25" width="0.97" height="11.34"/>
					
						<rect x="329.19" y="343.19" transform="matrix(-1 -1.224647e-16 1.224647e-16 -1 659.3497 697.7164)" class="st25" width="0.97" height="11.34"/>
					
						<rect x="322.51" y="343.19" transform="matrix(-1 -1.224647e-16 1.224647e-16 -1 645.9895 697.7164)" class="st25" width="0.97" height="11.34"/>
					<g>
						
							<rect x="341.04" y="343.19" transform="matrix(-1 -1.224647e-16 1.224647e-16 -1 683.5854 697.7164)" class="st25" width="1.52" height="11.34"/>
						
							<rect x="340.55" y="343.19" transform="matrix(-1 -1.224647e-16 1.224647e-16 -1 681.5826 697.7164)" class="st26" width="0.49" height="11.34"/>
					</g>
					
						<rect x="332.9" y="343.19" transform="matrix(-1 -1.224647e-16 1.224647e-16 -1 666.7653 697.7164)" class="st25" width="0.97" height="11.34"/>
					<g>
						
							<rect x="334.35" y="343.19" transform="matrix(-1 -1.224647e-16 1.224647e-16 -1 670.2252 697.7164)" class="st25" width="1.52" height="11.34"/>
						
							<rect x="333.87" y="343.19" transform="matrix(-1 -1.224647e-16 1.224647e-16 -1 668.2224 697.7164)" class="st26" width="0.49" height="11.34"/>
					</g>
					
						<rect x="326.22" y="343.19" transform="matrix(-1 -1.224647e-16 1.224647e-16 -1 653.4051 697.7164)" class="st25" width="0.97" height="11.34"/>
					<g>
						
							<rect x="327.67" y="343.19" transform="matrix(-1 -1.224647e-16 1.224647e-16 -1 656.865 697.7164)" class="st25" width="1.52" height="11.34"/>
						
							<rect x="327.19" y="343.19" transform="matrix(-1 -1.224647e-16 1.224647e-16 -1 654.8622 697.7164)" class="st26" width="0.49" height="11.34"/>
					</g>
					<g>
						
							<rect x="320.99" y="343.19" transform="matrix(-1 -1.224647e-16 1.224647e-16 -1 643.5048 697.7164)" class="st25" width="1.52" height="11.34"/>
						
							<rect x="320.51" y="343.19" transform="matrix(-1 -1.224647e-16 1.224647e-16 -1 641.502 697.7164)" class="st26" width="0.49" height="11.34"/>
					</g>
				</g>
			</g>
			
				<rect x="314.6" y="126.48" transform="matrix(-1 -1.224647e-16 1.224647e-16 -1 648.0263 261.4479)" class="st28" width="18.82" height="8.49"/>
			
				<rect x="308.45" y="126.48" transform="matrix(-1 -1.224647e-16 1.224647e-16 -1 623.2299 261.4479)" class="st27" width="6.33" height="8.49"/>
			
				<rect x="325.81" y="132" transform="matrix(-1 -1.224647e-16 1.224647e-16 -1 666.5181 266.966)" class="st26" width="14.9" height="2.97"/>
			
				<rect x="320.94" y="132" transform="matrix(-1 -1.224647e-16 1.224647e-16 -1 646.8849 266.966)" class="st27" width="5.01" height="2.97"/>
		</g>
		<rect x="302.98" y="137.29" class="st25" width="64.33" height="20"/>
		<rect x="330.14" y="135" class="st17" width="8.61" height="17.21"/>
	</g>
	<g>
		<g>
			
				<rect x="384.03" y="222.47" transform="matrix(-1 -4.517199e-11 4.517199e-11 -1 828.2287 577.0005)" class="st29" width="60.16" height="132.06"/>
			
				<rect x="386.56" y="227.85" transform="matrix(-1 -4.482560e-11 4.482560e-11 -1 828.2286 569.8472)" class="st1" width="55.11" height="114.15"/>
			
				<rect x="386.56" y="237.96" transform="matrix(-1 -4.499080e-11 4.499080e-11 -1 828.2286 476.8959)" class="st30" width="55.11" height="0.98"/>
			
				<rect x="386.56" y="249.37" transform="matrix(-1 -4.480917e-11 4.480917e-11 -1 828.2286 499.7214)" class="st30" width="55.11" height="0.98"/>
			
				<rect x="386.56" y="260.78" transform="matrix(-1 -4.462753e-11 4.462753e-11 -1 828.2286 522.5469)" class="st30" width="55.11" height="0.98"/>
			
				<rect x="386.56" y="272.2" transform="matrix(-1 -4.497437e-11 4.497437e-11 -1 828.2286 545.3724)" class="st30" width="55.11" height="0.98"/>
			
				<rect x="386.56" y="283.61" transform="matrix(-1 -4.480917e-11 4.480917e-11 -1 828.2286 568.1979)" class="st30" width="55.11" height="0.98"/>
			
				<rect x="386.56" y="295.02" transform="matrix(-1 -4.462753e-11 4.462753e-11 -1 828.2286 591.0234)" class="st30" width="55.11" height="0.98"/>
			
				<rect x="386.56" y="306.44" transform="matrix(-1 -4.497437e-11 4.497437e-11 -1 828.2286 613.8488)" class="st30" width="55.11" height="0.98"/>
			
				<rect x="386.56" y="317.85" transform="matrix(-1 -4.482560e-11 4.482560e-11 -1 828.2286 636.6743)" class="st30" width="55.11" height="0.98"/>
			
				<rect x="386.56" y="329.26" transform="matrix(-1 -4.461110e-11 4.461110e-11 -1 828.2286 659.4998)" class="st30" width="55.11" height="0.98"/>
			<g>
				<g>
					
						<rect x="434.41" y="226.22" transform="matrix(-1 -4.648694e-11 4.648694e-11 -1 870.7812 573.3525)" class="st29" width="1.96" height="120.91"/>
					
						<rect x="433.84" y="227.85" transform="matrix(-1 -3.506851e-11 3.506851e-11 -1 868.2542 569.8472)" class="st31" width="0.57" height="114.15"/>
				</g>
				<g>
					
						<rect x="426.02" y="226.22" transform="matrix(-1 -5.113522e-11 5.113522e-11 -1 853.9885 560.6479)" class="st29" width="1.96" height="108.21"/>
					
						<rect x="425.45" y="227.85" transform="matrix(-1 -3.506940e-11 3.506940e-11 -1 851.4614 562.2783)" class="st31" width="0.57" height="106.58"/>
				</g>
				<g>
					
						<rect x="417.62" y="226.22" transform="matrix(-1 -5.113566e-11 5.113566e-11 -1 837.1957 561.1848)" class="st29" width="1.96" height="108.74"/>
					
						<rect x="417.05" y="227.85" transform="matrix(-1 -3.506851e-11 3.506851e-11 -1 834.6686 562.8151)" class="st31" width="0.57" height="107.11"/>
				</g>
				<g>
					
						<rect x="409.22" y="226.22" transform="matrix(-1 -4.555701e-11 4.555701e-11 -1 820.4029 561.1848)" class="st29" width="1.96" height="108.74"/>
					
						<rect x="408.65" y="227.85" transform="matrix(-1 -3.506940e-11 3.506940e-11 -1 817.8759 562.8151)" class="st31" width="0.57" height="107.11"/>
				</g>
				<g>
					
						<rect x="400.83" y="226.22" transform="matrix(-1 -4.090873e-11 4.090873e-11 -1 803.6101 560.6479)" class="st29" width="1.96" height="108.21"/>
					
						<rect x="400.26" y="227.85" transform="matrix(-1 -5.100021e-11 5.100021e-11 -1 801.083 562.2783)" class="st31" width="0.57" height="106.58"/>
				</g>
				<g>
					
						<rect x="392.43" y="226.22" transform="matrix(-1 -4.555923e-11 4.555923e-11 -1 786.8172 580.7504)" class="st29" width="1.96" height="128.31"/>
					
						<rect x="391.86" y="227.85" transform="matrix(-1 -7.012536e-11 7.012536e-11 -1 784.2902 569.8472)" class="st31" width="0.57" height="114.15"/>
				</g>
			</g>
			
				<rect x="362.98" y="222.47" transform="matrix(-1 -4.465640e-11 4.465640e-11 -1 747.009 577.0005)" class="st14" width="21.06" height="132.06"/>
			
				<rect x="400.16" y="332.89" transform="matrix(-1 -4.553170e-11 4.553170e-11 -1 828.2114 668.8557)" class="st32" width="27.89" height="3.08"/>
			
				<rect x="400.75" y="335.97" transform="matrix(-1 -4.514268e-11 4.514268e-11 -1 828.1011 689.6302)" class="st33" width="26.59" height="17.69"/>
			
				<rect x="426.41" y="335.97" transform="matrix(-1 -4.252388e-11 4.252388e-11 -1 853.7542 689.6302)" class="st30" width="0.94" height="17.69"/>
			
				<rect x="414.13" y="335.97" transform="matrix(-1 -6.378688e-11 6.378688e-11 -1 829.2083 689.6302)" class="st30" width="0.94" height="17.69"/>
			
				<rect x="413.58" y="323.14" transform="matrix(-5.218866e-11 1 -1 -5.218866e-11 750.4896 -77.6115)" class="st30" width="0.94" height="26.59"/>
			
				<rect x="400.75" y="335.97" transform="matrix(-1 -4.252344e-11 4.252344e-11 -1 802.4479 689.6302)" class="st30" width="0.94" height="17.69"/>
			
				<rect x="399.39" y="332.89" transform="matrix(-1 -4.016177e-11 4.016177e-11 -1 799.5563 668.8557)" class="st14" width="0.77" height="3.08"/>
			
				<rect x="398.4" y="332.89" transform="matrix(-1 -3.779433e-11 3.779433e-11 -1 797.5745 666.2894)" class="st30" width="0.77" height="0.52"/>
			
				<rect x="414.77" y="343.5" transform="matrix(-1 -6.557389e-11 6.557389e-11 -1 830.1494 688.9196)" class="st14" width="0.61" height="1.92"/>
			
				<rect x="399.17" y="332.89" transform="matrix(-1 -4.473678e-11 4.473678e-11 -1 828.0264 666.2894)" class="st31" width="29.68" height="0.52"/>
			
				<rect x="380.12" y="212.69" transform="matrix(-1 -4.559165e-11 4.559165e-11 -1 781.9257 435.1583)" class="st30" width="21.68" height="9.78"/>
			
				<rect x="373.03" y="212.69" transform="matrix(-1 -4.512491e-11 4.512491e-11 -1 753.3531 435.1583)" class="st14" width="7.3" height="9.78"/>
			
				<rect x="426.02" y="336.91" transform="matrix(-1 -5.123203e-11 5.123203e-11 -1 852.4225 690.5712)" class="st14" width="0.39" height="16.75"/>
			
				<rect x="413.76" y="336.91" transform="matrix(-1 -1.224647e-16 1.224647e-16 -1 827.9158 690.5712)" class="st14" width="0.39" height="16.75"/>
			
				<rect x="412.63" y="336.91" transform="matrix(-1 -5.124624e-11 5.124624e-11 -1 825.6432 690.5712)" class="st14" width="0.39" height="16.75"/>
			
				<rect x="400.36" y="335.97" transform="matrix(-1 -5.123514e-11 5.123514e-11 -1 801.1163 689.6302)" class="st14" width="0.39" height="17.69"/>
			
				<rect x="413.02" y="335.97" transform="matrix(-1 -4.252388e-11 4.252388e-11 -1 826.9747 689.6302)" class="st30" width="0.94" height="17.69"/>
			
				<rect x="412.71" y="343.5" transform="matrix(-1 -6.557389e-11 6.557389e-11 -1 826.0338 688.9196)" class="st14" width="0.61" height="1.92"/>
		</g>
		<rect x="385.26" y="225.45" class="st29" width="57.76" height="24.42"/>
		<rect x="409.16" y="222.43" class="st17" width="9.62" height="19.23"/>
	</g>
	<g>
		<g>
			<rect x="233.71" y="234.21" class="st34" width="56.14" height="120.32"/>
			<rect x="217.45" y="234.21" class="st30" width="18.08" height="120.32"/>
			<rect x="239.1" y="238.17" class="st1" width="45.35" height="97.78"/>
			<g>
				<rect x="237.12" y="244.76" class="st34" width="49.84" height="2.37"/>
				<rect x="237.12" y="253.73" class="st34" width="49.84" height="2.37"/>
				<rect x="237.12" y="262.7" class="st34" width="49.84" height="2.37"/>
				<rect x="237.12" y="271.67" class="st34" width="49.84" height="2.37"/>
				<rect x="237.12" y="280.64" class="st34" width="49.84" height="2.37"/>
				<rect x="237.12" y="289.6" class="st34" width="49.84" height="2.37"/>
				<rect x="237.12" y="298.57" class="st34" width="49.84" height="2.37"/>
				<rect x="237.12" y="307.54" class="st34" width="49.84" height="2.37"/>
				<rect x="237.12" y="316.51" class="st34" width="49.84" height="2.37"/>
				<rect x="237.12" y="325.48" class="st34" width="49.84" height="2.37"/>
				<rect x="237.12" y="334.44" class="st34" width="49.84" height="2.37"/>
			</g>
			<rect x="245.89" y="237" class="st34" width="1.44" height="104.28"/>
			<rect x="253.61" y="237" class="st34" width="1.44" height="104.28"/>
			<rect x="261.32" y="237" class="st34" width="1.44" height="104.28"/>
			<rect x="269.03" y="237" class="st34" width="1.44" height="104.28"/>
			<rect x="276.74" y="237" class="st34" width="1.44" height="104.28"/>
			<rect x="245.34" y="238.17" class="st14" width="0.55" height="6.6"/>
			<rect x="253.05" y="238.17" class="st14" width="0.55" height="6.6"/>
			<rect x="260.76" y="238.17" class="st14" width="0.55" height="6.6"/>
			<rect x="268.48" y="238.17" class="st14" width="0.55" height="6.6"/>
			<rect x="276.19" y="238.17" class="st14" width="0.55" height="6.6"/>
			<rect x="283.9" y="238.17" class="st14" width="0.55" height="6.6"/>
			<rect x="245.34" y="247.13" class="st14" width="0.55" height="6.6"/>
			<rect x="253.05" y="247.13" class="st14" width="0.55" height="6.6"/>
			<rect x="260.76" y="247.13" class="st14" width="0.55" height="6.6"/>
			<rect x="268.48" y="247.13" class="st14" width="0.55" height="6.6"/>
			<rect x="276.19" y="247.13" class="st14" width="0.55" height="6.6"/>
			<rect x="283.9" y="247.13" class="st14" width="0.55" height="6.6"/>
			<rect x="245.34" y="256.1" class="st14" width="0.55" height="6.6"/>
			<rect x="253.05" y="256.1" class="st14" width="0.55" height="6.6"/>
			<rect x="260.76" y="256.1" class="st14" width="0.55" height="6.6"/>
			<rect x="268.48" y="256.1" class="st14" width="0.55" height="6.6"/>
			<rect x="276.19" y="256.1" class="st14" width="0.55" height="6.6"/>
			<rect x="283.9" y="256.1" class="st14" width="0.55" height="6.6"/>
			<rect x="245.34" y="265.07" class="st14" width="0.55" height="6.6"/>
			<rect x="253.05" y="265.07" class="st14" width="0.55" height="6.6"/>
			<rect x="260.76" y="265.07" class="st14" width="0.55" height="6.6"/>
			<rect x="268.48" y="265.07" class="st14" width="0.55" height="6.6"/>
			<rect x="276.19" y="265.07" class="st14" width="0.55" height="6.6"/>
			<rect x="283.9" y="265.07" class="st14" width="0.55" height="6.6"/>
			<rect x="245.34" y="274.04" class="st14" width="0.55" height="6.6"/>
			<rect x="253.05" y="274.04" class="st14" width="0.55" height="6.6"/>
			<rect x="260.76" y="274.04" class="st14" width="0.55" height="6.6"/>
			<rect x="268.48" y="274.04" class="st14" width="0.55" height="6.6"/>
			<rect x="276.19" y="274.04" class="st14" width="0.55" height="6.6"/>
			<rect x="283.9" y="274.04" class="st14" width="0.55" height="6.6"/>
			<rect x="245.34" y="283.01" class="st14" width="0.55" height="6.6"/>
			<rect x="253.05" y="283.01" class="st14" width="0.55" height="6.6"/>
			<rect x="260.76" y="283.01" class="st14" width="0.55" height="6.6"/>
			<rect x="268.48" y="283.01" class="st14" width="0.55" height="6.6"/>
			<rect x="276.19" y="283.01" class="st14" width="0.55" height="6.6"/>
			<rect x="283.9" y="283.01" class="st14" width="0.55" height="6.6"/>
			<rect x="245.34" y="291.97" class="st14" width="0.55" height="6.6"/>
			<rect x="253.05" y="291.97" class="st14" width="0.55" height="6.6"/>
			<rect x="260.76" y="291.97" class="st14" width="0.55" height="6.6"/>
			<rect x="268.48" y="291.97" class="st14" width="0.55" height="6.6"/>
			<rect x="276.19" y="291.97" class="st14" width="0.55" height="6.6"/>
			<rect x="283.9" y="291.97" class="st14" width="0.55" height="6.6"/>
			<rect x="245.34" y="300.94" class="st14" width="0.55" height="6.6"/>
			<rect x="253.05" y="300.94" class="st14" width="0.55" height="6.6"/>
			<rect x="260.76" y="300.94" class="st14" width="0.55" height="6.6"/>
			<rect x="268.48" y="300.94" class="st14" width="0.55" height="6.6"/>
			<rect x="276.19" y="300.94" class="st14" width="0.55" height="6.6"/>
			<rect x="283.9" y="300.94" class="st14" width="0.55" height="6.6"/>
			<rect x="245.34" y="309.91" class="st14" width="0.55" height="6.6"/>
			<rect x="253.05" y="309.91" class="st14" width="0.55" height="6.6"/>
			<rect x="260.76" y="309.91" class="st14" width="0.55" height="6.6"/>
			<rect x="268.48" y="309.91" class="st14" width="0.55" height="6.6"/>
			<rect x="276.19" y="309.91" class="st14" width="0.55" height="6.6"/>
			<rect x="283.9" y="309.91" class="st14" width="0.55" height="6.6"/>
			<rect x="245.34" y="318.88" class="st14" width="0.55" height="6.6"/>
			<rect x="253.05" y="318.88" class="st14" width="0.55" height="6.6"/>
			<rect x="260.76" y="318.88" class="st14" width="0.55" height="6.6"/>
			<rect x="268.48" y="318.88" class="st14" width="0.55" height="6.6"/>
			<rect x="276.19" y="318.88" class="st14" width="0.55" height="6.6"/>
			<rect x="283.9" y="318.88" class="st14" width="0.55" height="6.6"/>
			<rect x="245.34" y="327.85" class="st14" width="0.55" height="6.6"/>
			<rect x="253.05" y="327.85" class="st14" width="0.55" height="6.6"/>
			<rect x="260.76" y="327.85" class="st14" width="0.55" height="6.6"/>
			<rect x="268.48" y="327.85" class="st14" width="0.55" height="6.6"/>
			<rect x="276.19" y="327.85" class="st14" width="0.55" height="6.6"/>
			<rect x="283.9" y="327.85" class="st14" width="0.55" height="6.6"/>
			<path class="st30" d="M235.92,235.83h-18.07c-0.89,0-1.62-0.73-1.62-1.62l0,0h21.31l0,0
				C237.54,235.1,236.82,235.83,235.92,235.83z"/>
			<path class="st30" d="M289.85,235.83h-54.16c-0.89,0-1.62-0.73-1.62-1.62l0,0h57.4l0,0C291.47,235.1,290.74,235.83,289.85,235.83
				z"/>
			<rect x="248.29" y="341.59" class="st1" width="28.92" height="12.94"/>
			<rect x="248.29" y="341.59" class="st30" width="0.72" height="12.94"/>
			<rect x="257.7" y="341.59" class="st30" width="0.72" height="12.94"/>
			<rect x="267.1" y="341.59" class="st30" width="0.72" height="12.94"/>
			<rect x="276.5" y="341.59" class="st30" width="0.72" height="12.94"/>
			<rect x="247.97" y="340.64" class="st14" width="29.57" height="1.26"/>
			<rect x="253.03" y="340.64" class="st30" width="29.57" height="1.26"/>
			<rect x="248.29" y="336.81" class="st14" width="28.92" height="3.11"/>
			<rect x="247.97" y="341.9" class="st14" width="0.32" height="12.63"/>
			<rect x="257.36" y="341.9" class="st14" width="0.32" height="12.63"/>
			<rect x="266.77" y="341.9" class="st14" width="0.32" height="12.63"/>
			<rect x="276.18" y="341.9" class="st14" width="0.32" height="12.63"/>
		</g>
		<rect x="238.04" y="237.71" class="st34" width="47.99" height="16.87"/>
		<rect x="257.52" y="235.81" class="st17" width="7.82" height="15.65"/>
	</g>
	<g>
		<defs>
			<rect id="SVGID_00000000183715996803232670000000527945725924993451_" x="38.37" y="226.69" width="235.39" height="183.29"/>
		</defs>
		<clipPath id="SVGID_00000017507600192267178500000004417286579226540932_">
			<use xlink:href="#SVGID_00000000183715996803232670000000527945725924993451_"  style="overflow:visible;"/>
		</clipPath>
		<g style="clip-path:url(#SVGID_00000017507600192267178500000004417286579226540932_);">
			<g>
				<g>
					<path class="st36" d="M223.96,393.33l-3.38-10.01c0,0-15.62,0.74-18.55,0.97c-3.82,0.3-12.44,1.16-17.17,2.65
						c0,0-9.89,6.5-8.79,10.49c0.48,1.68,0.85,3.2,5.22,3.92c3.79,0.63,12.15,0.13,16.65-1.13
						C202.44,398.95,223.96,393.33,223.96,393.33z"/>
					<path class="st36" d="M248.15,375.68c-0.39,1.63-6.51,12.57-7.14,12.65c-0.64,0.09-17.05,4.99-17.05,4.99l-4.93-9.98
						c0,0,3.26-8.42,5.24-10.34c1.67-1.62,11.28-7.75,11.94-8.15c1.18-0.72,1.87,2.67,1.4,3.44c-0.47,0.77-7.05,6.31-7.05,6.31
						s14.34-3.84,15.88-3.32C247.97,371.82,249.18,371.23,248.15,375.68z"/>
				</g>
				<g>
				</g>
				<path class="st36" d="M96.25,389c-1.46-12.19-4.56-29.18-8.47-39.26c-3.91-10.08-6.64-26.25-4.77-27.42
					c3.25-2.04,6.12-2.51,11.38-3.86c5.26-1.35,16.9-7.49,16.99-8.12c0.26-1.88,0-12.03,0-12.03h9.89h0.85h0.85h9.89
					c0,0-0.27,10.15,0,12.03c0.09,0.63,11.73,6.77,16.99,8.12c5.26,1.35,7.83,1.76,11.4,3.89c1.9,1.13-0.87,17.32-4.78,27.4
					c-3.91,10.08-7,27.07-8.47,39.26c-1.17,9.78-1.74,12.08,3.05,22.48c4.52,9.77,6.28,14.16,6.28,14.16s-21.75,3.31-35.21,3.36
					c-13.47-0.05-35.22-3.36-35.22-3.36s1.77-4.39,6.28-14.16C98,401.08,97.43,398.78,96.25,389z"/>
				<path class="st36" d="M131.75,257.11c-2.45-1.8-6.11-2.66-9.59-2.65c-3.5-0.01-7.16,0.85-9.61,2.65
					c-8.06,5.95-7.83,16.55-6.36,27.88c1.62,12.41,6.53,15.6,8.9,17.12c1.98,1.27,3.96,2.26,7.07,2.28
					c3.05-0.04,5.07-1.01,7.05-2.28c2.36-1.52,7.29-4.72,8.9-17.12C139.58,273.66,139.82,263.06,131.75,257.11z"/>
				<path class="st36" d="M105.93,289.39c0,0-2.09-3.12-2.23-3.72c-0.14-0.6-1.49-6.51-1.03-7.54c0.46-1.03,1.35-1.65,2.12-0.3
					c0.78,1.34,0.78,1.34,0.78,1.34s0.19,2.96,0.59,5.57C106.56,287.35,107.45,290.66,105.93,289.39z"/>
				<path class="st36" d="M138.37,289.39c0,0,2.09-3.12,2.22-3.72c0.14-0.6,1.49-6.51,1.04-7.54c-0.47-1.03-1.35-1.65-2.13-0.3
					c-0.78,1.34-0.78,1.34-0.78,1.34s-0.19,2.96-0.59,5.57C137.75,287.35,136.85,290.66,138.37,289.39z"/>
				<path class="st40" d="M138.39,282.86c0,0,2.74-6.96,3.21-11.7c0.57-5.74-0.07-13.47-6.03-17.93
					c-4.65-3.47-10.52-4.34-16.64-3.95c-9.04,0.57-13.99,6.99-15.51,12.62c-2.17,8.05,2.45,20.96,2.45,20.96s1.22-13.25,5.39-16.74
					c4.17-3.49,15.42-8.92,15.42-8.92s2.7,3.02,6,6.33C135.98,266.82,138.53,274.46,138.39,282.86z"/>
				<path class="st41" d="M106.66,288.02c0,0-4.32-9.31-2.3-14.55c3.16-8.18,5.63-10.22,10.15-13.02c4.52-2.8,12.23-4.07,12.23-4.07
					s0.95,1.71-5.8,8.1c-6.74,6.39-12.09,10.27-13.25,14.8C106.68,283.28,106.66,288.02,106.66,288.02z"/>
				<path class="st43" d="M176.8,399.08c-1.28-2.12-11.22-27.27-15.25-36.26c-4.04-8.99-16.05-44.52-12.35-44.87
					c5.61-0.52,15.03,1.54,19.06,12.57c1.52,4.13,4.51,12.63,6.28,18.05c3.22,9.79,10.19,25.38,11.38,28.15
					c1.52,3.52,1.67,4.02,3.33,8.38C190.91,389.48,178.09,401.2,176.8,399.08z"/>
				<path class="st43" d="M87.6,403.06c0.6-2.4,1.43-27.96,2.64-37.74c1.22-9.78,2.25-47.27-1.39-46.52
					c-5.52,1.15-13.91,5.89-14.52,17.62c-0.23,4.39-0.59,13.39-0.7,19.1c-0.2,10.31-1.24,29.99-1.57,32.99
					c-0.41,3.81-0.41,4.33-0.71,8.99C71.05,402.17,86.99,405.47,87.6,403.06z"/>
				<path class="st44" d="M93.81,389.71c-1.48-12.34-2.28-30.44-6.23-40.65c-3.96-10.2-6.73-26.58-4.83-27.77
					c3.29-2.07,6.2-2.54,11.53-3.91c5.33-1.37,50.84-1.37,56.17,0c5.33,1.37,7.93,1.78,11.55,3.94c1.93,1.14-0.88,17.54-4.85,27.75
					c-3.96,10.21-3.93,27.64-5.41,39.98c-1.19,9.91-1.77,12.23,3.09,22.77c4.57,9.9,6.36,14.34,6.36,14.34s-25.19,3.13-38.83,3.18
					c-13.64-0.05-38.01-2.52-38.01-2.52s1.79-4.44,6.36-14.34C95.58,401.95,95,399.62,93.81,389.71z"/>
				<g>
					<path class="st36" d="M84.69,439.86l9.51-4.59c0,0-2.66-15.41-3.24-18.29c-0.77-3.75-2.68-12.2-4.74-16.71
						c0,0-7.67-9.02-11.49-7.43c-1.61,0.68-3.07,1.24-3.25,5.66c-0.16,3.83,1.37,12.08,3.17,16.39
						C76.46,419.2,84.69,439.86,84.69,439.86z"/>
				</g>
				<path class="st36" d="M145.88,319.7c0,10.79-10.25,19.55-22.88,19.55s-22.88-8.08-22.88-18.87S145.88,308.9,145.88,319.7z"/>
				<path class="st40" d="M108.93,295.13c0,0-11.9,5.94-10.45,21.02c1.87,19.37,20.09,17.37,20.09,17.37s-4.04-1.39-6.03-7.03
					c-2.5-7.09-1.08-10.94-1.09-13.39c-0.01-1.99,0.17-3.25,0.17-3.25l-0.09-10.71C111.52,299.14,109.56,296.56,108.93,295.13z"/>
				<path class="st43" d="M220.57,395.95l-3.5-14c0,0-12.11,2.11-15.04,2.34c-3.82,0.3-12.44,1.16-17.17,2.65
					c0,0-9.89,6.5-8.79,10.49c0.48,1.68,0.85,3.2,5.22,3.92c3.79,0.63,12.15,0.13,16.65-1.13
					C202.44,398.95,220.57,395.95,220.57,395.95z"/>
				<g>
					<path class="st43" d="M82.43,440.6l12.66-7.83c0,0-2.42-9.29-3-12.16c-0.77-3.75-3.83-14.5-4.5-20.83c0,0-9.17-11.92-13-10.33
						c-1.61,0.68-3.15,5.08-3.33,9.5c-0.16,3.83,1.57,11.63,3.38,15.94C76.46,419.2,82.43,440.6,82.43,440.6z"/>
				</g>
			</g>
			<g>
				<g>
					<path class="st1" d="M233.29,347.28l-2.6,50.52c-0.13,2.69,0.79,3.43,2.87,3.53l33.02-4.69c2.08,0.1,3.22-1.55,3.32-3.66
						l2.5-50.08c0.11-2.11-0.72-3.86-2.8-3.97l-32.47,4.72C235.06,343.54,233.4,345.17,233.29,347.28z"/>
				</g>
			</g>
			<polygon class="st45" points="234.48,384.45 234.43,384.09 266.91,379.66 266.96,380.02 			"/>
			<polygon class="st45" points="234.48,386.67 234.43,386.3 266.91,381.87 266.96,382.24 			"/>
			<polygon class="st45" points="235.96,362.31 235.91,361.94 268.39,357.51 268.44,357.88 			"/>
			<polygon class="st45" points="235.96,355.66 235.91,355.3 268.39,350.87 268.44,351.24 			"/>
			<polygon class="st45" points="235.96,357.88 235.91,357.51 268.39,353.08 268.44,353.45 			"/>
			<polygon class="st45" points="235.96,360.09 235.91,359.73 268.39,355.3 268.44,355.66 			"/>
			<polygon class="st45" points="234.48,391.1 234.43,390.73 266.91,386.3 266.96,386.67 			"/>
			<polygon class="st45" points="234.48,393.31 234.43,392.94 266.91,388.52 266.96,388.88 			"/>
			<polygon class="st45" points="234.48,380.02 234.43,379.66 266.91,375.23 266.96,375.59 			"/>
			<polygon class="st45" points="234.48,382.24 234.43,381.87 266.91,377.44 266.96,377.81 			"/>
			<polygon class="st45" points="234.48,395.52 234.43,395.16 266.91,390.73 266.96,391.1 			"/>
			<polygon class="st45" points="235.22,371.9 235.17,371.54 267.65,367.11 267.7,367.47 			"/>
			<polygon class="st45" points="235.22,367.47 235.17,367.11 267.65,362.68 267.7,363.05 			"/>
			<polygon class="st45" points="235.22,369.69 235.17,369.32 267.65,364.89 267.7,365.26 			"/>
			<path class="st36" d="M225.56,371.91c1.68-1.6,11.3-7.67,11.96-8.06c1.18-0.71,5.57,0.27-5.69,9.62
				C231.83,373.46,223.57,373.81,225.56,371.91z"/>
			<polygon class="st45" points="235.22,374.86 235.17,374.49 267.65,370.06 267.7,370.43 			"/>
			<polygon class="st45" points="235.22,377.07 235.17,376.71 267.65,372.28 267.7,372.64 			"/>
		</g>
	</g>
	<g>
		<g>
			<circle class="st2" cx="254.39" cy="191.63" r="21.49"/>
			<path class="st1" d="M266.11,188.28c0.62-0.37,1.01-0.82,1.12-1.04c0.23-0.46,0.08-1.25-0.8-1.4c-0.39-0.07-1.12,0-1.77,0.08
				c-0.5-1.59-1.38-4.17-1.89-4.64c-0.69-0.63-3.09-0.94-8.37-0.94c-5.27,0-7.68,0.31-8.37,0.94c-0.51,0.47-1.39,3.05-1.89,4.64
				c-0.65-0.08-1.39-0.14-1.77-0.08c-0.88,0.15-1.03,0.94-0.8,1.4c0.11,0.22,0.5,0.67,1.12,1.04c-1.01,1.19-1.3,2.22-1.3,4.14v5.24
				c0,0,0,1.53,0.24,2.56c0.09,0.37,0.48,0.64,0.94,0.64h3.37c0.45,0,0.85-0.26,0.94-0.64c0.14-0.57,0.2-1.3,0.22-1.83l-3.19-0.56
				c-0.17-0.05-0.14-0.14-0.13-0.17h21.27c0.01,0.03,0.04,0.12-0.13,0.17l-3.19,0.56c0.02,0.53,0.09,1.26,0.22,1.83
				c0.09,0.37,0.48,0.64,0.94,0.64h3.37c0.45,0,0.85-0.26,0.93-0.64c0.25-1.02,0.25-2.56,0.25-2.56v-5.24
				C267.42,190.5,267.12,189.47,266.11,188.28z M247.57,182.5L247.57,182.5c0.31-0.13,2.55-0.36,6.82-0.36
				c4.28,0,6.52,0.23,6.83,0.36c0.3,0.45,1.27,3.37,1.55,4.55c-1.52,0.37-4.99,0.62-8.37,0.62c-3.38,0-6.85-0.25-8.37-0.62
				C246.3,185.87,247.27,182.95,247.57,182.5z M248.4,194.34l-3.06-0.21c-0.35-0.02-0.69-0.16-0.96-0.39
				c-0.27-0.23-0.46-0.54-0.53-0.89l-0.13-0.77c-0.08-0.48,0.48-0.88,1.03-0.75l2.48,0.6c0.54,0.18,0.95,0.55,1.12,1.02l0.34,1.1
				C248.73,194.21,248.58,194.36,248.4,194.34z M257.52,196.29h-6.25v-1.37h6.25V196.29z M265.08,192.08l-0.13,0.77
				c-0.08,0.35-0.26,0.66-0.53,0.89c-0.27,0.23-0.61,0.37-0.96,0.39l-3.06,0.21c-0.19,0.01-0.34-0.13-0.29-0.28l0.34-1.1
				c0.17-0.46,0.58-0.83,1.12-1.02l2.48-0.6C264.6,191.2,265.16,191.61,265.08,192.08z"/>
		</g>
		<polygon class="st2" points="247.73,209.7 254.39,209.7 261.06,209.7 254.39,222.17 		"/>
	</g>
	<g>
		<g>
			<rect x="740.32" y="132.8" class="st16" width="85.81" height="221.86"/>
			<rect x="743" y="138.72" class="st1" width="80.45" height="202.41"/>
			<rect x="736.34" y="134.86" class="st16" width="92.05" height="3.86"/>
			<rect x="736.34" y="146.8" class="st16" width="92.05" height="3.86"/>
			<rect x="736.34" y="158.75" class="st16" width="92.05" height="3.86"/>
			<rect x="736.34" y="170.69" class="st16" width="92.05" height="3.86"/>
			<rect x="736.34" y="182.64" class="st16" width="92.05" height="3.86"/>
			<rect x="736.34" y="194.59" class="st16" width="92.05" height="3.86"/>
			<rect x="736.34" y="206.53" class="st16" width="92.05" height="3.86"/>
			<rect x="736.34" y="218.48" class="st16" width="92.05" height="3.86"/>
			<rect x="736.34" y="230.42" class="st16" width="92.05" height="3.86"/>
			<rect x="736.34" y="242.37" class="st16" width="92.05" height="3.86"/>
			<rect x="736.34" y="254.31" class="st16" width="92.05" height="3.86"/>
			<rect x="736.34" y="266.26" class="st16" width="92.05" height="3.86"/>
			<rect x="736.34" y="278.2" class="st16" width="92.05" height="3.86"/>
			<rect x="736.34" y="290.15" class="st16" width="92.05" height="3.86"/>
			<rect x="736.34" y="302.1" class="st16" width="92.05" height="3.86"/>
			<rect x="736.34" y="314.04" class="st16" width="92.05" height="3.86"/>
			<rect x="736.34" y="325.99" class="st16" width="92.05" height="3.86"/>
			<rect x="736.34" y="337.93" class="st16" width="92.05" height="3.86"/>
			<g>
				<rect x="752.98" y="132.8" class="st25" width="8.48" height="221.86"/>
				<rect x="760.98" y="132.8" class="st27" width="1.22" height="221.86"/>
			</g>
			<g>
				<rect x="736.34" y="132.8" class="st25" width="8.48" height="221.86"/>
				<rect x="744.34" y="132.8" class="st27" width="1.22" height="221.86"/>
			</g>
			<g>
				<rect x="769.62" y="132.8" class="st25" width="8.48" height="205.13"/>
				<rect x="777.62" y="132.8" class="st27" width="1.22" height="205.13"/>
			</g>
			<g>
				<rect x="786.26" y="132.8" class="st25" width="8.48" height="205.13"/>
				<rect x="794.26" y="132.8" class="st27" width="1.22" height="205.13"/>
			</g>
			<g>
				<rect x="819.54" y="132.8" class="st25" width="8.48" height="221.86"/>
				<rect x="828.02" y="132.8" class="st27" width="25.51" height="221.86"/>
			</g>
			<g>
				<rect x="802.9" y="132.8" class="st25" width="8.48" height="221.86"/>
				<rect x="810.9" y="132.8" class="st27" width="1.22" height="221.86"/>
			</g>
			<g>
				<rect x="745.56" y="132.8" class="st16" width="1.19" height="208.34"/>
				<rect x="751.79" y="132.8" class="st16" width="1.19" height="208.34"/>
			</g>
			<g>
				<rect x="762.2" y="132.8" class="st16" width="1.19" height="208.34"/>
				<rect x="768.43" y="132.8" class="st16" width="1.19" height="208.34"/>
			</g>
			<g>
				<rect x="778.84" y="132.8" class="st16" width="1.19" height="208.34"/>
				<rect x="785.07" y="132.8" class="st16" width="1.19" height="208.34"/>
			</g>
			<g>
				<rect x="795.48" y="132.8" class="st16" width="1.19" height="208.34"/>
				<rect x="801.71" y="132.8" class="st16" width="1.19" height="208.34"/>
			</g>
			<g>
				<rect x="812.12" y="132.8" class="st16" width="1.19" height="208.34"/>
				<rect x="818.35" y="132.8" class="st16" width="1.19" height="208.34"/>
			</g>
			<rect x="735.13" y="129.72" class="st28" width="95.35" height="5.14"/>
			<rect x="830.47" y="129.72" class="st46" width="25.82" height="5.14"/>
			<g>
				<rect x="792.29" y="120.99" class="st16" width="30.49" height="8.73"/>
				<rect x="822.78" y="120.99" class="st25" width="9.08" height="8.73"/>
				<rect x="792.29" y="122.19" class="st47" width="39.57" height="0.94"/>
				<rect x="792.29" y="124.88" class="st47" width="39.57" height="0.94"/>
				<rect x="792.29" y="127.57" class="st47" width="39.57" height="0.94"/>
			</g>
			<rect x="771.29" y="126.2" class="st25" width="3.73" height="3.52"/>
			<rect x="775.02" y="126.2" class="st27" width="1.87" height="3.52"/>
			<rect x="813.94" y="126.2" class="st25" width="3.73" height="3.52"/>
			<rect x="817.67" y="126.2" class="st27" width="1.87" height="3.52"/>
			<g>
				<rect x="766.7" y="333.6" class="st48" width="31.69" height="20.28"/>
				<rect x="762.73" y="329.49" class="st27" width="38.33" height="3.52"/>
				<rect x="801.05" y="329.49" class="st46" width="1.16" height="3.52"/>
				<rect x="763.38" y="333.02" class="st25" width="38" height="1.16"/>
				<rect x="763.38" y="353.5" class="st25" width="38" height="1.16"/>
				<rect x="766.06" y="333.02" class="st25" width="1.29" height="21.65"/>
				<g>
					<rect x="763.38" y="333.02" class="st49" width="2.02" height="21.65"/>
					<rect x="765.41" y="333.02" class="st27" width="0.65" height="21.65"/>
				</g>
				<rect x="774.97" y="333.02" class="st25" width="1.29" height="21.65"/>
				<rect x="771" y="333.02" class="st25" width="1.29" height="21.65"/>
				<rect x="779.92" y="333.02" class="st25" width="1.29" height="21.65"/>
				<rect x="788.83" y="333.02" class="st25" width="1.29" height="21.65"/>
				<rect x="797.75" y="333.02" class="st25" width="1.29" height="21.65"/>
				<g>
					<rect x="772.3" y="333.02" class="st49" width="2.02" height="21.65"/>
					<rect x="774.32" y="333.02" class="st27" width="0.65" height="21.65"/>
				</g>
				<rect x="783.88" y="333.02" class="st25" width="1.29" height="21.65"/>
				<g>
					<rect x="781.21" y="333.02" class="st49" width="2.02" height="21.65"/>
					<rect x="783.23" y="333.02" class="st27" width="0.65" height="21.65"/>
				</g>
				<rect x="792.8" y="333.02" class="st25" width="1.29" height="21.65"/>
				<g>
					<rect x="790.13" y="333.02" class="st49" width="2.02" height="21.65"/>
					<rect x="792.15" y="333.02" class="st27" width="0.65" height="21.65"/>
				</g>
				<g>
					<rect x="799.04" y="333.02" class="st49" width="2.02" height="21.65"/>
					<rect x="801.06" y="333.02" class="st27" width="0.65" height="21.65"/>
				</g>
			</g>
		</g>
		<rect x="736.53" y="134.81" class="st25" width="91.35" height="26.23"/>
		<rect x="777" y="134.8" class="st17" width="9.62" height="19.23"/>
	</g>
	<g>
		<defs>
			<rect id="SVGID_00000045611829537010837270000016776052429887723428_" x="456.54" y="195.44" width="348.07" height="214.13"/>
		</defs>
		<clipPath id="SVGID_00000148620131865234664750000017090480273651203977_">
			<use xlink:href="#SVGID_00000045611829537010837270000016776052429887723428_"  style="overflow:visible;"/>
		</clipPath>
		<g style="clip-path:url(#SVGID_00000148620131865234664750000017090480273651203977_);">
			<g>
				<polygon class="st51" points="802.19,381.77 802.19,369.77 473.26,369.77 472.96,381.77 				"/>
				<g>
					<g>
						<g>
							<path class="st52" d="M657.11,368.48l-1.16-2.65c-1.38-1.35-9.3-5.62-9.3-5.62l-0.04,0l-1.95-17.22l-20.78-0.18l-2.24,17.38
								l-0.04,0c0,0-8,4.33-9.4,5.67l-1.2,2.63c-0.49,0.46,0,1.27,0.77,1.27l44.55-0.03C657.09,369.75,657.59,368.95,657.11,368.48"
								/>
						</g>
						<g>
							<polygon class="st53" points="645.74,352.56 634.22,350.23 622.66,352.35 621.81,358.9 646.46,358.91 							"/>
						</g>
					</g>
					<g>
						<g>
							<path class="st52" d="M707.78,354.86H560.32c-1.96,0-3.56-1.59-3.56-3.56v-91.63c0-1.97,1.59-3.56,3.56-3.56h147.46
								c1.97,0,3.56,1.59,3.56,3.56v91.63C711.34,353.27,709.75,354.86,707.78,354.86z"/>
						</g>
						<g>
							<rect x="561.45" y="261.36" class="st1" width="145.25" height="88.27"/>
						</g>
						<g>
							<g>
								<polygon class="st1" points="601.19,261.03 706.61,261.03 706.61,349.34 601.19,349.34 561.45,349.34 561.45,261.03 
																	"/>
							</g>
							<g>
								<polygon class="st54" points="601.19,282.12 706.61,282.12 706.61,291.41 601.19,291.41 561.45,291.41 561.45,282.12 
																	"/>
							</g>
							<g>
								<polygon class="st55" points="601.19,291.41 706.61,291.41 706.61,311.9 601.19,311.9 561.45,311.9 561.45,291.41 								
									"/>
							</g>
							<g>
								<polygon class="st56" points="631.92,261.03 636.65,261.03 636.65,272.19 631.92,272.19 630.14,272.19 630.14,261.03 
																	"/>
							</g>
							<rect x="581.47" y="320.43" class="st57" width="23.59" height="1.94"/>
							<rect x="581.47" y="325.37" class="st57" width="19.48" height="1.94"/>
							<rect x="581.47" y="330.32" class="st57" width="24.6" height="1.94"/>
							<rect x="581.47" y="335.27" class="st57" width="14.28" height="1.94"/>
							<rect x="661.56" y="320.43" class="st57" width="23.59" height="1.94"/>
							<rect x="661.56" y="325.37" class="st13" width="19.48" height="1.94"/>
							<rect x="661.56" y="330.32" class="st13" width="24.6" height="1.94"/>
							<rect x="661.56" y="335.27" class="st13" width="14.28" height="1.94"/>
							<rect x="619.57" y="320.43" class="st57" width="25.56" height="1.94"/>
							<rect x="619.57" y="325.37" class="st57" width="26.69" height="1.94"/>
							<rect x="619.57" y="330.32" class="st57" width="21.14" height="1.94"/>
							<rect x="619.57" y="335.27" class="st57" width="26.69" height="1.94"/>
							<g>
								<path class="st43" d="M693.84,335.69h-34.3c-1.26,0-2.29-1.03-2.29-2.29v-11.22c0-1.26,1.03-2.29,2.29-2.29h34.3
									c1.26,0,2.29,1.03,2.29,2.29v11.22C696.13,334.66,695.1,335.69,693.84,335.69z"/>
								<g>
									<path class="st1" d="M663.65,329.77h-0.83v-0.22c-0.28,0.18-0.58,0.27-1,0.27c-0.75,0-1.14-0.41-1.14-1.01
										c0-0.68,0.5-1.14,1.63-1.14c0.18,0,0.35,0.01,0.49,0.01v-0.16c0-0.37-0.2-0.58-0.8-0.58c-0.35,0-0.63,0.06-1.01,0.22
										l-0.12-0.75c0.45-0.19,0.83-0.27,1.29-0.27c1.02,0,1.49,0.46,1.49,1.29V329.77z M662.08,329.12c0.27,0,0.48-0.05,0.71-0.16
										v-0.66c-0.14-0.01-0.32-0.01-0.46-0.01c-0.54,0-0.76,0.18-0.76,0.45C661.57,328.97,661.76,329.12,662.08,329.12z"/>
									<path class="st1" d="M667.28,329.77h-0.83v-0.22c-0.28,0.18-0.58,0.27-1,0.27c-0.75,0-1.14-0.41-1.14-1.01
										c0-0.68,0.5-1.14,1.63-1.14c0.18,0,0.35,0.01,0.49,0.01v-0.16c0-0.37-0.2-0.58-0.8-0.58c-0.35,0-0.63,0.06-1.01,0.22
										l-0.12-0.75c0.45-0.19,0.83-0.27,1.29-0.27c1.02,0,1.49,0.46,1.49,1.29V329.77z M665.71,329.12c0.27,0,0.48-0.05,0.71-0.16
										v-0.66c-0.14-0.01-0.32-0.01-0.46-0.01c-0.54,0-0.76,0.18-0.76,0.45C665.21,328.97,665.4,329.12,665.71,329.12z"/>
									<path class="st1" d="M670.37,327.61c0-0.47-0.22-0.65-0.62-0.65c-0.25,0-0.41,0.03-0.65,0.12v2.7h-0.89v-3.57l0.86-0.04
										v0.27c0.31-0.21,0.59-0.3,0.95-0.3c0.77,0,1.24,0.45,1.24,1.28v2.35h-0.89V327.61z"/>
									<path class="st1" d="M671.71,326.18h1.02l0.73,2.9h0.06l0.72-2.9h0.93l-1.11,3.59h-1.23L671.71,326.18z"/>
									<path class="st1" d="M677.66,327.04c-0.15-0.04-0.25-0.05-0.4-0.05c-0.22,0-0.46,0.06-0.69,0.24v2.55h-0.89v-3.57
										l0.88-0.04v0.41c0.24-0.32,0.46-0.44,0.75-0.44c0.17,0,0.29,0.01,0.42,0.05L677.66,327.04z"/>
									<path class="st1" d="M680.89,329.77h-0.83v-0.22c-0.28,0.18-0.58,0.27-1,0.27c-0.75,0-1.14-0.41-1.14-1.01
										c0-0.68,0.5-1.14,1.63-1.14c0.18,0,0.35,0.01,0.49,0.01v-0.16c0-0.37-0.2-0.58-0.8-0.58c-0.35,0-0.63,0.06-1.01,0.22
										l-0.12-0.75c0.45-0.19,0.83-0.27,1.29-0.27c1.02,0,1.49,0.46,1.49,1.29V329.77z M679.32,329.12c0.27,0,0.48-0.05,0.71-0.16
										v-0.66c-0.14-0.01-0.32-0.01-0.46-0.01c-0.54,0-0.76,0.18-0.76,0.45C678.82,328.97,679,329.12,679.32,329.12z"/>
									<path class="st1" d="M682.92,329.06l0.83,0.01c0.82,0.01,1.16,0.32,1.16,0.88c0,0.69-0.58,1.24-1.9,1.24
										c-1.05,0-1.54-0.36-1.54-0.91c0-0.34,0.22-0.63,0.58-0.77v-0.02c-0.19-0.07-0.32-0.25-0.32-0.49
										c0-0.23,0.16-0.45,0.43-0.56v-0.02c-0.34-0.17-0.56-0.48-0.56-0.93c0-0.85,0.62-1.35,1.53-1.35c0.2,0,0.38,0.03,0.56,0.08
										h1.17v0.58h-0.56v0.02c0.16,0.09,0.31,0.33,0.31,0.65c0,0.75-0.54,1.19-1.55,1.19c-0.16,0-0.32-0.02-0.46-0.06
										c-0.09,0.04-0.14,0.13-0.14,0.21C682.45,328.97,682.57,329.06,682.92,329.06z M683.07,330.54c0.75,0,1.04-0.2,1.04-0.46
										c0-0.2-0.14-0.32-0.47-0.33l-1.21-0.04c-0.12,0.09-0.18,0.21-0.18,0.36C682.26,330.37,682.52,330.54,683.07,330.54z
										 M683.79,327.39c0-0.41-0.22-0.64-0.68-0.64c-0.4,0-0.69,0.22-0.69,0.69c0,0.43,0.25,0.64,0.68,0.64
										C683.54,328.08,683.79,327.87,683.79,327.39z"/>
									<path class="st1" d="M686.94,326.12c0.88,0,1.44,0.55,1.44,1.47c0,0.24-0.01,0.49-0.03,0.65h-2.2
										c0.11,0.57,0.45,0.83,1.09,0.83c0.4,0,0.68-0.05,1.03-0.16v0.72c-0.38,0.12-0.66,0.18-1.14,0.18
										c-1.12,0-1.83-0.59-1.83-1.83C685.3,326.76,686.03,326.12,686.94,326.12z M687.53,327.6c0-0.47-0.25-0.8-0.65-0.8
										c-0.37,0-0.66,0.28-0.72,0.8H687.53z"/>
									<path class="st1" d="M691.31,327.61c0-0.47-0.22-0.65-0.62-0.65c-0.25,0-0.41,0.03-0.65,0.12v2.7h-0.89v-3.57l0.86-0.04
										v0.27c0.31-0.21,0.59-0.3,0.95-0.3c0.77,0,1.24,0.45,1.24,1.28v2.35h-0.89V327.61z"/>
								</g>
								<g>
									<g>
										<polygon class="st58" points="676.38,333.35 679.82,346.25 681.83,341.66 685.41,347.11 687.7,345.67 683.83,340.52 
											689.27,339.66 										"/>
										<path class="st1" d="M685.41,347.32c-0.07,0-0.14-0.03-0.18-0.1l-3.36-5.11l-1.85,4.22c-0.04,0.08-0.12,0.14-0.21,0.13
											c-0.09-0.01-0.17-0.07-0.19-0.16l-3.44-12.89c-0.02-0.08,0.01-0.17,0.07-0.22c0.07-0.05,0.16-0.06,0.23-0.03l12.89,6.3
											c0.08,0.04,0.13,0.13,0.12,0.22c-0.01,0.09-0.09,0.17-0.18,0.18l-5.09,0.8l3.65,4.87c0.04,0.05,0.05,0.11,0.04,0.17
											c-0.01,0.06-0.05,0.11-0.1,0.14l-2.29,1.43C685.49,347.31,685.45,347.32,685.41,347.32z M681.83,341.45
											c0.07,0,0.14,0.04,0.18,0.1l3.47,5.27l1.92-1.2l-3.73-4.97c-0.05-0.06-0.06-0.14-0.03-0.21c0.03-0.07,0.09-0.12,0.17-0.13
											l4.77-0.75l-11.86-5.8l3.16,11.84l1.76-4.02c0.03-0.07,0.1-0.12,0.18-0.13C681.81,341.45,681.82,341.45,681.83,341.45z"/>
									</g>
								</g>
							</g>
						</g>
					</g>
				</g>
				<g>
					<path class="st17" d="M727.25,362.59C727.25,362.59,727.25,362.59,727.25,362.59c-0.07-0.1-0.14-0.2-0.22-0.29
						c-0.14-0.14-0.37-0.32-0.57-0.42c-0.36-0.18-0.71-0.37-1.07-0.56c-0.77-0.41-1.51-0.88-2.22-1.38c-1.25-0.88-3.64-2.6-3.8-4
						c-0.13-1.19,1.2-2.17,2.56-1.34c0.7,0.43,1.09,1.33,1.79,1.81c2.52,1.76,1.98-2.18,1.11-3.2c-0.81-0.96-2.26-1.51-3.55-1.65
						c-3.36-0.37-4.76,1.97-4.55,4.16c0.2,2.1,1.94,3.97,3.8,5.44c0.9,0.71,1.88,1.33,2.89,1.89c1.04,0.57,2.11,1.18,3.28,1.02
						C727.53,363.95,727.79,363.21,727.25,362.59z"/>
					<path class="st59" d="M727.23,369.81l-1.7-6.55c-1.1-3.86-2.31-6.86-3.14-10.41c-0.22-0.93-0.47-1.85-0.7-2.78
						c-0.17-0.69-0.32-1.43-0.21-2.14c0.18-1.23,0.81-2.3,1.75-2.28h23.59c1.11,0,1.57,1.06,1.75,2.28c0.1,0.71-0.05,1.44-0.21,2.14
						c-0.22,0.93-0.48,1.85-0.7,2.78c-0.83,3.55-2.05,6.54-3.14,10.41l-1.7,6.55H727.23z"/>
				</g>
				<path class="st13" d="M739.81,339.34c0-1.18,1.11-2.56,1.54-2.99c0.08-0.08,1.94-1.97,1.94-3.97s-1.86-3.89-1.94-3.97
					c-0.27-0.27-0.71-0.27-0.98,0c-0.27,0.27-0.27,0.71,0,0.98c0.43,0.43,1.54,1.8,1.54,2.99c0,1.18-1.11,2.56-1.54,2.99
					c-0.08,0.08-1.94,1.97-1.94,3.97s1.86,3.89,1.94,3.97c0.14,0.14,0.31,0.2,0.49,0.2s0.36-0.07,0.49-0.2
					c0.27-0.27,0.27-0.71,0-0.98C740.92,341.9,739.81,340.53,739.81,339.34z"/>
				<path class="st13" d="M734.35,339.34c0-1.18,1.11-2.56,1.54-2.99c0.08-0.08,1.94-1.97,1.94-3.97s-1.86-3.89-1.94-3.97
					c-0.27-0.27-0.71-0.27-0.98,0c-0.27,0.27-0.27,0.71,0,0.98c0.43,0.43,1.54,1.8,1.54,2.99c0,1.18-1.11,2.56-1.54,2.99
					c-0.08,0.08-1.94,1.97-1.94,3.97s1.86,3.89,1.94,3.97c0.14,0.14,0.31,0.2,0.49,0.2s0.36-0.07,0.49-0.2
					c0.27-0.27,0.27-0.71,0-0.98C735.46,341.9,734.35,340.53,734.35,339.34z"/>
				<path class="st13" d="M728.72,339.34c0-1.18,1.11-2.56,1.54-2.99c0.08-0.08,1.94-1.97,1.94-3.97s-1.86-3.89-1.94-3.97
					c-0.27-0.27-0.71-0.27-0.98,0c-0.27,0.27-0.27,0.71,0,0.98c0.43,0.43,1.54,1.8,1.54,2.99c0,1.18-1.11,2.56-1.54,2.99
					c-0.08,0.08-1.94,1.97-1.94,3.97s1.86,3.89,1.94,3.97c0.14,0.14,0.31,0.2,0.49,0.2c0.18,0,0.36-0.07,0.49-0.2
					c0.27-0.27,0.27-0.71,0-0.98C729.83,341.9,728.72,340.53,728.72,339.34z"/>
				<g>
					<polygon class="st53" points="545.55,365.85 643.92,365.85 647.1,369.18 542.49,369.18 					"/>
					<polygon class="st52" points="625.67,366.76 546.13,366.76 544.49,368.01 626.42,368.01 					"/>
					<polygon class="st52" points="643.15,366.76 627.05,366.76 627.87,368.01 644.32,368.01 					"/>
					<polygon class="st60" points="543.68,369.76 644.93,369.76 647.1,369.18 542.49,369.18 					"/>
				</g>
				<path class="st53" d="M664.99,370.19c0,4-22.39,4-22.39,0s5.01-7.24,11.19-7.24S664.99,366.19,664.99,370.19z"/>
				<path class="st61" d="M623.37,366.55l20.37-8.21l13.01,2c1.58,0.24,4.35,3.17,5.32,4.45l-14.7,3.67l-17.58,8.13L623.37,366.55z"
					/>
				<path class="st43" d="M533.12,320.52c-4.14-1.23-7.29-2.94-11.33,1.47s-5.74,10.85-7.39,14.49
					c-1.66,3.65-23.98,37.27-22.93,42.5c0.19,0.97,3.46,4.82,4.32,6.55l26.95,7.07c-3.6-4.53-6.53-8.69-5.47-9.03
					c2.4-0.78,11.18-19.41,13.12-27.24C532.33,348.49,533.12,320.52,533.12,320.52z"/>
				<path class="st64" d="M587.15,283.21c4.29-10.06,6.47-15.65-3.39-23.96c-3.21-2.28-9.13-5.53-10.72-5.97
					c-19.28-5.37-24.64,6.21-28.09,20.39c-3.16,13.05,0.18,22.93,4.85,28.18l-3.58,12.29l25.65,2.54c0,0,0.05-8.75,2.12-12.41
					c4.19,0.35,5.89,1.63,12.73-15.5C587.22,287.46,586.63,284.42,587.15,283.21z"/>
				<path class="st44" d="M572.25,315.59c2.91,2.18,22.02,9.79,22.28,9.95c2.1,1.24-9.18,32.44-5.16,42.32
					c-2.69,5.03-10.07,43.39-7.31,62.41c0.19,1.31-63.84,2.49-63.84,2.49c1.79-13.87,10.93-67.91,8.49-79.61
					c-3.22-15.57-4.93-30.01-3.87-31.52c2.59-3.75,5.2-2.86,11.95-6.79C541.53,310.89,572.25,315.59,572.25,315.59z"/>
				<g>
					<path class="st65" d="M555.85,253c6.66-4.32,17.92-4.4,24.22-1.05c6.32,3.38,17.12,9.93,7.88,29.09
						c-9.9,20.56-24.41,19.65-29.27,19.46c-8.77-0.34-11.26-4.24-11.26-4.24S534.16,266.97,555.85,253z"/>
					<g>
						<path class="st43" d="M549.06,280.74c4.32-1.9,7.34,10.18,7.82,12.34c10.92-6.78,5.07-18.4-5.54-16.43
							c-6.06,1.12-5.16,7.08-5.16,7.08L549.06,280.74z"/>
					</g>
					<path class="st65" d="M545.57,280.99c-3.45,2.29-13.81,16.5-11.91,29.51c1.92,13.03,9.66,52.88,1.33,59.92
						c9.74-3.85,9.47-16.08,9.47-16.08l-2.36,13.28c0,0,6.38-10.6,7.42-15.39c0.37,2.1-0.63,7.98-4.17,10.9
						c0,0,14.61-4.02,13.21-22.12c-1.47-19-2.6-31.73-1.67-40.5c1.43-13.48,4.89-13.95,2.1-18.29
						C555.32,276.47,548.04,279.38,545.57,280.99z"/>
					<path class="st41" d="M581.66,252.69c-2.36-1.1-5.41-2.2-5.41-2.2c3.2,0.86,15.11,12.52,2.6,25.4
						c3.52,0.87,7.65-11.19,7.65-11.19s-1.88,11.09-9.98,14.24c3.04-0.06,6.55-2.79,9.04-6.33c-1.99,4.4-5.48,8.66-11.4,11.19
						c7.68,1.36,16.68-10.44,16.97-16.02C591.38,262.2,588.44,255.85,581.66,252.69z"/>
				</g>
				<path class="st43" d="M630.95,376.83l-2.69-13.17l-32.18,6.07c0.01-9.18,2.26-15.22,3.73-27.58c0.49-4.31,0.29-7.45,0.29-7.45
					c-0.84-6.93-6.92-12.65-13.98-12.21c-7.12,0.44-11.25,14.19-11.13,21.25c0,0,0.42,18.13,0.52,22.98
					c0.04,1.85,1.73,14.9,2.95,16.79c1.17,2.09,0.52,3.87,7.49,4.72c6.96,0.85,12.78-1.34,20.88-2.51
					c12.13-1.76,23.64-7.45,24.23-8.03l0.07-0.02L630.95,376.83z"/>
				<path class="st53" d="M524.42,446.69l35.06-1.1c8.95-0.28,16.02-9.32,15.79-20.2l1.32-36.54c-0.34-16.1-11.36-28.81-24.6-28.4
					l-34.72,1.09c-13.25,0.41-23.71,13.8-23.37,29.9l-0.23,14.21C502.06,421.24,512.46,435.1,524.42,446.69"/>
				<path class="st53" d="M525.91,446.19h-14.46c-9.78,0-17.79-8.01-17.79-17.79v-21.62c0-9.78,8.01-17.79,17.79-17.79h14.46
					c9.78,0,17.79,8.01,17.79,17.79v21.62C543.7,438.19,535.69,446.19,525.91,446.19z"/>
			</g>
			<g>
				<rect x="763.56" y="381.77" class="st8" width="8.57" height="117.39"/>
			</g>
		</g>
	</g>
	<g>
		<defs>
			<rect id="SVGID_00000114778897348755020690000015746334755318026676_" x="959.95" y="228.88" width="198.95" height="181.11"/>
		</defs>
		<clipPath id="SVGID_00000166661585841551224860000007329780678374155426_">
			<use xlink:href="#SVGID_00000114778897348755020690000015746334755318026676_"  style="overflow:visible;"/>
		</clipPath>
		<g style="clip-path:url(#SVGID_00000166661585841551224860000007329780678374155426_);">
			<g>
				<g>
					<path class="st65" d="M1101.86,295.07c1.19,3.21,9.56,11.43,7.33,22.03c-2.23,10.61-12.36-6.81-12.36-6.81l-2.9-16.2l5.66-4.01
						L1101.86,295.07z"/>
					<g>
						<path class="st43" d="M1055.38,379.49l-0.64-0.33c-3.82-2.24-5.51-7.65-3.64-13.25c4.31-12.94,13.4-36.07,19.58-49.87
							c3.22-7.18,7.7-6.96,11.87-6.1l0.79,0.19c5.33,1.85,6.59,9.98,2.78,18.64c-6.53,14.83-18.32,46.46-18.32,46.46
							C1065.48,379.46,1059.2,381.73,1055.38,379.49z"/>
						<g>
							<path class="st64" d="M1020.34,367.17l2.55-0.92l2.89-0.19l15.71,4.29l3.41-8.05l-15.76-4.49l-5.98-1.72l-5.41-1.73
								l-6.1,2.58l-2.07,3.43c0,0-2.57,2.55-2.55,2.91c0.02,0.42,1.14,0.63,1.14,0.63l3.96-2.48l2.77,1.32l0.66,0.59l0.36,0.32
								L1020.34,367.17z"/>
							<g>
								<path class="st13" d="M1007.39,368.21l23.03-13.61c0,0,0.23-0.45,0.22-0.53c-0.03-0.75-0.8-1.91-1.47-2.25
									c-0.06-0.03-0.46-0.04-0.46-0.04l-23,13.59L1007.39,368.21z"/>
							</g>
							<g>
								<path class="st68" d="M1003.04,369.03c-0.03-0.15-0.13-0.39-0.37-0.63c0,0-1.12,0.62-0.97,0.91
									C1001.86,369.61,1003.04,369.03,1003.04,369.03z"/>
								<g>
									<path class="st69" d="M1002.95,369.14l4.44-0.93l-1.67-2.83l-3.2,3.01C1002.81,368.68,1002.92,368.95,1002.95,369.14z"/>
									<path class="st69" d="M1005.73,365.37c0.25-0.15,0.82,0.37,1.28,1.15c0.46,0.78,0.64,1.53,0.39,1.68
										c-0.25,0.15-0.82-0.37-1.28-1.15C1005.66,366.26,1005.48,365.52,1005.73,365.37z"/>
								</g>
							</g>
							<path class="st70" d="M1013.69,364.63c0,0-1.33-0.51-1.8-0.59c-0.23-0.04-0.71-0.02-0.94,0.02
								c-0.33,0.06-1.16,0.43-1.11,0.76c0.2,1.28,4.24,2.71,4.24,2.71l4.46,0.28l1.79-0.65l-3.48-3.55L1013.69,364.63z"/>
							<path class="st43" d="M1030.83,368.21l2.01-10.78c0,0,19.67,2.23,32.02,5.3c6.03,1.5,7.92,8.08,6.87,12.38l0,0
								c-1.05,4.3-4.27,7.26-11.47,4.46C1048.71,375.09,1030.83,368.21,1030.83,368.21z"/>
						</g>
						<g>
							<path class="st44" d="M1073.99,371.78c0,0-7.18-19.14-6.85-27.73c0.33-8.74,1.44-29.5,7.41-33.16c3-1.84,6.29-1.86,6.29-1.86
								l4.86-0.35l1.27,2.61c1.05,2.17,2.69,3.51,5.09,3.32l0.64-0.05c2.58-0.21,4.73-2.09,5.26-4.63l0.55-2.63
								c0,0,10.31,0.6,14.41,1.52c9.16,2.07,11.24,9.77,11.18,16.15l1.03,22.09c0,0,0.83,22.27,1.67,29.81
								c0.82,7.35,2.77,17.3,2.77,17.3l6.03,24.19l-58.9,0.63c0,0,3.31-20.13,2.77-26.85
								C1079.05,386.89,1073.99,371.78,1073.99,371.78z"/>
						</g>
						<path class="st65" d="M1035.98,394.63l-32.47-7.25c-2.08-0.47-3.8-1.94-4.56-3.94l-16.24-42.31c-0.74-1.93,0.96-3.9,2.98-3.45
							l35.16,7.85c2.08,0.47,3.8,1.94,4.56,3.94l15.26,39.73C1041.83,392.23,1039.15,395.34,1035.98,394.63z"/>
						<g>
							<path class="st64" d="M1032.52,368.08l4.56,0.18l-1.03,0.72c-1.56,0.1-3.12,0.19-4.68,0.29c-1.84,0.11-3.69,0-5.53-0.18
								c-0.92-0.09-1.84-0.2-2.75-0.3c-0.21-0.02-3.67,0.27-1.39,1.86c0.52,0.36,1.12,0.61,1.52,1.11c0.18,0.22,0.28,0.57,0.41,0.82
								c0.43,0.87,0.87,1.74,1.3,2.61c0.64,1.29,1.28,2.58,1.93,3.86c0.41,0.82,1.18,1.41,2.08,1.59l7.3,1.44
								c0.23,0.05,0.47,0.06,0.71,0.05c0,0,7.64-0.06,8.62-0.25s2.03-1.75,3.56-1.97c1.53-0.22,35.52,2.05,35.52,2.05
								c1.28,0.1,4.31,2.33,4.8,1.15l3.14-7.47c0.81-1.93-0.58-4.07-2.67-4.12l-38.43-0.9c-0.4-0.01-0.8-0.1-1.16-0.27l-4.26-1.94
								c-0.11-0.05-0.21-0.1-0.31-0.17l-4.71-2.87c-0.41-0.25-0.88-0.4-1.36-0.43l-8.45-0.27L1032.52,368.08z"/>
							<g>
								<g>
									<g>
										<g>
											<path class="st43" d="M1090.86,382.3l-0.73-0.39c-4.37-2.59-5.44-6.65-3.67-12.32c4.08-13.1,11.81-38.07,17.92-51.92
												c3.18-7.21,8.17-6.66,12.86-5.47l0.88,0.25c6.02,2.29,7.87,10.81,4.11,19.5c-6.45,14.9-19.95,47.02-19.95,47.02
												C1099.94,383.19,1095.23,384.89,1090.86,382.3z"/>
											<path class="st43" d="M1057.54,381.78l-1.31-12.97c0,0,20.67-0.82,33.38-1.46c6.2-0.31,11.37,1.38,11.65,6.64l-0.41,1.85
												c0.28,5.25-4.09,9.79-11.81,9.02C1076.68,383.63,1057.54,381.78,1057.54,381.78z"/>
										</g>
									</g>
								</g>
							</g>
						</g>
					</g>
					<path class="st65" d="M1069.3,279.09c0,0-5.27-6.2-2.96-12.9c1.8-5.2,5.43-15.59,14.58-16.44
						C1092.01,248.75,1069.3,279.09,1069.3,279.09"/>
					<path class="st43" d="M1101.86,295.07c0,0-3.25,1.29-4.31,0.84c-1.06-0.45,1.28,1.58,1.28,1.58s3.22-0.63,3.72-1.08
						L1101.86,295.07z"/>
					<path class="st71" d="M1069.6,281.08c-0.78,1.35-0.31,3.06,1.04,3.81l2.75,1.56c1.34,0.77,3.05,0.31,3.79-1.04
						c0.78-1.34,0.31-3.05-1.03-3.83l-2.76-1.57C1072.06,279.27,1070.37,279.74,1069.6,281.08"/>
					<g>
						<path class="st64" d="M1081.19,309.06c-1.07,0.06-2.21,0.16-3.36,0.34c-0.01,0.12-0.41,11,8.83,10.4
							c15.29-0.98,21.37-10.56,21.94-11.68c-4.35-0.43-7.52-0.63-7.68-1.51c-0.34-1.9-2.15-19.02-2.15-19.02l-16.11,8.07
							C1084.26,302.77,1087.33,308.73,1081.19,309.06z"/>
					</g>
					<path class="st65" d="M1068.59,267.07c1.66-9.02,6.37-18.28,19-17.99c13.31,0.3,20.26,11.57,20.41,18.91
						c0.17,7.32-1.22,11.96-1.73,13.44c-0.52,1.48-6.73,5.31-8.04,9.85C1096.91,295.83,1068.59,267.07,1068.59,267.07"/>
					<path class="st72" d="M1099.33,284.33c-0.54,2.57,0.08,6.3,0.16,10.14c-0.96,0.59-2.62,1.79-3.83,2.45
						c-8.06,4.47-15.15,4.75-15.15,4.75s0.89-1.31,2.26-3.23l16.44-14.17C1099.24,284.29,1099.28,284.31,1099.33,284.33"/>
					<path class="st64" d="M1099.77,284.69c-0.97,2.58-1.52,6.12-5.84,9.4c-4.32,3.32-11.22,7.62-13.41,7.57
						c-2.17-0.05-3.86,0.53-7.03-5.05c-3.18-5.58-5.56-8.2-5.65-13.83c-0.08-5.63-2.04-17.16,5.06-21.26
						c5.23-3.05,13.64-1.36,17.98,3.29c4.38,4.68,4.44,6.38,5.85,13.64c0,0,3.83-4.91,5.33-5.08c1.48-0.19,2.74,0.8,1.81,3.87
						c-0.91,3.04-1.65,2.54-1.79,4.1c-0.14,1.59-0.35,3.14-1.15,3.69C1099.93,285.69,1099.77,284.69,1099.77,284.69"/>
					<path class="st65" d="M1075.37,260.4c0,0,8.68,16.4,21.25,19.32l5.24-14.66l-11.46-8.96L1075.37,260.4z"/>
					<path class="st65" d="M1077.83,261.03c0,0-5.53,8.91-10.87,11.51c0,0-0.85-12.64,6.53-18.37L1077.83,261.03z"/>
					<path class="st65" d="M1093.28,249.95c2.34,0.88,14.56,5.06,16.85,21.31c0.73,5.14-1.27,14.31-8.27,23.8l-2.37-0.61
						c0,0-0.58-5.6-0.37-7.88c0,0,7.75-3.2,7.26-12.73c-0.49-9.52-8.86-14.9-8.86-14.9L1093.28,249.95z"/>
				</g>
			</g>
			<g>
				<g>
					<g>
						<circle class="st2" cx="1008.65" cy="302.4" r="21.49"/>
					</g>
					<polygon class="st2" points="1001.99,320.47 1008.65,320.47 1015.31,320.47 1008.65,332.94 					"/>
				</g>
				<g>
					<g>
						<g>
							<path class="st1" d="M1009.15,304.6c-0.15,0.1-0.32,0.15-0.5,0.15c-0.17,0-0.35-0.05-0.5-0.15l-10.32-6.83v11.17
								c0,0.17,0.1,0.31,0.24,0.39l6.81-4.97c0,0,0.1,0.08,0.01,0.2c-0.08,0.1-3.03,3.71-3.95,4.84h15.43
								c-0.92-1.13-3.87-4.74-3.95-4.84c-0.1-0.12,0.01-0.2,0.01-0.2l6.81,4.97c0.14-0.08,0.24-0.22,0.24-0.39v-11.17L1009.15,304.6
								z"/>
							<path class="st1" d="M1019.4,295.65c-0.08-0.13-0.22-0.23-0.38-0.23h-20.73c-0.17,0-0.3,0.09-0.38,0.23l10.75,7.12
								L1019.4,295.65z"/>
						</g>
					</g>
				</g>
			</g>
		</g>
	</g>
</g>
</svg>
