<svg fill="none" height="114" viewBox="0 0 102 114" width="102" xmlns="http://www.w3.org/2000/svg"><g fill="#153a67"><path d="m53.1778 51.5121-18.7271 18.7967 7.0226 7.0488 18.7271-18.7967z"/><path d="m82.9522 41.26h-9.394l7.6919 7.7205-38.9459 39.0913-28.2855-28.3906 18.3525-18.4212h-9.3937l-16.00445 16.0642c-1.2974 1.3014-1.2974 3.4125 0 4.7139l32.98275 33.1054c.6227.625 1.4678.9766 2.3482.9766.8806 0 1.7256-.3516 2.3483-.9766l43.6434-43.8061c1.2974-1.3014 1.2974-3.4126 0-4.714z"/><path d="m95.2091 33.4024-5.7986-12.8785c-1.1032-1.5819-2.9058-2.5239-4.8297-2.5239h-75.83531c-1.39986 0-2.53455 1.1389-2.53455 2.544v27.3617c0 1.3394 1.61339 2.0099 2.5569 1.0629l7.37476-7.7086s-6.323-17.2031-6.45327-17.6529c-.15808-.5459.3087-.6228.3087-.6228l7.47007 12.5507c.8867 1.4898 2.4884 2.4021 4.2175 2.4021h70.6074c2.3243 0 3.8733-2.4087 2.9161-4.5347z"/></g></svg>