<svg width="83" height="83" viewBox="0 0 83 83" fill="none" xmlns="http://www.w3.org/2000/svg">
<g clip-path="url(#clip0_920_909)">
<path d="M41.5 83C64.4198 83 83 64.4198 83 41.5C83 18.5802 64.4198 0 41.5 0C18.5802 0 0 18.5802 0 41.5C0 64.4198 18.5802 83 41.5 83Z" fill="white"/>
<path d="M58.0625 58.5932H56.5V24.7797C56.5 23.7968 55.6605 23 54.625 23H28.375C27.3395 23 26.5 23.7968 26.5 24.7797V58.5932H24.9375C24.4198 58.5932 24 58.9917 24 59.483V60.9662H59V59.483C59 58.9917 58.5803 58.5932 58.0625 58.5932ZM34 28.6356C34 28.1442 34.4198 27.7458 34.9375 27.7458H38.0625C38.5803 27.7458 39 28.1442 39 28.6356V31.6017C39 32.0931 38.5803 32.4915 38.0625 32.4915H34.9375C34.4198 32.4915 34 32.0931 34 31.6017V28.6356ZM34 35.7543C34 35.2628 34.4198 34.8645 34.9375 34.8645H38.0625C38.5803 34.8645 39 35.2628 39 35.7543V38.7203C39 39.2118 38.5803 39.6102 38.0625 39.6102H34.9375C34.4198 39.6102 34 39.2118 34 38.7203V35.7543ZM38.0625 46.7288H34.9375C34.4198 46.7288 34 46.3305 34 45.839V42.8728C34 42.3815 34.4198 41.9831 34.9375 41.9831H38.0625C38.5803 41.9831 39 42.3815 39 42.8728V45.839C39 46.3305 38.5803 46.7288 38.0625 46.7288ZM44.0001 58.5932H39V52.3645C39 51.873 39.4198 51.4746 39.9375 51.4746H43.0625C43.5802 51.4746 44.0001 51.873 44.0001 52.3645V58.5932ZM49 45.839C49 46.3305 48.5803 46.7288 48.0625 46.7288H44.9375C44.4198 46.7288 44.0001 46.3305 44.0001 45.839V42.8728C44.0001 42.3815 44.4198 41.9831 44.9375 41.9831H48.0625C48.5803 41.9831 49 42.3815 49 42.8728V45.839ZM49 38.7203C49 39.2118 48.5803 39.6102 48.0625 39.6102H44.9375C44.4198 39.6102 44.0001 39.2118 44.0001 38.7203V35.7543C44.0001 35.2628 44.4198 34.8645 44.9375 34.8645H48.0625C48.5803 34.8645 49 35.2628 49 35.7543V38.7203ZM49 31.6017C49 32.0931 48.5803 32.4915 48.0625 32.4915H44.9375C44.4198 32.4915 44.0001 32.0931 44.0001 31.6017V28.6356C44.0001 28.1442 44.4198 27.7458 44.9375 27.7458H48.0625C48.5803 27.7458 49 28.1442 49 28.6356V31.6017Z" fill="#007BC7"/>
</g>
<defs>
<clipPath id="clip0_920_909">
<rect width="83" height="83" fill="white"/>
</clipPath>
</defs>
</svg>
