<?xml version="1.0" encoding="utf-8"?>
<!-- Generator: Adobe Illustrator 28.1.0, SVG Export Plug-In . SVG Version: 6.00 Build 0)  -->
<svg version="1.1" id="Laag_1" xmlns="http://www.w3.org/2000/svg" xmlns:xlink="http://www.w3.org/1999/xlink" x="0px" y="0px"
	 viewBox="0 0 83 83" style="enable-background:new 0 0 83 83;" xml:space="preserve">
<style type="text/css">
	.st0{fill:#FFFFFF;}
	.st1{fill:#007BC7;}
</style>
<g>
	<circle class="st0" cx="41.5" cy="41.5" r="41.5"/>
	<g>
		<g>
			<rect x="37.49" y="24.32" class="st1" width="15.47" height="2.58"/>
			<rect x="37.49" y="29.48" class="st1" width="15.47" height="2.58"/>
			
				<rect x="21.82" y="53.42" transform="matrix(0.7071 -0.7071 0.7071 0.7071 -36.5074 35.2269)" class="st1" width="4.9" height="16.53"/>
			<g>
				<path class="st1" d="M51.3,37.79c0.78,0,1.29,0.08,2.25,0.25v-2.05c-0.82-0.18-1.43-0.24-2.19-0.24c-2.72,0-4.71,1.49-5.42,4.42
					H44.5v1.51h1.21c-0.04,0.33-0.04,0.7-0.04,1.06v0.41H44.5v1.49h1.33c0.57,2.9,2.48,4.23,5.2,4.23c1.04,0,1.55-0.06,2.62-0.31
					v-1.94c-1.02,0.21-1.55,0.29-2.47,0.29c-1.29,0-2.35-0.67-2.8-2.27h3.58v-1.49h-3.81c-0.02-0.2-0.02-0.41-0.02-0.65
					c0-0.27,0-0.55,0.02-0.82h3.81v-1.51h-3.56C48.84,38.59,49.82,37.79,51.3,37.79"/>
				<path class="st1" d="M58.97,15.73h-27.5c-0.95,0-1.72,0.77-1.72,1.72v21.59c0.93-0.65,1.94-1.37,3.17-2.26l0.27-0.19V19.17
					h24.06v31.8H33.19v-4.06c-1.33,1.02-2.59,1.88-3.44,2.43v3.35c0,0.95,0.77,1.72,1.72,1.72h27.5c0.95,0,1.72-0.77,1.72-1.72
					V17.45C60.69,16.5,59.92,15.73,58.97,15.73"/>
				<path class="st1" d="M28.04,52.68v-4.3c3.11-1.92,11.71-8,9.41-10.85c-0.61-0.76-1.52-0.8-2.79,0.11
					c-4.3,3.1-6.06,4.4-10.06,6.66c-2.78,1.57-2.7,7.07-2.56,9.24l10.29,10.31c0,0,2.17-0.3,5.76-2.02
					c3.59-1.72,6.27-5.71,6.27-5.71H31.47C29.58,56.12,28.04,54.58,28.04,52.68"/>
			</g>
		</g>
	</g>
</g>
</svg>
