<?xml version="1.0" encoding="utf-8"?>
<!-- Generator: Adobe Illustrator 28.1.0, SVG Export Plug-In . SVG Version: 6.00 Build 0)  -->
<svg version="1.1" id="Laag_1" xmlns="http://www.w3.org/2000/svg" xmlns:xlink="http://www.w3.org/1999/xlink" x="0px" y="0px"
	 viewBox="0 0 83 83" style="enable-background:new 0 0 83 83;" xml:space="preserve">
<style type="text/css">
	.st0{fill:#FFFFFF;}
	.st1{fill:#007BC7;}
</style>
<g>
	<circle class="st0" cx="41.5" cy="41.5" r="41.5"/>
	<g>
		<g>
			<g>
				<path class="st1" d="M61.21,19.6H33.93c-5.58,0-11.27,2.16-11.27,8.02v31.55c0,3.29,1.71,5.51,4.83,5.51h18.16h0.02h9.11
					c0.94,0,1.7-0.76,1.7-1.7V29.35c0-0.94-0.76-1.7-1.7-1.7H28.2c-0.73,0-1.08-0.66-0.82-1.41c0.81-2.32,5.04-2.62,6.55-2.62h24.96
					v33.81h2.42c0.89,0,1.61-0.72,1.61-1.61V21.3C62.91,20.36,62.15,19.6,61.21,19.6 M50.84,55.83H40.37v-0.99
					c0-1.23,1.02-2.23,2.26-2.23h5.97c1.23,0,2.23,1,2.23,2.23V55.83z M28.21,47.76c0.29-0.16,8.39-4.48,13.41-7.15
					c-0.29-0.51-0.62-1.1-1.07-1.89l-0.65,0.02c-0.46,0.01-0.89-0.23-1.12-0.63l-0.24-0.43c-0.17-0.3-0.06-0.68,0.23-0.84l6.47-3.65
					c0.3-0.17,0.68-0.06,0.84,0.23l0.24,0.43c0.23,0.4,0.21,0.89-0.04,1.28c-0.91,1.4-2.87,2.13-3.67,2.57
					c0.02,0.05,0.06,0.12,0.21,0.13c0.16,0.02,1.64-0.13,3.76-1.02c1.41,2.49,0.87,1.55,2.32,4.11c-1.85,1.35-2.75,2.55-2.81,2.69
					c-0.06,0.13-0.02,0.2,0.01,0.25c0.81-0.47,2.42-1.76,4.1-1.82c0.46-0.01,0.89,0.23,1.12,0.63l0.24,0.43
					c0.17,0.3,0.06,0.68-0.23,0.84l-6.47,3.65c-0.3,0.17-0.67,0.06-0.84-0.24l-0.24-0.43c-0.23-0.4-0.21-0.89,0.04-1.28l0.36-0.53
					c-0.45-0.8-0.8-1.41-1.09-1.92c-4.89,2.92-12.77,7.63-13.05,7.79c-0.89,0.5-2.03,0.19-2.53-0.7C27,49.4,27.32,48.26,28.21,47.76
					"/>
			</g>
		</g>
	</g>
</g>
</svg>
