<?xml version="1.0" encoding="utf-8"?>
<!-- Generator: Adobe Illustrator 28.1.0, SVG Export Plug-In . SVG Version: 6.00 Build 0)  -->
<svg version="1.1" id="Laag_1" xmlns="http://www.w3.org/2000/svg" xmlns:xlink="http://www.w3.org/1999/xlink" x="0px" y="0px"
	 viewBox="0 0 83 83" style="enable-background:new 0 0 83 83;" xml:space="preserve">
<style type="text/css">
	.st0{fill:#FFFFFF;}
	.st1{fill:#007BC7;}
</style>
<g>
	<circle class="st0" cx="41.5" cy="41.5" r="41.5"/>
	<g>
		<g>
			<g>
				<path class="st1" d="M56.02,23.3H27.24c0,0,0.05-0.3,0.39-0.38c9.37-2.3,27.49-2.12,27.49-2.12v-1.94c0-0.88-0.89-1.5-1.67-1.4
					c0,0-30.03-0.02-30.03,5.84c0,41.6,0.07,31.6,0.07,38.37c0,1.38,1.12,2.5,2.5,2.5c6.45,0,23.59,0,30.04,0
					c1.38,0,2.43-1.12,2.43-2.5V25.8C58.45,24.42,57.41,23.3,56.02,23.3 M40.94,55.92c-6.96,0-12.6-5.64-12.6-12.6
					s5.64-12.6,12.6-12.6s12.6,5.64,12.6,12.6S47.89,55.92,40.94,55.92"/>
				<path class="st1" d="M36.6,34.08c-3.23,1.52-5.54,4.68-5.84,8.41h3.53C34.41,39.08,35.28,36.12,36.6,34.08"/>
				<path class="st1" d="M41.98,33.16c-0.07-0.01-0.14-0.01-0.21-0.01v9.34h4.15C45.74,37.94,44.08,34.13,41.98,33.16"/>
				<path class="st1" d="M45.27,34.08c1.32,2.04,2.19,5.01,2.32,8.41h3.53C50.81,38.76,48.51,35.6,45.27,34.08"/>
				<path class="st1" d="M35.95,42.49h4.15v-9.34c-0.07,0.01-0.14,0-0.21,0.01C37.79,34.13,36.14,37.94,35.95,42.49"/>
				<path class="st1" d="M30.76,44.16c0.3,3.73,2.61,6.89,5.84,8.41c-1.32-2.04-2.19-5.01-2.32-8.41H30.76z"/>
				<path class="st1" d="M41.77,44.16v9.34c0.07-0.01,0.14,0,0.21-0.01c2.1-0.98,3.75-4.79,3.94-9.33H41.77z"/>
				<path class="st1" d="M45.27,52.57c3.23-1.52,5.54-4.68,5.84-8.41h-3.53C47.46,47.56,46.6,50.53,45.27,52.57"/>
				<path class="st1" d="M39.89,53.49c0.07,0.01,0.14,0.01,0.21,0.01v-9.34h-4.15C36.14,48.7,37.79,52.51,39.89,53.49"/>
			</g>
		</g>
	</g>
</g>
</svg>
