<?xml version="1.0" encoding="utf-8"?>
<!-- Generator: Adobe Illustrator 28.1.0, SVG Export Plug-In . SVG Version: 6.00 Build 0)  -->
<svg version="1.1" id="Laag_1" xmlns="http://www.w3.org/2000/svg" xmlns:xlink="http://www.w3.org/1999/xlink" x="0px" y="0px"
	 viewBox="0 0 83 83" style="enable-background:new 0 0 83 83;" xml:space="preserve">
<style type="text/css">
	.st0{fill:#FFFFFF;}
	.st1{fill:#007BC7;}
</style>
<g>
	<circle class="st0" cx="41.5" cy="41.5" r="41.5"/>
	<g>
		<g>
			<g>
				<path class="st1" d="M50.15,24.11c2.89,0,4.56-1.78,4.56-4.93c0-2.99-1.59-5.09-4.56-5.09c-2.81,0-4.56,1.78-4.56,5.09
					C45.6,22.09,47.27,24.11,50.15,24.11"/>
				<path class="st1" d="M31.92,22.99c2.76,0,4.35-1.95,4.35-4.76c0-3.2-1.67-4.91-4.35-4.91c-2.83,0-4.35,2.03-4.35,4.91
					C27.57,21.28,29.16,22.99,31.92,22.99"/>
				<path class="st1" d="M61.88,43.01c-0.64-3.43-1.35-5.31-1.64-7.7c-0.64-5.28-2.25-7.82-5.25-8.74
					c-1.43-0.44-2.79-0.64-4.34-0.64h-0.06c-1.55,0-2.91,0.2-4.34,0.64c-1.06,0.33-1.94,0.87-2.67,1.65
					c1.36,0.69,2.16,2.14,2.16,4.3c0,2.73-1.55,4.58-4.24,4.58s-4.24-1.63-4.24-4.58c0-2.05,0.8-3.64,2.31-4.36
					c-1.52-2.1-4.01-3.15-8.09-3.15v0v0c-10.59,0-10.47,6.34-10.48,19.93c0,2.79,2.25,3.69,3.53,3.69c0-12.37,0.46-15.05,0.68-16.03
					c0.09-0.29,0.28-0.25,0.33-0.23c0,0,0.01,0.65,0.01,37.29c0,0,4.43,0.04,4.77-4.6c0,0,0.66-17.54,0.67-17.73
					s0.15-0.45,0.48-0.45c0.33,0,0.46,0.25,0.47,0.45s0.67,17.6,0.67,17.6c0.25,4.53,4.33,4.72,4.75,4.73v-14.2
					c-0.91,0-2.55-0.52-2.67-2.66c-0.27-4.71-0.14-12.24,2.73-13.64c1.76-0.86,6.49-0.86,8.41-0.03c2.65,1.14,2.58,8.88,2.57,13.64
					c0,2.14-1.86,2.7-2.76,2.7v14.19c0.13-0.02,3.38-0.58,3.61-3.83c0,0,0.74-7.92,0.88-11.71c0.51-0.08,0.53-0.09,0.96-0.15
					c0.13,3.7,0.89,11.77,0.89,11.77c0.17,3.42,3.63,3.93,3.63,3.93l0.01-15.77c1.6,0.15,2.67,0.25,2.67,0.25
					c0-8.07-1.95-11.13-2.62-13.66c-0.36-1.35-0.28-2.75,0.04-4.1c0.3-1.27,0.7-2.44,0.08-4.95c0,0,0.32,0.57,0.45,0.94
					c0.72,2.04,0.65,6.28,3.55,15.4C61.07,47.61,62.4,45.81,61.88,43.01"/>
			</g>
		</g>
	</g>
</g>
</svg>
