<?xml version="1.0" encoding="utf-8"?>
<!-- Generator: Adobe Illustrator 28.1.0, SVG Export Plug-In . SVG Version: 6.00 Build 0)  -->
<svg version="1.1" id="Laag_1" xmlns="http://www.w3.org/2000/svg" xmlns:xlink="http://www.w3.org/1999/xlink" x="0px" y="0px"
	 viewBox="0 0 83 83" style="enable-background:new 0 0 83 83;" xml:space="preserve">
<style type="text/css">
	.st0{fill:#FFFFFF;}
	.st1{fill:#007BC7;}
</style>
<g>
	<ellipse transform="matrix(0.9871 -0.1602 0.1602 0.9871 -6.1117 7.1834)" class="st0" cx="41.5" cy="41.5" rx="41.5" ry="41.5"/>
	<g>
		<path class="st1" d="M41.5,50.01c13.36,0,23.82-5.74,23.82-13.07v-6.22c0-7.32-10.46-13.05-23.82-13.05
			c-13.36,0-23.83,5.73-23.83,13.05v6.22c0,1.62,0.53,3.15,1.47,4.56c-0.94,1.41-1.47,2.93-1.47,4.53v6.22
			c0,7.32,10.46,13.07,23.83,13.07c13.36,0,23.82-5.74,23.82-13.07v-6.22c0-0.35-0.05-0.69-0.09-1.03
			c-1.22,1.52-7.78,8.74-23.16,8.74c-13.64,0-18.35-6.56-18.83-7.45c-0.2-0.36-0.34-0.74-0.13-0.96
			C27.44,48.2,34.01,50.01,41.5,50.01 M22.27,31.29c0-4.84,8.61-8.76,19.23-8.76s19.23,3.92,19.23,8.76s-8.61,8.76-19.23,8.76
			S22.27,36.13,22.27,31.29"/>
		<path class="st1" d="M37.85,34.23v1.15h2.65v-0.95c0.52,0.03,1.14,0.03,1.73,0.03h0.65v0.92h2.58v-1.05
			c4.74-0.51,6.99-2.15,6.99-4.54c0-0.93-0.1-1.34-0.52-2.29h-3.5c0.36,0.88,0.49,1.32,0.49,2.14c0,1.05-1.01,1.9-3.46,2.27v-3
			h-2.58v3.22c-0.33,0.02-0.65,0.03-1.04,0.03c-0.46,0-0.88-0.02-1.34-0.03V28.9h-2.65v2.98c-2.39-0.35-3.63-1.12-3.63-2.34
			c0-0.69,0.13-1.1,0.42-1.96h-3.69c-0.3,0.73-0.39,1.24-0.39,1.91C30.56,31.9,33.01,33.61,37.85,34.23"/>
	</g>
</g>
</svg>
