<?xml version="1.0" encoding="utf-8"?>
<!-- Generator: Adobe Illustrator 28.1.0, SVG Export Plug-In . SVG Version: 6.00 Build 0)  -->
<svg version="1.1" id="Laag_1" xmlns="http://www.w3.org/2000/svg" xmlns:xlink="http://www.w3.org/1999/xlink" x="0px" y="0px"
	 viewBox="0 0 83 83" style="enable-background:new 0 0 83 83;" xml:space="preserve">
<style type="text/css">
	.st0{fill:#FFFFFF;}
	.st1{fill:#007BC7;}
</style>
<g>
	<circle class="st0" cx="41.5" cy="41.5" r="41.5"/>
	<path class="st1" d="M67.05,26.43c-0.14-1.03-1.08-1.8-2.19-1.8H53.3v-2.89c0-2.14-1.74-4.13-3.98-4.54
		c-4.67-0.84-9.46-0.84-14.13,0c-2.23,0.41-3.98,2.4-3.98,4.54v2.89H19.64c-1.11,0-2.05,0.77-2.19,1.8l-1.78,13.15
		c-0.06,0.47,0.05,0.94,0.3,1.33c0.25,0.4,0.63,0.69,1.08,0.84c3.24,1.15,11.49,3.49,25.2,3.49s21.96-2.34,25.2-3.49
		c0.45-0.15,0.83-0.45,1.08-0.84c0.25-0.4,0.36-0.87,0.3-1.33L67.05,26.43z M48.88,24.62h-4.5V37h-4.42V24.62h-4.32v-2.89
		c0-0.17,0.26-0.47,0.39-0.49c4.12-0.74,8.34-0.74,12.46,0c0.15,0.03,0.4,0.32,0.4,0.49V24.62z M46.59,49.37v2.06
		c0,1.14-0.99,2.06-2.21,2.06h-4.42c-1.22,0-2.2-0.92-2.2-2.06v-2.06c0-0.03,0.02-0.06,0.02-0.09c-9.33-0.35-15.89-1.73-19.9-2.91
		v13.31c0,1.14,1.07,2.06,2.29,2.06h44.18c0.28,0.01,0.55-0.04,0.81-0.14c0.26-0.1,0.49-0.25,0.69-0.44
		c0.2-0.19,0.36-0.42,0.46-0.68c0.11-0.25,0.16-0.53,0.16-0.8V46.43c-4.05,1.17-10.61,2.53-19.9,2.87
		C46.57,49.32,46.59,49.35,46.59,49.37"/>
</g>
</svg>
