<?xml version="1.0" encoding="utf-8"?>
<!-- Generator: Adobe Illustrator 28.1.0, SVG Export Plug-In . SVG Version: 6.00 Build 0)  -->
<svg version="1.1" id="Laag_1" xmlns="http://www.w3.org/2000/svg" xmlns:xlink="http://www.w3.org/1999/xlink" x="0px" y="0px"
	 viewBox="0 0 83 83" style="enable-background:new 0 0 83 83;" xml:space="preserve">
<style type="text/css">
	.st0{fill:#FFFFFF;}
	.st1{fill:#007BC7;}
</style>
<g>
	<circle class="st0" cx="41.5" cy="41.5" r="41.5"/>
	<g>
		<g>
			<g>
				<path class="st1" d="M58.16,22.18C46.97,17.21,41.5,27.9,41.5,27.9s-5.47-10.69-16.66-5.72c-11.04,4.9-10.3,29.24,15.57,42.79
					c0.68,0.36,1.51,0.36,2.19,0C68.46,51.42,69.19,27.08,58.16,22.18 M55.4,34.61L42.43,51.74c-0.37,0.48-1.07,0.54-1.51,0.12
					L29.78,41.24c-0.41-0.39-0.42-1.03-0.03-1.44l2.81-2.94c0.39-0.41,1.03-0.42,1.44-0.03L41,43.51l9.54-12.59
					c0.34-0.45,0.98-0.54,1.43-0.2l3.24,2.46C55.65,33.52,55.74,34.16,55.4,34.61"/>
			</g>
		</g>
	</g>
</g>
</svg>
