<?xml version="1.0" encoding="utf-8"?>
<!-- Generator: Adobe Illustrator 28.1.0, SVG Export Plug-In . SVG Version: 6.00 Build 0)  -->
<svg version="1.1" id="Laag_1" xmlns="http://www.w3.org/2000/svg" xmlns:xlink="http://www.w3.org/1999/xlink" x="0px" y="0px"
	 viewBox="0 0 83 83" style="enable-background:new 0 0 83 83;" xml:space="preserve">
<style type="text/css">
	.st0{fill:#FFFFFF;}
	.st1{fill:#007BC7;}
</style>
<g>
	<circle class="st0" cx="41.5" cy="41.5" r="41.5"/>
	<g>
		<g>
			<g>
				<path class="st1" d="M72.05,34.1l-28.73-9.27c-0.39-0.13-0.82-0.13-1.21,0L13.38,34.1c-0.44,0.14-0.46,0.76-0.03,0.93l5.62,2.18
					v6.99c-0.6,0.54-0.99,1.32-0.99,2.2c0,0.76,0.29,1.44,0.76,1.96c-1.42,2.23-3.16,5.98-3.26,7.7c-0.12,2.04,2.5,2.89,3.78,3.12
					c1.28,0.23,4.31,0.08,4.6-2.42c0.23-1.95-0.57-6.27-0.93-8.09V48.6c0.6-0.54,0.99-1.32,0.99-2.2s-0.39-1.65-0.99-2.2v-5.46
					l15.52,6.02c0,0.06-0.03,0.28-0.38,0.26l-11.19-1.78v10.02h0.01c0,0.02-0.01,0.04-0.01,0.07c0,3.82,7.09,6.92,15.83,6.92
					c8.74,0,15.83-3.1,15.83-6.92c0-0.02-0.01-0.04-0.01-0.07h0.01V40.28l13.54-5.24C72.51,34.87,72.49,34.25,72.05,34.1"/>
			</g>
		</g>
	</g>
</g>
</svg>
