<?xml version="1.0" encoding="utf-8"?>
<!-- Generator: Adobe Illustrator 28.1.0, SVG Export Plug-In . SVG Version: 6.00 Build 0)  -->
<svg version="1.1" id="Laag_1" xmlns="http://www.w3.org/2000/svg" xmlns:xlink="http://www.w3.org/1999/xlink" x="0px" y="0px"
	 viewBox="0 0 83 83" style="enable-background:new 0 0 83 83;" xml:space="preserve">
<style type="text/css">
	.st0{fill:#FFFFFF;}
	.st1{fill:#007BC7;}
</style>
<g>
	<circle class="st0" cx="41.5" cy="41.5" r="41.5"/>
	<g>
		<g>
			<g>
				<path class="st1" d="M49.29,43.01c-1.38,0-1.66,1.58-1.66,2.91c0,2.65,0.82,3.01,1.63,3.01c1.15,0,1.73-0.9,1.73-2.66
					C50.98,43.35,50.01,43.01,49.29,43.01"/>
				<path class="st1" d="M33.75,33.88c-1.4,0-1.7,1.58-1.7,2.91c0,2.65,0.84,3.01,1.66,3.01c1.4,0,1.7-1.45,1.7-2.66
					C35.41,34.22,34.46,33.88,33.75,33.88"/>
				<path class="st1" d="M58.02,21.31c-5.51-0.92-14.69-0.92-16.52-0.92c-1.84,0-11.01,0-16.52,0.92c-1.9,0.32-3.35,1.77-3.67,3.67
					c-0.92,5.51-0.92,14.69-0.92,16.52c0,1.84,0,11.02,0.92,16.52c0.32,1.9,1.77,3.36,3.67,3.67c5.51,0.92,14.69,0.92,16.52,0.92
					c1.84,0,11.02,0,16.52-0.92c1.9-0.32,3.35-1.77,3.67-3.67c0.92-5.51,0.92-14.69,0.92-16.52c0-5.51,0-11.01-0.92-16.52
					C61.38,23.07,59.93,21.62,58.02,21.31 M28.28,37.08c0-4.7,2.99-6.37,5.56-6.37c3.39,0,5.34,2.23,5.34,6.12
					c0,4.25-2.9,6.19-5.59,6.19C31.17,43.01,28.28,41.98,28.28,37.08 M38.73,52.87l-2.99-1.18l8.5-21.56l2.99,1.18L38.73,52.87z
					 M49.13,52.14c-2.42,0-5.31-1.03-5.31-5.94c0-4.7,2.99-6.37,5.56-6.37c3.39,0,5.34,2.23,5.34,6.12
					C54.72,50.23,51.91,52.14,49.13,52.14"/>
			</g>
		</g>
	</g>
</g>
</svg>
