<?xml version="1.0" encoding="utf-8"?>
<!-- Generator: Adobe Illustrator 28.1.0, SVG Export Plug-In . SVG Version: 6.00 Build 0)  -->
<svg version="1.1" id="Laag_1" xmlns="http://www.w3.org/2000/svg" xmlns:xlink="http://www.w3.org/1999/xlink" x="0px" y="0px"
	 viewBox="0 0 83 83" style="enable-background:new 0 0 83 83;" xml:space="preserve">
<style type="text/css">
	.st0{fill:#FFFFFF;}
	.st1{fill:#007BC7;}
</style>
<g>
	<ellipse transform="matrix(0.9871 -0.1602 0.1602 0.9871 -6.1117 7.1834)" class="st0" cx="41.5" cy="41.5" rx="41.5" ry="41.5"/>
	<path class="st1" d="M67.55,34.96L42.76,12.16c-0.19-0.18-0.45-0.28-0.71-0.28c-0.26,0-0.52,0.1-0.71,0.28L16.56,34.96
		c-0.21,0.2-0.38,0.43-0.5,0.7c-0.12,0.26-0.18,0.55-0.18,0.84v1.55c0,0.58,0.47,1.05,1.05,1.05h4.19v21.98h15.7v-15.7h10.47v15.7
		h15.7V39.1h4.18c0.14,0,0.27-0.03,0.4-0.08c0.13-0.05,0.24-0.13,0.34-0.23c0.1-0.1,0.17-0.21,0.23-0.34
		c0.05-0.13,0.08-0.26,0.08-0.4V36.5c0-0.29-0.06-0.57-0.18-0.84C67.93,35.4,67.76,35.16,67.55,34.96"/>
</g>
</svg>
