<?xml version="1.0" encoding="utf-8"?>
<!-- Generator: Adobe Illustrator 28.1.0, SVG Export Plug-In . SVG Version: 6.00 Build 0)  -->
<svg version="1.1" id="Laag_1" xmlns="http://www.w3.org/2000/svg" xmlns:xlink="http://www.w3.org/1999/xlink" x="0px" y="0px"
	 viewBox="0 0 83 83" style="enable-background:new 0 0 83 83;" xml:space="preserve">
<style type="text/css">
	.st0{fill:#FFFFFF;}
	.st1{fill:#007BC7;}
</style>
<g>
	<circle class="st0" cx="41.5" cy="41.5" r="41.5"/>
	<path class="st1" d="M64.12,35.02c1.19-0.72,1.94-1.57,2.16-2c0.44-0.89,0.15-2.42-1.55-2.71c-0.75-0.13-2.17-0.01-3.43,0.15
		c-0.97-3.07-2.66-8.05-3.65-8.96c-1.33-1.21-5.97-1.81-16.15-1.81s-14.83,0.6-16.15,1.81c-0.99,0.91-2.68,5.89-3.65,8.96
		c-1.26-0.15-2.68-0.27-3.43-0.15c-1.7,0.29-1.99,1.82-1.55,2.71c0.21,0.43,0.96,1.28,2.16,2c-1.95,2.29-2.52,4.28-2.52,7.99v10.12
		c0,0,0,2.96,0.47,4.93c0.17,0.72,0.93,1.23,1.81,1.23h6.5c0.88,0,1.63-0.51,1.81-1.23c0.26-1.1,0.38-2.51,0.43-3.54l-6.16-1.08
		c-0.32-0.09-0.27-0.27-0.25-0.32h41.06c0.02,0.05,0.07,0.23-0.25,0.32l-6.16,1.08c0.05,1.03,0.17,2.44,0.43,3.54
		c0.17,0.72,0.93,1.23,1.81,1.23h6.5c0.87,0,1.63-0.51,1.8-1.23c0.47-1.97,0.47-4.93,0.47-4.93V43.01
		C66.64,39.31,66.07,37.31,64.12,35.02z M28.33,23.86L28.33,23.86c0.59-0.26,4.92-0.7,13.17-0.7c8.26,0,12.59,0.44,13.18,0.7
		c0.58,0.87,2.45,6.5,2.99,8.78c-2.94,0.72-9.63,1.2-16.17,1.2c-6.53,0-13.22-0.48-16.16-1.2C25.87,30.36,27.74,24.73,28.33,23.86z
		 M29.92,46.73L24,46.31c-0.68-0.04-1.34-0.3-1.86-0.75s-0.88-1.05-1.03-1.72l-0.25-1.48c-0.15-0.92,0.93-1.7,1.99-1.44l4.79,1.17
		c1.04,0.35,1.83,1.07,2.17,1.96l0.66,2.13C30.57,46.47,30.28,46.75,29.92,46.73z M47.53,50.5H35.47v-2.64h12.07V50.5z M62.13,42.37
		l-0.24,1.48c-0.14,0.67-0.5,1.27-1.03,1.72c-0.52,0.44-1.17,0.71-1.86,0.75l-5.92,0.41c-0.36,0.02-0.65-0.26-0.56-0.54l0.66-2.13
		c0.34-0.9,1.12-1.61,2.17-1.96l4.79-1.17C61.2,40.67,62.28,41.45,62.13,42.37z"/>
</g>
</svg>
