<?xml version="1.0" encoding="utf-8"?>
<!-- Generator: Adobe Illustrator 28.1.0, SVG Export Plug-In . SVG Version: 6.00 Build 0)  -->
<svg version="1.1" id="Laag_1" xmlns="http://www.w3.org/2000/svg" xmlns:xlink="http://www.w3.org/1999/xlink" x="0px" y="0px"
	 viewBox="0 0 500 476" style="enable-background:new 0 0 500 476;" xml:space="preserve">
<style type="text/css">
	.st0{fill:#FFFFFF;}
	.st1{fill:#007BC7;}
	.st2{fill:#636362;}
	.st3{fill:#92D2F4;}
	.st4{fill:#90CBE8;}
	.st5{fill:#82BDDA;}
	.st6{fill:#55210E;}
	.st7{fill:#391403;}
	.st8{fill:#A8DBF6;}
	.st9{fill:#E2ADA1;}
	.st10{fill:#2E2D2C;}
	.st11{fill:#1D1E1C;}
	.st12{fill:#E16F0D;}
	.st13{fill:#C6C5C5;}
	.st14{fill:#B3B3B2;}
	.st15{fill:#E5B6AB;}
	.st16{fill:#E78C3E;}
	.st17{fill:#D8A699;}
	.st18{fill:#EFEFEF;}
	.st19{fill:#F8F8F8;}
</style>
<g id="illustraties">
	<g>
		<g>
			<path class="st0" d="M42.63,476h435.02c36.06-35.6,17.5-190.09-12.62-211.8c-32.42-23.37-0.66-97.41-50.6-123.65
				c-32.61-17.13-57.08-4.79-78.67-41.68C310.41,55.54,268.28,2.8,189.81,43.78c-60.52,31.61-27.65,92.55-126.68,110.9
				c-50.92,9.43-41.08,90.16-36.33,106.84c4.14,14.53,31.5,37.57-6.53,69.31C-35.49,377.36,41.32,475.14,42.63,476z"/>
		</g>
		<g>
			<g>
				<g>
					<g>
						<ellipse class="st1" cx="285.39" cy="152.1" rx="21.28" ry="20.74"/>
					</g>
					<polygon class="st1" points="268.05,159.83 272.69,164.39 277.34,168.95 263.93,172.87 					"/>
				</g>
				<g>
					<g>
						<g>
							<path class="st0" d="M285.74,154.28c-0.15,0.1-0.32,0.14-0.49,0.14c-0.17,0-0.34-0.05-0.49-0.14l-10.21-6.59v10.78
								c0,0.16,0.1,0.3,0.23,0.38l6.74-4.8c0,0,0.1,0.07,0.01,0.19c-0.08,0.1-3,3.58-3.91,4.67h15.28
								c-0.91-1.09-3.83-4.57-3.91-4.67c-0.1-0.11,0.01-0.19,0.01-0.19l6.74,4.8c0.14-0.07,0.24-0.21,0.24-0.38v-10.78
								L285.74,154.28z"/>
							<path class="st0" d="M295.89,145.64c-0.08-0.13-0.22-0.22-0.38-0.22h-20.52c-0.16,0-0.3,0.09-0.38,0.22l10.64,6.87
								L295.89,145.64z"/>
						</g>
					</g>
				</g>
			</g>
			<g>
				<g>
					<rect x="364.19" y="96.06" class="st2" width="3.45" height="256.75"/>
					<g>
						<path class="st2" d="M382.32,357.11H349.5c0-5.49,7.35-9.94,16.41-9.94S382.32,351.63,382.32,357.11"/>
						<path class="st2" d="M344.17,364.29h45.26c1.87,0,3.39-1.48,3.39-3.3v-0.57c0-1.82-1.52-3.3-3.39-3.3h-45.26
							c-1.87,0-3.39,1.48-3.39,3.3v0.57C340.79,362.81,342.3,364.29,344.17,364.29"/>
						<path class="st3" d="M423.68,125.65c0,0-8.16,6.37-59.5,6.37s-59.5-6.37-59.5-6.37l31.4-61.22h56.19L423.68,125.65z"/>
					</g>
				</g>
				<g>
					<g>
						<path class="st4" d="M90.11,209.37c0,0-7.34-55.19-9.96-62.63c0,0-15.77-17.51,0-25.83s133.61-11.82,145.25,2.19
							c11.64,14.01,13.67,68.73,13.67,68.73l-2.04,60.2l-99.69,8.08L90.11,209.37z"/>
						<path class="st5" d="M292.49,203.8c0,0-7.89-7.6-50.79-11.98c0,0-21.01,1.31-15.32,56.91l36.82,11.38
							C263.2,260.11,269.31,196.52,292.49,203.8"/>
					</g>
					<polygon class="st6" points="98.14,298.35 98.14,349.86 103.66,349.86 109.11,297.16 					"/>
					<polygon class="st7" points="98.14,298.35 93.3,296.44 94.35,346.03 98.14,349.86 					"/>
					<polygon class="st6" points="131.83,330.73 131.83,382.25 137.35,382.25 142.8,329.54 					"/>
					<polygon class="st7" points="131.83,330.73 126.99,328.82 128.04,378.42 131.83,382.25 					"/>
					<polygon class="st6" points="286.55,314.54 286.55,366.06 292.07,366.06 297.53,313.35 					"/>
					<polygon class="st7" points="286.55,314.54 281.71,312.63 282.76,362.23 286.55,366.06 					"/>
					<polygon class="st6" points="252.86,282.16 252.86,333.67 258.38,333.67 263.83,280.97 					"/>
					<polygon class="st7" points="252.86,282.16 248.02,280.25 249.07,329.84 252.86,333.67 					"/>
					<g>
						<path class="st3" d="M286.52,234.23c0,0,14.77-2,11.98-19.16c-2.79-17.17-19.96-16.77-26.75-11.18s-13.57,15.97-6.79,73.46
							l0.4,31.94h23.55C288.91,309.28,294.1,300.1,286.52,234.23"/>
						<path class="st8" d="M122.63,240.85l-38.08-9.19c0,0-13.57-20.13,7-30.64c0,0,38.27-3.2,45.8,5.51L122.63,240.85z"/>
						<path class="st8" d="M87.64,232.41c0,0-6.1,64.04,0,70.61c6.1,6.56,32.36,20.13,32.36,20.13s13.79-54.82,2.63-82.3
							L87.64,232.41z"/>
						<path class="st3" d="M122.63,240.85c0,0-16.2-2.19-13.13-21.01c3.06-18.82,21.89-18.39,29.33-12.26s14.88,17.51,7.44,80.55
							l-0.44,35.02H120C120.01,323.15,114.32,313.08,122.63,240.85"/>
						<path class="st8" d="M119.35,274.58c0,0-4.16,40.26,0.65,48.57c0,0,7.44,10.07,19.26,7.01s128.29-9.04,159.57-9.91
							c0,0,15.3-28.66-4.54-52.35C294.3,267.89,208.44,248.77,119.35,274.58"/>
						<path class="st3" d="M226.38,248.73c0,0-48.12-6.86-77.03,3.06l-0.72,11.68c0,0-28.85,4.92-29.28,11.1c0,0,1.09,6.58,33.05,0
							s141.9-6.69,141.9-6.69s0.9-8.66-31.1-7.78L226.38,248.73z"/>
						<path class="st4" d="M183.62,192.11c0,0-6.24-3.82-7.28-2.09c-1.04,1.73,3.63,6.25,3.63,6.25s-11.81,27.91-3.17,48.97
							c0,0-5.13,7.84-1.99,7.21c3.14-0.63,6.5-2.55,6.5-2.55s22.88,8.45,55.82,5.73c0,0,3.07,2.45,5.68,1.42
							c2.61-1.03-2.9-4.53-2.9-4.53s7.14-23.92-1.75-54.02c0,0,3.9-4.24,2.52-5.97c-1.39-1.74-6.59,1.72-6.59,1.72
							S207.91,182.79,183.62,192.11"/>
						<path class="st9" d="M243.84,378.46c9.31-2-14.07-18.43-13.07-26.83c2.6-21.96,15.08-68.92,20.74-81.83
							c3.22-7.39-35.54-22.69-36.6,2.05c-9.34,14.44-1.49,76.38-1.49,76.38c-2.02,7.19-10.31,15.66-6.66,18.61
							c3.64,2.95,11.5,7.81,14.46,5.96c1.56-0.96,6.52,0.89,11.51,2.74C237.26,377.22,241.82,378.9,243.84,378.46"/>
						<path class="st10" d="M204.05,368.28c-2.83,0.94-3.31,2.37-1.13,4.15c2.21,1.78,12.17,3.95,14.25,2.61
							c2.06-1.36,7.73,2.8,11.47,4.68c8.58,4.32,24.05,3.25,25.56-2.97c1.15-4.75-3.39-1.13-14.51-14.52
							c-4.02-4.83-7.67,8.36-11.35,9.63C224.66,373.15,204.05,368.28,204.05,368.28"/>
						<path class="st9" d="M203.69,380.83c-0.64-1.02-10.43-16.73-7.83-25.24c7.15-23.48,28.75-72.38,39.81-82.28
							c6.31-5.67-18.87-36.31-30.67-13.07c-15.22,9.75-26.21,89.37-26.21,89.37c-5.05,6-8.71,10.16-8.61,13.7
							c0.13,4.27,4.99,7.48,8.64,7.01c3.66-0.48,7.8,10.63,14.99,13.07C200.99,385.88,206.16,384.68,203.69,380.83"/>
						<path class="st10" d="M167.79,361.68c-0.87,1.69-2.51,4.14-0.13,6.79c2,2.2,3.35,3.7,5.91,4.15
							c2.56,0.39,7.43,7.21,10.55,10.31c3.11,3.09,13.91,11.97,25.77,7.79c4.85-1.71-7.67-17.73-9.81-20.73
							c-2.13-3.01-14.71,2.66-18.42,0.92C172.24,366.51,167.79,361.68,167.79,361.68"/>
						<path class="st11" d="M145.42,219.14c0,0,50.4-5.05,58.5-2.81c3.88,1.07,13.31,0.61,18.49,13.75l24.83,7.92
							c8.81,4.15,6.52,13.38,8.3,25.26c0.67,4.53-3.72,53.45-3.72,53.45s-2.95,3.79-9.42-2.55c-2.01-1.97-7,1.15-7.46,1.24
							c-1.82,0.32-3.36,0.04-4.81-0.24c-1.57-0.31-3.04-0.61-4.61-0.14c-2.55,0.76-4.67,1.59-6.18,2.51c-3,1.86-6.54,4.11-9.47,5.55
							c-21.32,10.6-42.02,11.4-42.44,9.41c-0.68-3.14,3.48-43.94,2.12-52.64c-0.53-3.41,1.61-6.69-1.04-9.06
							c-14.64-2.65-25.9-5.48-29.89-10.91C130.33,248.55,136.34,229.32,145.42,219.14"/>
						<path class="st10" d="M199.34,246.29c5.97-4.78,12.66-3.93,17.71-3.09c3.45,0.58,6.13,1.16,7.3-0.05
							c7.04-7.3,19.36-6.22,23.63-4.78c-18.85-7.6-25.38-11.31-32.93-11.31s-42.74,3.02-48.28,6.53
							C161.26,237.11,199.34,246.29,199.34,246.29"/>
						<path class="st12" d="M223.6,150.13c4.53,3.52,7.54,5.53,8.55,10.06c1,4.52,12.32,40.1,12.82,49.15
							c0.5,9.06-4.52,15.97-11.06,15.46c-6.53-0.5-7.67-1.51-16.21-23.13C209.15,180.05,223.6,150.13,223.6,150.13"/>
						<path class="st13" d="M235.04,125.81c-2.63,2.45-4.11,5-3.88,6.04c0.24,1.05,2.09,6-0.6,5.73c-2.69-0.29-3.32,4.07-0.48,4.54
							c1,0.15-2.18,2.99-5.22,2.68c-1.33-0.14-1.54,0.63-1.81,1.4c-0.34,0.98-0.77,1.95-3.72,1.07c-5.27-1.57-5.15,0.49-6.06-7.1
							c-0.9-7.57,3.15-23.48,4.6-24.35c1.45-0.87,11.09-15.51,15.78-11.61C238.36,108.12,235.04,125.81,235.04,125.81"/>
						<path class="st9" d="M217.34,131.34c-3.58,4.44-3.67,14.39-4.79,24.58c-0.71,6.39-12.45,0.85-15.08-0.51
							c-2.65-1.35-12.82-22.25-12.82-22.25s10.93-11.69,13.86-22.54C199.63,106.38,217.34,131.34,217.34,131.34"/>
						<path class="st14" d="M192.04,107.82c-3.66,3.73-1.22,8.83-1.31,11.65c-0.1,2.84-3.06,4.01-2.41,5.48
							c1.88,4.3-12.27,13.07-11.74,14.12c2.02,3.93-22.29,0.19-19.1-2.01c8.04-5.53,5.52-4.77,5.52-4.77s-10.96-0.49-4.78-2.51
							c2.34-0.76,10.32-5.92,10.57-7.8c1.76-13.57,6.35-11.11,8.3-12.82c4.03-3.52,6.19-7.57,9.46-12.65
							C189.85,91.42,192.04,107.82,192.04,107.82"/>
						<path class="st0" d="M197.71,147.36c3.77,5.79,7.04,7.55,8.55,9.81c1.51,2.26,1.76,10.3,1.76,13.07
							c0,2.76-9.3,2.01-14.58-3.78c-5.27-5.77-15.84-21.36-15.33-26.64C178.6,134.54,197.71,147.36,197.71,147.36"/>
						<path class="st0" d="M208.26,173c0.76-6.54-2.51-14.32-1-15.07c1.51-0.76,4.77-10.06,4.77-12.57c0-2.52,6.03,8.03,6.29,12.06
							C218.58,161.45,208.26,173,208.26,173"/>
						<path class="st15" d="M197.79,102.8c1.76-11.01,1.13-22.01,18.09-19.51c3.85,0.56,6.86,1.41,9.22,2.52
							c1.03-0.2,2.07-0.35,3.1-0.41c3.78,1.24,5.6,4.13,6.9,9.5c1.88,8.34-1.63,20.1-4.72,27.1c-3.41,7.2-4.3,11.15-10.07,16.02
							c-2.44,1.06-5.23,2.76-9.69,1.99c-11.97-2.12-15.59-13.12-15.51-22.81c-2.09-1.41-3.64-5.9-3.38-9.29
							C192.09,103.48,194.26,99.98,197.79,102.8"/>
						<path class="st14" d="M226.34,103.02c5.06-1.52,9.17,8.3,7.25,10c-1.89,1.7-2.51,2.35-1.26,4.23
							c1.25,1.88,1.22,2.45-0.16,2.81c-1.37,0.37-1.17,4.91-1.17,4.91s5.1,2.77,3.2,4.47c-1.9,1.71-5.58,1.89-3.34,2.01
							c2.27,0.13,8.81,0.04,9.02-3.57c0.2-3.59-1.98-4.06-0.46-7.14c1.53-3.07,1.57-0.63,1.82-5.15c0.25-4.5-1.29-5.27-1.62-7.55
							c-0.32-2.27,2.71-1.99,0.81-8.65c-0.96-3.39-1.84-3.48-4.25-9.05c-2.4-5.54-13.09-10.32-15.81-6.18
							C223.36,95.63,226.34,103.02,226.34,103.02"/>
						<path class="st16" d="M212.54,229.7c0,0-79.76,14.88-77.68,8.67c5.58-16.66,11.5-31.35,13.43-38.14
							c2.35-8.27-7.28-53.75,10.7-61.41c6.36-2.72,16.69-9.13,24.12-11.47c0,0,6.77,16.19,9.44,23.35
							c2.37,6.35,6.91,17.72,18.86,15.84C213.16,171.69,212.54,229.7,212.54,229.7"/>
						<path class="st16" d="M225.07,151.26c-7.16-5.77-8.68-7.83-8.76-8.12c1.76,23.37-8.63,22.24-8.67,23.58
							c-0.32,10.8,7.66,14.27-1.7,45.63c0,0,0.86,18.22,1.51,18.29c3.02,0.37,11.13,0.95,16.03-2.44l-0.77-2.65h0.02l-0.08-0.22
							l-1.8-6.19l-0.29,0.03c-6.38-21.11,4.13-17.89,4.94-37.04c0.16-3.89-0.51-19.19-0.51-19.19s1.65-8.77-0.41-10.43"/>
						<path class="st0" d="M214.3,139.07c1.51,2,4.77,12.56,5.02,13.32c0.25,0.76,1.01,10.06,1.01,10.06s-2.27-10.06-5.78-8.8
							c-3.52,1.26-3.78-0.25-3.78-0.25s0.01-10.06,1.26-11.56C213.3,140.33,214.3,139.07,214.3,139.07"/>
						<path class="st14" d="M226.34,103.02c-3.3-1.53-7.53-4.82-13.21-2.08c-8.3,4-9.47,7.84-9.47,7.84s-2.19,3.24-3.56,3.19
							c-1.06-0.04-1.86-5.09-4.45-2.72c-2.61,2.38-1.69,8.44-3.4,10.97c-1.98,2.93-5.02,2.01-5.15,3.33
							c-0.62,6.29-5.07,5.53-5.6,5.73c-2.64,1-0.48,0.42-6.78,4.4c-2.54,1.62-9.93-0.13-9.93-0.13
							c8.87,2.76,20.09-15.86,20.98-19.86c0.9-4.03-2.54-4.01-2.29-8.73c0.26-4.74,2.3-7.82,4.51-11.09
							c2.22-3.27,4.72-7.6,10.98-10.63c6.28-3.06,14.39-6.9,23.56-0.97C225.37,84.08,226.34,103.02,226.34,103.02"/>
						<path class="st17" d="M243.71,221.28c-1.51,1-5.4,2.51-7.04,2.63c-1.63,0.13-7.04-1.51-7.91-3.89
							c-0.88-2.39,0.88-2.14,3.64-1.76C235.17,218.64,243.71,221.28,243.71,221.28"/>
						<path class="st11" d="M256.1,178.14c0.71,0.11,1.14,1.01,1.04,1.95l-3.77,37.3c-0.1,0.93-0.74,1.7-1.42,1.76l-52.99,4.1
							c-1.21,0.1-2.1-0.87-1.99-2.06l2.7-39.62c0.08-1.29,1.2-2.16,2.42-1.97L256.1,178.14z"/>
						<path class="st17" d="M183.72,206.29c-0.85-1.6,1.97-5.27,3.32-8.46c0,0,9.15-4.26,16.12-4.41c1.63-0.04,2.67,0.48,6.01,1.45
							c2.5,0.73,2.65,2.22,0.1,2.25c-2.14,0.03-4.45-0.62-4.45-0.62l-3.63,0.51c0,0,2.93-0.05,3.72-0.03
							c0.79,0.01,4.73,1.19,5.78,1.35c1.5,0.19,2.23,1.92-0.11,2.11c-2.33,0.21-3.72-0.26-4.93-0.26c-1.7-0.03-4.67,0.24-4.67,0.24
							c3.48,0.19,8.43-0.03,9.71,0.79c1.26,0.82,0.68,2.49-1.86,2.04c-4.59-0.85-7.86,0.07-7.86,0.07l6.42,0.05
							c0,0,2.25,1.3-0.84,1.66c-7.83,0.88-13.88,2.78-16.45,2.3C187.97,206.91,184.32,207.46,183.72,206.29"/>
						<path class="st18" d="M178.56,209.47c-0.41-2.55,1.5-12.18,5.24-14.18c2.15,0.75,4.25,0.69,4.25,0.69s2.32,4.25-2.03,15.34
							L178.56,209.47z"/>
						<path class="st12" d="M225.51,178.96c-0.08-5.86-0.53-16.02-0.53-16.02s1.65-8.77-0.41-10.44c-0.23-0.19,0.19-0.44-0.04-0.62
							c0.41-0.18,0.16-0.34,0.53-0.62c3.72,2.87,6.19,4.9,7.08,8.92c0.43,1.94,2.76,9.62,5.33,18.46L225.51,178.96z"/>
						<path class="st14" d="M221.25,147.62c-0.48,0-1.1-0.1-1.92-0.34c-0.16-0.05-0.31-0.09-0.45-0.13c-2.1-2.44-2.52-3.81-2.57-4
							c0.01,0.15,0.02,0.29,0.03,0.43c-0.72-1.92-1.43-3.61-1.95-4.38c0-0.03,0.01-0.06,0.02-0.1c1.57-0.46,2.88-1.16,4.1-1.68
							c5.76-4.86,6.66-8.82,10.07-16.02c1.63-3.7,3.38-8.72,4.39-13.86c1.13,2.29,1.5,4.73,0.63,5.49c-1.9,1.7-2.51,2.35-1.26,4.23
							c1.25,1.88,1.22,2.45-0.16,2.81c-1.37,0.37-1.17,4.91-1.17,4.91s1.74,0.95,2.81,2.07c-0.06,0.07-0.12,0.13-0.18,0.2
							c-1.27,1.42-2.1,2.76-2.38,3.72c-1.07,0.34-1.62,0.43-0.39,0.49c0.09,0,0.18,0.01,0.28,0.01c-0.01,0.15-0.01,0.28,0.01,0.39
							c0.23,1.02,1.99,5.74-0.39,5.74c-0.07,0-0.13,0-0.21-0.01c-0.09-0.01-0.17-0.02-0.25-0.02c-2.47,0-2.97,4.1-0.23,4.56
							c0.95,0.14-1.86,2.71-4.75,2.71c-0.16,0-0.31,0-0.47-0.02c-0.1-0.01-0.21-0.02-0.3-0.02c-1.07,0-1.26,0.71-1.51,1.41
							C222.81,146.91,222.51,147.62,221.25,147.62"/>
						<path class="st0" d="M193.19,158.93c0,0-13.33-24.13-13.33-26.9c0-0.67,0.45-1.42,1.14-2.18c2.81,6.82,8.26,10.1,10.12,10.1
							c0.03,0,0.08,0,0.11,0h-0.01c-1.38,0-8.06-10.7-2.63-10.93c0.16-0.01,0.32-0.03,0.47-0.06c2.19,5.18,6.06,12.22,8.9,16.6
							c1.52,2.34,2.74,3.93,3.25,4.07c-0.42,0.18-0.86,0.45-1.3,0.79c-1.82,1.39-3.72,3.9-5.03,5.83
							C193.86,157.76,193.19,158.93,193.19,158.93"/>
						<path class="st0" d="M220.33,162.45c0,0-1.58-7.04-4.16-8.61c-0.32-0.19-0.66-0.3-1.01-0.3c-0.2,0-0.41,0.03-0.61,0.11
							c-1.03,0.37-1.79,0.5-2.33,0.5c-1.32,0-1.45-0.75-1.45-0.75s0-1.23,0.06-2.88c0.1-3.1,0.39-7.7,1.2-8.69
							c1.1-1.31,1.99-2.43,2.21-2.7c0.04-0.04,0.05-0.06,0.05-0.06c0.01,0.01,0.02,0.03,0.03,0.03c0.02,0.03,0.03,0.05,0.05,0.08
							c0.52,0.77,1.23,2.46,1.95,4.38c1.4,3.73,2.82,8.33,2.99,8.82C219.58,153.15,220.33,162.45,220.33,162.45"/>
						<path class="st13" d="M191.12,139.95c-1.86,0-7.31-3.28-10.12-10.1c-0.05-0.12-0.09-0.22-0.13-0.34
							c0.17-0.07,0.37-0.15,0.62-0.24c0.52-0.2,4.98,0.56,5.6-5.72c0.13-1.33,3.17-0.41,5.15-3.33c0.67-0.99,0.94-2.52,1.17-4.16
							l-0.08,1.49c0.29,0.41,0.37,1.74,0.19,3.35c-0.02,0.21-0.05,0.43-0.08,0.65c-0.46,3.1-1.81,6.89-4.37,7.41
							c-0.16,0.03-0.31,0.05-0.47,0.06c-5.43,0.23,1.25,10.93,2.63,10.93h0.01C191.2,139.95,191.16,139.95,191.12,139.95"/>
						<path class="st12" d="M150.19,144.85c-5.83,5.83-15.52,44.56-10.44,62.97c1.67,6.02,43.5,8.35,43.5,8.35
							s5.43-19.65,1.95-20.79c-14.9-4.9-23.95-6.79-23.95-6.79s8.8-11.31,10.57-24.89C175.36,136.39,156.73,138.31,150.19,144.85"/>
						<path class="st17" d="M234.48,221.94c0,0,0.01,0.74,0.84,1.04c0.64,0.24,1.48-0.03,1.68-0.84c0.4-1.48,0.45-2.07,0.52-2.66
							c0.22-1.73-0.48-3.51-1-3.57c-0.51-0.07-0.63,2.27-1.03,3.77C235.1,221.16,234.48,221.94,234.48,221.94"/>
						<path class="st17" d="M236.63,221.88c0.18,1.03,1.63,2.06,2.6,1.08c0.98-0.97,0.94-2.54,1.15-3.76
							c0.2-1.24,0.13-3.81-0.92-4.34c-0.76-0.37-1.12,2.17-1.32,3.45C237.75,220.66,236.63,221.88,236.63,221.88"/>
						<path class="st17" d="M239.65,222.4c0.71,1.01,2.15,1.01,2.73-0.08c0.59-1.1,0.6-2.34,0.65-3.38
							c0.12-2.95-0.55-4.71-1.07-4.71c-1.01,0-1.25,3.36-1.32,4.52C240.55,219.94,239.65,222.4,239.65,222.4"/>
						<path class="st17" d="M242.33,221.7c0.97,0.33,2.01,0.79,2.4-0.37c0.16-0.46,0.6-1.41,0.68-2.57c0.11-1.8,0.08-3.75-0.7-3.83
							c-0.99-0.1-1.06,1.63-1.3,3.05C243.18,219.37,242.33,221.7,242.33,221.7"/>
						<path class="st19" d="M187.65,124.99c1.76,6.78,11.81,24.13,13.57,24.64c-3.52,1.51-8.04,9.3-8.04,9.3
							s-13.33-24.13-13.33-26.9C179.86,129.27,187.65,124.99,187.65,124.99"/>
						<path class="st14" d="M191.34,112.76c-0.14,1.49,0.5-0.26,1.17-2.02c0.59-1.54,1.2-3.09,1.33-2.4l-0.51,9.2
							c0.9,1.27-0.21,11.28-4.73,11.48c-5.44,0.23,1.27,10.97,2.64,10.93c-1.89,0.16-8.37-3.71-10.91-11.99
							c-0.87-2.81,3.94-7.86,4.89-10.84C186.17,114.16,191.34,112.76,191.34,112.76"/>
						<path class="st3" d="M122.63,240.85c0,0-16.2-2.19-13.13-21.01c3.06-18.82,21.89-18.39,29.33-12.26s14.88,3.93,7.44,66.97
							h-0.44H120L122.63,240.85z"/>
						<path class="st16" d="M225.07,151.26c0,0,2.01,14.75,0.05,23.92c-1.96,9.18-3.57-20.24-3.57-20.24L225.07,151.26z"/>
					</g>
				</g>
			</g>
		</g>
	</g>
</g>
</svg>
