<?xml version="1.0" encoding="utf-8"?>
<!-- Generator: Adobe Illustrator 28.1.0, SVG Export Plug-In . SVG Version: 6.00 Build 0)  -->
<svg version="1.1" xmlns="http://www.w3.org/2000/svg" xmlns:xlink="http://www.w3.org/1999/xlink" x="0px" y="0px"
	 viewBox="0 0 500 476" style="enable-background:new 0 0 500 476;" xml:space="preserve">
<style type="text/css">
	.st0{display:none;}
	.st1{display:inline;fill:#E5F1F9;}
	.st2{fill:#FFFFFF;}
	.st3{fill:#D1D5D8;}
	.st4{fill:#587A8C;}
	.st5{fill:#2E5A71;}
	.st6{opacity:0.1;}
	.st7{fill:#F9AF00;}
	.st8{fill:#E16F0D;}
	.st9{fill:#EA9B72;}
	.st10{fill:#DFA273;}
	.st11{fill:#593F2B;}
	.st12{fill:#E5DBD0;}
	.st13{fill:#846552;}
	.st14{opacity:0.05;}
	.st15{fill:#EA9A56;}
	.st16{fill:#302A2A;}
	.st17{fill:#CCD6DC;}
	.st18{fill:#172D38;}
	.st19{fill:#1C3947;}
	.st20{fill:#26282D;}
	.st21{fill:#6E150E;}
	.st22{fill:#981915;}
	.st23{fill:#CB9382;}
	.st24{fill:#D1A191;}
	.st25{fill:#DFAB9A;}
	.st26{fill:#154273;}
	.st27{opacity:0.14;}
	.st28{fill:#BD8B70;}
	.st29{fill:#F7F8F9;}
	.st30{fill:#D3DCE0;}
	.st31{fill:#F9C29D;}
	.st32{fill:#007BC7;}
	.st33{fill:#C6C6C5;}
	.st34{fill:#303031;}
	.st35{fill:#3C3C3B;}
	.st36{fill:none;}
	.st37{fill:#B9CEEC;}
	.st38{fill:#2A2A29;}
	.st39{fill:#F7BA94;}
	.st40{fill:#3A8835;}
	.st41{fill:#ECB192;}
	.st42{fill:#123863;}
	.st43{fill:#D2E0F3;}
	.st44{fill:#DEF2FC;}
	.st45{fill:#F7B998;}
	.st46{fill:#A07358;}
	.st47{fill:#93694F;}
	.st48{fill:#333332;}
	.st49{fill:#AA795B;}
	.st50{fill:#55210E;}
	.st51{fill:#026A9D;}
	.st52{fill:#5A5A5A;}
	.st53{fill:#C2C6CC;}
	.st54{fill:#757576;}
	.st55{fill:#636362;}
	.st56{fill:#121211;}
	.st57{fill:#575756;}
	.st58{fill:#B1B1B1;}
	.st59{fill:#F5BBD6;}
	.st60{fill:#44195E;}
	.st61{fill:#F3A07F;}
	.st62{fill:#92D2F4;}
	.st63{fill:#5B3571;}
	.st64{fill:#2D2D2B;}
	.st65{fill:#3F245D;}
	.st66{fill:#66C5EE;}
	.st67{fill:#CF670B;}
	.st68{fill:#CE532D;}
	.st69{fill:#E47E26;}
	.st70{fill:#574048;}
	.st71{fill:#90CBE8;}
	.st72{fill:#FFAB90;}
	.st73{fill:#AA6154;}
	.st74{fill:#C8CCDC;}
	.st75{fill:#2C5581;}
</style>
<g id="achtergrond" class="st0">
	<rect class="st1" width="500" height="476"/>
</g>
<g id="illustraties">
	<g>
		<g>
			<path class="st2" d="M43.89,476h435.02c36.06-35.6,17.5-190.09-12.62-211.8c-32.42-23.37-2.86-97.84-52.26-125.08
				c-33.65-18.56-76.81-8.21-98.4-45.09c-25.36-43.33-67.34-73.46-124.57-50.24c-63.27,25.67-27.65,92.55-126.68,110.9
				c-50.92,9.43-41.08,90.16-36.33,106.84c4.14,14.53,31.5,37.57-6.53,69.31C-34.22,377.36,42.58,475.14,43.89,476z"/>
		</g>
		<g>
			<g>
				<g>
					<rect x="86.64" y="352.65" class="st54" width="66.15" height="5.72"/>
					<ellipse class="st58" cx="119.71" cy="352.65" rx="33.07" ry="1.95"/>
					<ellipse class="st54" cx="119.71" cy="358.37" rx="33.07" ry="1.95"/>
				</g>
				<g>
					<path class="st7" d="M161.5,114.22c0,0-3.92,0.1-9.36,0.22c-0.35,0.01-0.71,0.02-1.07,0.03c-3.8,0.1-8.21,0.2-12.51,0.31
						c-0.35,0.01-0.7,0.02-1.04,0.03h-0.12c-0.35,0.01-0.71,0.02-1.06,0.02c-6.25,0.16-11.96,0.32-14.77,0.4
						c-0.12,0-0.23,0.01-0.34,0.01c-0.18,0.01-0.35,0.01-0.5,0.02c-0.07,0-0.14,0-0.22,0c-0.58,0.02-1.36,0.03-2.31,0.04
						c-3.24,0.04-8.41,0.05-13.98,0.04c-0.35,0-0.71,0-1.07,0c-4.61,0-9.43-0.02-13.6-0.04c-0.37,0-0.72,0-1.08,0
						c-6.08-0.02-9.98-0.84-9.98-0.84L94.43,60.4c0,0,2.1-0.02,5.16-0.03c0.34,0,0.69,0,1.05,0c2.04-0.01,4.4-0.01,6.82,0
						c0.35,0,0.7,0,1.06,0c2.67,0.01,5.35,0.03,7.68,0.08c0.36,0,0.71,0.01,1.06,0.02c0.36,0.01,0.71,0.02,1.05,0.03
						c3.19,0.1,6.49,0.14,9.62,0.15c0.36,0,0.71,0,1.07,0c3.03,0.01,5.85-0.01,8.16-0.04c0.37,0,0.72,0,1.06-0.01
						c3.06-0.04,5.01-0.09,5.01-0.09L161.5,114.22z"/>
					<path class="st6" d="M162.06,114.47c0,1.54-18.71,2.8-41.79,2.8c-23.08,0-41.79-1.25-41.79-2.8c0-1.54,18.71-2.8,41.79-2.8
						C143.35,111.67,162.06,112.92,162.06,114.47z"/>
					<rect x="118.2" y="111.5" class="st58" width="3.02" height="242.06"/>
					<rect x="137.51" y="112.33" class="st54" width="1.05" height="20.94"/>
					<path class="st54" d="M141.25,133.69c0,1.6-1.44,2.9-3.21,2.9c-1.77,0-3.21-1.3-3.21-2.9c0-1.6,1.44-2.9,3.21-2.9
						C139.81,130.79,141.25,132.09,141.25,133.69z"/>
				</g>
				<path class="st6" d="M143.29,60.36c0,0.8-10.92,1.45-24.4,1.45c-13.48,0-24.4-0.65-24.4-1.45c0-0.8,10.92-1.45,24.4-1.45
					C132.36,58.91,143.29,59.56,143.29,60.36z"/>
			</g>
			<g>
				<g>
					<g>
						<g>
							<ellipse class="st32" cx="330.39" cy="124.98" rx="21.28" ry="20.74"/>
						</g>
						<polygon class="st32" points="313.05,132.7 317.7,137.26 322.35,141.83 308.94,145.74 						"/>
					</g>
					<g>
						<g>
							<g>
								<path class="st2" d="M330.75,127.15c-0.15,0.1-0.32,0.14-0.49,0.14c-0.17,0-0.34-0.05-0.49-0.14l-10.21-6.59v10.78
									c0,0.16,0.1,0.3,0.23,0.38l6.74-4.8c0,0,0.1,0.07,0.01,0.19c-0.08,0.1-3,3.58-3.91,4.67h15.28
									c-0.91-1.09-3.83-4.57-3.91-4.67c-0.1-0.11,0.01-0.19,0.01-0.19l6.74,4.8c0.14-0.07,0.24-0.21,0.24-0.38v-10.78
									L330.75,127.15z"/>
								<path class="st2" d="M340.89,118.51c-0.08-0.13-0.22-0.22-0.38-0.22h-20.52c-0.16,0-0.3,0.09-0.38,0.22l10.64,6.87
									L340.89,118.51z"/>
							</g>
						</g>
					</g>
				</g>
				<g>
					<polygon class="st50" points="359.26,327.59 383.48,385.88 378.14,385.88 344.84,327.59 					"/>
					<polygon class="st50" points="251.48,331.08 230.55,395.53 226.03,395.53 242.45,326.98 					"/>
					<polygon class="st50" points="211.67,322.87 173.49,372.95 168.98,372.95 202.64,317.13 					"/>
					<polygon class="st50" points="285.96,329.85 292.12,369.26 288.02,369.26 278.17,329.85 					"/>
					<path class="st67" d="M293.24,274.13c1.39-0.07,2.16-0.11,2.16-0.11s10.67,1.23,29.96,2.46c17.12,1.09,31.44,3.08,38.79,10.65
						c2.48-8.78,5.3-18.65,7.6-26.25c4.91-16.23,10.66-23.61,17.78-22.74c-5.19-6.35-13.41-9.43-21.47-9.69
						c-12.32-0.41-56.65,6.57-61.57,6.98c-3.34,0.28-5.36,0.75-6.7-0.52C297.69,240.58,293.13,255.1,293.24,274.13z"/>
					<path class="st8" d="M158.3,173.87c0,11.63,0.53,39.23,2.48,65.82c3.98-1.59,10.82-3.82,22.15-6.3
						c22.25-4.87,45.57,7.8,55.83,22.58c3.21,4.62,6.78,12.13,10.17,20.27c7.45,17.89,14.05,38.84,14.05,38.84l95.23-6.57
						c0,0,2.67-9.73,5.95-21.37c-7.35-7.57-21.67-9.56-38.79-10.65c-19.29-1.23-29.96-2.46-29.96-2.46s-0.78,0.04-2.16,0.11
						c-0.12-19.03,4.45-33.55,6.55-39.21c-0.63-0.6-1.12-1.59-1.51-3.17c-1.23-4.92-4.52-17.24-4.52-17.24
						c-4.1-17.24-14.78-48.44-17.24-53.77c-2.46-5.34-6.98-6.57-18.06-6.98c-11.08-0.41-80.05,0-87.43,0
						C163.64,153.75,158.3,153.34,158.3,173.87z"/>
					<path class="st68" d="M245.12,191c0,1.76,1.42,3.18,3.18,3.18c1.76,0,3.18-1.42,3.18-3.18c0-1.76-1.42-3.18-3.18-3.18
						C246.55,187.82,245.12,189.25,245.12,191z"/>
					<path class="st68" d="M206.59,193.2c0,1.76,1.42,3.18,3.18,3.18c1.76,0,3.18-1.42,3.18-3.18c0-1.76-1.42-3.18-3.18-3.18
						C208.01,190.02,206.59,191.44,206.59,193.2z"/>
					<path class="st68" d="M251.48,226.82c0,1.76,1.42,3.18,3.18,3.18c1.76,0,3.18-1.42,3.18-3.18c0-1.76-1.42-3.18-3.18-3.18
						C252.91,223.64,251.48,225.06,251.48,226.82z"/>
					<circle class="st68" cx="214.85" cy="226.82" r="3.18"/>
					<g>
						<path class="st68" d="M243.29,276.79c1.77-0.08,3.67-0.16,5.66-0.25c14.53-0.65,34.69-1.63,44.31-2.11l-0.03-0.6
							c-9.62,0.47-29.79,1.45-44.31,2.11c-1.99,0.09-3.88,0.17-5.66,0.25L243.29,276.79z"/>
					</g>
					<g>
						<path class="st68" d="M262.18,288.43c0.54-0.03,54.34-3.35,67.33-4.34c13.68-1.05,26.22,0.7,30.5,4.25l0.51-0.61
							c-4.43-3.67-17.2-5.49-31.07-4.43c-12.98,0.99-66.77,4.31-67.31,4.34L262.18,288.43z"/>
					</g>
					<path class="st69" d="M355.99,308.66c2.73,5.28,6.77,11.39,10.58,16.74c2.43-2.96,4.56-8.07,8.07-16.07
						c0.7-1.6,1.56-3.46,2.51-5.51c6.88-14.72,19.04-39.45,17.6-52.78c-0.57-5.26-2.46-9.53-5.21-12.89
						c-7.12-0.87-12.87,6.5-17.78,22.74c-0.99,3.27-2.08,6.97-3.19,10.82c-4.91,16.91-10.35,36.79-10.35,36.79L355.99,308.66z"/>
					<path class="st69" d="M326.77,331.12c7.03-0.46,13.63-0.91,19.14-1.3c8.12-0.57,13.87-1.01,15.18-1.2
						c2.25-0.32,3.93-1.33,5.49-3.23c-3.81-5.35-7.85-11.46-10.58-16.74l-4.34,0.3l-22.7,1.56
						C328.51,314.67,327.65,322.84,326.77,331.12z"/>
					<g>
						<g>
							<polygon class="st70" points="338.69,361.41 335.64,379.95 343.6,381.25 346.49,363.64 							"/>
						</g>
						<g>
							<path class="st71" d="M344.98,353.38c2.91,14.89,2.76,17.28,5.04,20.47c1.26,1.76,9.52,11.29,14.61,12.41
								c4.94,1.09,5.98,6.8-0.55,6.47c-6.08-0.31-13.63-3.88-20.46-3.95c-6.09-0.07-11.03-3.33-9.87-6.75
								c2.62-7.73,2.06-12.01-0.49-24.79C332.62,354.03,344.98,353.38,344.98,353.38z"/>
							<path class="st71" d="M374.85,314.67c10.08,13.53,12.68,18.23,16.5,20.33c2.11,1.16,13,6.94,18.65,5.62
								c5.47-1.28,9.26,3.95,2.56,6.75c-6.25,2.61-13.06,0.76-19.94,3.97c-6.14,2.86-12.01,1.83-13.14-2.03
								c-3.21-11.02-3.7-13.03-12.4-24.62C364.88,321.77,374.85,314.67,374.85,314.67z"/>
						</g>
						<path class="st72" d="M241.92,174.8c3.13,3.07,6.78,13.52,12.92,15.97c1.28,0.51,11.37,16.19,5.06,22.51
							c-2.76,2.77,2.19,32.64,4.11,32.32c4.09-0.69,14.69-9.15,25.58-20.41c9.92-10.25-1.25-14.18-4.92-10.92
							c-6.93,6.16-11.62,10.47-11.62,10.47s-14.66-40.02-20.92-45.67C249.4,176.61,245.52,175.24,241.92,174.8z"/>
						<path class="st71" d="M187.07,188.25c0,0,4.33,10.11,8.87,15.07c4.53,4.96,43.78,80.47,43.78,80.47l40.24-31.53
							c0,0-22.22-34.41-20.12-37.72c5.72-9,0.69-19.64-6.01-24.3c-4.58-3.19-8.78-12.37-11.91-15.44l-0.01,0l-4.64-0.25l-3.32-0.18
							c0,0-12.69-7.64-22.43-5.55C201.78,170.9,187.07,188.25,187.07,188.25z"/>
						<path class="st72" d="M211.79,170.76c2.73,4.64,13.58,13.4,20.24,12.87c6.67-0.53,3.35-7.57,3.35-7.57l-1.3-3.25l-0.36-0.9
							l-1.28-3.18l-19.58-8.13C212.87,160.59,209.06,166.12,211.79,170.76z"/>
						<path class="st72" d="M197.03,178.04c-3.04,0.87-12.72,5.78-11.06,16.88c1.66,11.1,19.7,54.19,19.7,54.19l21.89,13.51
							L197.03,178.04z"/>
						<path class="st73" d="M212.82,167.28c4.19,5.53,11.54,8.28,16.48,7.35c2.47-0.47,4.42-2.73,4.42-2.73
							c-0.25,0.16-0.5,0.29-0.74,0.42c-0.04,0.03-0.1,0.06-0.17,0.09c-0.41,0.22-0.82,0.4-1.19,0.55c-0.56,0.23-1.09,0.37-1.57,0.44
							c-0.39,0.07-0.74,0.1-1.05,0.09c-0.32-0.02-0.72-0.06-1.17-0.14c-0.62-0.11-1.36-0.27-2.19-0.51c-0.17-0.05-0.33-0.1-0.5-0.16
							c-0.22-0.07-0.45-0.14-0.69-0.23c-0.21-0.07-0.42-0.15-0.65-0.24c-0.28-0.12-0.58-0.24-0.87-0.37
							c-0.27-0.12-0.55-0.25-0.83-0.38c-0.28-0.13-0.56-0.28-0.84-0.44c-0.61-0.33-1.22-0.7-1.85-1.11
							c-0.24-0.17-0.49-0.34-0.74-0.53c-0.28-0.21-0.57-0.44-0.86-0.67c-0.29-0.23-0.57-0.48-0.86-0.73
							c-0.31-0.28-0.61-0.57-0.92-0.87c-0.24-0.25-0.5-0.51-0.74-0.78l0-0.01c-0.9-1-1.77-2.13-2.56-3.42
							C211.61,163.78,211.19,165.14,212.82,167.28z"/>
						<g>
							<path class="st19" d="M292.33,155.11c-1.15-0.18-2.45,0.56-2.88,1.64l-15.18,37.86c-0.43,1.08,0.15,2.12,1.3,2.31l20.64,3.39
								c1.15,0.19,2.46-0.54,2.91-1.61l15.82-37.95c0.45-1.08-0.13-2.1-1.28-2.28L292.33,155.11z"/>
							<path class="st74" d="M299.79,158.62c-0.21-0.03-0.45,0.07-0.53,0.24l-2.63,5.83c-0.08,0.17,0.04,0.33,0.25,0.37l3.85,0.63
								c0.21,0.04,0.45-0.07,0.53-0.24l2.75-5.84c0.08-0.17-0.03-0.33-0.25-0.36L299.79,158.62z"/>
							<path class="st70" d="M299.56,161.37c-0.5,0.61-0.55,1.39-0.12,1.75c0.43,0.36,1.19,0.15,1.69-0.46
								c0.5-0.61,0.55-1.39,0.12-1.75C300.82,160.55,300.06,160.76,299.56,161.37z"/>
						</g>
						<g>
							<path class="st72" d="M307.64,190.85c-0.57-4.37-1.96-13.17-2.62-15.1c-0.67-1.93-3.65-0.06-3.38,2.87
								c0.27,2.93,0.95,8.17,0.95,8.17s-3.24-5.36-4.92-7.49c-1.68-2.14-4.55,0.6-3.47,2.39c1.08,1.78,2.05,4.3,2.05,4.3
								s-1.54-1.75-2.58-3.53c-1.04-1.78-3.76,0.45-2.73,2.66c1.03,2.2,1.03,2.2,1.03,2.2l0,0c-1.83-1.26-3.47-0.36-2.81,1.47
								s3.79,8.22,3.79,8.22s-1.82,2.62-1.06,4.5c0.76,1.88,0.96,3.95,0.96,3.95s-6.49,7.7-8.17,8.82l4.92,10.92
								c0,0,8.42-12.08,10.65-15.29c2.24-3.2,6.62-13.72,6.8-15.41C307.23,192.82,307.79,192,307.64,190.85z"/>
						</g>
						<g>
							<path class="st72" d="M208.4,144.93c-0.05,5.83,0.91,10.51,2.44,14.24c0.56,1.37,1.2,2.61,1.89,3.74
								c0.79,1.28,1.66,2.42,2.56,3.42l0,0.01c0.25,0.27,0.5,0.53,0.74,0.78c0.31,0.3,0.61,0.59,0.92,0.87
								c0.28,0.25,0.57,0.49,0.86,0.73c0.29,0.23,0.57,0.46,0.86,0.67c0.25,0.18,0.5,0.36,0.74,0.53c0.62,0.41,1.24,0.78,1.85,1.11
								c0.29,0.16,0.56,0.31,0.84,0.44c0.28,0.13,0.55,0.27,0.83,0.38c0.29,0.14,0.59,0.26,0.87,0.37c0.22,0.09,0.43,0.16,0.65,0.24
								c0.24,0.08,0.47,0.16,0.69,0.23c0.17,0.06,0.33,0.11,0.5,0.16c0.83,0.25,1.57,0.41,2.19,0.51c0.45,0.07,0.85,0.12,1.17,0.14
								c0.31,0.02,0.66-0.01,1.05-0.09c0.47-0.07,1-0.22,1.57-0.44c0.38-0.15,0.78-0.33,1.19-0.55c0.07-0.03,0.13-0.06,0.17-0.09
								c0.41-0.22,0.84-0.47,1.27-0.76c0.88-0.57,1.78-1.28,2.68-2.13c2.2-2.07,4.34-4.93,5.85-8.62c0.47-1.12,0.87-2.33,1.2-3.6
								c0.52-1.95,0.84-4.1,0.96-6.42c0.73-15.59-8.1-25.33-14.15-25.52c0,0-0.97-0.19-2.53-0.26
								C222.43,124.75,208.56,126.11,208.4,144.93z"/>
							<path class="st50" d="M243.81,151.97c0.4,1.98,0.43,3.71,0.17,5.25c0.51-1.96,3.38-15.49,2.11-21.23
								c-1.15-5.21-3.17-14.72-15.88-14.98c0,0-0.41,4.08-1.96,4.01c-0.41,0.86-1.1,2.82-0.36,5.23
								C228.88,133.5,241,138.26,243.81,151.97z"/>
							<path class="st50" d="M175.72,203.86c2.57,10.68,16,14.84,22.2,14.55c33.63-1.59,27.47-35.14,19.89-46.88
								c-8.01-12.41-3.95-24.17,2.45-27.75c6.4-3.58,11.02-5.96,12.43-12.07c1.42-6.1-2.04-12.07-6.07-13.17
								c-14.71-4.04-27.01,4.21-30.65,15.61c-8.12,25.37,5.1,31.06-3.66,38.87C183.55,180.84,171.59,186.72,175.72,203.86z"/>
						</g>
						<path class="st26" d="M348.81,363.93l-14.49-0.56c0,0-12.23-25.69-15.21-34.47c-3.66-10.8-7.04-42.14-9.2-43.52
							c0,0-29.25,22.55-50.26,16.05c-21.01-6.5-18.14-20.31-18.14-20.31s72.57-28.73,81.77-24.05c9.19,4.68,7.93,15.83,11.33,25.86
							C338,292.97,348.81,363.93,348.81,363.93z"/>
						<path class="st75" d="M263.03,299.61c29.23-0.84,46.17-37.47,53.62-39.68c4.89-1.46,8.12,0.12,12.02,8.45
							c3.72,7.94,8.43,21.76,16.76,34.57c7.18,11.04,20.91,21.84,26.67,29.09l10.12-7.54c0,0-39.43-79.79-44.76-85.79
							c-5.32-6-10.85-14.63-32.56-5.35c-19.42,8.3-57.3,31.13-65.09,35.87c-0.53,0.32-0.41,1.13,0.19,1.29l-0.53,3.37
							C239.47,273.87,233.79,300.46,263.03,299.61z"/>
					</g>
					<path class="st69" d="M160.79,239.68c0.02,0.4,0.06,0.79,0.09,1.18c3.46-0.55,17.08-2.66,27.39-3.37
						c11.9-0.82,19.57,5.68,26.68,16.26c7.42,11.04,18.47,36.69,26.27,56.4c6.5,16.43,16.32,22.08,25.31,24.84
						c9.23-0.58,30.29-2.19,53.44-3.73c-2.28-6.97-3.57-13.82-4.69-19.8l-52.3,3.61c0,0-13.96-44.33-24.22-59.11
						c-10.26-14.77-33.58-27.45-55.83-22.58C171.61,235.86,164.77,238.1,160.79,239.68z"/>
					<path class="st67" d="M160.88,240.86c0.01,0.13,0.02,0.25,0.03,0.38c1.49,19.76,3.79,38.77,7.25,50.02
						c8.2,26.68,39.41,32.84,56.23,37.36c16.83,4.52,39,6.57,39,6.57s1.13-0.07,3.14-0.2c-8.99-2.77-18.81-8.41-25.31-24.85
						c-7.8-19.7-18.85-45.36-26.27-56.39c-7.11-10.58-14.78-17.08-26.68-16.26C177.95,238.2,164.33,240.31,160.88,240.86z"/>
				</g>
			</g>
		</g>
	</g>
</g>
</svg>
