<?xml version="1.0" encoding="utf-8"?>
<!-- Generator: Adobe Illustrator 28.2.0, SVG Export Plug-In . SVG Version: 6.00 Build 0)  -->
<svg version="1.1" id="Laag_1" xmlns="http://www.w3.org/2000/svg" xmlns:xlink="http://www.w3.org/1999/xlink" x="0px" y="0px"
	 viewBox="0 0 495 476" style="enable-background:new 0 0 495 476;" xml:space="preserve">
<style type="text/css">
	.st0{fill:#FFFFFF;}
	.st1{fill:#66B0DD;}
	.st2{fill:#B1DAEF;}
	.st3{fill:#80BDE3;}
	.st4{fill:#90CBE8;}
	.st5{fill:#55210E;}
	.st6{fill:#154273;}
	.st7{fill:#F6B5A0;}
	.st8{fill:#333333;}
	.st9{fill:#354A5E;}
	.st10{fill:#F19280;}
	.st11{fill:#C57036;}
	.st12{fill:#F39B80;}
	.st13{fill:#00513C;}
	.st14{fill:#415B6B;}
	.st15{fill:#00401C;}
	.st16{fill:#B1B1B1;}
	.st17{fill:#D9D9D9;}
	.st18{fill:#C5C2C2;}
	.st19{fill:#007BC7;}
</style>
<g id="illustraties">
	<g>
		<path class="st0" d="M39.38,476H474.4c36.06-35.6,17.5-142.71-12.62-164.43c-32.42-23.37,19.06-104.21-30.88-130.45
			c-32.61-17.13-74.52,2.82-96.11-34.06c-25.36-43.33-73.83-50.5-152.29-9.51c-60.52,31.61-14.26,49.09-113.29,67.44
			c-50.92,9.43-36.68,72.13-31.94,88.81c4.14,14.53,22.7,41.27-15.32,73C-33.8,413.34,38.06,475.14,39.38,476z"/>
		<g>
			<g>
				<g>
					<path class="st1" d="M116.47,288v120.8c0,3.79-3.63,6.87-8.12,6.87H30.07c-4.48,0-8.11-3.07-8.11-6.87V288H116.47z"/>
					<path class="st2" d="M59.46,288v127.67H30.07c-4.48,0-8.11-3.07-8.11-6.87V288H59.46z"/>
				</g>
				<g>
					<path class="st3" d="M270.92,215.7H141.03l-17.3,136.42h129.88c10.28,0,18.62-7.05,18.62-15.75l17.3-104.92
						C289.53,222.75,281.2,215.7,270.92,215.7z"/>
					<path class="st4" d="M239.48,347.11c0,8.7-4.22,5.01-14.5,5.01H107.75c-10.28,0-18.61-7.05-18.61-15.75l17.3-104.92
						c0-8.7,8.34-15.75,18.62-15.75h114.68c10.29,0,18.62,7.05,18.62,15.75L239.48,347.11z"/>
				</g>
				<rect x="59.46" y="349.49" class="st1" width="180.08" height="66.19"/>
				<rect x="59.45" y="392.18" class="st2" width="180.09" height="23.49"/>
				<g>
					<g>
						<path class="st5" d="M30.75,415.75h13.03l-15.62,23.83c0,0-1.69,2.95-5.66,2.92c0,0-4.06,0.54-2.27-3.31L30.75,415.75z"/>
					</g>
					<g>
						<path class="st5" d="M109.92,415.75h13.03l-15.62,23.83c0,0-1.69,2.95-5.65,2.92c0,0-4.07,0.54-2.28-3.31L109.92,415.75z"/>
					</g>
				</g>
				<g>
					<path class="st3" d="M450.6,215.7H320.72l-17.3,136.42H433.3c10.28,0,18.62-7.05,18.62-15.75l17.3-104.92
						C469.22,222.75,460.88,215.7,450.6,215.7z"/>
					<path class="st4" d="M422.71,336.37c0,8.7-8.33,15.75-18.62,15.75H287.43c-10.28,0-18.62-7.05-18.62-15.75l17.3-104.92
						c0-8.7,8.34-15.75,18.61-15.75H421.4c10.29,0,18.62,7.05,18.62,15.75L422.71,336.37z"/>
				</g>
				<rect x="239.14" y="350.82" class="st1" width="180.08" height="64.86"/>
				<rect x="239.14" y="392.18" class="st2" width="180.08" height="23.49"/>
				<g>
					<g>
						<g>
							<path class="st2" d="M241.27,387.84h169.78c4.51,0,8.18-2.71,8.18-6.05V349.4c0-2.25-3.79-4.83-8.18-6.05
								c-67.13-9.45-163.72,0-163.72,0c-5.03,1.29-6.56,2.69-8.18,6.05v36.31C239.14,385.7,238.93,387.84,241.27,387.84z"/>
						</g>
					</g>
					<g>
						<path class="st4" d="M239.14,349.48h180.08v32.3c0,3.34-3.66,6.05-8.18,6.05H241.27c-2.34,0-2.13-2.13-2.13-2.13V349.48z"/>
					</g>
				</g>
				<g>
					<g>
						<g>
							<path class="st2" d="M237.41,387.84H67.63c-4.51,0-8.18-2.71-8.18-6.05V349.4c0-2.25,3.79-4.83,8.18-6.05
								c67.13-9.45,163.72,0,163.72,0c5.03,1.29,6.56,2.69,8.18,6.05v36.31C239.53,385.7,239.74,387.84,237.41,387.84z"/>
						</g>
					</g>
					<g>
						<path class="st4" d="M239.53,349.48H59.45v35.05c0,3.34,2.39,3.3,6.9,3.3h171.06c2.34,0,2.13-2.13,2.13-2.13v-36.22H239.53z"
							/>
					</g>
				</g>
				<g>
					<path class="st5" d="M403.01,415.75h-13.03l15.62,23.83c0,0,1.69,2.95,5.65,2.92c0,0,4.07,0.54,2.28-3.31L403.01,415.75z"/>
				</g>
				<g>
					<path class="st5" d="M470.06,415.75h-13.04l15.62,23.83c0,0,1.69,2.95,5.66,2.92c0,0,4.07,0.54,2.28-3.31L470.06,415.75z"/>
				</g>
				<g>
					<path class="st1" d="M476.23,288v120.8c0,3.79-3.63,6.87-8.11,6.87h-78.29c-4.48,0-8.11-3.07-8.11-6.87V288H476.23z"/>
					<path class="st2" d="M419.22,288v120.73c0,6.94-6.64,6.94-6.64,6.94h-22.75c-4.48,0-8.11-3.07-8.11-6.87V288H419.22z"/>
				</g>
			</g>
			<g>
				<g>
					<g>
						<g>
							<g>
								<ellipse class="st6" cx="379.76" cy="100.01" rx="21.28" ry="20.74"/>
							</g>
							<polygon class="st6" points="362.42,107.74 367.07,112.3 371.72,116.86 358.31,120.78 							"/>
						</g>
						<path class="st0" d="M390.36,107.5l-6.26-5.66c2.11-3.27,1.73-7.67-1.13-10.53c-3.29-3.29-8.63-3.29-11.92,0
							s-3.29,8.63,0,11.92c2.86,2.86,7.26,3.23,10.53,1.13l5.66,6.26c0.79,0.88,2.06,0.72,2.95-0.17S391.24,108.29,390.36,107.5
							 M380.86,101.12c-2.13,2.12-5.57,2.12-7.7,0c-2.12-2.13-2.12-5.57,0-7.7c2.13-2.12,5.57-2.12,7.7,0
							C382.99,95.55,382.99,99,380.86,101.12"/>
					</g>
					<g>
						<polygon class="st7" points="132.49,338.64 107.11,337.04 105.24,327.92 133.15,321.41 						"/>
						<g>
							<path class="st8" d="M108.83,337.15l-10.55,7.34l-21.29-35.46c0,0,0.61-1.96,5.37-1.64l17.98,14.78l10.25,4.51
								c0,0,0.35,2.87-3.18,4.59L108.83,337.15z"/>
							<path d="M78.65,307.74c-1.4,0.5-1.65,1.28-1.65,1.28l21.29,35.46l1.71-1.19L78.65,307.74z"/>
						</g>
						<path class="st9" d="M129.07,338.91c1.58,2.27,8.9,3.04,11.57,3.3c4.37,0.43,8.67,0.44,13.01-0.19
							c8.59-1.25,16.57-0.69,25.23-0.08c8.35,0.6,16.61,2.56,25.02,2.84c7.45,0.24,15.52,0.3,23.15-0.6
							c7.62-0.89,14.8-3.89,22.38-4.68c3.93-0.4,2.11-2.14,1.27-5.8c-0.62-2.69,0,0-0.77-2.67c-1.81-6.28-3.94-12.8-8.57-17.62
							c-2.43-2.53-5.44-4.3-9-4.6l-107.43,12.64C124.95,321.45,123.19,330.46,129.07,338.91z"/>
						<path class="st9" d="M247.09,339.5l-15.28-30.42l70.75-13.96l35.64,1.54l1.74,47.8C339.94,344.47,304.17,347.94,247.09,339.5z
							"/>
						<g>
							<path class="st7" d="M321.17,196.88l20.58,0.43l0.47-22.46l-20.58-0.43C321.64,174.42,323.47,192.16,321.17,196.88z"/>
							<path class="st10" d="M322.22,191.24c4.67-0.38,9.1-0.56,13.69-1.9c2.2-0.64,4.21-1.45,6.06-2.52l0.25-11.96l-20.58-0.43
								C321.64,174.42,322.66,184.27,322.22,191.24z"/>
							<g>
								<path class="st11" d="M308.39,158.38c1.3,3.26,2.63,7.05,4.89,9.91c2.58,3.27,6.38,3.5,8.12-0.58
									c1.64-3.84,1.59-8.58,0.88-12.53c-0.39-2.16-1.12-4.6-3.13-6.06c-3.15-2.29-7.3-1.58-9.64,1.14
									C307.32,152.79,307.25,155.5,308.39,158.38z"/>
								<g>
									<path class="st7" d="M311.7,163.86c0.22,3.92,0.79,7.83,1.83,11.62c1.05,3.85,2.48,11.05,6.82,12.66
										c1.34,0.5,2.43,0.46,3.98,0.36c5.91-0.37,12.21-4.3,15.97-8.69c7.01-8.18,6.99-28.02-0.03-35.71
										c-6.41-7.02-26.78-3.41-28.15,7.79C311.64,155.75,311.48,159.8,311.7,163.86z"/>
								</g>
								<g>
									<g>
										<path class="st12" d="M343.38,161.74c0.15-0.1,0.33-0.21,0.43-0.36c0.08-0.13,0.11-0.3,0.16-0.44
											c0.1-0.26,0.25-0.5,0.42-0.73c0.33-0.45,0.8-0.76,1.18-1.13c0.17-0.16,0.18-0.17,0.43-0.28c0.03-0.01,0.06-0.03,0.09-0.04
											c0.06-0.03,0.06-0.03,0.01-0.01c-0.08-0.04-0.34,0.06-0.45,0.06c-0.22-0.01-0.08,0,0.04,0.04
											c0.07,0.02,0.26,0.08,0.08,0.02c0.1,0.03,0.2,0.08,0.31,0.11c0.07,0.02,0.15,0.01,0.04-0.01c0.2,0.03,0.37,0.14,0.58,0.17
											c0.26,0.03,0.53,0.02,0.79-0.05c-0.29,0-0.58,0-0.87,0c0.41,0.11,0.66,0.12,0.86,0.52c0.2,0.39,0.4,0.79,0.56,1.2
											c0.17,0.43,0.28,0.87,0.44,1.3c0.17,0.44,0.19,0.94,0.38,1.36c0.02,0.05,0.18,0.06,0.2,0c0.11-0.39,0.07-0.9,0.02-1.3
											c-0.05-0.43-0.17-0.87-0.28-1.29c-0.11-0.41-0.28-0.81-0.42-1.21c-0.07-0.18-0.15-0.36-0.21-0.55
											c-0.05-0.15-0.23-0.27-0.25-0.33c-0.03-0.08-0.01-0.15-0.07-0.23c-0.02-0.02-0.18-0.17-0.07-0.05
											c-0.17-0.16-0.26-0.3-0.48-0.41c-0.17-0.09-0.36-0.14-0.54-0.2c0.25,0.08-0.14-0.05-0.22-0.07
											c-0.17-0.04-0.34-0.08-0.51-0.09c-1.12-0.1-2.14,0.41-2.91,1.17c-0.35,0.35-0.66,0.74-0.88,1.19
											c-0.12,0.24-0.21,0.49-0.26,0.76c-0.03,0.12-0.08,0.28-0.07,0.4c0.01,0.13,0.1,0.27,0.13,0.4
											c0.06,0.2,0.48,0.25,0.62,0.26C342.9,161.93,343.16,161.89,343.38,161.74L343.38,161.74z"/>
									</g>
								</g>
								<path class="st11" d="M340.3,158.29c0.26,0.98,0.47,5.48,0.78,6.35c0.31,0.87,2.29-0.51,2.29-0.51
									c1.39-1.47-0.41-4.78,2.02-5.31c2.64-0.58,3.46,3.29,3.52,5.09c2.02-2.14,2.88-6.18,3.28-9.13
									c0.75-5.47,0.75-7.42-0.14-9.82c-3.11-8.42-6.29-7.78-12.21-6.95c-2.7,0.38-5.84,3.6-6.83,6.27
									c-1.06,2.86,0.88,5.04,2.84,6.87C338.31,153.44,339.09,153.8,340.3,158.29z"/>
								<g>
									<path class="st7" d="M347.69,158.87c2.76,2.39,1.72,10.01-3.28,12.85c-1.38-1.33-1.62-5.17-1.91-7.05
										c-0.29-1.84-0.47-3.62,0.55-5.27C343.37,158.89,345.66,157.12,347.69,158.87z"/>
								</g>
								<path class="st11" d="M328.45,148.85c-2.68-0.78-4.99,2.64-7,3.99c-2.18,1.47-4.79,0.3-7.04-0.11
									c-2.42-0.44-4.38,1.21-6.11-1.01c-3.51-4.5-8.64-9.09-5.18-15.15c1.46-2.55,2.68-2.98,5.45-2.47
									c2.77,0.51,5.02,0.1,6.52-2.3c1.72-2.74,3.05-4.13,6.47-4.33c2.08-0.12,4.27,0.13,6.36,0.22c2.92,0.13,4.9,1.88,7.29,3.34
									c2.05,1.25,3.79,1.57,6.16,1.58c2,0.01,3.14,0.21,4.36,1.96c1.84,2.63,2.15,6.17-0.14,8.58c-0.94,0.98-2.3,1.79-3.57,2.3
									c-1.25,0.5-2.39,0.72-3.32,1.78c-0.84,0.96-1.13,1.97-2.43,2.54C333.8,150.86,330.85,149.55,328.45,148.85z"/>
							</g>
						</g>
						<path class="st7" d="M312.23,226.73c2.76-16.8-5.69-17.67-5.69-17.67c-9.5-2.43-13.91,12.01-13.91,12.01
							s-6.85,31.96-6.76,46.29c0,0,10.07,6.25,14.82-2.68L312.23,226.73z"/>
						<polygon class="st7" points="338.47,194.1 370.26,205.8 352.75,284.18 310.85,284.18 299.33,207.36 323.59,194.1 						"/>
						<path class="st13" d="M322,194.1l-21.25,10.69l8.78,78.83c8.47,4.3,13.22,1.56,26.31,1.55c4.19-0.01,16.59,2.29,18.41-2.11
							c1.11-2.67,4.22-8.3,4.12-11.13c-0.1-2.84,3.02-7.46,3.25-10.29c0.23-2.83,0.18-5.65,1.57-8.2c2.59-4.74,2.55-11.77,3.72-17.1
							c1.19-5.41,2.01-8.09,2.01-13.65c0-2.95,2.54-6.26,3.26-9.13c0.77-3.06,0.34-6.74-2.68-8.12c-2.68-1.23-5.73-1.99-8.51-3.02
							l-18.26-6.95C342.74,195.46,326.06,200.78,322,194.1z"/>
						<polygon class="st7" points="236.38,324.28 211.61,337.72 202.83,334.63 224.72,312.62 						"/>
						<g>
							<path class="st8" d="M212.59,336.3l0.86,12.83h-41.36c0,0-1.36-1.53,1.36-5.45l21.92-7.81l9.14-6.47c0,0,2.64,1.17,2.3,5.08
								L212.59,336.3z"/>
							<path d="M171.82,347.11c-0.27,1.41,0.26,2.01,0.26,2.01h41.36l-0.14-2.01H171.82z"/>
						</g>
						<path class="st14" d="M355.51,293.21c0,0-32.9-13.25-67.61-22.5c-13.22-3.52-19.09,2.57-19.09,2.57
							c-19.52,15.99-43.34,36.64-62.86,52.63c0,0,4.94,13.31,14.32,12.03l0,0c5.14,0.52,4.61-1.1,8.52-4.54l19.14-10.2
							c4.51-1.42,9.22-2.61,13.6-4.39c5.09-2.06,15.98-7.16,18.39-12.67l0.6-0.32c2.96,0.51,18.19,18.48,20.21,20.46
							c3.16,3.11,6.23,6.31,9.3,9.51c4.99,5.2,10.35,10.17,17.63,11.7c5.64,1.18,16.63-0.03,21.59-3.92
							C369.14,328,355.51,293.21,355.51,293.21z"/>
						<path class="st13" d="M309.22,254.44l5.18-28.21c0,0,7.53-16.4-5.59-25.06c0,0-14.15,2.22-16.76,15.55l-7.09,28.16
							C284.96,244.88,285.67,251.9,309.22,254.44z"/>
						<path class="st13" d="M361.35,227.25c0,0,1.91,17.77,0.43,27.4c-0.82,5.35,0.15,9.76,1.45,14.9c0.64,2.54,1.9,5.04,1.93,7.7
							c0.03,2.53-0.67,5.05-0.71,7.62c-0.06,5.05-1.17,9.97-0.15,14.95c0.55,2.68,0.93,5.47,0.78,8.2
							c-0.17,3.18-2.91,19.34-3.31,22.47c-11.49,0.51-10.97-8.44-14.38-17.11c-2.18-5.52-6.21-18.25-11.83-20.66
							c-5.25-2.25-7.38-1.6-12.93-2.24c-5.59-0.65-17.23-6.57-21.88-9.75c-3.7-2.54,1.13-4.61,0-9.14
							c-1.23-4.96-1.37-7.57,0.28-12.17c2.02-5.62,3.85-11.2,5.16-17.04c1.13-5.04,2.27-9.95,6.21-13.6
							c11.47-10.66,31.15-8.83,44.46-3.43L361.35,227.25z"/>
						<path class="st7" d="M305.63,272.82c23.55,0,77.18,20.65,79.21-3.09c1.66-19.41-4.89-50.01-13.79-56.97
							c-6.61-5.17-15.5-2.3-19.05,5.46c-3.96,8.64,7.68,31.01,9.64,43.41c0,0-19.95,0.56-57.46,4.44L305.63,272.82z"/>
						<path class="st15" d="M391.66,263.11l-15.34-48.74c-3.12-8.23-8.41-9.62-9.49-9.62c-16.38,0-17.83,20.23-17.83,20.23
							l7.93,35.74C356.94,260.72,374.79,270.95,391.66,263.11z"/>
						<path class="st7" d="M314.04,269.78c-0.85-1.13-5.54-1.85-7.74-1.99c-6.03-0.4-11.22-0.01-16.82,1.43
							c-1.93,0.49-6.11,1.6-7.88,2.58c-1.08,0.6-3.2,1.09-2.84,2.43c0.85,0.46,5.72-0.52,8.93-1.27c-4.69,1.37-5.78,2.65-5.87,3.27
							c1.14,1.26,6.63-1.22,10.5-2.06c1.25-0.27-7.33,2.96-3.14,3.31c0.91,0.07,6.81-1.62,9.61-2.26c-0.3,0.29-4.01,2.22-3.92,2.55
							c0.08,0.86,3.79-0.05,5.63-0.55C302.97,276.56,317.4,274.22,314.04,269.78z"/>
						<path class="st7" d="M286.53,257.21l-37.09,9.9l7.76,1.44c0,0,36.44,6.11,42.73-1.2
							C299.93,267.36,295.56,255.12,286.53,257.21z"/>
						<g>
							<rect x="257.28" y="274.83" class="st16" width="72.65" height="3.48"/>
							<g>
								<g>
									<polygon class="st0" points="236.3,278.3 303.9,278.3 297.97,230.58 230.36,230.58 									"/>
									<polygon class="st17" points="306.31,278.3 303.9,278.3 297.97,230.58 300.38,230.58 									"/>
								</g>
							</g>
							<circle class="st17" cx="267.13" cy="253.29" r="5.41"/>
						</g>
					</g>
				</g>
				<g>
					<g>
						<path class="st17" d="M249.96,200.38H96.7c-6.5,0-11.76-5.27-11.76-11.76v-70.63c0-6.5,5.27-11.76,11.76-11.76h153.26
							c6.5,0,11.76,5.27,11.76,11.76v70.63C261.73,195.11,256.46,200.38,249.96,200.38z"/>
						<polygon class="st17" points="225.52,200.34 242.13,224.4 242.13,200.34 						"/>
					</g>
					<g>
						<path class="st0" d="M246.58,196.65H93.32c-6.5,0-11.76-5.27-11.76-11.76v-70.63c0-6.5,5.27-11.76,11.76-11.76h153.26
							c6.5,0,11.76,5.27,11.76,11.76v70.63C258.34,191.39,253.08,196.65,246.58,196.65z"/>
						<polygon class="st0" points="222.14,196.62 238.75,220.67 238.75,196.62 						"/>
					</g>
					<g>
						<g>
							<g>
								<rect x="214.81" y="125.32" class="st18" width="30.67" height="2.52"/>
								<rect x="214.81" y="131.75" class="st18" width="25.32" height="2.52"/>
							</g>
							<circle class="st19" cx="195.74" cy="129.85" r="13.24"/>
						</g>
						<path class="st0" d="M202.64,128.59l-6.7-6.17c-0.05-0.05-0.12-0.08-0.19-0.08s-0.14,0.03-0.19,0.08l-6.7,6.17
							c-0.06,0.05-0.1,0.12-0.13,0.19s-0.05,0.15-0.05,0.23v0.42c0,0.16,0.13,0.28,0.28,0.28h1.13v5.94h4.25v-4.25h2.83v4.25h4.25
							v-5.94h1.13c0.04,0,0.07-0.01,0.11-0.02c0.03-0.01,0.07-0.04,0.09-0.06c0.03-0.03,0.05-0.06,0.06-0.09s0.02-0.07,0.02-0.11
							v-0.42c0-0.08-0.02-0.16-0.05-0.23C202.74,128.71,202.69,128.65,202.64,128.59"/>
					</g>
					<g>
						<g>
							<g>
								<rect x="131.18" y="166.44" class="st18" width="30.67" height="2.52"/>
								<rect x="131.18" y="172.87" class="st18" width="25.32" height="2.52"/>
							</g>
							<circle class="st19" cx="112.11" cy="170.97" r="13.24"/>
						</g>
						<g>
							<g>
								<g>
									<path class="st0" d="M120.79,169.12l-8.5-2.74c-0.12-0.04-0.24-0.04-0.36,0l-8.5,2.74c-0.13,0.04-0.14,0.23-0.01,0.28
										l1.66,0.64v2.07c-0.18,0.16-0.29,0.39-0.29,0.65c0,0.22,0.09,0.43,0.22,0.58c-0.42,0.66-0.94,1.77-0.96,2.28
										c-0.03,0.6,0.74,0.85,1.12,0.92c0.38,0.07,1.27,0.02,1.36-0.72c0.07-0.58-0.17-1.85-0.28-2.39v-0.02
										c0.18-0.16,0.29-0.39,0.29-0.65s-0.11-0.49-0.29-0.65v-1.62l4.59,1.78c0,0.02-0.01,0.08-0.11,0.08l-3.31-0.53v2.96l0,0
										c0,0.01,0,0.01,0,0.02c0,1.13,2.1,2.05,4.68,2.05c2.59,0,4.68-0.92,4.68-2.05c0-0.01,0-0.01,0-0.02l0,0v-3.84l4.01-1.55
										C120.93,169.35,120.92,169.16,120.79,169.12"/>
								</g>
							</g>
						</g>
					</g>
					<g>
						<g>
							<g>
								<rect x="214.81" y="166.44" class="st18" width="30.67" height="2.52"/>
								<rect x="214.81" y="172.87" class="st18" width="25.32" height="2.52"/>
							</g>
							<circle class="st19" cx="195.74" cy="170.97" r="13.24"/>
						</g>
						<path class="st0" d="M202.23,169.45c0.34-0.21,0.56-0.45,0.62-0.57c0.13-0.26,0.04-0.69-0.44-0.78
							c-0.21-0.04-0.62,0-0.98,0.04c-0.28-0.88-0.76-2.31-1.05-2.57c-0.38-0.35-1.71-0.52-4.63-0.52s-4.25,0.17-4.63,0.52
							c-0.28,0.26-0.77,1.69-1.05,2.57c-0.36-0.04-0.77-0.08-0.98-0.04c-0.49,0.08-0.57,0.52-0.44,0.78
							c0.06,0.12,0.28,0.37,0.62,0.57c-0.56,0.66-0.72,1.23-0.72,2.29v2.9c0,0,0,0.85,0.14,1.41c0.05,0.21,0.27,0.35,0.52,0.35h1.86
							c0.25,0,0.47-0.15,0.52-0.35c0.07-0.32,0.11-0.72,0.12-1.01l-1.77-0.31c-0.09-0.03-0.08-0.08-0.07-0.09h11.78
							c0.01,0.01,0.02,0.07-0.07,0.09l-1.77,0.31c0.01,0.3,0.05,0.7,0.12,1.01c0.05,0.21,0.27,0.35,0.52,0.35h1.86
							c0.25,0,0.47-0.15,0.52-0.35c0.14-0.56,0.14-1.41,0.14-1.41v-2.9C202.95,170.68,202.79,170.11,202.23,169.45z M191.97,166.25
							L191.97,166.25c0.17-0.07,1.41-0.2,3.78-0.2s3.61,0.13,3.78,0.2c0.17,0.25,0.7,1.87,0.86,2.52c-0.84,0.21-2.76,0.34-4.64,0.34
							c-1.87,0-3.79-0.14-4.63-0.34C191.26,168.11,191.8,166.5,191.97,166.25z M192.42,172.81l-1.7-0.12
							c-0.2-0.01-0.38-0.09-0.53-0.21c-0.15-0.13-0.25-0.3-0.29-0.49l-0.07-0.43c-0.04-0.26,0.27-0.49,0.57-0.41l1.37,0.33
							c0.3,0.1,0.52,0.31,0.62,0.56l0.19,0.61C192.61,172.73,192.53,172.81,192.42,172.81z M197.47,173.89h-3.46v-0.76h3.46V173.89z
							 M201.66,171.56l-0.07,0.43c-0.04,0.19-0.14,0.37-0.29,0.49c-0.15,0.13-0.34,0.2-0.53,0.21l-1.7,0.12
							c-0.1,0.01-0.19-0.07-0.16-0.16l0.19-0.61c0.1-0.26,0.32-0.46,0.62-0.56l1.37-0.33C201.39,171.07,201.7,171.29,201.66,171.56z
							"/>
					</g>
					<g>
						<g>
							<g>
								<rect x="131.18" y="125.32" class="st18" width="30.67" height="2.52"/>
								<rect x="131.18" y="131.75" class="st18" width="25.32" height="2.52"/>
							</g>
							<circle class="st19" cx="112.11" cy="129.85" r="13.24"/>
						</g>
						<g>
							<path class="st0" d="M112.28,131.92c3.98,0,7.1-1.71,7.1-3.9v-1.85c0-2.18-3.12-3.89-7.1-3.89c-3.98,0-7.1,1.71-7.1,3.89
								v1.85c0,0.48,0.16,0.94,0.44,1.36c-0.28,0.42-0.44,0.87-0.44,1.35v1.85c0,2.18,3.12,3.9,7.1,3.9c3.98,0,7.1-1.71,7.1-3.9
								v-1.85c0-0.1-0.01-0.21-0.03-0.31c-0.36,0.45-2.32,2.61-6.91,2.61c-4.07,0-5.47-1.96-5.62-2.22
								c-0.06-0.11-0.1-0.22-0.04-0.29C108.09,131.38,110.05,131.92,112.28,131.92 M106.55,126.34c0-1.44,2.57-2.61,5.74-2.61
								s5.74,1.17,5.74,2.61s-2.57,2.61-5.74,2.61S106.55,127.78,106.55,126.34"/>
							<path class="st0" d="M111.19,127.21v0.34h0.79v-0.28c0.15,0.01,0.34,0.01,0.52,0.01h0.19v0.27h0.77v-0.31
								c1.41-0.15,2.09-0.64,2.09-1.35c0-0.28-0.03-0.4-0.16-0.68h-1.04c0.11,0.26,0.15,0.39,0.15,0.64c0,0.31-0.3,0.57-1.03,0.68
								v-0.89h-0.77v0.96c-0.1,0.01-0.19,0.01-0.31,0.01c-0.14,0-0.26-0.01-0.4-0.01v-0.96h-0.79v0.89
								c-0.71-0.11-1.08-0.33-1.08-0.7c0-0.21,0.04-0.33,0.13-0.59h-1.1c-0.09,0.22-0.12,0.37-0.12,0.57
								C109.02,126.52,109.75,127.03,111.19,127.21"/>
						</g>
					</g>
				</g>
			</g>
		</g>
	</g>
</g>
</svg>
