<?xml version="1.0" encoding="utf-8"?>
<!-- Generator: Adobe Illustrator 28.1.0, SVG Export Plug-In . SVG Version: 6.00 Build 0)  -->
<svg version="1.1" id="Laag_1" xmlns="http://www.w3.org/2000/svg" xmlns:xlink="http://www.w3.org/1999/xlink" x="0px" y="0px"
	 viewBox="0 0 491.73 476" style="enable-background:new 0 0 491.73 476;" xml:space="preserve">
<style type="text/css">
	.st0{fill:#FFFFFF;}
	.st1{fill:#D1D5D8;}
	.st2{fill:#587A8C;}
	.st3{fill:#2E5A71;}
	.st4{opacity:0.1;enable-background:new    ;}
	.st5{fill:#F9AF00;}
	.st6{fill:#E16F0D;}
	.st7{fill:#EA9B72;}
	.st8{fill:#DFA273;}
	.st9{fill:#593F2B;}
	.st10{fill:#E5DBD0;}
	.st11{fill:#846552;}
	.st12{opacity:0.05;enable-background:new    ;}
	.st13{fill:#EA9A56;}
	.st14{fill:#302A2A;}
	.st15{fill:#CCD6DC;}
	.st16{fill:#172D38;}
	.st17{fill:#1C3947;}
	.st18{fill:#26282D;}
	.st19{fill:#6E150E;}
	.st20{fill:#981915;}
	.st21{fill:#CB9382;}
	.st22{fill:#D1A191;}
	.st23{fill:#DFAB9A;}
	.st24{fill:#154273;}
	.st25{opacity:0.14;enable-background:new    ;}
	.st26{fill:#BD8B70;}
	.st27{fill:#F7F8F9;}
	.st28{fill:#D3DCE0;}
	.st29{fill:#F9C29D;}
	.st30{fill:#007BC7;}
</style>
<g id="illustraties">
	<g>
		<path class="st0" d="M474.92,476c31.85-40.33,13.71-186.63-15.25-207.51c-32.05-23.1,18.84-103.01-30.52-128.94
			c-32.23-16.93-75.91,1.98-97.25-34.47c-25.07-42.83-66.71-94.97-144.27-54.45C127.81,81.86,160.3,142.1,62.41,160.24
			c-50.33,9.33-40.61,89.12-35.91,105.6c4.09,14.36,31.13,37.14-6.45,68.51c-49.5,41.31,6.68,124.51,19.59,141.65H474.92z"/>
		<g>
			<g>
				<g>
					<g>
						<path class="st1" d="M291.58,398.02l-7.75-4.17l-13.68-2.32c0,0-3.64,7.28-2.37,15.51h32.36
							C300.14,407.05,299.06,400.16,291.58,398.02z"/>
						<path class="st2" d="M268.18,404.02c-0.23,0-0.44-0.02-0.66-0.03c0.02,1,0.1,2.02,0.26,3.06h32.36c0,0-0.21-1.34-1.09-3.03
							H268.18z"/>
						<path class="st1" d="M351.19,398.82l-20.2-7.24h-13.3c0,0-3.62,7.24-2.36,15.43h45.61C360.94,407,360.31,399.76,351.19,398.82
							z"/>
						<path class="st2" d="M315.08,404.02c0.02,0.97,0.1,1.97,0.26,2.98h45.61c0,0-0.12-1.36-1-2.98H315.08z"/>
						<path class="st3" d="M295.91,217.81c-6.6-0.73-13.2-1.65-19.84-2.05c-0.54-0.03-1.08-0.05-1.62-0.06
							c-0.06,4.01-0.1,9.37-0.1,16.4c0,23.95,0.12,72.25,0.12,72.25l-5.15,89.45l14.51,0.05l13.6-77.71l10.47-64.22l7.17,64.22
							l2,77.2l16.97-0.67l2.68-83.81l0.46-90.03c-0.69,0.14-1.42,0.22-2.2,0.22C321.87,219.11,308.97,219.26,295.91,217.81z"/>
						<path class="st4" d="M295.91,217.81c-6.6-0.73-13.2-1.65-19.84-2.05c-0.54-0.03-1.08-0.05-1.62-0.06
							c-0.06,4.01-0.1,9.37-0.1,16.4c0,23.95,0.12,72.25,0.12,72.25l-5.15,89.45l5.34,0.02c1.22-11.76,2.97-23.48,4.68-35.18
							c3.09-21.2,2.85-42.52,3.35-63.89c0.24-10.17,0.93-20.27,1.81-30.4c0.64-7.33,1.04-15.17,5.06-21.6
							c8.95-14.3,31.02-13.62,45.46-17.99c0.73-0.22,1.44-0.36,2.13-0.43l0.03-5.51c-0.69,0.14-1.42,0.22-2.2,0.22
							C321.87,219.11,308.97,219.26,295.91,217.81z"/>
						<path class="st4" d="M327.45,335.59c-0.1-14.57-0.83-28.43-4.3-42.63c-3.25-13.32-7.79-26.29-13.96-38.54
							c-0.1-0.19-0.17-0.38-0.25-0.56c-0.19-0.3-0.38-0.61-0.54-0.92c-0.12,0.1-0.24,0.18-0.35,0.28l7.03,62.93l2,77.2l14.03-0.56
							c-0.8-4.28-1.57-8.52-1.99-12.66C327.6,365.41,327.55,350.38,327.45,335.59z"/>
						<path class="st5" d="M340.19,129.52c-4.99-12.76-6.6-12.52-10.65-14.47c-35.03-16.89-55.29,0.31-65.04,4.85
							c-1.98,0.92-3.44,7.96-3.18,10.13c3.17,26.29,10.08,40.36,11.51,52.28c1.84,15.39,1.52,46.35,1.52,46.35
							c21.4,12.07,62.86,0,62.86,0s-1.01-21.52-2.79-55.03C333.84,162.52,344.44,140.37,340.19,129.52z"/>
						<path class="st4" d="M325.96,143.55c-0.79-0.26,4.57,13.17,3.92,12.79c-5.99-2.36-6.73-2.6-13.55-2.41
							c-9.58,0.26-19.27,1.09-27.42,1.98c-1.3,0.14-3.36-9.29-4.89-12.89c-0.07,0.61-0.18,1.23-0.36,1.88
							c-0.73,2.62-7.9,32.52-11.3,34.18c0.18,1.1,0.35,2.19,0.48,3.24c0.12,0.97,0.41,4.23,0.51,5.38c1.26,16.24,1,40.97,1,40.97
							c0.55,0.31,1.11,0.59,1.69,0.87c-0.38-5.79-1.94-26.52,5.08-42.97c9.33-4.9,15.45-7.51,19.97-8.3
							c11.7-2.06,31.12,1.99,34.06,1.5c-0.18-1.59-0.51-4.52-0.72-6.13c-0.48-3.81,0.54-8.94,1.92-14.47
							C335.74,158.97,326.17,143.61,325.96,143.55z"/>
						<path class="st6" d="M302.43,229.65c-9.35,0.18-19.76-0.73-28.05-4.78c-0.01,2.37-0.02,3.78-0.02,3.78
							c21.4,12.07,62.86,0,62.86,0s0.06-1.76,0.08-4.84C322.4,227.69,303.92,229.93,302.43,229.65z"/>
						<path class="st6" d="M287.32,109.4c0.09,0.28-0.19,12.21,13.67,11.7c10.35-0.38,10.35-11.88,10.34-12.47
							C300.75,106.12,294.14,107.44,287.32,109.4z"/>
						<polygon class="st7" points="303.19,173.63 322.4,177.21 318.14,168.38 						"/>
						<g>
							<path class="st8" d="M314.77,67.49l-34.49,2.67l0.09,11.78c3.28,17.46,15.51,22.29,24.39,21.6s11.99-9.21,11.51-16.62
								L314.77,67.49z"/>
							<path class="st8" d="M308.06,90.51l-19.16,1.48l1.43,17.52c0.41,5.29,5.03,9.25,10.32,8.84s9.25-5.03,8.84-10.33
								L308.06,90.51z"/>
							<path class="st9" d="M293.16,56.54c0,0-15.38-0.88-14.27,13.5l0.97,12.58c0,0,1.77,13.78,9.78,17.21l-2.38-10.47
								c0,0-4.26,1.81-6.31-7.28c-0.72-3.18,0.22-3.87,1.23-3.95c1.37-0.11,2.03,2.45,2.03,2.45l1.78-0.43l0.48-4.73
								c0,0-0.57-5.08,4.69-5.49l23.58-2.46c0,0,3.97-0.52,3.02-12.85L293.16,56.54z"/>
							<path class="st4" d="M290.98,99.6c11.42,11.57,18.2,4.56,18.2,4.56l-0.21-1.72C302.46,105.51,290.98,99.6,290.98,99.6z"/>
						</g>
						<path class="st5" d="M338.33,125.01c-2.82,8.45-7.51,26.14-7.51,26.14l6.65,9.98l-19.34,6.59l1,9.49
							c0,0,22.11,1.19,28.53,0.18c3.59-0.56,8.74-2.14,5.67-13.4C351.54,157.4,338.33,125.01,338.33,125.01z"/>
						<path class="st6" d="M318.14,167.72l1,9.49c0,0,1.32,0.07,3.38,0.16c-0.15-3.62-0.58-7.23-0.85-10.85L318.14,167.72z"/>
					</g>
					
						<rect x="315.9" y="388.21" transform="matrix(0.9991 -0.0414 0.0414 0.9991 -15.9052 13.8134)" class="st2" width="19.29" height="5.4"/>
					<rect x="268.21" y="388.88" class="st2" width="17.61" height="5.4"/>
				</g>
				<g>
					<path class="st10" d="M386.23,184.73h-34.47c-6.34,0-11.48,5.14-11.48,11.48v20.02c0,6.34,5.14,11.48,11.48,11.48h34.47
						c6.34,0,11.48-5.14,11.48-11.48v-20.02C397.72,189.87,392.57,184.73,386.23,184.73z"/>
					<path class="st4" d="M386.23,184.73h-24.81c-4.27,0.91-8.5,2.95-11.66,6c-0.1,0.24-0.19,0.48-0.34,0.72
						c-1.7,2.84-0.34,6.87-0.03,9.94c0.39,3.86,0.64,7.82,0.58,11.7c-0.08,4.8-0.7,9.56-2.95,13.6c1.44,0.66,3.04,1.04,4.73,1.04
						h34.47c6.34,0,11.48-5.14,11.48-11.48v-20.02C397.72,189.87,392.57,184.73,386.23,184.73z"/>
					<g>
						<g>
							<path class="st11" d="M356.22,230.71c0,9.93,2.28,61.02,2.28,63.76c0,6.32-1.71,22.42-2.59,31.13
								c-0.51,5.12-2.65,67.67-2.65,67.67s-2.81,7.83-3.03,13.78h31.95c0,0-0.35-5.54-8.02-6.64l-9.22-6.6l13.8-90.61l8.75-69.19
								l21.1-29.42H360.5C359.31,208.27,356.22,223.15,356.22,230.71z"/>
							<path class="st4" d="M356.22,230.71c0,9.93,2.28,61.02,2.28,63.76c0,6.32-1.71,22.42-2.59,31.13
								c-0.51,5.12-2.65,67.67-2.65,67.67s-2.81,7.83-3.03,13.78h15.85c-3.5-3.1-5.38-7.63-6.86-12.89
								c-0.05-0.12-0.1-0.24-0.15-0.36c-2.61-6.8-3.11-13.71-2.29-20.73c0.26-8.26,1.48-16.63,2.28-24.39
								c1.53-14.8,2.38-29.97,5.49-44.54c1.35-6.34,3.59-12.4,5.25-18.65c1.19-4.48,2.75-8.73,6.34-11.83
								c0.63-0.55,1.3-0.9,1.98-1.11c1.28-1.07,3.03-1.32,4.62-0.91l4.75-37.61l21.1-29.42H360.5
								C359.31,208.27,356.22,223.15,356.22,230.71z"/>
							<path class="st6" d="M374.16,400.41c0,0-3.2,0.94-8.24,1.1c-6.47,0.21-14.86-0.36-15.16-0.41c-0.2,1.53-0.72,4.23-0.52,5.95
								h31.95C382.18,407.05,381.83,401.51,374.16,400.41z"/>
						</g>
						<g>
							<path class="st11" d="M416.21,400.6l-14.83-6.95l7.75-86.55c0,0,3.38-61.19,2.97-70.22c-0.37-8.26-3.19-29.87-3.51-32.3
								l-25.85,12.52l7.18,81.87c0,0-0.61,14.98-1.7,24.81c-1.94,17.5,1.1,60.75,1.78,69.98c-0.88,1.84-3.93,8.59-3.44,13.27h37.45
								C424.02,407.05,423.68,401.7,416.21,400.6z"/>
							<path class="st4" d="M408.59,204.58l-25.85,12.52l7.18,81.87c0,0-0.61,14.98-1.7,24.81c-1.94,17.5,1.1,60.75,1.78,69.98
								c-0.88,1.84-3.93,8.59-3.44,13.27h11.95c-3.82-3.74-5.97-8.4-6.67-13.82c-1.09-8.48-1.61-17.28-1.8-25.83
								c-0.43-19.75,5.57-38.19,7.62-57.6c1.42-13.48-3.24-30.06,9.48-39.33c1.37-1,2.72-1.15,3.89-0.78
								c0.68-14.61,1.24-28.82,1.06-32.82C411.73,228.63,408.91,207.01,408.59,204.58z"/>
							<path class="st1" d="M408.59,204.58H360.5c-1.19,3.69-4.28,18.57-4.28,26.12c0,4.84-2.27,21.81-1.71,35.86
								c8.52,2.19,16.81,2,28.79,2l1.82-14.98l0.87,14.98c6.54,0.45,20.01-0.08,27.55-0.94c0.63-13.76-1.26-26.97-1.43-30.75
								C411.73,228.63,408.91,207.01,408.59,204.58z"/>
							<path class="st4" d="M385.07,253.97l0.91,14.6c0.52,0.04,5.77,0.06,6.37,0.09C392.35,268.46,385.49,250.85,385.07,253.97z"/>
							<path class="st12" d="M360.5,204.58c-1.19,3.69-4.28,18.57-4.28,26.12c0,4.21-1.71,17.56-1.79,30.2
								c1.02-5.16,2.85-9.89,4.46-14.93c1.6-4.99,2.68-10.38,5.77-14.7c9.88-13.78,30.8-12.01,45.75-11.92
								c-0.82-7.06-1.66-13.51-1.83-14.77H360.5z"/>
							<path class="st6" d="M416.21,400.6l-0.34-0.16c-1.55,1.16-3.55,1.87-6.01,1.87c0,0-22.26-1.39-22.88-1.49
								c-0.26,1.54-0.61,4.51-0.42,6.23h37.45C424.02,407.05,423.68,401.7,416.21,400.6z"/>
						</g>
						<path class="st11" d="M429.03,240.73c-0.12-1.21-0.07-6.51-0.52-8.62c-0.19-0.9-0.78-2.47-1.4-4l-7.91-40.12v-55.53
							l-17.22-0.99l4.52,56.01c0,0,1.69,11.06,2.57,14.36c1.41,5.28,6.53,17.2,9.62,24.2c-0.49,1.75-1.55,5.82-1.11,7.53
							c0.48,1.88,1.04,6.66,1.19,8.02l-0.5,2.88l-1.9,4.11c0,0-0.74,1.67,0.57,2.54l3.16-3.6l-0.03,0.68l-1.09,4.41
							c0,0-0.41,1.78,1.03,2.38l0.86-1.58l-0.09,0.29c0,0-0.53,1.81,1.12,2.36l3.14-5.77l-0.53,2.16c0,0-0.41,1.78,1.03,2.38
							l2.17-3.96l1.32-9.57h-0.08C429.01,241.1,429.05,240.91,429.03,240.73z"/>
						<path class="st4" d="M411.14,182.14c0.18-7.97,4.06-15.32,4.07-23.25c0.01-3.73,1.65-6.41,3.99-8.04v-18.38l-17.22-0.99
							l4.52,56.01c0,0,1.69,11.06,2.57,14.36c1.41,5.28,6.53,17.2,9.62,24.2c-0.49,1.75-1.55,5.82-1.11,7.53
							c0.48,1.88,1.04,6.66,1.19,8.02l-0.5,2.88l-1.9,4.11c0,0-0.74,1.67,0.57,2.54l3.16-3.6l-0.03,0.68l-1.09,4.41
							c0,0-0.16,0.7,0.07,1.36c0.19-1.38,0.73-2.81,1.73-4.25c8.51-12.34,0.32-28.74-3.81-41.2
							C414.23,200.21,410.94,191,411.14,182.14z"/>
						<path class="st6" d="M419.41,129.26h0.03l-1.17-2.66c-1.35-2.45-4.04-5.9-8.86-7.27l-24.31-8.51c-0.02-0.16-2.06-0.16-2.08,0
							l-24,8.41c-6.31,1.64-9.06,6.83-9.97,9.02l-4.36,17.8c1.03,0.34,8.09,4.53,16.56,5.58l1.9,41.09l-6.23,25.87h53.4l-3-25.87
							l-0.26-27.95c2.81-1.74,4.72-5.03,4.72-8.8v-0.7c0,0-0.17-2.21-0.54-5.27c4.38-1.38,8.8-3.14,9.55-3.39L419.41,129.26z"/>
						<g>
							<path class="st13" d="M409.41,119.32l-1.35-0.47h-47.98l-1.07,0.37c-3.93,1.02-6.49,3.43-8.07,5.62h66.21
								C415.61,122.71,413.16,120.39,409.41,119.32z"/>
							<polygon class="st13" points="347.68,133.84 346.21,139.83 420.25,139.83 419.78,133.84 							"/>
							<path class="st13" d="M350.79,148.82c2.87,1.15,6.5,2.32,10.45,2.81l0.22,3.19h50.28c-0.07-0.79-0.23-2.57-0.51-4.82
								c1.2-0.38,2.4-0.78,3.52-1.18H350.79z"/>
							<path class="st13" d="M361.93,169.8h44.88l0.26-5.03c0.45-0.28,0.87-0.61,1.27-0.97h-46.25L361.93,169.8z"/>
							<polygon class="st13" points="362.78,184.79 407.25,184.79 407.25,178.8 362.51,178.8 							"/>
							<polygon class="st13" points="362.93,193.31 361.45,199.31 408.14,199.79 407.45,193.8 							"/>
							<polygon class="st13" points="359.33,208.48 357.85,214.48 410.01,214.71 409.32,208.73 							"/>
						</g>
						<path class="st4" d="M365.45,163.56c-0.28-2.8,0.12-9.21-1.84-10.82c-0.38-0.31-1.28-0.5-2.34-0.61l1.88,40.59l-6.23,25.87
							h10.05c-0.27-0.89-0.5-1.79-0.68-2.72c-1.5-7.64,0.21-15.25,0.59-22.91C367.36,183.12,366.44,173.33,365.45,163.56z"/>
						<path class="st4" d="M359.02,119.22c-6.31,1.64-9.06,6.83-9.97,9.02l-4.36,17.8c0.66,0.22,3.83,2.03,8.26,3.57
							c-0.79-1.26-1.09-2.84-0.71-4.21c2.71-9.72,2.79-19.41,11.29-25.55c-0.09-0.77-0.03-1.54,0.18-2.28L359.02,119.22z"/>
						<path class="st11" d="M383.02,110.81l-20.95,7.34c0.88,2.14,9.03,6.22,11.29,7.44c10.92,5.88,33.72-0.32,34.54-6.8l-22.8-7.98
							C385.08,110.65,383.04,110.65,383.02,110.81z"/>
						<g>
							<path class="st14" d="M388.73,55.28c-20.73-1.82-30.12,9.06-30.48,23.02c-0.51,19.77,8.95,25.72,22.9,26.08
								c13.96,0.36,26.52-0.75,27.17-24.59C408.77,63.81,402.64,56.5,388.73,55.28z"/>
							<path class="st11" d="M398.92,79.51l-13.98-0.52c-4.94-0.18-9.16,3.5-9.66,8.41c-0.55,5.34-0.98,11.48-0.29,13.31
								c3.11,8.13,9.83,14.62,18.71,8.03c5.22-3.87,8.19-10.07,8.36-16.57l0.23-9.07C402.34,81.18,400.84,79.58,398.92,79.51z"/>
							<path class="st11" d="M375.56,116.74c-0.13,5,4.18,10.33,9.17,10.46c5,0.13,8.78-4.99,8.91-9.99l0.26-18.01l-18.09-0.47
								L375.56,116.74z"/>
							<path class="st4" d="M381.2,107.41c5.84,6.41,12.54,2.87,12.54,2.87l0.04-1.63C388.05,111.77,381.2,107.41,381.2,107.41z"/>
						</g>
						<path class="st11" d="M423.92,238.42c1.25,3.75,0.59,7.92,0.59,7.92s0.66,2.03,1.94,0.96c1.28-1.07,1.61-7.49,1.61-7.49
							l-4.14-9.11C423.92,230.71,422.68,234.67,423.92,238.42z"/>
						<path class="st15" d="M385.23,262.26l0.75,6.31c0,0,12.87,0.96,27.55-0.94l0.13-6.21c0,0-11.14,1.01-14.96,1.12
							C395.41,262.65,385.23,262.26,385.23,262.26z"/>
						<path class="st15" d="M353.82,259.46v6.72c0,0,3.45,4.39,29.47,2.39l0.87-7.14C384.16,261.42,363.16,263.53,353.82,259.46z"/>
					</g>
					<path class="st10" d="M362.51,187.76l-1.06,11.55c0,0,28.81-16.44,40.85-44.49c5.23-12.19,5.6-36.86,5.6-36.86l-9.2-3.21
						C398.69,114.75,401.99,159.98,362.51,187.76z"/>
					<g>
						<rect x="379.77" y="190.59" class="st16" width="64.07" height="2.72"/>
						<path class="st16" d="M466.14,153.31h-56.01c-0.53,0-0.99,0.37-1.11,0.89l-8.74,39.11h54.71c1.31,0,2.46-0.89,2.79-2.16
							l9.46-36.42C467.43,154.01,466.89,153.31,466.14,153.31z"/>
						<path class="st17" d="M466.18,154.23h-54.4c-0.52,0-0.96,0.36-1.08,0.87l-8.49,38.21h53.13c1.28,0,2.39-0.87,2.71-2.11
							l9.19-35.58C467.42,154.91,466.9,154.23,466.18,154.23z"/>
					</g>
					<path class="st11" d="M404.63,193.31c-4.21-0.11-8.6-0.58-8.6-0.58s-0.77-1.61,1.4-2.03c0.83-0.16,2.57-0.15,3.5-0.1l0.57-2.19
						l-10.28-0.46l-8,1.68l-24.46-11.9l2.55-26.02l-14.45-5.32c-2.01,13.16-2.7,27.24-3,34.66c-0.13,3.13,1.89,5.93,4.9,6.79
						c10.89,3.14,47.19,13.04,47.19,13.04l10.04-2.25l6.9-5.34C412.9,193.31,406.55,193.36,404.63,193.31z"/>
					<path class="st4" d="M343.87,181.05c-0.13,3.13,1.89,5.93,4.9,6.79c2.04,0.59,4.97,1.41,8.39,2.37
						c-9.01-7.97-2.93-22.21,1.37-31.9c0.57-1.28,1.42-2.03,2.38-2.4l0.41-4.22l-14.45-5.32
						C344.86,159.55,344.17,173.62,343.87,181.05z"/>
				</g>
				<g>
					<g>
						<path d="M148.43,405.4c0.26-3.72-1.93-6.09-0.27-25.25c0.21-2.33-17.16-3.09-17.16-3.09c0.78,9.4,3.26,15.29-5.85,26.61
							c-2,2.47-7.74,7.04-9.76,9.05c-1.43,1.43-3.1,8.01,5.48,8.01c10.78,0,19.02-3.25,21.76-8.36c0.22-0.44,0.91-0.26,0.91-0.26
							S147.74,415.1,148.43,405.4z"/>
						<path d="M167.83,390.59l16.34-2.21c0,0,0.22,1.56,1.5,7.21c2.38,10.47,8.41,16.19,10.94,19.04c2.25,2.54,2.7,5.43,2.11,7.85
							l0.04,1.29c0,0-0.95,4.91-4.28,4.91c-3.34,0-17.06-2.23-18.73-4.6c-0.71-1.05-0.9-2.11-0.9-2.96
							c-0.06-0.13-0.15-0.25-0.2-0.38c0,0-1.43-5.71-3.34-5.23c0,0-3.25-3.25-1.35-8.48C171.86,401.78,167.83,390.59,167.83,390.59z
							"/>
						<path d="M112.11,210.39c-0.06,1.7-1.06,6.51-1.11,8.13c-0.5,17.65-0.98,27.55-0.98,32.19c0,5.08,4.98,60.41,8.79,73.1
							s7.91,60.88,5.38,64.68c-2.53,3.8-0.49,15.13-0.49,15.13s27.45-1.93,28.09,3.13c0,0,1.68-1.83,0.79-12.91
							c-1.58-19.79-4.59-30.52-6.02-68.6c-0.29-7.6-4.45-48.32-7.61-60.45c-1.43-5.49,13.18,56.49,18.25,74.26
							c0,0,9.65,38.36,7.54,54.73c-1.9,14.76,2.97,16.9,2.97,16.9s18.61-6.07,27.48-1c0.33-5.08,0.91-5.66-0.24-14.83
							c-1.42-11.42-11.33-47.23-12.76-63.3c-1.68-18.97-5.05-54.42-6.32-77.25c-1.27-22.84-10.4-40-12.99-44.57
							C160.26,205.15,112.11,210.39,112.11,210.39z"/>
						<path class="st18" d="M112.74,246.98c0.94,26.02,12.88,69.69,15.74,81.1c2.86,11.42-0.95,7.14,0.47,13.8
							c1.43,6.65,4.85,40.77,4.85,43.13c0,2.4,13.8,5.25,10.94,7.15c-2.84,1.9-13.32-1.42-13.32,0s8.1,4.27,8.1,4.27
							s-16.19,0.96-17.14,0.49c-0.95-0.49,1.83-4.6,1.27-9.67c-2.9-26.22,0.53-39.67-3.27-52.03c-3.8-12.38-11.05-88.33-9.63-96.42
							C112.19,230.73,112.74,246.98,112.74,246.98z"/>
						<path class="st18" d="M138.92,259.57c5.23,10.47,18.36,65.84,20.74,73.46c2.38,7.61,6.01,13.44,7.91,15.83
							c1.89,2.37,10.75,39.82,9.33,46.49c-4.75,0.47-9.52-0.47-9.98,1.89c-0.49,2.39,12.37,1.44,12.37,1.44l-14.74,7.2
							c-0.8-2.89-1.3-6.16-1.3-11.93c0-6.77-2.12-36.36-6.89-51.59c-3.88-12.43-5.4-26.3-9.16-42.18
							C143.63,285.15,138.92,259.57,138.92,259.57z"/>
					</g>
					<g>
						<g>
							<g>
								<polygon class="st19" points="132.59,126.13 135.37,126.48 136.06,120.91 130.53,120.25 130.2,122.64 								"/>
								<polygon class="st20" points="137.5,126.73 135.18,126.46 135.86,120.9 141.5,121.59 141.18,123.98 								"/>
							</g>
						</g>
					</g>
					<path class="st0" d="M151.61,109.06c-1.75,8.72-14.41,11.26-14.41,11.26l7.04,11.24l12.17-16.05L151.61,109.06z"/>
					<path class="st0" d="M134.47,120.38l-9.3,7.86c0,0-1.1-10.59-0.23-12.52c1.21-2.78,2.41-2.32,2.41-2.32s-0.47,1.28,1.73,3.84
						C132.05,120.7,134.47,120.38,134.47,120.38z"/>
					<g>
						<g>
							<path class="st21" d="M134.75,130.15c0.86,0.49,2.66,2.31,3.66,2.07c0.99-0.24,1.2-1.15,0.03-2.68
								c-1.16-1.54-3.14-2.63-3.72-1.32C134.12,129.51,134.75,130.15,134.75,130.15z"/>
						</g>
					</g>
					<g>
						<path class="st22" d="M133.23,100.19c0.94,4.57-1.51,9.3-3.34,13.19c-1.83,3.88,3.64,16.03,6.09,16.04
							c2.43,0.02,19.17-12.17,19.17-12.17s-4.62,0.62-4.62-22.04C150.52,91.61,133.23,100.19,133.23,100.19z"/>
					</g>
					<g>
						<path d="M158.03,85.51c0.03,3.26-2.18,15.49-3.67,17.39c-0.4,0.49-0.02,4.17,0.62,3.96c0.65-0.21-2.53,0.95-3.59-0.12
							c-1.04-1.08-3.25-17.43-2.68-18.27C149.26,87.63,158.03,85.51,158.03,85.51z"/>
						<g>
							<path class="st23" d="M150.21,89.43c0.41-8.98,3.08-18.49-10.69-19.31c-3.13-0.18-5.65,0-7.7,0.48
								c-0.78-0.34-1.58-0.62-2.37-0.83c-3.17,0.34-5.09,2.33-6.98,6.33c-1.57,3.49-2.02,8.07-1.88,12.5
								c0.04,1.41,0.78,3.47,0.93,4.82c0.22,2.01,0.05,3.2,0.25,4.82c0.68,5.38,3.18,12.08,7.42,16.12
								c1.22,0.68,2.59,1.05,4.13,0.98c4.81-0.23,9.09-1.89,12.02-4.65c1.74-1.36,3-5.97,3.77-9.84c1.88-0.8,5.07-4.67,5.4-7.38
								C154.96,89.93,153.45,87.77,150.21,89.43z"/>
							<g>
								<path class="st18" d="M134.16,69.52l0.35-0.8c0,0,3.67-1.98,3.01-2c-0.39-0.02-1.7-1.21-2.56,0.59l1.75-3l-8.41,2.38
									c0,0-1.85-0.33-3.22,0.68c-1.37,0.97-2.43,1.75-2.43,1.75s0.23,1.33,0.5-0.52c-1.87,0.51-3.17,4.76-3.22,7.95
									c-0.2,0.93-0.36,1.99-0.47,3.12c-0.52,4.71,0.45,9.87,0.45,9.87l0.9,0.58c0,0-1.57-11.19,2.82-14.3
									c4.39-3.12,14.44-0.06,14.44-0.06L134.16,69.52z"/>
								<path d="M157.34,76.09c-1.35-2.8-3.2-6.95-5.29-7.98c-1.01-2.23-8.24-2.4-15.53-5.11c0,0,6.46,2.49,6.52,4.22
									c-0.02-0.02-0.05-0.02-0.06-0.02c-0.88-1.39-11.58-5.11-11.07-4.27c2.92,4.79,2.31,1.6,1.56,3.64
									c-0.21-0.05,0.36,0.2,0.15,0.16c0.3-2.04-1.94-4.05-3.54-4.51c0.6,2.75-2.62,2.52-4.81,5.5c-2.7,2.47-4.78,7.2-2.06,9.29
									c6.31,4.84,11.43,0.96,15.55,1.26c3.73,0.25,5.8,2.47,6.56,3.88c1.01,1.89,1.53,10.75,1.53,10.75l2.68-1.66l1.84-3.8
									l5.8,2.5C157.16,89.96,160.03,81.75,157.34,76.09z"/>
							</g>
						</g>
					</g>
					<path class="st18" d="M119.24,96.95c1.9,0.46,5.3,0.73,5.71-0.84c0.48-1.86,0.8-4.19,0.8-4.19s0.98-0.77,2.63,0.05
						c0,0,0.5,2.64,1.01,4.27c0.55,1.72,6.46,0.83,8.92,0.31c1.12-0.23,1.24-2.64,1.3-4.63l11.97-3.06l0.66-1.02
						c0,0-11.55,2.06-13.21,2.25c-1.47-0.36-7.13,0.71-9.29,0.57c-0.67,0.11-1.84-0.01-2.76,0c-1.12,0.01-1.72,0.29-2,0.23
						c-0.47-0.1-6.1-1.1-6.88-0.42C117.35,91.16,117.96,96.65,119.24,96.95z M129.5,91.8c0.61,0.15,8.6-0.88,8.97-0.52
						c0.36,0.36,0.28,4.14-0.75,4.5c-1.47,0.54-6.72,1.13-7.34-0.36C129.77,93.92,129.5,91.8,129.5,91.8z M118.82,91.47
						c0.37-0.34,5.18,0.36,5.81,0.23c0,0,0.16,2.13-0.41,4.03c-0.19,0.6-3.58,0.61-4.55,0.11
						C118.79,95.38,118.44,91.82,118.82,91.47z"/>
				</g>
				<polygon class="st4" points="170.2,198.69 171.34,162.05 169.36,153.32 168.7,162.48 166.06,198.47 168.7,228.29 				"/>
				<path class="st24" d="M194.68,186.92L194.68,186.92l-9.26-52.13h-0.02c-0.76-1.97-3.57-7.62-11.42-9.58l-30.68-11.14
					c-0.01-0.06-0.01-0.13-0.02-0.19c-0.01-0.04,0.01-0.07,0.01-0.1l-0.2-0.07l-0.39,0.14l-0.39-0.14l-0.19,0.07
					c0,0.03,0.01,0.06,0.01,0.1c-0.01,0.06-0.01,0.13-0.02,0.19l-30.68,11.14c-7.85,1.96-10.66,7.61-11.42,9.58h-0.02l-3.27,55.96
					l-17.89-9.89c0,0,1.39,7.49,8.7,22.11s23.71-5.68,23.71-5.68s1.26-24.41,1.2-28.67l0.59,29.79l-1.71,22.65h-0.02l-0.47,13.46
					c20.91-0.23,41.54,2.03,62.44,2.03l-3.73-21.27v-5.63l0.67-10.97l0.04-1.33l16.96,2.32c4.67,0.48,8.67-3.23,8.36-7.77
					L194.68,186.92z M170.83,179.92l0.59-17.57l2.57,17.52L170.83,179.92z"/>
				<path class="st22" d="M153.66,117.4l-10.34-3.76c-0.01-0.06-0.01-0.13-0.02-0.19c-0.01-0.04,0.01-0.07,0.01-0.1l-0.2-0.07
					l-0.39,0.14l-0.39-0.14l-0.19,0.07c0,0.03,0.01,0.06,0.01,0.1c-0.01,0.06-0.01,0.13-0.02,0.19l-11.91,4.29l7.17,15.85l5.03,0.41
					L153.66,117.4z"/>
				<path class="st25" d="M194.68,186.92L194.68,186.92l-9.26-52.12h-0.02c-0.54-1.4-2.12-4.64-5.79-7.11
					c3.89,6.94,5.28,18.8,5.48,19.99c1.63,9.43,2.17,18.86,3.91,28.35c0.83,4.52,2.53,11.15-0.83,15.26
					c-3.69,4.51-38.01,1.12-47.65-0.1c-4.76-0.6,0.41-9.45,0.41-9.45l7.25-0.07l22.65-1.75c0,0,0.49-15.25,0.59-17.57
					c-0.61,4.59-3.19,10.5-7.2,13.08c-5.09,3.28-11.52,3.08-17.35,2.82c-11.43-0.51-22.81,0.75-34.22,1.38l-0.9,18.22
					c0,0,7.13,0.61,13.59,0.94c1.43,0.07,2.78-0.83,3.11-2.22c0.36-1.52-0.28-3.05,1.71-3.15c11.53-0.56,24.33,4.28,34.66,8.91
					l4.89,3.27l0.51-6.91l0.04-1.33l16.96,2.32c4.67,0.48,8.67-3.23,8.36-7.77L194.68,186.92z"/>
				<g>
					<g>
						<path class="st1" d="M116.22,161.56l-47.26-0.07c-2.52,0-3.16,0.9-3.16,2.85l5.92,30.59c0,1.95,1.6,2.93,3.57,2.93h46.85
							c1.97,0,3.57-0.85,3.57-2.8l-5.92-30.08C119.79,163.03,118.19,161.56,116.22,161.56z"/>
					</g>
				</g>
				<path class="st26" d="M135.08,178.79l-10.45-3.99l-3.07,0.02l2.63,14.53l5.47,1.73c2.28,0.41,4.83,0.45,6.74-0.73l4.12,0.86
					l-0.88-9.12L135.08,178.79z"/>
				<path class="st26" d="M109.01,178.93l2.01,6.37c0.6,1.72,2.04,3.05,3.85,3.54l10.84,2.93l7.72-0.5c0,0,1.14-0.26,2.24-0.66
					l5.06,0.69l1.34-9.59l-14.38-3.91L109.01,178.93z"/>
				<path class="st26" d="M106.06,178.72c-0.88,0.06-1.53,0.83-1.42,1.68c0.1,0.73,0.72,1.29,1.48,1.31l17.07,0.31l-0.32-4.69
					L106.06,178.72z"/>
				<path class="st27" d="M130.21,115.35l-1.08-0.24l-3.76,3.24c0,4.65,2.97,11.97,2.97,11.97l6.09-7.54
					C129.21,119.82,130.21,115.35,130.21,115.35z"/>
				<path class="st28" d="M130.62,127.48c0.69,6.31,6.75,6.72,6.75,6.72l-2.96-11.41L130.62,127.48z"/>
				<path class="st27" d="M146.88,122.87l5.69,6.47c0,0,2.67-4.49,4.38-10.01l-4.31-5.16C152.63,114.17,151.05,120.63,146.88,122.87
					z"/>
				<path class="st28" d="M142.4,134.61c0,0,4.31-1.25,5.61-2.51c3.22-3.16,3.16-4.51,3.16-4.51l-4.28-4.71L142.4,134.61z"/>
				<g>
					<path class="st29" d="M357.89,146.59c0.21-0.39,1.81-0.81,2.19-0.97c1.45-0.64,2.77-1.81,4.34-1.92
						c3.26-0.23,2.77-0.22,5.9-0.11c0.92,0.03,5.3,0.24,6.22,0.66c0.22,0.1,0.29,0.36,0.33,0.59c0.58,3.66-2.49,1.7-4.87,2.53
						c-0.9,0.32-2.36-1-3.24-0.61c2.76,0.31,5.53,0.63,8.29,0.94c1.59,0.19,10.61,1.11,10.33,3.04c-0.14,0.97-1.56,0.99-2.3,1.02
						c-3.19,0.12-7.37-0.25-10.54-0.61c2.68,0.36,4.43,0.3,4.04,2.19c-0.11,0.52-1.27,1.71-3,1.09c1.51,0.54,1.07,1.53,0.81,2.45
						c-0.35,1.22-1.84,2.21-2.14,1.2c0.74,2.52-1.2,4.63-4.61,3.77c-1.59-0.39-3.49-0.23-5.08-0.63c-1.97-0.49-3.49-0.84-5.48-1.21
						c-2.76-0.52-4.31-1.75-6.79-3.07L357.89,146.59z"/>
				</g>
				<path class="st4" d="M270.05,147.92c0,0,7.33,8.81,25.34,13.29s22.68,4.41,27.25,4.07s18.88-4.99,23.88-5.85
					s10.41-2.82,10.41-2.82l0.92-10.06c0.06,0.27-18.45-0.47-24.07,0.24c-5.67,0.72-16.27,1.76-23.03-0.97
					c-6.76-2.72-21.96-12.81-24.35-14.23s-15.64-7.57-18.13-0.76C265.78,137.64,264.6,146.63,270.05,147.92z"/>
				<path class="st5" d="M269.15,147.8c0,0,6.93,9.13,24.72,14.41s22.46,5.42,27.04,5.28c4.58-0.13,19.09-4.14,24.12-4.77
					s11.99-3.55,11.99-3.55l1.15-13.23c0,0-19.89,1.74-25.3,3.59s-16.33,1.03-22.96-2s-21.36-13.78-23.69-15.31
					c-2.33-1.54-15.29-8.26-18.08-1.57C265.34,137.34,263.77,146.27,269.15,147.8z"/>
				<path class="st6" d="M352.85,160.86c2.4-0.82,4.17-1.56,4.17-1.56l1.15-13.23c0,0-1.5,0.13-3.78,0.36
					C354.32,152.26,350.49,161.67,352.85,160.86z"/>
			</g>
			<g>
				<g>
					<g>
						<g>
							<circle class="st30" cx="65.1" cy="120.54" r="22.67"/>
						</g>
						<polygon class="st30" points="66.27,140.81 72.71,138.01 79.15,135.2 77.96,150.06 						"/>
					</g>
				</g>
				<g>
					<g>
						<rect x="51.78" y="112.08" class="st0" width="3.25" height="2.7"/>
						<rect x="57.19" y="112.08" class="st0" width="18.93" height="2.7"/>
						<rect x="57.19" y="117.49" class="st0" width="14.06" height="2.7"/>
						<rect x="51.78" y="117.49" class="st0" width="3.25" height="2.7"/>
						<rect x="51.78" y="122.9" class="st0" width="3.25" height="2.7"/>
						<rect x="57.19" y="122.9" class="st0" width="21.64" height="2.7"/>
						<rect x="51.78" y="128.31" class="st0" width="3.25" height="2.7"/>
						<rect x="57.19" y="128.31" class="st0" width="16.77" height="2.7"/>
					</g>
				</g>
			</g>
			<g>
				<g>
					<g>
						<g>
							<g>
								<circle class="st30" cx="443.2" cy="119.25" r="17.21"/>
							</g>
							<polygon class="st30" points="437.87,133.71 443.2,133.71 448.53,133.71 443.2,143.69 							"/>
						</g>
					</g>
				</g>
				<g>
					<g>
						<g>
							<path class="st0" d="M437.09,126.5c2.08,0.35,5.54,0.35,6.23,0.35s4.16,0,6.23-0.35c0.72-0.12,1.27-0.67,1.39-1.39
								c0.35-2.08,0.35-5.54,0.35-6.23c0-2.08,0-4.16-0.35-6.23c-0.12-0.72-0.67-1.27-1.39-1.39c-2.08-0.35-5.54-0.35-6.23-0.35
								s-4.16,0-6.23,0.35c-0.72,0.12-1.27,0.67-1.39,1.39c-0.35,2.08-0.35,5.54-0.35,6.23s0,4.16,0.35,6.23
								C435.82,125.84,436.37,126.38,437.09,126.5 M443.31,112.96c0.78,0,1.23,0.42,1.23,1.21c0,0.69-0.41,1.23-1.21,1.23
								c-0.78,0-1.23-0.44-1.23-1.23C442.1,113.49,442.52,112.96,443.31,112.96 M442.28,119.58v-2.79h2.09v7.67h-2.29L442.28,119.58
								z"/>
						</g>
					</g>
				</g>
			</g>
		</g>
	</g>
	<g>
		<g>
			<g>
				<defs>
					<rect id="SVGID_1_" x="-0.35" y="-370.21" width="421.38" height="316.21"/>
				</defs>
				<clipPath id="SVGID_00000181801440472707515500000012661240644480678037_">
					<use xlink:href="#SVGID_1_"  style="overflow:visible;"/>
				</clipPath>
			</g>
		</g>
	</g>
</g>
</svg>
