<?xml version="1.0" encoding="utf-8"?>
<!-- Generator: Adobe Illustrator 28.1.0, SVG Export Plug-In . SVG Version: 6.00 Build 0)  -->
<svg version="1.1" id="Laag_1" xmlns="http://www.w3.org/2000/svg" xmlns:xlink="http://www.w3.org/1999/xlink" x="0px" y="0px"
	 viewBox="0 0 525 476" style="enable-background:new 0 0 525 476;" xml:space="preserve">
<style type="text/css">
	.st0{fill:#FFFFFF;}
	.st1{fill:#154273;}
	.st2{fill:#007BC7;}
	.st3{fill:#80BDE3;}
	.st4{fill:#4CA3D8;}
	.st5{fill:#3395D2;}
	.st6{fill:#66B0DD;}
	.st7{fill:#BCE0F1;}
	.st8{fill:#B1DAEF;}
	.st9{fill:#9BD0EB;}
	.st10{fill:#90CBE8;}
	.st11{fill:#A6D5ED;}
	.st12{fill:#E9F5FA;}
	.st13{clip-path:url(#SVGID_00000100358864752603067530000005824728875310993599_);}
	.st14{fill:#D9D9D9;}
	.st15{fill:#8E8F8F;}
	.st16{fill:#6A787E;}
	.st17{fill:#465457;}
	.st18{fill:#0068B3;}
	.st19{fill:#92D2F4;}
	.st20{fill:#00518B;}
	.st21{fill:#C5C2C2;}
	.st22{fill:none;}
	.st23{fill:#E16F0D;}
	.st24{enable-background:new    ;}
	.st25{fill:#01689A;}
	.st26{fill:#333333;}
	.st27{fill:#E58D6D;}
	.st28{fill:#2C5581;}
	.st29{fill:#F5AE74;}
	.st30{fill:#E78C3E;}
	.st31{fill:#1D1D1B;}
	.st32{fill:#26282D;}
	.st33{fill:#3B4749;}
</style>
<g id="illustraties">
	<g>
		<path class="st0" d="M507.87,476c32.46-40.33,13.97-186.63-15.54-207.51c-32.65-23.1,19.2-103.01-31.1-128.94
			c-32.84-16.93-77.35,1.98-99.09-34.47c-25.54-42.83-67.98-94.97-147.01-54.45c-60.95,31.25-27.85,91.48-127.59,109.62
			c-51.29,9.33-41.38,89.12-36.59,105.6c4.17,14.36,31.72,37.14-6.58,68.51c-50.42,41.3,6.82,124.5,19.97,141.64H507.87z"/>
		<g>
			<g>
				<path class="st1" d="M461.16,194.37h-1.5v-15h1.5V194.37z M461.16,164.37h-1.5v-15h1.5V164.37z M461.16,134.37h-1.5v-15h1.5
					V134.37z M461.16,104.37h-1.5v-15h1.5V104.37z"/>
				<g>
					<path class="st1" d="M467.61,184.12c-0.35-0.22-0.81-0.12-1.04,0.23l-6.16,9.68l-6.16-9.68c-0.22-0.35-0.69-0.45-1.04-0.23
						s-0.45,0.69-0.23,1.04l6.8,10.67c0.14,0.22,0.38,0.35,0.63,0.35s0.5-0.13,0.63-0.35l6.8-10.67c0.08-0.13,0.12-0.27,0.12-0.4
						C467.96,184.5,467.84,184.26,467.61,184.12z"/>
				</g>
			</g>
		</g>
		<path class="st1" d="M178.99,227.07h-1.5v-15h1.5V227.07z M178.99,197.07h-1.5v-15h1.5V197.07z M178.99,167.07h-1.5v-15h1.5
			V167.07z M178.99,137.07h-1.5v-15h1.5V137.07z"/>
		<g>
			<g>
				<path class="st1" d="M462.9,88.44h-15v-1.5h15V88.44z M432.9,88.44h-15v-1.5h15V88.44z M402.9,88.44h-15v-1.5h15V88.44z
					 M372.9,88.44h-15v-1.5h15V88.44z"/>
				<g>
					<path class="st1" d="M368.16,94.89c0.22-0.35,0.12-0.81-0.23-1.04l-9.68-6.16l9.68-6.16c0.35-0.22,0.45-0.69,0.23-1.04
						s-0.69-0.45-1.04-0.23l-10.67,6.8c-0.22,0.14-0.35,0.38-0.35,0.63s0.13,0.5,0.35,0.63l10.67,6.8c0.13,0.08,0.27,0.12,0.4,0.12
						C367.77,95.23,368.01,95.11,368.16,94.89z"/>
				</g>
			</g>
		</g>
		<g>
			<g>
				<path class="st1" d="M252.04,88.44h-13.8v-1.5h13.8V88.44z M223.24,88.44h-15v-1.5h15V88.44z M193.24,88.44h-15v-1.5h15V88.44z"
					/>
				<g>
					<path class="st1" d="M241.79,94.89c-0.22-0.35-0.12-0.81,0.23-1.04l9.68-6.16l-9.68-6.16c-0.35-0.22-0.45-0.69-0.23-1.04
						s0.69-0.45,1.04-0.23l10.67,6.8c0.22,0.14,0.35,0.38,0.35,0.63s-0.13,0.5-0.35,0.63l-10.67,6.8c-0.13,0.08-0.27,0.12-0.4,0.12
						C242.17,95.23,241.93,95.11,241.79,94.89z"/>
				</g>
			</g>
		</g>
		<g>
			<g>
				<circle class="st2" cx="459.85" cy="91.23" r="21.5"/>
			</g>
			<g>
				<g>
					<g>
						<path class="st0" d="M470.4,94.71c-1.44,4.36-5.55,7.52-10.38,7.52c-5.7,0-10.56-4.43-10.91-10.3
							c0.03-0.02,0.07-0.02,0.13,0.07c0.09,0.14,0.55,1.43,0.57,1.51l1.47,0.87c0.35,0.21,0.8,0.13,1.06-0.18s0.26-0.77,0-1.08
							l-3.68-4.37c-0.16-0.19-0.41-0.3-0.66-0.3c-0.25-0.01-0.5,0.1-0.66,0.3l-3.68,4.37c-0.26,0.31-0.26,0.77,0,1.08
							c0.26,0.31,0.71,0.39,1.06,0.18l1.82-1.08c0.97,6.55,6.64,11.6,13.46,11.6c6.12,0,11.3-4.06,13.01-9.62
							C472.25,95.75,471.23,95.7,470.4,94.71 M476.37,88.75c-0.26-0.31-0.71-0.39-1.06-0.18l-1.78,1.05
							c-0.83-6.72-6.56-11.94-13.5-11.94c-6.28,0-11.57,4.28-13.14,10.07c0.75-0.54,1.9-0.53,2.67,0.38
							c1.36-4.5,5.54-7.78,10.47-7.78c5.9,0,10.77,4.71,10.92,10.66c-0.03,0.03-0.08,0.03-0.14-0.07c-0.07-0.13-0.4-1.16-0.5-1.45
							l-1.56-0.92c-0.35-0.21-0.8-0.13-1.06,0.18s-0.26,0.77,0,1.08l3.68,4.37c0.16,0.19,0.41,0.3,0.66,0.3
							c0.25,0.01,0.5-0.1,0.66-0.3l3.68-4.37C476.63,89.52,476.63,89.06,476.37,88.75"/>
					</g>
				</g>
			</g>
		</g>
		<g>
			<g>
				<g>
					<g>
						<rect x="280.95" y="68.67" class="st3" width="103.68" height="338.85"/>
						<rect x="258.16" y="68.67" class="st4" width="22.79" height="338.85"/>
						<rect x="284.67" y="77.71" class="st0" width="96.23" height="329.81"/>
						<rect x="280.95" y="87.96" class="st3" width="103.68" height="3.92"/>
						<rect x="280.95" y="102.13" class="st3" width="103.68" height="3.92"/>
						<rect x="280.95" y="116.29" class="st3" width="103.68" height="3.92"/>
						<rect x="280.95" y="130.46" class="st3" width="103.68" height="3.92"/>
						<rect x="280.95" y="144.63" class="st3" width="103.68" height="3.92"/>
						<rect x="280.95" y="158.79" class="st3" width="103.68" height="3.92"/>
						<rect x="280.95" y="172.96" class="st3" width="103.68" height="3.92"/>
						<rect x="280.95" y="187.13" class="st3" width="103.68" height="3.92"/>
						<rect x="280.95" y="201.3" class="st3" width="103.68" height="3.92"/>
						<rect x="280.95" y="215.46" class="st3" width="103.68" height="3.92"/>
						<rect x="280.95" y="229.63" class="st3" width="103.68" height="3.92"/>
						<rect x="280.95" y="243.8" class="st3" width="103.68" height="3.92"/>
						<rect x="280.95" y="257.96" class="st3" width="103.68" height="3.92"/>
						<rect x="280.95" y="272.13" class="st3" width="103.68" height="3.92"/>
						<rect x="280.95" y="286.3" class="st3" width="103.68" height="3.92"/>
						<rect x="280.95" y="300.46" class="st3" width="103.68" height="3.92"/>
						<rect x="280.95" y="314.63" class="st3" width="103.68" height="3.92"/>
						<rect x="280.95" y="328.8" class="st3" width="103.68" height="3.92"/>
						<rect x="280.95" y="342.97" class="st3" width="103.68" height="3.92"/>
						<rect x="280.95" y="357.13" class="st3" width="103.68" height="3.92"/>
						<rect x="280.95" y="371.3" class="st3" width="103.68" height="3.92"/>
						<rect x="280.95" y="385.47" class="st3" width="103.68" height="3.92"/>
						<g>
							<rect x="300.65" y="77.71" class="st3" width="0.4" height="328.45"/>
							<rect x="284.67" y="77.71" class="st3" width="0.4" height="328.45"/>
							<rect x="316.62" y="77.71" class="st3" width="0.4" height="328.45"/>
							<rect x="332.59" y="77.71" class="st3" width="0.4" height="328.45"/>
							<rect x="348.56" y="77.71" class="st3" width="0.4" height="328.45"/>
							<rect x="364.53" y="77.71" class="st3" width="0.4" height="328.45"/>
							<rect x="380.51" y="77.71" class="st3" width="0.4" height="328.45"/>
						</g>
						<g>
							<rect x="300.04" y="77.71" class="st4" width="0.6" height="10.25"/>
							<rect x="316.01" y="77.71" class="st4" width="0.6" height="10.25"/>
							<rect x="331.99" y="77.71" class="st4" width="0.6" height="10.25"/>
							<rect x="347.96" y="77.71" class="st4" width="0.6" height="10.25"/>
							<rect x="363.93" y="77.71" class="st4" width="0.6" height="10.25"/>
							<rect x="379.9" y="77.71" class="st4" width="0.6" height="10.25"/>
						</g>
						<g>
							<rect x="300.04" y="91.88" class="st4" width="0.6" height="10.25"/>
							<rect x="316.01" y="91.88" class="st4" width="0.6" height="10.25"/>
							<rect x="331.99" y="91.88" class="st4" width="0.6" height="10.25"/>
							<rect x="347.96" y="91.88" class="st4" width="0.6" height="10.25"/>
							<rect x="363.93" y="91.88" class="st4" width="0.6" height="10.25"/>
							<rect x="379.9" y="91.88" class="st4" width="0.6" height="10.25"/>
						</g>
						<g>
							<rect x="300.04" y="106.04" class="st4" width="0.6" height="10.25"/>
							<rect x="316.01" y="106.04" class="st4" width="0.6" height="10.25"/>
							<rect x="331.99" y="106.04" class="st4" width="0.6" height="10.25"/>
							<rect x="347.96" y="106.04" class="st4" width="0.6" height="10.25"/>
							<rect x="363.93" y="106.04" class="st4" width="0.6" height="10.25"/>
							<rect x="379.9" y="106.04" class="st4" width="0.6" height="10.25"/>
						</g>
						<g>
							<rect x="300.04" y="120.21" class="st4" width="0.6" height="10.25"/>
							<rect x="316.01" y="120.21" class="st4" width="0.6" height="10.25"/>
							<rect x="331.99" y="120.21" class="st4" width="0.6" height="10.25"/>
							<rect x="347.96" y="120.21" class="st4" width="0.6" height="10.25"/>
							<rect x="363.93" y="120.21" class="st4" width="0.6" height="10.25"/>
							<rect x="379.9" y="120.21" class="st4" width="0.6" height="10.25"/>
						</g>
						<g>
							<rect x="300.04" y="134.38" class="st4" width="0.6" height="10.25"/>
							<rect x="316.01" y="134.38" class="st4" width="0.6" height="10.25"/>
							<rect x="331.99" y="134.38" class="st4" width="0.6" height="10.25"/>
							<rect x="347.96" y="134.38" class="st4" width="0.6" height="10.25"/>
							<rect x="363.93" y="134.38" class="st4" width="0.6" height="10.25"/>
							<rect x="379.9" y="134.38" class="st4" width="0.6" height="10.25"/>
						</g>
						<g>
							<rect x="300.04" y="148.55" class="st4" width="0.6" height="10.25"/>
							<rect x="316.01" y="148.55" class="st4" width="0.6" height="10.25"/>
							<rect x="331.99" y="148.55" class="st4" width="0.6" height="10.25"/>
							<rect x="347.96" y="148.55" class="st4" width="0.6" height="10.25"/>
							<rect x="363.93" y="148.55" class="st4" width="0.6" height="10.25"/>
							<rect x="379.9" y="148.55" class="st4" width="0.6" height="10.25"/>
						</g>
						<g>
							<rect x="300.04" y="162.71" class="st4" width="0.6" height="10.25"/>
							<rect x="316.01" y="162.71" class="st4" width="0.6" height="10.25"/>
							<rect x="331.99" y="162.71" class="st4" width="0.6" height="10.25"/>
							<rect x="347.96" y="162.71" class="st4" width="0.6" height="10.25"/>
							<rect x="363.93" y="162.71" class="st4" width="0.6" height="10.25"/>
							<rect x="379.9" y="162.71" class="st4" width="0.6" height="10.25"/>
						</g>
						<g>
							<rect x="300.04" y="176.88" class="st4" width="0.6" height="10.25"/>
							<rect x="316.01" y="176.88" class="st4" width="0.6" height="10.25"/>
							<rect x="331.99" y="176.88" class="st4" width="0.6" height="10.25"/>
							<rect x="347.96" y="176.88" class="st4" width="0.6" height="10.25"/>
							<rect x="363.93" y="176.88" class="st4" width="0.6" height="10.25"/>
							<rect x="379.9" y="176.88" class="st4" width="0.6" height="10.25"/>
						</g>
						<g>
							<rect x="300.04" y="191.05" class="st4" width="0.6" height="10.25"/>
							<rect x="316.01" y="191.05" class="st4" width="0.6" height="10.25"/>
							<rect x="331.99" y="191.05" class="st4" width="0.6" height="10.25"/>
							<rect x="347.96" y="191.05" class="st4" width="0.6" height="10.25"/>
							<rect x="363.93" y="191.05" class="st4" width="0.6" height="10.25"/>
							<rect x="379.9" y="191.05" class="st4" width="0.6" height="10.25"/>
						</g>
						<g>
							<rect x="300.04" y="205.21" class="st4" width="0.6" height="10.25"/>
							<rect x="316.01" y="205.21" class="st4" width="0.6" height="10.25"/>
							<rect x="331.99" y="205.21" class="st4" width="0.6" height="10.25"/>
							<rect x="347.96" y="205.21" class="st4" width="0.6" height="10.25"/>
							<rect x="363.93" y="205.21" class="st4" width="0.6" height="10.25"/>
							<rect x="379.9" y="205.21" class="st4" width="0.6" height="10.25"/>
						</g>
						<g>
							<rect x="300.04" y="219.38" class="st4" width="0.6" height="10.25"/>
							<rect x="316.01" y="219.38" class="st4" width="0.6" height="10.25"/>
							<rect x="331.99" y="219.38" class="st4" width="0.6" height="10.25"/>
							<rect x="347.96" y="219.38" class="st4" width="0.6" height="10.25"/>
							<rect x="363.93" y="219.38" class="st4" width="0.6" height="10.25"/>
							<rect x="379.9" y="219.38" class="st4" width="0.6" height="10.25"/>
						</g>
						<g>
							<rect x="300.04" y="233.55" class="st4" width="0.6" height="10.25"/>
							<rect x="316.01" y="233.55" class="st4" width="0.6" height="10.25"/>
							<rect x="331.99" y="233.55" class="st4" width="0.6" height="10.25"/>
							<rect x="347.96" y="233.55" class="st4" width="0.6" height="10.25"/>
							<rect x="363.93" y="233.55" class="st4" width="0.6" height="10.25"/>
							<rect x="379.9" y="233.55" class="st4" width="0.6" height="10.25"/>
						</g>
						<g>
							<rect x="300.04" y="247.71" class="st4" width="0.6" height="10.25"/>
							<rect x="316.01" y="247.71" class="st4" width="0.6" height="10.25"/>
							<rect x="331.99" y="247.71" class="st4" width="0.6" height="10.25"/>
							<rect x="347.96" y="247.71" class="st4" width="0.6" height="10.25"/>
							<rect x="363.93" y="247.71" class="st4" width="0.6" height="10.25"/>
							<rect x="379.9" y="247.71" class="st4" width="0.6" height="10.25"/>
						</g>
						<g>
							<rect x="300.04" y="261.88" class="st4" width="0.6" height="10.25"/>
							<rect x="316.01" y="261.88" class="st4" width="0.6" height="10.25"/>
							<rect x="331.99" y="261.88" class="st4" width="0.6" height="10.25"/>
							<rect x="347.96" y="261.88" class="st4" width="0.6" height="10.25"/>
							<rect x="363.93" y="261.88" class="st4" width="0.6" height="10.25"/>
							<rect x="379.9" y="261.88" class="st4" width="0.6" height="10.25"/>
						</g>
						<g>
							<rect x="300.04" y="276.05" class="st4" width="0.6" height="10.25"/>
							<rect x="316.01" y="276.05" class="st4" width="0.6" height="10.25"/>
							<rect x="331.99" y="276.05" class="st4" width="0.6" height="10.25"/>
							<rect x="347.96" y="276.05" class="st4" width="0.6" height="10.25"/>
							<rect x="363.93" y="276.05" class="st4" width="0.6" height="10.25"/>
							<rect x="379.9" y="276.05" class="st4" width="0.6" height="10.25"/>
						</g>
						<g>
							<rect x="300.04" y="290.22" class="st4" width="0.6" height="10.25"/>
							<rect x="316.01" y="290.22" class="st4" width="0.6" height="10.25"/>
							<rect x="331.99" y="290.22" class="st4" width="0.6" height="10.25"/>
							<rect x="347.96" y="290.22" class="st4" width="0.6" height="10.25"/>
							<rect x="363.93" y="290.22" class="st4" width="0.6" height="10.25"/>
							<rect x="379.9" y="290.22" class="st4" width="0.6" height="10.25"/>
						</g>
						<g>
							<rect x="300.04" y="304.38" class="st4" width="0.6" height="10.25"/>
							<rect x="316.01" y="304.38" class="st4" width="0.6" height="10.25"/>
							<rect x="331.99" y="304.38" class="st4" width="0.6" height="10.25"/>
							<rect x="347.96" y="304.38" class="st4" width="0.6" height="10.25"/>
							<rect x="363.93" y="304.38" class="st4" width="0.6" height="10.25"/>
							<rect x="379.9" y="304.38" class="st4" width="0.6" height="10.25"/>
						</g>
						<g>
							<rect x="300.04" y="318.55" class="st4" width="0.6" height="10.25"/>
							<rect x="316.01" y="318.55" class="st4" width="0.6" height="10.25"/>
							<rect x="331.99" y="318.55" class="st4" width="0.6" height="10.25"/>
							<rect x="347.96" y="318.55" class="st4" width="0.6" height="10.25"/>
							<rect x="363.93" y="318.55" class="st4" width="0.6" height="10.25"/>
							<rect x="379.9" y="318.55" class="st4" width="0.6" height="10.25"/>
						</g>
						<g>
							<rect x="300.04" y="332.72" class="st4" width="0.6" height="10.25"/>
							<rect x="316.01" y="332.72" class="st4" width="0.6" height="10.25"/>
							<rect x="331.99" y="332.72" class="st4" width="0.6" height="10.25"/>
							<rect x="347.96" y="332.72" class="st4" width="0.6" height="10.25"/>
							<rect x="363.93" y="332.72" class="st4" width="0.6" height="10.25"/>
							<rect x="379.9" y="332.72" class="st4" width="0.6" height="10.25"/>
						</g>
						<g>
							<rect x="300.04" y="346.88" class="st4" width="0.6" height="10.25"/>
							<rect x="316.01" y="346.88" class="st4" width="0.6" height="10.25"/>
							<rect x="331.99" y="346.88" class="st4" width="0.6" height="10.25"/>
							<rect x="347.96" y="346.88" class="st4" width="0.6" height="10.25"/>
							<rect x="363.93" y="346.88" class="st4" width="0.6" height="10.25"/>
							<rect x="379.9" y="346.88" class="st4" width="0.6" height="10.25"/>
						</g>
						<g>
							<rect x="300.04" y="361.05" class="st4" width="0.6" height="10.25"/>
							<rect x="316.01" y="361.05" class="st4" width="0.6" height="10.25"/>
							<rect x="331.99" y="361.05" class="st4" width="0.6" height="10.25"/>
							<rect x="347.96" y="361.05" class="st4" width="0.6" height="10.25"/>
							<rect x="363.93" y="361.05" class="st4" width="0.6" height="10.25"/>
							<rect x="379.9" y="361.05" class="st4" width="0.6" height="10.25"/>
						</g>
						<g>
							<rect x="300.04" y="375.22" class="st4" width="0.6" height="10.25"/>
							<rect x="316.01" y="375.22" class="st4" width="0.6" height="10.25"/>
							<rect x="331.99" y="375.22" class="st4" width="0.6" height="10.25"/>
							<rect x="347.96" y="375.22" class="st4" width="0.6" height="10.25"/>
							<rect x="363.93" y="375.22" class="st4" width="0.6" height="10.25"/>
							<rect x="379.9" y="375.22" class="st4" width="0.6" height="10.25"/>
						</g>
						<g>
							<rect x="313.88" y="390.68" class="st0" width="36.65" height="15.92"/>
							<rect x="310.79" y="385.94" class="st4" width="44.33" height="4.07"/>
							<rect x="309.46" y="385.94" class="st5" width="1.34" height="4.07"/>
							<rect x="310.41" y="390.01" class="st3" width="43.95" height="1.34"/>
							<rect x="310.41" y="406.17" class="st3" width="43.95" height="1.34"/>
							<rect x="349.77" y="390.01" class="st3" width="1.5" height="17.51"/>
							<g>
								<rect x="352.02" y="390.01" class="st3" width="2.34" height="17.51"/>
								<rect x="351.27" y="390.01" class="st4" width="0.75" height="17.51"/>
							</g>
							<rect x="339.46" y="390.01" class="st3" width="1.5" height="17.51"/>
							<rect x="344.05" y="390.01" class="st3" width="1.5" height="17.51"/>
							<rect x="333.74" y="390.01" class="st3" width="1.5" height="17.51"/>
							<rect x="323.43" y="390.01" class="st3" width="1.5" height="17.51"/>
							<rect x="313.12" y="390.01" class="st3" width="1.5" height="17.51"/>
							<g>
								<rect x="341.71" y="390.01" class="st3" width="2.34" height="17.51"/>
								<rect x="340.96" y="390.01" class="st4" width="0.75" height="17.51"/>
							</g>
							<rect x="329.15" y="390.01" class="st3" width="1.5" height="17.51"/>
							<g>
								<rect x="331.4" y="390.01" class="st3" width="2.34" height="17.51"/>
								<rect x="330.65" y="390.01" class="st4" width="0.75" height="17.51"/>
							</g>
							<rect x="318.85" y="390.01" class="st3" width="1.5" height="17.51"/>
							<g>
								<rect x="321.1" y="390.01" class="st3" width="2.34" height="17.51"/>
								<rect x="320.34" y="390.01" class="st4" width="0.75" height="17.51"/>
							</g>
							<g>
								<rect x="310.79" y="390.01" class="st3" width="2.34" height="17.51"/>
								<rect x="310.04" y="390.01" class="st4" width="0.75" height="17.51"/>
							</g>
						</g>
					</g>
					<rect x="300.92" y="55.56" class="st6" width="29.04" height="13.1"/>
					<rect x="291.43" y="55.56" class="st5" width="9.77" height="13.1"/>
					<rect x="318.21" y="64.08" class="st4" width="23" height="4.59"/>
					<rect x="310.69" y="64.08" class="st5" width="7.74" height="4.59"/>
				</g>
				<rect x="282.99" y="72.25" class="st3" width="99.28" height="30.87"/>
				<rect x="324.9" y="68.72" class="st1" width="13.28" height="26.56"/>
			</g>
			<g>
				<g>
					<rect x="408.07" y="203.71" class="st7" width="92.85" height="203.81"/>
					<rect x="411.97" y="212.02" class="st0" width="85.05" height="176.16"/>
					<rect x="411.97" y="227.62" class="st8" width="85.05" height="1.51"/>
					<rect x="411.97" y="245.22" class="st8" width="85.05" height="1.51"/>
					<rect x="411.97" y="262.84" class="st8" width="85.05" height="1.51"/>
					<rect x="411.97" y="280.46" class="st8" width="85.05" height="1.51"/>
					<rect x="411.97" y="298.06" class="st8" width="85.05" height="1.51"/>
					<rect x="411.97" y="315.68" class="st8" width="85.05" height="1.51"/>
					<rect x="411.97" y="333.29" class="st8" width="85.05" height="1.51"/>
					<rect x="411.97" y="350.9" class="st8" width="85.05" height="1.51"/>
					<rect x="411.97" y="368.52" class="st8" width="85.05" height="1.51"/>
					<g>
						<g>
							<rect x="485.82" y="209.5" class="st7" width="3.02" height="186.6"/>
							<rect x="484.94" y="212.02" class="st9" width="0.88" height="176.16"/>
						</g>
						<g>
							<rect x="472.87" y="209.49" class="st7" width="3.02" height="167"/>
							<rect x="471.99" y="212.02" class="st9" width="0.88" height="164.48"/>
						</g>
						<g>
							<rect x="459.9" y="209.49" class="st7" width="3.02" height="167.83"/>
							<rect x="459.03" y="212.01" class="st9" width="0.88" height="165.31"/>
						</g>
						<g>
							<rect x="446.94" y="209.49" class="st7" width="3.02" height="167.83"/>
							<rect x="446.06" y="212.01" class="st9" width="0.88" height="165.31"/>
						</g>
						<g>
							<rect x="433.99" y="209.49" class="st7" width="3.02" height="167"/>
							<rect x="433.11" y="212.02" class="st9" width="0.88" height="164.48"/>
						</g>
						<g>
							<rect x="421.03" y="209.49" class="st7" width="3.02" height="198.02"/>
							<rect x="420.15" y="212.02" class="st9" width="0.88" height="176.16"/>
						</g>
					</g>
					<rect x="375.57" y="203.71" class="st10" width="32.5" height="203.81"/>
					<rect x="432.96" y="374.11" class="st11" width="43.04" height="4.76"/>
					<rect x="433.87" y="378.87" class="st12" width="41.04" height="27.31"/>
					<rect x="473.46" y="378.87" class="st8" width="1.45" height="27.31"/>
					<rect x="454.52" y="378.87" class="st8" width="1.45" height="27.31"/>
					<rect x="433.87" y="378.87" class="st8" width="41.04" height="1.45"/>
					<rect x="433.87" y="378.87" class="st8" width="1.45" height="27.31"/>
					<rect x="431.77" y="374.11" class="st10" width="1.19" height="4.76"/>
					<rect x="430.24" y="374.12" class="st8" width="1.19" height="0.79"/>
					<rect x="455.51" y="390.49" class="st10" width="0.94" height="2.97"/>
					<rect x="431.43" y="374.12" class="st9" width="45.81" height="0.79"/>
					<rect x="402.03" y="188.61" class="st8" width="33.47" height="15.1"/>
					<rect x="391.09" y="188.61" class="st10" width="11.26" height="15.1"/>
					<rect x="472.87" y="380.33" class="st10" width="0.6" height="25.85"/>
					<rect x="453.96" y="380.33" class="st10" width="0.6" height="25.85"/>
					<rect x="452.2" y="380.33" class="st10" width="0.6" height="25.85"/>
					<rect x="433.28" y="378.87" class="st10" width="0.6" height="27.31"/>
					<rect x="452.81" y="378.87" class="st8" width="1.45" height="27.31"/>
					<rect x="452.33" y="390.49" class="st10" width="0.94" height="2.97"/>
				</g>
				<rect x="409.96" y="208.31" class="st7" width="89.14" height="37.68"/>
				<rect x="446.86" y="203.65" class="st1" width="14.84" height="29.68"/>
			</g>
		</g>
		<g>
			<g>
				<defs>
					<rect id="SVGID_1_" y="159.79" width="421.03" height="316.21"/>
				</defs>
				<clipPath id="SVGID_00000030459269915105591090000014964237385135690131_">
					<use xlink:href="#SVGID_1_"  style="overflow:visible;"/>
				</clipPath>
				<g style="clip-path:url(#SVGID_00000030459269915105591090000014964237385135690131_);">
					<g>
						<rect x="356.66" y="374.99" class="st14" width="9.9" height="135.57"/>
					</g>
					<g>
						<rect x="17.55" y="374.99" class="st14" width="9.9" height="135.57"/>
					</g>
					<g>
						<polygon class="st15" points="381.94,374.99 381.94,361.14 -1.66,361.14 -2,374.99 						"/>
						<g>
							<g>
								<g>
									<path class="st16" d="M225.25,359.64l-1.34-3.06c-1.59-1.56-10.74-6.49-10.74-6.49h-0.05l-2.25-19.88l-24-0.2l-2.59,20.08
										h-0.05c0,0-9.24,5.01-10.86,6.54l-1.39,3.04c-0.57,0.54,0,1.46,0.89,1.47l51.45-0.03
										C225.23,361.11,225.81,360.19,225.25,359.64"/>
								</g>
								<g>
									<polygon class="st17" points="212.12,341.26 198.82,338.56 185.46,341.02 184.49,348.58 212.95,348.59 									"/>
								</g>
							</g>
							<g>
								<g>
									<path class="st16" d="M283.77,343.92h-170.3c-2.27,0-4.11-1.84-4.11-4.11V233.99c0-2.27,1.84-4.11,4.11-4.11h170.3
										c2.27,0,4.11,1.84,4.11,4.11v105.82C287.88,342.08,286.04,343.92,283.77,343.92z"/>
								</g>
								<g>
									<rect x="114.77" y="235.93" class="st0" width="167.75" height="101.94"/>
								</g>
								<g>
									<g>
										<polygon class="st0" points="160.67,235.55 282.42,235.55 282.42,337.54 160.67,337.54 114.77,337.54 114.77,235.55 
																					"/>
									</g>
									<g>
										<polygon class="st18" points="160.67,259.9 282.42,259.9 282.42,270.63 160.67,270.63 114.77,270.63 114.77,259.9 
																					"/>
									</g>
									<g>
										<polygon class="st19" points="160.67,270.63 282.42,270.63 282.42,294.29 160.67,294.29 114.77,294.29 114.77,270.63 
																					"/>
									</g>
									<g>
										<polygon class="st20" points="196.16,235.55 201.62,235.55 201.62,248.44 196.16,248.44 194.11,248.44 194.11,235.55 
																					"/>
									</g>
									<rect x="137.9" y="304.14" class="st21" width="27.24" height="2.24"/>
									<rect x="137.9" y="309.86" class="st21" width="22.49" height="2.24"/>
									<rect x="137.9" y="315.57" class="st21" width="28.42" height="2.24"/>
									<rect x="137.9" y="321.28" class="st21" width="16.49" height="2.24"/>
									<rect x="230.39" y="304.14" class="st21" width="27.24" height="2.24"/>
									<rect x="230.39" y="309.86" class="st22" width="22.49" height="2.24"/>
									<rect x="230.39" y="315.57" class="st22" width="28.42" height="2.24"/>
									<rect x="230.39" y="321.28" class="st22" width="16.49" height="2.24"/>
									<rect x="181.9" y="304.14" class="st21" width="29.52" height="2.24"/>
									<rect x="181.9" y="309.86" class="st21" width="30.82" height="2.24"/>
									<rect x="181.9" y="315.57" class="st21" width="24.42" height="2.24"/>
									<rect x="181.9" y="321.28" class="st21" width="30.82" height="2.24"/>
									<g>
										<path class="st23" d="M267.67,321.77h-39.61c-1.46,0-2.65-1.19-2.65-2.65v-12.96c0-1.46,1.19-2.65,2.65-2.65h39.61
											c1.46,0,2.65,1.19,2.65,2.65v12.96C270.32,320.58,269.12,321.77,267.67,321.77z"/>
										<g class="st24">
											<path class="st0" d="M232.58,310.49h1.18l0.84,3.35h0.07l0.83-3.35h1.07l-1.28,4.14h-1.42L232.58,310.49z"/>
											<path class="st0" d="M238.81,310.42c1.02,0,1.66,0.63,1.66,1.69c0,0.28-0.01,0.57-0.03,0.75h-2.54
												c0.12,0.66,0.52,0.96,1.26,0.96c0.47,0,0.78-0.06,1.19-0.18v0.83c-0.44,0.13-0.76,0.21-1.32,0.21
												c-1.29,0-2.11-0.68-2.11-2.11C236.92,311.16,237.76,310.42,238.81,310.42z M239.49,312.13c0-0.54-0.29-0.93-0.75-0.93
												c-0.43,0-0.76,0.33-0.83,0.93H239.49z"/>
											<path class="st0" d="M243.66,311.48c-0.18-0.04-0.29-0.06-0.47-0.06c-0.26,0-0.53,0.08-0.8,0.28v2.94h-1.03v-4.12
												l1.02-0.04v0.48c0.28-0.37,0.53-0.51,0.86-0.51c0.19,0,0.33,0.02,0.48,0.06L243.66,311.48z"/>
											<path class="st0" d="M244.02,313.69c0.4,0.1,0.81,0.14,1.18,0.14c0.58,0,0.76-0.15,0.76-0.38c0-0.19-0.1-0.3-0.53-0.43
												l-0.53-0.16c-0.58-0.17-0.89-0.52-0.89-1.11c0-0.77,0.64-1.32,1.78-1.32c0.38,0,0.73,0.03,1.02,0.08l-0.06,0.86
												c-0.37-0.06-0.66-0.08-1.01-0.08c-0.5,0-0.71,0.15-0.71,0.34c0,0.18,0.06,0.28,0.46,0.39l0.49,0.13
												c0.73,0.2,1,0.57,1,1.13c0,0.87-0.67,1.39-1.76,1.39c-0.46,0-0.88-0.03-1.2-0.11V313.69z"/>
											<path class="st0" d="M247.5,310.49h0.5v-0.76l1.02-0.08v0.84h1.04v0.78h-1.04v1.87c0,0.46,0.25,0.67,0.62,0.67
												c0.19,0,0.31-0.02,0.53-0.08v0.85c-0.29,0.08-0.5,0.1-0.83,0.1c-0.81,0-1.33-0.47-1.33-1.4v-2.01h-0.5V310.49z"/>
											<path class="st0" d="M251.8,312.98c0,0.57,0.2,0.78,0.68,0.78c0.29,0,0.48-0.05,0.74-0.17v-3.08l1.02-0.04v4.16h-0.99
												v-0.28c-0.37,0.23-0.63,0.37-1.04,0.37c-0.97,0-1.44-0.56-1.44-1.54v-2.66l1.02-0.04V312.98z"/>
											<path class="st0" d="M256.34,312.98c0,0.57,0.2,0.78,0.68,0.78c0.29,0,0.48-0.05,0.74-0.17v-3.08l1.02-0.04v4.16h-0.99
												v-0.28c-0.37,0.23-0.63,0.37-1.04,0.37c-0.97,0-1.44-0.56-1.44-1.54v-2.66l1.02-0.04V312.98z"/>
											<path class="st0" d="M262.21,311.48c-0.18-0.04-0.29-0.06-0.47-0.06c-0.26,0-0.53,0.08-0.8,0.28v2.94h-1.03v-4.12
												l1.02-0.04v0.48c0.28-0.37,0.53-0.51,0.86-0.51c0.19,0,0.33,0.02,0.48,0.06L262.21,311.48z"/>
										</g>
										<g>
											<g>
												<polygon class="st25" points="247.51,319.07 251.48,333.96 253.8,328.67 257.93,334.96 260.58,333.3 256.11,327.35 
													262.4,326.35 												"/>
												<path class="st0" d="M257.93,335.2c-0.08,0-0.16-0.04-0.21-0.11l-3.89-5.9l-2.13,4.87c-0.04,0.1-0.14,0.16-0.25,0.15
													s-0.19-0.08-0.22-0.18l-3.97-14.89c-0.03-0.09,0.01-0.19,0.08-0.26c0.08-0.06,0.18-0.07,0.27-0.03l14.89,7.28
													c0.1,0.05,0.15,0.15,0.14,0.26c-0.02,0.11-0.1,0.19-0.21,0.21l-5.88,0.93l4.22,5.63c0.04,0.06,0.06,0.13,0.05,0.19
													c-0.01,0.07-0.05,0.13-0.11,0.16l-2.65,1.65C258.02,335.19,257.98,335.2,257.93,335.2z M253.8,328.42
													c0.08,0,0.16,0.04,0.21,0.11l4,6.08l2.21-1.38l-4.31-5.74c-0.05-0.07-0.06-0.16-0.03-0.24s0.11-0.14,0.19-0.15
													l5.51-0.87l-13.7-6.7l3.65,13.68l2.03-4.64c0.04-0.08,0.12-0.14,0.21-0.15C253.78,328.42,253.79,328.42,253.8,328.42z"
													/>
											</g>
										</g>
									</g>
								</g>
							</g>
						</g>
						<g>
							<polygon class="st17" points="96.4,356.61 210.02,356.61 213.69,360.45 92.88,360.45 							"/>
							<polygon class="st16" points="188.94,357.65 97.08,357.65 95.19,359.1 189.8,359.1 							"/>
							<polygon class="st16" points="209.13,357.65 190.54,357.65 191.49,359.1 210.48,359.1 							"/>
							<polygon class="st26" points="94.25,361.12 211.19,361.12 213.69,360.45 92.88,360.45 							"/>
						</g>
						<path class="st17" d="M234.36,361.61c0,4.62-25.85,4.62-25.85,0s5.79-8.36,12.93-8.36C228.57,353.25,234.36,357,234.36,361.61
							z"/>
						<path class="st27" d="M186.28,357.41l23.52-9.48l15.03,2.31c1.83,0.28,5.02,3.66,6.14,5.13L214,359.62l-20.3,9.39
							L186.28,357.41z"/>
						<path class="st1" d="M130.36,414.49c-1.44,0,23.94-4.31,32.56-1.44s12.93,20.11,12.93,20.11l-50.75,17.71L130.36,414.49z"/>
						<path class="st28" d="M136.1,427.9l43.18-9.55c5.36-1.19,10.99-0.2,15.59,2.8c3.11,2.03,6.02,4.77,6.82,8.18
							c1.92,8.14-1.92,63.2-1.92,63.2l-126.76-9.54c0,0-15.33-14.33-5.79-44.33C77.09,407.68,136.1,427.9,136.1,427.9z"/>
						<path class="st23" d="M82.05,304.26c-4.78-1.42-8.42-3.4-13.09,1.7s-6.63,12.54-8.54,16.73
							c-1.91,4.21-27.69,43.04-26.48,49.08c0.23,1.12,4,5.56,4.99,7.57l31.13,8.17c-4.16-5.23-7.54-10.04-6.32-10.43
							c2.77-0.9,12.92-22.42,15.15-31.45C81.14,336.55,82.05,304.26,82.05,304.26z"/>
						<path class="st17" d="M72.56,557.19l48.45-1.27c12.37-0.32,22.13-10.77,21.82-23.33l1.82-42.2
							c-0.47-18.59-15.69-33.27-34-32.8l-47.98,1.25c-18.31,0.48-32.77,15.94-32.29,34.53l-0.32,16.41
							C41.67,527.8,56.03,543.8,72.56,557.19"/>
						<path class="st29" d="M144.46,261.16c4.96-11.62,7.47-18.08-3.92-27.67c-3.71-2.64-10.54-6.38-12.38-6.9
							c-22.27-6.2-28.46,7.17-32.44,23.55c-3.65,15.07,0.21,26.49,5.6,32.55l-4.14,14.2l29.62,2.93c0,0,0.06-10.1,2.45-14.33
							c4.84,0.41,6.8,1.88,14.7-17.9C144.53,266.07,143.85,262.57,144.46,261.16z"/>
						<path class="st30" d="M127.24,298.56c3.36,2.52,25.43,11.31,25.73,11.49c2.42,1.43-10.61,37.47-5.96,48.87
							c-3.1,5.81-3.66,44.87-0.48,66.84c0.22,1.52-13.74,45.22-82.05,25.3c2.53-13.96,12.98-95.61,10.16-109.12
							c-3.72-17.99-5.7-34.66-4.47-36.4c3-4.33,6-3.3,13.8-7.85C91.77,293.14,127.24,298.56,127.24,298.56z"/>
						<g>
							<path class="st31" d="M108.3,226.27c7.7-4.99,20.69-5.09,27.98-1.21c7.29,3.91,19.77,11.47,9.1,33.59
								c-11.43,23.74-28.19,22.69-33.8,22.47c-10.12-0.39-13-4.9-13-4.9S83.26,242.4,108.3,226.27z"/>
							<g>
								<path class="st23" d="M100.46,258.31c4.99-2.2,8.48,11.76,9.04,14.25c12.61-7.83,5.85-21.25-6.39-18.97
									c-7,1.29-5.95,8.18-5.95,8.18L100.46,258.31z"/>
							</g>
							<path class="st31" d="M96.43,258.6c-3.99,2.64-15.94,19.05-13.75,34.08c2.21,15.05,11.16,61.07,1.53,69.2
								c11.25-4.44,10.94-18.57,10.94-18.57l-2.72,15.34c0,0,7.37-12.24,8.57-17.78c0.43,2.43-0.72,9.22-4.81,12.59
								c0,0,16.87-4.64,15.26-25.55c-1.69-21.94-3.01-36.65-1.93-46.78c1.65-15.57,5.65-16.11,2.43-21.12
								C107.69,253.38,99.29,256.74,96.43,258.6z"/>
							<path class="st32" d="M138.12,225.92c-2.72-1.27-6.25-2.54-6.25-2.54c3.7,0.99,17.45,14.46,3.01,29.33
								c4.06,1.01,8.83-12.92,8.83-12.92s-2.17,12.81-11.52,16.44c3.52-0.07,7.57-3.22,10.44-7.31c-2.3,5.08-6.33,10-13.17,12.93
								c8.86,1.57,19.27-12.05,19.59-18.5C149.34,236.9,145.94,229.56,138.12,225.92z"/>
						</g>
						<path class="st23" d="M195.04,369.28l-3.11-15.22l-37.17,7c0.01-10.61,2.61-17.58,4.31-31.85c0.57-4.98,0.34-8.61,0.34-8.61
							c-0.97-8-7.99-14.61-16.15-14.1c-8.23,0.51-12.99,16.39-12.85,24.55c0,0,0.48,20.94,0.6,26.54c0.05,2.13,2,17.21,3.41,19.39
							c1.35,2.41,0.61,4.47,8.65,5.45s14.75-1.54,24.12-2.9c14.01-2.03,27.31-8.61,27.98-9.27l0.08-0.02L195.04,369.28z"/>
						<polygon class="st0" points="147.9,476.6 173.98,463.94 175.02,481.65 						"/>
						<path class="st17" d="M72,449.96l40.49-1.27c10.34-0.32,18.5-10.77,18.23-23.33l1.52-42.2c-0.39-18.59-13.12-33.27-28.42-32.8
							l-40.1,1.25c-15.3,0.48-27.38,15.94-26.99,34.53l-0.26,16.41C46.19,420.58,58.19,436.58,72,449.96"/>
						<path class="st17" d="M73.73,449.39h-16.7c-11.3,0-20.55-9.25-20.55-20.55v-24.97c0-11.3,9.25-20.55,20.55-20.55h16.7
							c11.3,0,20.55,9.25,20.55,20.55v24.97C94.27,440.15,85.03,449.39,73.73,449.39z"/>
						<path class="st33" d="M86.43,478.99h-7.44c-2.89,0-5.26-2.37-5.26-5.26V426.2c0-2.89,2.37-5.26,5.26-5.26h7.44
							c2.89,0,5.26,2.37,5.26,5.26v47.52C91.69,476.62,89.32,478.99,86.43,478.99z"/>
					</g>
				</g>
			</g>
		</g>
		<g>
			<g>
				<g>
					<circle class="st2" cx="178.24" cy="91.23" r="21.5"/>
				</g>
			</g>
			<g>
				<g>
					<g>
						<rect x="167.74" y="82.44" class="st0" width="3.01" height="2.51"/>
						<rect x="172.76" y="82.44" class="st0" width="17.58" height="2.51"/>
						<rect x="172.76" y="87.46" class="st0" width="13.06" height="2.51"/>
						<rect x="167.74" y="87.46" class="st0" width="3.01" height="2.51"/>
						<rect x="167.74" y="92.48" class="st0" width="3.01" height="2.51"/>
						<rect x="172.76" y="92.48" class="st0" width="20.09" height="2.51"/>
						<rect x="167.74" y="97.5" class="st0" width="3.01" height="2.51"/>
						<rect x="172.76" y="97.5" class="st0" width="15.57" height="2.51"/>
					</g>
				</g>
			</g>
		</g>
	</g>
</g>
</svg>
