<?xml version="1.0" encoding="utf-8"?>
<!-- Generator: Adobe Illustrator 28.1.0, SVG Export Plug-In . SVG Version: 6.00 Build 0)  -->
<svg version="1.1" id="Laag_1" xmlns="http://www.w3.org/2000/svg" xmlns:xlink="http://www.w3.org/1999/xlink" x="0px" y="0px"
	 viewBox="0 0 550 476" style="enable-background:new 0 0 550 476;" xml:space="preserve">
<style type="text/css">
	.st0{fill:#FFFFFF;}
	.st1{fill:#C6C6C5;}
	.st2{fill:#303031;}
	.st3{fill:#3C3C3B;}
	.st4{fill:none;}
	.st5{fill:#B9CEEC;}
	.st6{fill:#2A2A29;}
	.st7{fill:#F7BA94;}
	.st8{fill:#3A8835;}
	.st9{fill:#ECB192;}
	.st10{fill:#154273;}
	.st11{fill:#123863;}
	.st12{fill:#D2E0F3;}
	.st13{fill:#DEF2FC;}
	.st14{fill:#F7B998;}
	.st15{fill:#A07358;}
	.st16{fill:#93694F;}
	.st17{fill:#333332;}
	.st18{fill:#007BC7;}
	.st19{fill:#AA795B;}
	.st20{fill:#55210E;}
	.st21{fill:#026A9D;}
	.st22{fill:#5A5A5A;}
	.st23{fill:#D1D5D8;}
	.st24{fill:#C2C6CC;}
	.st25{fill:#757576;}
	.st26{fill:#636362;}
	.st27{fill:#121211;}
	.st28{fill:#575756;}
	.st29{fill:#B1B1B1;}
	.st30{fill:#F5BBD6;}
	.st31{fill:#44195E;}
	.st32{fill:#F3A07F;}
	.st33{fill:#92D2F4;}
	.st34{fill:#5B3571;}
	.st35{fill:#2D2D2B;}
	.st36{fill:#3F245D;}
	.st37{fill:#66C5EE;}
</style>
<g id="illustraties">
	<g>
		<g>
			<path class="st0" d="M18.43,476h512.3c11.69-30.93,39.09-120.72-4.86-191.92c-21.13-34.23-80.6-62.86-66.4-92.84
				c22.48-47.48-6.04-82.02-12.31-88.7C416,69.39,355.63,46.71,301.99,50.74c-2.76,0.21-5.5,0.48-8.21,0.84
				c-6.23,0.8-12.33,1.99-18.26,3.58c-4.18,1.12-8.26,2.45-12.25,3.99l0,0c-2.51,0.97-4.97,2.02-7.39,3.16
				c-3.6,1.7-7.09,3.59-10.46,5.68c-0.88,0.55-1.75,1.11-2.62,1.68c-5.63,3.74-10.88,8.07-15.68,13.02
				c-8.52,8.8-17.03,14.54-25.52,18.1c-48.01,20.19-105.64-20.24-163.88,51.55c-34,41.91,37.03,90.73,0,128.41
				C-24.62,344.19,6.34,444.28,18.43,476z"/>
			<g>
				<rect x="247.83" y="320.25" class="st1" width="12.72" height="90.41"/>
				<path class="st2" d="M228.89,421.18c0,4.09-3.31,7.4-7.4,7.4s-7.41-3.31-7.41-7.4s3.32-7.4,7.41-7.4
					S228.89,417.08,228.89,421.18"/>
				<path class="st3" d="M295.99,421.18c0,4.09-3.32,7.4-7.41,7.4s-7.4-3.31-7.4-7.4s3.32-7.4,7.4-7.4
					C292.68,413.77,295.99,417.08,295.99,421.18"/>
				<path class="st1" d="M298.38,416.88H210c0-3.44,2.79-6.23,6.23-6.23h75.92C295.59,410.66,298.38,413.45,298.38,416.88"/>
				<path class="st3" d="M295.88,328.32h-83.37c-3.92,0-7.09-3.17-7.09-7.09v-4.08c0-3.91,3.17-7.08,7.08-7.08h83.38
					c3.91,0,7.09,3.17,7.09,7.08v4.08C302.96,325.15,299.79,328.32,295.88,328.32"/>
				<path class="st0" d="M247.85,301.69h41.39c9.5,0,17.28-7.77,17.28-17.27v-57.21c0-20.88-17.09-37.97-37.97-37.97
					s-37.97,17.09-37.97,37.97v57.21C230.58,293.91,238.36,301.69,247.85,301.69"/>
				<path class="st4" d="M250.71,295.26h32.26c7.4,0,13.46-6.06,13.46-13.46v-56.17c0-16.28-13.31-29.59-29.59-29.59
					c-16.27,0-29.59,13.31-29.59,29.59v56.17C237.25,289.21,243.31,295.26,250.71,295.26"/>
				<rect x="246.3" y="176.82" class="st5" width="29.21" height="10.18"/>
				<path class="st6" d="M241.31,412.07l-17.51-1.75c0,0-9.79,6.89-14.9,11.98c-5.12,5.09-3.97,10.92-3.97,10.92s14.86,3.89,21.15,0
					c6.29-3.88,15.23-7.78,15.23-7.78V412.07z"/>
				<path class="st7" d="M289.85,240.56c5.19-15.96,18.64-43.33,10.77-48.09c-10.26-6.21-39.78-10.01-39.78-10.01v0.51
					c0,0-29.77,2.49-40.04,8.7c-7.87,4.76,5.83,33.45,11.02,49.41c1.25,3.83,1.11,21,0.63,36.23c-0.12,3.75-3.17,21.03-2.65,28.17
					c0.15,2.13,24.38,8.03,31.14,8.37c6.76-0.34,30.76-6.74,30.91-8.87c0.52-7.14-2.53-24.42-2.65-28.17
					C288.74,261.57,288.6,244.39,289.85,240.56"/>
				<path class="st8" d="M225.39,190.82c-5.61-2.24-11.36,3.71-15.37,14.22c-4,10.51-7.51,18.46-8.49,21.22
					c-1,2.85-6.74,18.63-7.94,23.22c-1.18,4.59,0.82,9.51,5.3,11.21c3.75,1.43,10.86-3.52,15.18-10.45
					C218.4,243.3,240.45,196.83,225.39,190.82"/>
				<path class="st7" d="M273.18,177.72c-0.67-3.04-2.36-18.07-2.36-18.07h-9.97v0.51h-9.96c0,0-1.69,15.03-2.37,18.07
					c-0.67,3.04-8.88,7.63-8.88,7.63h21.21v-0.5h21.21C282.05,185.36,273.85,180.77,273.18,177.72"/>
				<path class="st9" d="M272.51,173.48c-0.63-4.61-1.39-11.16-1.62-13.2l-0.64-0.63h-9.4v0.51h-9.96c0,0-1.69,15.03-2.37,18.07
					s-8.88,7.63-8.88,7.63h1c9.46-2.52,18.87-5.04,20.14-5.4C263.43,179.7,272.51,173.48,272.51,173.48"/>
				<polygon class="st10" points="231.76,283.49 217,309.11 216.14,320.17 259.66,320.17 292.22,319.15 298.21,309.1 289.85,283.5 
									"/>
				<path class="st11" d="M214.54,311.46l4.42,102.36h27.13l2.54-102.36c0,0-4.03-13.66-18.07-13.66
					C218.51,297.8,214.54,311.46,214.54,311.46"/>
				<path class="st11" d="M230.58,297.8h-0.02c-12.05,0-16.03,13.66-16.03,13.66l4.43,102.36h11.62L230.58,297.8L230.58,297.8z"/>
				<path class="st8" d="M292.63,192.26c5.43-2.5,12.41-3.01,17.08,7.6c4.67,10.61,9.64,24.39,10.78,27.18
					c1.18,2.88,6.71,18.02,8.19,22.67s0.45,9.81-3.9,11.73c-3.63,1.6-11.03-3.2-15.78-10.13
					C304.25,244.37,278.04,198.98,292.63,192.26"/>
				<path class="st12" d="M302.9,192.86c-1.12-2.32-8.43-4.02-14.98-6.07c-5.77-1.8-10.94-4.07-10.94-4.07l-16.05,9.16l-16.02-9.21
					c0,0-5.17,2.26-10.95,4.04c-6.56,2.02-13.87,3.71-15,6.02c-1.14,2.34,10.54,47.37,11.85,51.2c1.31,3.83-2.1,30.61,1.23,38.63
					l28.72,0.94l0,0h0.06h0.01l28.72-0.85c2.64-9.18-0.02-35.3,1.31-39.13C292.18,239.69,304.03,195.21,302.9,192.86"/>
				<polygon class="st5" points="259.63,186.45 260.93,191.94 251.1,188.23 256.77,185.56 				"/>
				<path class="st8" d="M303.65,192.51c-1.14-2.36-8.58-4.1-15.25-6.17c-5.88-1.83-11.14-4.15-11.14-4.15l-16.34,56.4l-16.3-56.45
					c0,0-5.27,2.3-11.15,4.12c-6.67,2.05-14.13,3.77-15.27,6.13c-1.17,2.39,10.73,48.23,12.06,52.13s-2.14,31.16,1.25,39.32
					l29.24,0.95l0,0h0.05h0.01l29.24-0.86c2.68-9.35-0.02-35.94,1.33-39.84C292.75,240.19,304.81,194.9,303.65,192.51"/>
				<path class="st8" d="M265.6,280.88c-2.81-1.76-7.02-3.53-9.58-5.11c-2.56-1.59-0.07-7.03-0.1-9.84
					c-0.03-2.82,7.77-8.07,13.05-10c5.27-1.93,14.41-1.21,16.53-4.9c2.11-3.69-3.5-7.21-5.97-7.21s-18.27-4.6-20.73-4.25
					c-2.46,0.35-21.09,2.25-24.07-0.04c-2.99-2.29-16.53-47.16-16.53-47.16c3.31,14.44,11.21,49.65,12.06,52.13
					c1.34,3.89-2.14,31.16,1.25,39.32l29.24,0.95h0.05h0.01l29.24-0.87c0,0-6.37-0.9-9-1.7
					C278.43,281.41,268.41,282.64,265.6,280.88"/>
				<polygon class="st5" points="262.1,186.48 260.85,191.94 270.68,188.23 265,185.56 				"/>
				<polygon class="st13" points="240.6,183.51 246.29,176.82 259.63,186.45 254.81,195.51 				"/>
				<path class="st10" d="M281.14,277.55c0,0,12.56,13.01,15.9,20.57c3.34,7.55,3.3,20.41-4.82,21.03
					c-8.11,0.62-14.8,0.62-16.54-0.4c-1.75-1.02-15.4-24.41-15.26-27.32C260.56,288.52,275.7,275.29,281.14,277.55"/>
				<path class="st6" d="M181.04,332.34l10.82,13.89c0,0-0.62,11.95-2.21,18.99c-1.58,7.05-7.13,9.19-7.13,9.19
					s-11.21-10.51-11.27-17.91c-0.06-7.39-1.53-17.03-1.53-17.03L181.04,332.34z"/>
				<path class="st10" d="M280.45,301.42l-88.98,50.78L177,329.21l85.28-56.66c0,0,13.71-3.87,21.2,8.03
					C289.89,290.77,280.45,301.42,280.45,301.42"/>
				<path class="st11" d="M296.9,299.28c-0.45-0.64-15-20.74-15.49-21.28c-7.68-8.59-19.13-5.44-19.13-5.44L177,329.22l7.74,12.29
					c0,0,56.85-54.03,80.63-63.29C274.55,274.62,296.9,299.28,296.9,299.28"/>
				<polygon class="st13" points="281.17,183.51 275.48,176.82 262.1,186.48 266.96,195.51 				"/>
				<path class="st14" d="M240.62,145.63c-0.44,12.71,4.39,25.74,12.5,26.7c7.74,0.91,22.75-9.41,24.24-22.04
					c1.49-12.63-4.85-23.75-16.4-25.44C251.25,123.44,241.06,132.54,240.62,145.63"/>
				<path d="M240.87,139.64c0,0,12.59-8.96,23.8,1.09c2.41,2.17-0.6,11.76,0.01,12.58c0.65,0.89,3.59-7.45,4.02-6.41
					c3.08,7.5,0.58,16.97,1.56,17.02c2.95,0.13,11.77-15.55,7.05-27.93c-0.4-1.05-0.86-2.02-1.38-2.92
					c-0.56-0.98-1.18-1.87-1.85-2.67c-0.46-0.56-0.94-1.07-1.44-1.55c-0.86-0.83-1.78-1.55-2.71-2.16c-1.2-0.79-2.45-1.41-3.67-1.9
					c-1.37-0.54-2.71-0.92-3.96-1.16c-0.91-0.18-1.76-0.29-2.54-0.34c-1.47-0.11-2.65-0.02-3.34,0.14
					c-0.86,0.21-2.25,0.73-3.87,1.59c-0.61,0.32-1.24,0.7-1.89,1.12c-0.49,0.32-0.99,0.66-1.49,1.04c-0.61,0.46-1.23,0.96-1.83,1.51
					c-1.12,1.02-2.21,2.2-3.18,3.54c-0.5,0.7-0.97,1.45-1.4,2.24c-0.21,0.39-0.41,0.8-0.6,1.21
					C241.62,136.91,241.17,138.22,240.87,139.64"/>
				<path class="st7" d="M266.49,150.55c-0.98,3.51-1.38,8.22,0.47,8.74s4.14-1.91,5.11-5.42c0.98-3.51,0.27-6.78-1.57-7.29
					C268.65,146.06,267.47,147.04,266.49,150.55"/>
				<path class="st8" d="M199.89,245.66c4.7-1.41,11.26,0.81,15.68,13.08c4.42,12.27,9.31,35.32,9.31,35.32l-11.21,4.92
					c0,0-11.55-18.93-14.26-25.48C196.69,266.96,187.57,249.34,199.89,245.66"/>
				<path class="st14" d="M214.64,296.93c0,0,0.52,2.75,0.64,4c0.34,3.74,1.4,6.84,3.55,9.91c1.97,2.81,7.13,7.84,7.94,7.47
					c0.82-0.37,0.22-2.03,0.22-2.03s3.52,3.37,4.51,2.87c0.99-0.5,0.55-2.17,0.55-2.17s3.14,1.71,4.39,1.05
					c1.16-0.6-2.52-4.58-2.52-4.58s2.97,1.82,3.78,0.54c0.75-1.18-4.65-4.44-6.61-8.85c-0.73-1.64-1.43-3.65-1-3.99
					c0.42-0.34,5.1,0.55,6.31,0.15c1.21-0.4,2.06-2.23,1.87-2.43c-0.85-0.89-2.15,0.15-5.99-1.21c-0.85-0.3-4.31-4.09-9.2-3.32
					C219.97,294.85,214.64,296.93,214.64,296.93"/>
				<polygon class="st8" points="209.11,291.33 222.57,283.9 227.28,293.98 214.69,301.2 				"/>
				<path class="st8" d="M329.56,253.94c-0.27,4.85-3.19,8.67-16.97,8.61c-13.78-0.06-35.67-3.58-35.67-3.58l0.22-11.57
					c0,0,17.23-4.77,24.72-5.06C309.33,242.05,330.27,241.22,329.56,253.94"/>
				<path class="st14" d="M272.39,248.8c-11.97,2.35-14.08,13.65-13.92,14.55c0.17,0.91,2.54,1.82,4.79,0.69
					c2.26-1.12,11.82-5.77,11.95-8.64C275.33,252.53,274.56,248.38,272.39,248.8"/>
				<path class="st14" d="M270.41,251.65c0,0-2.89,1.7-5.94,4.69l-1.32,0.93l-0.84,1.16l-0.81,0.53l-0.7,1.27l-1.08,0.82
					c-0.98,0.83-0.37,1.47-0.65,1.76c-0.86,0.89-1.09,1.16-1.2,1.37c-0.52,1.01,0.08,5.99,0.42,6.73c0.34,0.75,1.25,5.36,1.74,5.36
					s1.9-1.16,1.72-3.72s-0.25-5.67-0.05-5.14s2.05,3.16,3.01,4.07c0.62,0.58,1.37,0.05,1.75-0.55l-0.29-2.68l1.9,0.03
					c0.76-1.01-0.16-2.61-0.29-3.22c-0.11-0.51,1.59,0.52,1.87,0.05c1.05-1.77-2.42-5.38-0.72-6.54
					C269.78,257.99,272.03,254.15,270.41,251.65"/>
				<polygon class="st8" points="282.95,245.66 283.37,260.57 272.44,260.66 272.39,246.81 				"/>
				<path class="st15" d="M99.6,191.07c-5.23-16.09-18.74-43.66-10.86-48.48c10.27-6.27,39.84-10.16,39.84-10.16v0.51
					c0,0,29.83,2.47,40.12,8.71c7.89,4.79-5.79,33.74-10.97,49.84c-1.24,3.87-1.08,21.18-0.58,36.54c0.12,3.78,3.2,21.2,2.7,28.4
					c-0.15,2.15-24.29,15.49-31.06,15.84v-0.51c-6.77-0.33-30.95-13.6-31.11-15.75c-0.53-7.2,2.5-24.62,2.61-28.41
					C100.75,212.25,100.85,194.93,99.6,191.07"/>
				<path class="st15" d="M95.89,141.2c5.47,2.66,6.3,12.59,0.92,22.57c-5.39,9.98-10.15,16.2-11.61,18.75
					c-1.51,2.65-9.13,18.6-11.85,22.52s-8.64,7.41-12.9,5.12c-3.56-1.92-7.51-3.56-5.07-11.42
					C57.82,190.87,78.59,132.79,95.89,141.2"/>
				<path class="st15" d="M116.07,127.68c0.68-3.07,2.36-18.23,2.36-18.23l10.05-0.01v0.51l10.05-0.01c0,0,1.72,15.15,2.41,18.22
					c0.68,3.06,8.96,7.68,8.96,7.68l-21.38,0.03v-0.51l-21.38,0.03C107.13,135.38,115.4,130.75,116.07,127.68"/>
				<path class="st16" d="M116.75,123.4c0.63-4.64,1.38-11.26,1.61-13.31l0.65-0.64l9.47-0.01v0.51l10.05-0.01
					c0,0,1.72,15.15,2.41,18.22c0.69,3.07,8.96,7.68,8.96,7.68h-1.01c-9.55-2.53-19.04-5.05-20.32-5.42
					C125.9,129.66,116.75,123.4,116.75,123.4"/>
				<path class="st7" d="M144.68,239.54c12.26-0.05,17.04,8.49,16.74,34.72s-4.17,54.68-5.87,58.77s-19.08,4.2-20.78,1.82
					c-1.71-2.39-6.04-56.8-6.06-65.31C128.7,261.02,131.32,239.6,144.68,239.54"/>
				<path class="st7" d="M143.93,354.03l3.23-0.08c4.87-0.12,8.75-4.21,8.63-9.08l-0.28-10.9c-0.12-4.87-4.21-8.75-9.08-8.63
					l-3.23,0.08c-4.87,0.12-8.75,4.21-8.63,9.08l0.28,10.89C134.98,350.27,139.06,354.16,143.93,354.03"/>
				<path class="st7" d="M145.68,337.97c3.75,0,12.95,1.22,12.47,25.68c-0.47,24.45-10.81,57.96-10.81,57.96l-8.86,0.01
					c0,0-4.39-45.26-4.42-53.95C133.98,347.91,133.85,337.99,145.68,337.97"/>
				<path class="st7" d="M112.33,239.76c-12.19-1.32-17.83,6.69-20.23,32.81c-2.4,26.12-3.53,54.82-2.26,59.06
					s18.54,6.14,20.48,3.95s13.91-55.87,14.8-64.33C126.01,262.77,125.61,241.19,112.33,239.76"/>
				<path class="st7" d="M99.28,353.72l-3.21-0.41c-4.87-0.63-8.3-5.09-7.67-9.96l1.4-10.81c0.62-4.82,5.07-8.24,9.88-7.62
					l3.25,0.42c4.84,0.63,8.27,5.07,7.64,9.91l-1.4,10.85C108.54,350.93,104.12,354.35,99.28,353.72"/>
				<path class="st7" d="M99.16,337.56c-3.73-0.39-13.01-0.12-15.05,24.26c-2.05,24.37,1.96,58.76,1.96,58.76l8.81,0.93
					c0,0,11.85-44.58,12.78-53.21C109.77,348.66,110.93,338.8,99.16,337.56"/>
				<path class="st7" d="M165.5,142.13c-5.78,1.9-7.94,11.62-3.96,22.24c3.99,10.62,7.87,17.42,8.98,20.15
					c1.14,2.82,6.54,19.66,8.7,23.92c2.17,4.26,7.56,8.51,12.09,6.82c3.78-1.42,7.93-2.51,6.57-10.64
					C196.51,196.49,183.77,136.14,165.5,142.13"/>
				<path class="st17" d="M157.98,234.26c0,0,4.44,21.6,5.14,33.35c0.7,11.75-4.98,63.13-4.99,68.78
					c-0.01,5.66,0.4,23.03,0.06,40.06c-0.33,17.03-4.68,50.57-4.68,50.57l-21.8-0.51c0,0-0.14-72-0.16-83.32s-2.83-70.93-2.83-70.93
					l-0.06-37.05L157.98,234.26z"/>
				<path class="st18" d="M85.82,142.91c1.35-2.24,8.59-4.1,15.25-6.18c5.88-1.83,10.61-4.3,10.61-4.3l3.71,1.97
					c8.15,4.65,18.16,4.64,26.31-0.04l3.17-1.82c0,0,5.27,2.3,11.15,4.12c6.68,2.06,14.13,3.78,15.28,6.13
					c1.16,2.39-10.74,48.24-12.07,52.15c-1.34,3.9,2.14,31.18-1.25,39.34l-29.25,0.95v0.01h-0.05h-0.01l-29.25-0.87
					c-2.69-9.35,0.02-35.95-1.33-39.85C96.74,190.61,83.57,146.65,85.82,142.91"/>
				<path class="st17" d="M99.66,233.66c0,0-6.64,21.03-8.55,32.64c-1.9,11.62-3.59,63.31-4.17,68.93
					c-0.57,5.62-2.77,22.86-4.19,39.84c-1.42,16.98-3.31,50.78-3.31,50.78l21.74,1.74c0,0,10.31-71.62,11.5-82.88
					c1.18-11.26,16.12-70.6,16.12-70.6l-0.14-38.9L99.66,233.66z"/>
				<path class="st6" d="M151.22,426.97c0,0,7.45,8.7,7.06,11c-0.22,1.31-3.36,6.05-9.07,6.4c-4.34,0.27-11.42-3.69-12.53-3.81
					c-2.55-0.26-2.55-14-2.55-14L151.22,426.97z"/>
				<path class="st6" d="M82.5,426.12c0,0-8.31,7.89-8.16,10.22c0.09,1.32,2.72,6.37,8.37,7.3c4.29,0.71,11.74-2.5,12.85-2.5
					c2.57,0,3.97-13.66,3.97-13.66L82.5,426.12z"/>
				<path class="st6" d="M102.21,277.7c-1.23,7.7-4.67,59.44-4.87,62.37c-0.2,2.87-10.39,82.67-10.73,86.36l-7.15-0.57
					c0,0,1.89-33.81,3.31-50.78c1.42-16.98,3.61-34.22,4.18-39.84c0.57-5.63,2.26-57.32,4.17-68.93c1.9-11.62,8.54-32.65,8.54-32.65
					l17.28,1.21C116.94,234.87,103.44,270,102.21,277.7"/>
				<path class="st6" d="M132.13,257.94c4.04-7.13,14.86-4.73,15.56,3.44c0.72,8.39,0.9,14.2,0.17,18.07
					c-1.84,9.73-4.49,57.28-4.13,58.53c0.35,1.25,0.1,88.58,0.1,88.58l-0.38,0.23l-11.75-0.27c0,0-0.14-72.01-0.16-83.33
					s-2.83-70.93-2.83-70.93l-0.01-3.24l-0.22-4.67L132.13,257.94z"/>
				<path class="st18" d="M171.21,141.83c0,0,7.65,1.81,14.21,15.45c6.56,13.64,12.32,41.85,12.32,41.85s-3.96,3.42-11.53,5.71
					c-7.58,2.29-10.85,1.68-10.85,1.68l-9.87-29.03C165.48,177.5,161.8,142.81,171.21,141.83"/>
				<path class="st18" d="M90.72,140.01c0,0-7.8,1-15.75,13.88s-19.05,39.96-19.05,39.96s3.53,3.81,10.82,6.87
					c7.3,3.07,10.81,2.99,10.81,2.99l15.13-27.64C92.69,176.08,99.98,141.97,90.72,140.01"/>
				<path class="st19" d="M151.82,99.86c-2.32,12.69-9.93,24.57-18.16,23.77c-7.87-0.77-20.52-14.25-19.27-27.1
					c1.25-12.84,9.94-22.49,21.76-21.67C146.07,75.56,154.2,86.8,151.82,99.86"/>
				<path class="st20" d="M148.61,85.58c0,0-6.29-3.32-19.58,4.23c-2.86,1.62-1.95,11.78-2.73,12.47c-0.84,0.73-1.95-8.16-2.6-7.22
					c-4.68,6.77-4.25,16.7-5.22,16.53c-1.27-0.22-2.75-3.26-3.6-7.77c-0.31-1.65-0.53-3.5-0.63-5.48s-0.07-4.09,0.12-6.26
					c0.11-1.25,0.28-2.52,0.5-3.79c0.16-0.88,2.06-2.26,2.06-5.21c0-4.53,5.12-6.86,9.72-8.07c1.01-0.27,2.91-1.26,3.99-1.48
					c4.9-0.98,8.55,0.61,10.15,1.39c0.39,0.19,1.45,0.59,2,0.87c0.46,0.23,0.11,0.63,1.21,0.43c1.48-0.26,3.07,0.96,3.82,1.56
					c1.31,1.04,0.81,2.08,1.86,3.8c1.38,2.25,2.13,3.06,2.31,8.91"/>
				<path class="st19" d="M125.1,99.14c0.21,3.69-0.41,8.45-2.35,8.56c-1.94,0.11-3.68-2.8-3.89-6.49
					c-0.21-3.69,1.19-6.77,3.13-6.89C123.93,94.22,124.89,95.45,125.1,99.14"/>
				<path class="st21" d="M122.21,226.55c-4-6.66,7.16-17.3,12.07-19.16c4.92-1.86,14.12-0.87,15.4-4.73
					c2.32-6.97-22.59-11.41-24.88-11.08c-2.3,0.34-19.66,2.17-22.44-0.04c-2.78-2.21-16.57-43.76-16.57-43.76
					c3.09,13.95,11.62,46.16,12.41,48.56c1.25,3.77-2,30.11,1.17,38l27.25,0.92l0,0h0.05l0,0l27.26-0.84
					C153.94,234.42,124.84,230.93,122.21,226.55"/>
				<path class="st19" d="M197.41,206.59c-1.5-4.72-3.84-8.17-9.88-6.61s-18.88,9.2-18.88,9.2l2.44,7.63c0,0,13.8,3.06,17.17,2.53
					C191.63,218.81,201.35,218.93,197.41,206.59"/>
				<path class="st19" d="M54.93,204.13c-0.58-4.92,1.52-9.27,15.19-11.63s46.06-3.7,46.06-3.7l0.94,7.95
					c0,0-26.01,11.01-33.38,12.61C76.37,210.97,56.45,217,54.93,204.13"/>
				<path class="st19" d="M109.68,197.77c0,0,7.19,3.23,9.49,3.57c2.3,0.35,10.67-0.71,12.53-0.65c3.1,0.08,9.89,6.27,10.23,4.21
					s-5.87-10.54-5.87-10.54s-8.71-6.73-12.38-6.59s-10.45,1.17-10.45,1.17L109.68,197.77z"/>
				<path class="st19" d="M182.07,207.96c0,0-7.69-1.75-10.01-1.62c-2.32,0.12-10.32,2.8-12.15,3.11
					c-3.05,0.52-12.88-0.47-12.81,1.61s10.88,5.97,10.88,5.97s6.34,1.62,12.07,1.24c3.67-0.24,10.28-0.94,10.28-0.94L182.07,207.96z
					"/>
				<polygon class="st22" points="145.31,208.49 207.56,208.49 175.48,205.13 120.74,204.97 				"/>
				<polygon class="st23" points="145.31,208.49 209.22,208.49 216.41,160.43 152.5,160.43 				"/>
				<polygon class="st24" points="145.31,212.17 120.75,208.65 120.75,204.96 145.31,208.49 				"/>
				<rect x="145.31" y="208.49" class="st25" width="63.85" height="3.69"/>
				<path class="st19" d="M169.14,215.8c0,0-6.89-1.95-7.09-3.23s-7.4-5.07-7.7-5.84c-0.29-0.78,3.23-1.47,5.83-0.4
					c2.6,1.06,4.25,0.84,5.22,0.86c0.97,0.03,5.05-1.58,8.33,0.05c3.27,1.63,3.55,4.41,3.45,5.56S171.27,217.71,169.14,215.8"/>
				<rect x="299.86" y="265.65" class="st26" width="9.05" height="164.64"/>
				<rect x="458.43" y="266.44" class="st26" width="9.05" height="164.64"/>
				<rect x="301.67" y="265.65" class="st26" width="163.85" height="23.99"/>
				<rect x="299.83" y="276.32" class="st27" width="0.03" height="7.96"/>
				<polygon class="st28" points="299.86,276.32 299.86,284.28 301.67,284.25 301.67,276.32 				"/>
				<polygon class="st28" points="465.51,281.92 467.47,281.89 467.47,276.4 465.51,276.4 				"/>
				<polygon class="st28" points="301.67,276.32 301.67,284.25 465.51,281.92 465.51,276.4 				"/>
				<rect x="289.27" y="262.11" class="st29" width="189.08" height="14.85"/>
				<polygon class="st30" points="360.31,185.02 353.2,262.11 371.83,262.55 379.97,174.22 				"/>
				<path class="st30" d="M385.66,147.92c4.19,3.3,2.39,10.68-3.67,16.99c-6.05,6.31-44.31,32.18-47.12,31.93
					c-2.81-0.24-8.78-4.38-7.28-8.16s30.32-30.39,36.2-34.72C369.67,149.64,380.2,143.62,385.66,147.92"/>
				<path class="st14" d="M333.79,198.28c-5.12-0.62-10.61-13.09-13.69-22.32c-3.07-9.23-9.42-37.64-9.42-37.64l7.94-2.17
					c0,0,20.74,46.35,21.73,48.92C341.33,187.64,342.61,199.36,333.79,198.28"/>
				<path class="st31" d="M410.71,244.01c1.08,4.9,1.3,10.98,1.04,14.5c-0.89,11.96-41.27,15.5-42.6,15.2
					c-1.33-0.3-14.52-14.54-15.87-18.83c-0.76-2.42,4.53-12,7.88-21.93C378.33,236.91,393.53,240.05,410.71,244.01"/>
				<path class="st32" d="M332.73,411.82c1.43,3.02,2.1,10.68,1.84,12.8c-0.32,2.55-3.06,5.31-4.56,5.56
					c-4.12,0.68-7.83-0.64-12.15-0.78c-4.32-0.14-12.4,1.72-18.41,1.32c-2.62-0.17-8.67-1.17-8.21-2.65s8.71-3.52,13.06-5.29
					c11.21-4.57,18.58-9.35,18.58-9.35S332.48,411.3,332.73,411.82"/>
				<path class="st31" d="M376.85,246.35c6.47,7.69,11.81,23.6-0.1,39.6c-11.3,15.19-27.71,42.12-29.74,42.65
					s-16.06-5.33-17.44-7.51c-1.38-2.19,24.48-70.6,26.01-74.16C358.39,240.45,369.48,237.57,376.85,246.35"/>
				<path class="st31" d="M347.55,322.93c7.03,9.37,3.5,34.19,1.81,42.23c-1.7,8.04-15.78,45.75-15.78,48.75s-10.46,1.16-10.71-0.49
					s5.59-62.3,5.57-66.68s0.72-24.24,1-26.17C330.83,310.63,343.53,317.57,347.55,322.93"/>
				<path class="st32" d="M387.68,148.53c-3.59-0.19-3.3-4.34-3.14-7.81l0.27-0.41c0.3-1.58,0.83-22.09,0.83-22.09l21.3-6.66
					c0,0-2.29,20.77-1.44,24.62C400.1,141.75,395.53,148.93,387.68,148.53"/>
				<path class="st33" d="M367.26,215.48c1.41-10.06-2.51-23.38-3.62-24.8c-1.12-1.42-5.24-7.58-4.99-12.59
					c0.35-7.28,8.21-17.01,8.79-19.49c0.57-2.48-0.19-6.13,1.14-7.67c2.47-2.85,14.08-8.2,15.98-10.21
					c1.86,2.63,15.55,1.03,20.96-4.54l0.23,0.57c4.44,4.08,17.9,8.28,20.72,15.13c3.42,8.31-15.1,27.43-16.1,56.31
					c-0.3,8.73-0.19,24.54,0.36,35.82c-17.61-0.85-32.3-6.17-49.56-11.07C365.48,224.9,366.79,218.81,367.26,215.48"/>
				<path class="st34" d="M411.25,252.97c3.5,13.33-12.36,29.1-25.83,43.81c-18.15,19.84-32.14,36.41-34.22,36.68
					c-2.08,0.27-13.28-6.72-14.36-9.07s23.8-51.28,32.93-67.91C383.62,231.26,405.4,230.67,411.25,252.97"/>
				<path class="st7" d="M306.01,413.01c0.35,2.82,2.95,7.15,3.08,9.28c0.16,2.57-1.69,4.96-3.12,5.47
					c-3.92,1.42-5.4,1.2-12.01,2.81c-4.2,1.03-15.12,4.7-18.26,4.17c-3.15-0.53-9.9-2.1-9.72-3.64s9.07-2.51,13.01-5.05
					c10.17-6.55,18.62-16.84,18.62-16.84S305.94,412.44,306.01,413.01"/>
				<path class="st34" d="M352.6,333.36c3.19,11.28-9.04,33.15-13.52,40.04c-4.47,6.89-31.2,37-32.28,39.8
					c-1.07,2.8-10.17-2.68-9.81-4.32c0.36-1.63,27.66-56.1,29.21-60.2c1.56-4.09,9.43-22.39,10.38-24.09
					C341.46,315.84,350.78,326.91,352.6,333.36"/>
				<path class="st35" d="M334.54,419.16c0.19,2.08,0.18,4.21,0.02,5.46c-0.32,2.55-3.06,5.31-4.56,5.56
					c-4.12,0.67-7.52-0.06-11.84-0.2s-13.48,1.04-16.68,1.05c-3.13,0-11.54-1.54-11.08-3.02c0.46-1.48,9.54-3.47,13.88-5.24
					c0,0,3.79,2.26,6.09,2.15C312.67,424.81,334.33,419.22,334.54,419.16"/>
				<path class="st14" d="M374.61,90.45c4.64-5.55,19.47-11.93,28.18-2.47s6.59,20.11,3.24,26.95c-2.61,5.34-5.37,8.45-11.16,12.02
					c-1.18,0.72-12.23,4.11-14.58,3.6c-1.6-0.35-4.11-11.77-4.55-11.67c-0.45,0.1-1.77-0.43-1.95-1.37
					c-0.25-1.35,0.23-9.84-0.19-10.68C373.17,106,369.28,96.81,374.61,90.45"/>
				<path class="st3" d="M307.24,416.89c0.84,2.06,1.78,4.12,1.86,5.39c0.15,2.57-1.7,4.96-3.12,5.47c-3.92,1.42-5.4,1.2-12.01,2.81
					c-4.2,1.03-15.11,4.7-18.26,4.17c-3.15-0.53-9.9-2.1-9.72-3.64s9.07-2.51,13.01-5.05l3.71,1.77L307.24,416.89z"/>
				<path class="st36" d="M370.65,97.9c0,0,14.34,1.06,17.9,1.56s11.33,33.11,12.23,34.83c9.65,14.87,15.43-3.58,14.35,0
					c0,0,4.69-5.74-2.35-38.35c-4.28-10.98-16.88-14.89-25.22-13.81C379.21,83.2,370.15,88.86,370.65,97.9"/>
				<path class="st37" d="M360.31,185.02c4.59,2.35,8.17,3.06,13.23,3.89c18.64,3.06,22-7.44,26.14-11.44
					c4.92-4.75,8.76-23.43,8.76-23.43l16.7,7.07c0,0-13.49,27.36-14.27,41.17c-0.45,7.87-0.16,41.73-0.16,41.73
					s-15.51-0.87-27.4-4.82c-4.22-1.4,3.36-11.4,2.98-19.73c-0.37-8.33-19.76-23.32-21-24.94
					C364.07,192.89,360.31,185.02,360.31,185.02"/>
				<path class="st14" d="M320.15,133.29c0,0-2.06-7.62-3.37-8.89c-1.3-1.27-7.81-12.21-8.58-10.75c-0.89,1.7,4.01,10.83,3.72,11.01
					c-0.3,0.18-5.34,2.65-6.81,4.37s5.83,11.41,5.83,11.41l7.61,0.81L320.15,133.29z"/>
				<path class="st30" d="M409.67,136.18c0,0-9.13,4.69-10.23,16.72s9.12,83.42,9.5,96.55c0.38,13.13,0.73,20.09,0.73,20.09
					l15.47-6.99c0,0-1.42-114.47-3.68-118.66C419.19,139.69,409.67,136.18,409.67,136.18"/>
				<path class="st30" d="M379.97,143.7l-15.47,20.22l2.25-11.98C366.74,151.94,374.4,144.06,379.97,143.7"/>
				<path class="st14" d="M438.36,208.3c1.22,2.49,19.88,50.32,19.88,50.32l-8.13,2.1c0,0-14.99-23.21-19.68-31.8
					c-4.69-8.59-9.21-21.49-5.96-25.64C430.06,196.15,437.15,205.81,438.36,208.3"/>
				<path class="st30" d="M414.82,143.03c4.82-2.28,10.63,2.61,13.59,10.84s9.13,53.99,7.66,56.4c-1.47,2.41-8.81,4.17-11.53,1.15
					s-12.76-38.93-14.03-46.11C409.26,158.12,408.55,146.01,414.82,143.03"/>
				<path class="st30" d="M439.5,206.19L439.5,206.19c0.71,2.34-0.62,4.84-2.96,5.55l-9.34,2.85c-2.34,0.71-4.84-0.62-5.55-2.96
					c-0.71-2.34,0.62-4.84,2.96-5.55l9.34-2.85C436.29,202.52,438.79,203.85,439.5,206.19"/>
				<path class="st14" d="M447.99,257.41c2.13,3.32,4.41,8.24,8.95,8.84c2.65,0.35,7.81-1.3,10.56-1.36s4.37,0.67,4.6,0.35
					c1.08-1.47-1.35-2.67-1.35-2.67c-0.02,0,3.64-0.48,5.94,1.35c2.05,1.62,3.3,2.95,4.41,2.41c1.11-0.54-4.59-6.44-6.61-6.97
					c-2.01-0.53-19.16-3.67-19.16-3.67L447.99,257.41z"/>
				<path class="st36" d="M400.28,114.16c0,0,0.6-7.81,9.13-4.69c8.52,3.12,1.3,13.7-0.52,18.52c2.32,7.09,10.42,11.71,9.63,12.57
					c-4.52,4.94-30.76,1.14-33.36,1.52c-6.46,0.94,0.98-14.29,1.04-12c8.87-1.83,17.22-7.83,17.22-7.83L400.28,114.16z"/>
			</g>
		</g>
		<g>
			<g>
				<g>
					<g>
						<circle class="st18" cx="211.54" cy="108.03" r="22.67"/>
					</g>
					<polygon class="st18" points="210.38,128.3 203.93,125.5 197.49,122.69 198.68,137.55 					"/>
				</g>
			</g>
			<g>
				<g>
					<rect x="198.22" y="99.57" class="st0" width="3.25" height="2.7"/>
					<rect x="203.63" y="99.57" class="st0" width="18.93" height="2.7"/>
					<rect x="203.63" y="104.98" class="st0" width="14.06" height="2.7"/>
					<rect x="198.22" y="104.98" class="st0" width="3.25" height="2.7"/>
					<rect x="198.22" y="110.39" class="st0" width="3.25" height="2.7"/>
					<rect x="203.63" y="110.39" class="st0" width="21.64" height="2.7"/>
					<rect x="198.22" y="115.79" class="st0" width="3.25" height="2.7"/>
					<rect x="203.63" y="115.79" class="st0" width="16.77" height="2.7"/>
				</g>
			</g>
		</g>
	</g>
</g>
</svg>
