<?xml version="1.0" encoding="utf-8"?>
<!-- Generator: Adobe Illustrator 28.2.0, SVG Export Plug-In . SVG Version: 6.00 Build 0)  -->
<svg version="1.1" id="Laag_1" xmlns="http://www.w3.org/2000/svg" xmlns:xlink="http://www.w3.org/1999/xlink" x="0px" y="0px"
	 viewBox="0 0 550 476" style="enable-background:new 0 0 550 476;" xml:space="preserve">
<style type="text/css">
	.st0{fill:#FFFFFF;}
	.st1{fill:#007BC7;}
	.st2{fill:#F0F7FC;}
	.st3{fill:#1988CD;}
	.st4{fill:#005E97;}
	.st5{fill:#E9F5FA;}
	.st6{fill:#155A8E;}
	.st7{fill:#154273;}
	.st8{clip-path:url(#SVGID_00000172406738180271141460000013625787309425061278_);}
	.st9{fill:#8E8F8F;}
	.st10{fill:#6A787E;}
	.st11{fill:#465457;}
	.st12{fill:#0068B3;}
	.st13{fill:#E5F1F9;}
	.st14{fill:#00518B;}
	.st15{fill:#C5C2C2;}
	.st16{fill:#333333;}
	.st17{fill:#F5AE74;}
	.st18{fill:#242E5B;}
	.st19{fill:#1E3F90;}
	.st20{fill:#E16F0D;}
	.st21{fill:#E78C3E;}
	.st22{fill:#1D1D1B;}
	.st23{fill:#3C494B;}
	.st24{fill:#D9D9D9;}
</style>
<g id="illustraties">
	<g>
		<path class="st0" d="M35.14,476h495.61c11.69-30.93,39.09-120.72-4.86-191.92c-21.13-34.23-72.63-58.05-58.44-88.03
			c22.48-47.48-14-86.83-20.28-93.51C416.02,69.39,355.65,46.7,302,50.74c-2.76,0.21-5.5,0.48-8.21,0.84
			c-6.23,0.8-12.33,1.99-18.26,3.58c-4.18,1.12-8.26,2.45-12.25,3.99l0,0c-2.51,0.97-4.97,2.02-7.39,3.16
			c-3.6,1.7-7.09,3.59-10.46,5.68c-0.88,0.55-1.75,1.11-2.62,1.68c-5.63,3.74-10.88,8.07-15.68,13.02
			c-8.52,8.8-17.03,14.54-25.52,18.1C153.6,120.98,95.97,80.55,37.73,152.34c-34,41.91,41.75,91.18,4.73,128.86
			C-19.86,344.65,23.05,444.28,35.14,476z"/>
		<g>
			<g>
				<g>
					<g>
						<rect x="440.79" y="231.64" class="st1" width="79.81" height="175.19"/>
						<rect x="444.14" y="238.78" class="st2" width="73.1" height="151.43"/>
						<rect x="444.14" y="252.19" class="st3" width="73.1" height="1.3"/>
						<rect x="444.14" y="267.33" class="st3" width="73.1" height="1.3"/>
						<rect x="444.14" y="282.47" class="st3" width="73.1" height="1.3"/>
						<rect x="444.14" y="297.61" class="st3" width="73.1" height="1.3"/>
						<rect x="444.14" y="312.75" class="st3" width="73.1" height="1.3"/>
						<rect x="444.14" y="327.89" class="st3" width="73.1" height="1.3"/>
						<rect x="444.14" y="343.03" class="st3" width="73.1" height="1.3"/>
						<rect x="444.14" y="358.17" class="st3" width="73.1" height="1.3"/>
						<rect x="444.14" y="373.31" class="st3" width="73.1" height="1.3"/>
						<g>
							<g>
								<rect x="451.17" y="236.62" class="st1" width="2.6" height="160.4"/>
								<rect x="453.76" y="238.78" class="st3" width="0.76" height="151.43"/>
							</g>
							<g>
								<rect x="462.31" y="236.62" class="st1" width="2.6" height="143.55"/>
								<rect x="464.9" y="238.78" class="st3" width="0.76" height="141.39"/>
							</g>
							<g>
								<rect x="473.44" y="236.62" class="st1" width="2.6" height="144.26"/>
								<rect x="476.04" y="238.78" class="st3" width="0.76" height="142.1"/>
							</g>
							<g>
								<rect x="484.58" y="236.62" class="st1" width="2.6" height="144.26"/>
								<rect x="487.18" y="238.78" class="st3" width="0.76" height="142.1"/>
							</g>
							<g>
								<rect x="495.72" y="236.62" class="st1" width="2.6" height="143.55"/>
								<rect x="498.32" y="238.78" class="st3" width="0.76" height="141.39"/>
							</g>
							<g>
								<rect x="506.86" y="236.62" class="st1" width="2.6" height="170.22"/>
								<rect x="509.46" y="238.78" class="st3" width="0.76" height="151.43"/>
							</g>
						</g>
						<rect x="520.59" y="231.64" class="st4" width="27.94" height="175.19"/>
						<rect x="462.21" y="378.12" class="st4" width="36.99" height="4.09"/>
						<rect x="463.13" y="382.21" class="st5" width="35.28" height="23.47"/>
						<rect x="463.13" y="382.21" class="st3" width="1.25" height="23.47"/>
						<rect x="479.42" y="382.21" class="st3" width="1.25" height="23.47"/>
						<rect x="463.13" y="382.21" class="st3" width="35.28" height="1.25"/>
						<rect x="497.17" y="382.21" class="st3" width="1.25" height="23.47"/>
						<rect x="499.2" y="378.12" class="st4" width="1.02" height="4.09"/>
						<rect x="500.51" y="378.12" class="st6" width="1.02" height="0.68"/>
						<rect x="479.01" y="392.2" class="st4" width="0.81" height="2.55"/>
						<rect x="461.14" y="378.12" class="st6" width="39.38" height="0.68"/>
						<rect x="497.02" y="218.67" class="st3" width="28.77" height="12.98"/>
						<rect x="525.52" y="218.67" class="st4" width="9.68" height="12.98"/>
						<rect x="464.38" y="383.46" class="st4" width="0.52" height="22.22"/>
						<rect x="480.64" y="383.46" class="st4" width="0.52" height="22.22"/>
						<rect x="482.15" y="383.46" class="st4" width="0.52" height="22.22"/>
						<rect x="498.41" y="382.21" class="st4" width="0.52" height="23.47"/>
						<rect x="480.9" y="382.21" class="st3" width="1.25" height="23.47"/>
						<rect x="481.74" y="392.2" class="st4" width="0.81" height="2.55"/>
					</g>
					<rect x="442.35" y="235.59" class="st1" width="76.62" height="32.39"/>
					<rect x="474.5" y="231.59" class="st7" width="12.76" height="25.51"/>
				</g>
				<g>
					<g>
						<g>

								<ellipse transform="matrix(0.8216 -0.5701 0.5701 0.8216 -14.8574 305.4839)" class="st7" cx="480.62" cy="176.48" rx="21.68" ry="20.9"/>
						</g>
						<polygon class="st7" points="474.1,194.52 480.74,194.25 487.38,193.98 480.83,206.51 						"/>
					</g>
					<g>
						<path class="st0" d="M481.72,180.24c6.69,0,11.93-2.77,11.93-6.31v-3c0-3.53-5.24-6.3-11.93-6.3s-11.93,2.77-11.93,6.3v3
							c0,0.78,0.27,1.52,0.74,2.2c-0.47,0.68-0.74,1.41-0.74,2.19v3c0,3.54,5.24,6.31,11.93,6.31s11.93-2.77,11.93-6.31v-3
							c0-0.17-0.02-0.33-0.05-0.5c-0.61,0.74-3.9,4.22-11.6,4.22c-6.83,0-9.19-3.17-9.43-3.6c-0.1-0.18-0.17-0.36-0.06-0.47
							C474.68,179.37,477.97,180.24,481.72,180.24 M472.09,171.2c0-2.34,4.31-4.23,9.63-4.23s9.63,1.89,9.63,4.23
							s-4.31,4.23-9.63,4.23S472.09,173.54,472.09,171.2"/>
						<path class="st0" d="M479.89,172.62v0.56h1.33v-0.46c0.26,0.02,0.57,0.02,0.87,0.02h0.33v0.44h1.29v-0.51
							c2.37-0.25,3.5-1.04,3.5-2.19c0-0.45-0.05-0.64-0.26-1.1h-1.75c0.18,0.43,0.25,0.64,0.25,1.03c0,0.51-0.51,0.92-1.73,1.1
							v-1.45h-1.29v1.55c-0.16,0.01-0.33,0.02-0.52,0.02c-0.23,0-0.44-0.01-0.67-0.02v-1.55h-1.33v1.44
							c-1.19-0.17-1.82-0.54-1.82-1.13c0-0.34,0.06-0.53,0.21-0.95h-1.85c-0.15,0.35-0.2,0.6-0.2,0.92
							C476.24,171.5,477.47,172.32,479.89,172.62"/>
					</g>
				</g>
			</g>
			<g>
				<g>
					<g>

							<ellipse transform="matrix(0.9852 -0.1715 0.1715 0.9852 -6.4883 63.3885)" class="st7" cx="363.64" cy="69.25" rx="21.68" ry="21.68"/>
						<polygon class="st7" points="357.4,87.54 364.12,87.46 370.84,87.38 364.27,100.03 						"/>
					</g>
					<path class="st0" d="M376.94,66.97L364,55.06c-0.1-0.09-0.23-0.15-0.37-0.15c-0.14,0-0.27,0.05-0.37,0.15l-12.95,11.91
						c-0.11,0.1-0.2,0.23-0.26,0.36c-0.06,0.14-0.09,0.29-0.09,0.44v0.81c0,0.3,0.25,0.55,0.55,0.55h2.19v11.48h8.2v-8.2h5.47v8.2
						h8.2V69.13h2.19c0.07,0,0.14-0.01,0.21-0.04c0.07-0.03,0.13-0.07,0.18-0.12s0.09-0.11,0.12-0.18s0.04-0.14,0.04-0.21v-0.81
						c0-0.15-0.03-0.3-0.09-0.44C377.14,67.2,377.06,67.07,376.94,66.97"/>
				</g>
				<g>
					<g>
						<path class="st1" d="M300.22,198.63v0.8v202.7v4.3l4.3,0.01l118.18,0.38l4.33,0.01v-4.33V199.69v-0.76l-0.26-0.71l-25.8-71.14
							l-4.15-11.43l-3.99,11.49l-23.67,68.13h-10.64l-22.68-68.08l-3.81-11.43L327.71,127l-27.23,70.87L300.22,198.63z
							 M417.81,408.57h0.37l0,0H417.81z"/>
					</g>
					<g>
						<rect x="415.09" y="202.8" class="st2" width="5.74" height="14.82"/>
						<rect x="405.27" y="202.8" class="st2" width="5.75" height="14.82"/>
						<rect x="395.45" y="202.8" class="st2" width="5.74" height="14.82"/>
						<rect x="385.64" y="202.8" class="st2" width="5.74" height="14.82"/>
						<rect x="375.82" y="202.8" class="st2" width="5.75" height="14.82"/>
						<rect x="415.09" y="222.01" class="st2" width="5.74" height="14.81"/>
						<rect x="405.27" y="222.01" class="st2" width="5.75" height="14.81"/>
						<rect x="395.45" y="222.01" class="st2" width="5.74" height="14.81"/>
						<rect x="385.64" y="222.01" class="st2" width="5.74" height="14.81"/>
						<rect x="375.82" y="222.01" class="st2" width="5.75" height="14.81"/>
						<rect x="415.09" y="241.21" class="st2" width="5.74" height="14.81"/>
						<rect x="405.27" y="241.21" class="st2" width="5.75" height="14.81"/>
						<rect x="395.45" y="241.21" class="st2" width="5.74" height="14.81"/>
						<rect x="385.64" y="241.21" class="st2" width="5.74" height="14.81"/>
						<rect x="375.82" y="241.21" class="st2" width="5.75" height="14.81"/>
						<rect x="415.09" y="260.42" class="st2" width="5.74" height="14.82"/>
						<rect x="405.27" y="260.42" class="st2" width="5.75" height="14.82"/>
						<rect x="395.45" y="260.42" class="st2" width="5.74" height="14.82"/>
						<rect x="385.64" y="260.42" class="st2" width="5.74" height="14.82"/>
						<rect x="375.82" y="260.42" class="st2" width="5.75" height="14.82"/>
						<rect x="415.09" y="279.62" class="st2" width="5.74" height="14.82"/>
						<rect x="405.27" y="279.62" class="st2" width="5.75" height="14.82"/>
						<rect x="395.45" y="279.62" class="st2" width="5.74" height="14.82"/>
						<rect x="385.64" y="279.62" class="st2" width="5.74" height="14.82"/>
						<rect x="375.82" y="279.62" class="st2" width="5.75" height="14.82"/>
						<rect x="415.09" y="298.82" class="st2" width="5.74" height="14.81"/>
						<rect x="405.27" y="298.82" class="st2" width="5.75" height="14.81"/>
						<rect x="395.45" y="298.82" class="st2" width="5.74" height="14.81"/>
						<rect x="385.64" y="298.82" class="st2" width="5.74" height="14.81"/>
						<rect x="375.82" y="298.82" class="st2" width="5.75" height="14.81"/>
						<rect x="415.09" y="318.03" class="st2" width="5.74" height="14.82"/>
						<rect x="405.27" y="318.03" class="st2" width="5.75" height="14.82"/>
						<rect x="395.45" y="318.03" class="st2" width="5.74" height="14.82"/>
						<rect x="385.64" y="318.03" class="st2" width="5.74" height="14.82"/>
						<rect x="375.82" y="318.03" class="st2" width="5.75" height="14.82"/>
						<rect x="415.09" y="337.23" class="st2" width="5.74" height="14.81"/>
						<rect x="405.27" y="337.23" class="st2" width="5.75" height="14.81"/>
						<rect x="395.45" y="337.23" class="st2" width="5.74" height="14.81"/>
						<rect x="385.64" y="337.23" class="st2" width="5.74" height="14.81"/>
						<rect x="375.82" y="337.23" class="st2" width="5.75" height="14.81"/>
						<rect x="415.09" y="356.43" class="st2" width="5.74" height="14.82"/>
						<rect x="405.27" y="356.43" class="st2" width="5.75" height="14.82"/>
						<rect x="395.45" y="356.43" class="st2" width="5.74" height="14.82"/>
						<rect x="385.64" y="356.43" class="st2" width="5.74" height="14.82"/>
						<rect x="375.82" y="356.43" class="st2" width="5.75" height="14.82"/>
						<rect x="415.09" y="375.64" class="st2" width="5.74" height="14.82"/>
						<rect x="405.27" y="375.64" class="st2" width="5.75" height="14.82"/>
						<rect x="395.45" y="375.64" class="st2" width="5.74" height="14.82"/>
						<rect x="385.64" y="375.64" class="st2" width="5.74" height="14.82"/>
						<rect x="375.82" y="375.64" class="st2" width="5.75" height="14.82"/>
					</g>
					<g>
						<rect x="346.49" y="202.8" class="st2" width="5.74" height="14.82"/>
						<rect x="336.67" y="202.8" class="st2" width="5.75" height="14.82"/>
						<rect x="326.85" y="202.8" class="st2" width="5.74" height="14.82"/>
						<rect x="317.03" y="202.8" class="st2" width="5.74" height="14.82"/>
						<rect x="307.22" y="202.8" class="st2" width="5.74" height="14.82"/>
						<rect x="346.49" y="222.01" class="st2" width="5.74" height="14.81"/>
						<rect x="336.67" y="222.01" class="st2" width="5.75" height="14.81"/>
						<rect x="326.85" y="222.01" class="st2" width="5.74" height="14.81"/>
						<rect x="317.03" y="222.01" class="st2" width="5.74" height="14.81"/>
						<rect x="307.22" y="222.01" class="st2" width="5.74" height="14.81"/>
						<rect x="346.49" y="241.21" class="st2" width="5.74" height="14.81"/>
						<rect x="336.67" y="241.21" class="st2" width="5.75" height="14.81"/>
						<rect x="326.85" y="241.21" class="st2" width="5.74" height="14.81"/>
						<rect x="317.03" y="241.21" class="st2" width="5.74" height="14.81"/>
						<rect x="307.22" y="241.21" class="st2" width="5.74" height="14.81"/>
						<rect x="346.49" y="260.42" class="st2" width="5.74" height="14.82"/>
						<rect x="336.67" y="260.42" class="st2" width="5.75" height="14.82"/>
						<rect x="326.85" y="260.42" class="st2" width="5.74" height="14.82"/>
						<rect x="317.03" y="260.42" class="st2" width="5.74" height="14.82"/>
						<rect x="307.22" y="260.42" class="st2" width="5.74" height="14.82"/>
						<rect x="346.49" y="279.62" class="st2" width="5.74" height="14.82"/>
						<rect x="336.67" y="279.62" class="st2" width="5.75" height="14.82"/>
						<rect x="326.85" y="279.62" class="st2" width="5.74" height="14.82"/>
						<rect x="317.03" y="279.62" class="st2" width="5.74" height="14.82"/>
						<rect x="307.22" y="279.62" class="st2" width="5.74" height="14.82"/>
						<rect x="346.49" y="298.82" class="st2" width="5.74" height="14.81"/>
						<rect x="336.67" y="298.82" class="st2" width="5.75" height="14.81"/>
						<rect x="326.85" y="298.82" class="st2" width="5.74" height="14.81"/>
						<rect x="317.03" y="298.82" class="st2" width="5.74" height="14.81"/>
						<rect x="307.22" y="298.82" class="st2" width="5.74" height="14.81"/>
						<rect x="346.49" y="318.03" class="st2" width="5.74" height="14.82"/>
						<rect x="336.67" y="318.03" class="st2" width="5.75" height="14.82"/>
						<rect x="326.85" y="318.03" class="st2" width="5.74" height="14.82"/>
						<rect x="317.03" y="318.03" class="st2" width="5.74" height="14.82"/>
						<rect x="307.22" y="318.03" class="st2" width="5.74" height="14.82"/>
						<rect x="346.49" y="337.23" class="st2" width="5.74" height="14.81"/>
						<rect x="336.67" y="337.23" class="st2" width="5.75" height="14.81"/>
						<rect x="326.85" y="337.23" class="st2" width="5.74" height="14.81"/>
						<rect x="317.03" y="337.23" class="st2" width="5.74" height="14.81"/>
						<rect x="307.22" y="337.23" class="st2" width="5.74" height="14.81"/>
						<rect x="346.49" y="356.43" class="st2" width="5.74" height="14.82"/>
						<rect x="336.67" y="356.43" class="st2" width="5.75" height="14.82"/>
						<rect x="326.85" y="356.43" class="st2" width="5.74" height="14.82"/>
						<rect x="317.03" y="356.43" class="st2" width="5.74" height="14.82"/>
						<rect x="307.22" y="356.43" class="st2" width="5.74" height="14.82"/>
						<rect x="346.49" y="375.64" class="st2" width="5.74" height="14.82"/>
						<rect x="336.67" y="375.64" class="st2" width="5.75" height="14.82"/>
						<rect x="326.85" y="375.64" class="st2" width="5.74" height="14.82"/>
						<rect x="317.03" y="375.64" class="st2" width="5.74" height="14.82"/>
						<rect x="307.22" y="375.64" class="st2" width="5.74" height="14.82"/>
					</g>
					<rect x="357.78" y="184.17" class="st4" width="12.36" height="222.22"/>
				</g>
			</g>
			<g>
				<g>
					<g>
						<g>
							<ellipse class="st1" cx="159.93" cy="204.35" rx="21.28" ry="20.74"/>
						</g>
						<polygon class="st1" points="142.59,212.08 147.23,216.64 151.88,221.2 138.48,225.12 						"/>
					</g>
					<path class="st0" d="M170.52,211.84l-6.26-5.66c2.11-3.27,1.73-7.67-1.13-10.53c-3.29-3.29-8.63-3.29-11.92,0
						s-3.29,8.63,0,11.92c2.86,2.86,7.26,3.23,10.53,1.13l5.66,6.26c0.79,0.88,2.06,0.72,2.95-0.17S171.4,212.63,170.52,211.84
						 M161.03,205.46c-2.13,2.12-5.57,2.12-7.7,0c-2.12-2.13-2.12-5.57,0-7.7c2.13-2.12,5.57-2.12,7.7,0
						C163.15,199.89,163.15,203.34,161.03,205.46"/>
				</g>
				<g>
					<g>
						<defs>
							<rect id="SVGID_1_" x="0.03" y="169.79" width="386.47" height="305.7"/>
						</defs>
						<clipPath id="SVGID_00000009591984461276543280000001152400371880544422_">
							<use xlink:href="#SVGID_1_"  style="overflow:visible;"/>
						</clipPath>
						<g style="clip-path:url(#SVGID_00000009591984461276543280000001152400371880544422_);">
							<g>
								<polygon class="st9" points="323.3,386.87 323.3,372.89 -0.71,372.89 -1,386.87 								"/>
								<g>
									<g>
										<g>
											<path class="st10" d="M214.67,371.38l-1.35-3.09c-1.61-1.58-10.84-6.55-10.84-6.55h-0.05l-2.27-20.06l-24.21-0.2
												l-2.61,20.25h-0.05c0,0-9.32,5.05-10.95,6.6l-1.4,3.06c-0.57,0.54,0,1.48,0.9,1.48l51.9-0.03
												C214.64,372.86,215.23,371.93,214.67,371.38"/>
										</g>
										<g>
											<polygon class="st11" points="201.42,352.84 188,350.12 174.53,352.6 173.54,360.22 202.26,360.23 											"/>
										</g>
									</g>
									<g>
										<g>
											<path class="st10" d="M273.69,355.52H101.91c-2.29,0-4.14-1.86-4.14-4.14V244.63c0-2.29,1.86-4.14,4.14-4.14H273.7
												c2.29,0,4.14,1.86,4.14,4.14v106.75C277.84,353.67,275.98,355.52,273.69,355.52z"/>
										</g>
										<g>
											<rect x="103.22" y="246.59" class="st0" width="169.21" height="102.83"/>
										</g>
										<g>
											<g>
												<polygon class="st0" points="149.52,246.21 272.33,246.21 272.33,349.09 149.52,349.09 103.22,349.09 103.22,246.21
																									"/>
											</g>
											<g>
												<polygon class="st12" points="149.52,270.78 272.33,270.78 272.33,281.6 149.52,281.6 103.22,281.6 103.22,270.78
																									"/>
											</g>
											<g>
												<polygon class="st13" points="149.52,281.6 272.33,281.6 272.33,305.47 149.52,305.47 103.22,305.47 103.22,281.6
																									"/>
											</g>
											<g>
												<polygon class="st14" points="185.32,246.21 190.82,246.21 190.82,259.21 185.32,259.21 183.25,259.21 183.25,246.21
																									"/>
											</g>
											<rect x="126.55" y="315.4" class="st15" width="27.48" height="2.26"/>
											<rect x="126.55" y="321.17" class="st15" width="22.69" height="2.26"/>
											<rect x="126.55" y="326.93" class="st15" width="28.66" height="2.26"/>
											<rect x="126.55" y="332.69" class="st15" width="16.63" height="2.26"/>
											<rect x="219.85" y="315.4" class="st15" width="27.48" height="2.26"/>
											<rect x="219.85" y="321.17" class="st15" width="22.69" height="2.26"/>
											<rect x="219.85" y="326.93" class="st15" width="28.66" height="2.26"/>
											<rect x="219.85" y="332.69" class="st15" width="16.63" height="2.26"/>
											<rect x="170.93" y="315.4" class="st15" width="29.78" height="2.26"/>
											<rect x="170.93" y="321.17" class="st15" width="31.09" height="2.26"/>
											<rect x="170.93" y="326.93" class="st15" width="24.63" height="2.26"/>
											<rect x="170.93" y="332.69" class="st15" width="31.09" height="2.26"/>
											<g>
												<path class="st7" d="M247.01,309.38h-25.64c-0.83,0-1.5-0.68-1.5-1.5v-6.21c0-0.83,0.68-1.5,1.5-1.5h25.64
													c0.83,0,1.5,0.68,1.5,1.5v6.21C248.51,308.71,247.83,309.38,247.01,309.38z"/>
											</g>
										</g>
									</g>
								</g>
								<g>
									<polygon class="st11" points="84.69,368.33 199.3,368.33 203,372.2 81.13,372.2 									"/>
									<polygon class="st10" points="178.04,369.38 85.38,369.38 83.47,370.84 178.91,370.84 									"/>
									<polygon class="st10" points="198.4,369.38 179.65,369.38 180.6,370.84 199.76,370.84 									"/>
									<polygon class="st16" points="82.52,372.87 200.48,372.87 203,372.2 81.13,372.2 									"/>
								</g>
								<path class="st11" d="M223.85,373.37c0,4.66-26.08,4.66-26.08,0s5.84-8.43,13.04-8.43S223.85,368.72,223.85,373.37z"/>
								<path class="st17" d="M175.35,369.13l23.73-9.56l15.16,2.33c1.84,0.28,5.06,3.7,6.2,5.18l-17.13,4.28l-20.48,9.47
									L175.35,369.13z"/>
								<path class="st18" d="M121.43,429.85c-1.45,0,24.15-4.35,32.84-1.45s13.04,20.28,13.04,20.28l-51.19,17.87L121.43,429.85z"
									/>
								<path class="st19" d="M127.23,443.37l43.56-9.63c5.41-1.2,11.09-0.2,15.73,2.83c3.13,2.05,6.07,4.81,6.88,8.26
									c1.93,8.21-1.93,63.75-1.93,63.75L68.8,485.88l-14.49-48.29L127.23,443.37z"/>
								<path class="st20" d="M70.22,315.52c-4.82-1.43-8.49-3.43-13.2,1.71s-6.69,12.64-8.61,16.88
									c-1.93,4.25-27.94,43.42-26.71,49.51c0.23,1.13,4.04,5.61,5.04,7.63l31.4,8.24c-4.19-5.28-7.61-10.12-6.37-10.52
									c2.8-0.91,13.03-22.62,15.29-31.73C69.29,348.09,70.22,315.52,70.22,315.52z"/>
								<path class="st17" d="M133.16,272.05c5-11.72,7.53-18.24-3.95-27.91c-3.74-2.66-10.63-6.44-12.49-6.96
									c-22.47-6.26-28.71,7.23-32.73,23.76c-3.69,15.2,0.21,26.72,5.65,32.83l-4.17,14.32l29.88,2.96c0,0,0.06-10.19,2.47-14.46
									c4.88,0.41,6.86,1.9,14.83-18.06C133.24,276.99,132.55,273.46,133.16,272.05z"/>
								<path class="st21" d="M115.8,309.77c3.39,2.54,25.65,11.41,25.96,11.59c2.44,1.44-10.7,37.79-6.01,49.3
									c-3.13,5.86-14.96,51.26-8.52,72.71c3.96,13.18-54.68,46.13-74.37,2.9c9.02-30.35,12.74-79.12,9.89-92.75
									c-3.76-18.14-5.75-34.97-4.51-36.72c3.02-4.36,6.06-3.33,13.92-7.91C80.02,304.3,115.8,309.77,115.8,309.77z"/>
								<g>
									<path class="st22" d="M96.69,236.85c7.76-5.03,20.87-5.13,28.22-1.22c7.36,3.94,19.94,11.57,9.18,33.89
										c-11.53,23.95-28.43,22.89-34.1,22.67c-10.21-0.39-13.11-4.94-13.11-4.94S71.43,253.12,96.69,236.85z"/>
									<g>
										<path class="st20" d="M88.78,269.17c5.04-2.22,8.56,11.86,9.12,14.37c12.72-7.9,5.91-21.43-6.45-19.14
											c-7.06,1.3-6.01,8.25-6.01,8.25L88.78,269.17z"/>
									</g>
									<path class="st22" d="M84.72,269.46c-4.02,2.66-16.08,19.22-13.87,34.38c2.23,15.18,11.26,61.6,1.55,69.8
										c11.34-4.48,11.04-18.74,11.04-18.74l-2.75,15.47c0,0,7.43-12.35,8.65-17.93c0.43,2.45-0.73,9.3-4.85,12.7
										c0,0,17.02-4.68,15.39-25.77c-1.71-22.13-3.03-36.97-1.95-47.19c1.66-15.71,5.7-16.25,2.45-21.3
										C96.08,264.19,87.6,267.58,84.72,269.46z"/>
									<path class="st22" d="M126.77,236.49c-2.75-1.28-6.3-2.57-6.3-2.57c3.73,1,17.6,14.59,3.03,29.59
										c4.1,1.02,8.91-13.03,8.91-13.03s-2.19,12.92-11.63,16.59c3.55-0.07,7.63-3.24,10.53-7.38
										c-2.32,5.13-6.38,10.09-13.29,13.04c8.94,1.58,19.44-12.16,19.77-18.67C138.09,247.57,134.66,240.17,126.77,236.49z"/>
								</g>
								<path class="st20" d="M184.19,381.11l-3.14-15.35l-37.49,7.07c0.01-10.7,2.63-17.73,4.35-32.13
									c0.57-5.03,0.34-8.68,0.34-8.68c-0.98-8.07-8.06-14.73-16.29-14.23c-8.3,0.51-13.1,16.53-12.97,24.76
									c0,0,0.49,21.13,0.61,26.77c0.05,2.15,2.02,17.36,3.44,19.56c1.37,2.43,0.61,4.51,8.72,5.5s14.88-1.56,24.33-2.93
									c14.14-2.05,27.54-8.68,28.22-9.35l0.08-0.03L184.19,381.11z"/>
								<path class="st11" d="M60.08,462.49l40.84-1.28c10.43-0.33,18.66-10.86,18.39-23.53l1.54-42.57
									c-0.4-18.75-13.23-33.56-28.66-33.08l-40.45,1.27c-15.43,0.48-27.62,16.08-27.22,34.83l-0.27,16.55
									C34.04,432.85,46.15,448.99,60.08,462.49"/>
								<path class="st11" d="M61.82,461.92H44.97c-11.4,0-20.73-9.33-20.73-20.73V416c0-11.4,9.33-20.73,20.73-20.73h16.84
									c11.4,0,20.73,9.33,20.73,20.73v25.19C82.54,452.59,73.22,461.92,61.82,461.92z"/>
								<path class="st23" d="M76.23,491.77H63.18c-3.47,0-6.32-2.84-6.32-6.32v-45.91c0-3.47,2.84-6.32,6.32-6.32h13.05
									c3.47,0,6.32,2.84,6.32,6.32v45.91C82.55,488.93,79.7,491.77,76.23,491.77z"/>
							</g>
							<g>
								<rect x="292.06" y="386.87" class="st24" width="9.98" height="136.75"/>
							</g>
						</g>
					</g>
				</g>
			</g>
		</g>
	</g>
</g>
</svg>
