<svg width="20" height="20" viewBox="0 0 20 20" xmlns="http://www.w3.org/2000/svg" xmlns:xlink="http://www.w3.org/1999/xlink"><defs><path d="m16.564 11.218-.078.472a.996.996 0 0 1-.917.784l-1.883.132c-.114.008-.206-.082-.179-.172l.21-.679c.107-.285.357-.512.69-.624l1.524-.371c.338-.082.681.166.633.458ZM8.08 13.805h3.84v-.84H8.08v.84Zm-1.765-1.199-1.883-.132a.996.996 0 0 1-.917-.784l-.078-.472c-.048-.292.295-.54.633-.458l1.525.371c.332.112.582.339.69.624l.209.679c.027.09-.065.18-.179.172Zm-.508-7.278c.189-.082 1.567-.222 4.193-.222 2.628 0 4.006.14 4.195.222.186.276.779 2.07.95 2.794-.936.228-3.064.382-5.145.382-2.079 0-4.207-.154-5.142-.382.169-.724.763-2.518.95-2.794ZM17.2 8.881c.38-.228.618-.501.686-.637.141-.283.048-.771-.492-.863-.238-.04-.69-.002-1.09.047-.31-.976-.848-2.563-1.163-2.851C14.718 4.192 13.24 4 10 4s-4.718.192-5.14.577c-.314.288-.853 1.875-1.163 2.851-.4-.049-.852-.087-1.09-.047-.54.092-.633.58-.492.863.068.136.307.409.686.637C2.18 9.61 2 10.244 2 11.423v3.222s0 .943.15 1.57c.054.229.297.391.575.391h2.069c.279 0 .52-.162.576-.391.083-.35.12-.798.137-1.126l-1.961-.342c-.102-.028-.087-.086-.08-.102h13.068c.007.016.022.074-.08.102l-1.96.342c.015.328.053.776.136 1.126.055.229.297.391.576.391h2.069c.278 0 .52-.162.574-.391.151-.627.151-1.57.151-1.57v-3.222c0-1.179-.182-1.813-.8-2.542Z" id="a"/></defs><use fill="#007bc7" xlink:href="#a" fill-rule="evenodd"/></svg>