<svg width="20" height="20" viewBox="0 0 20 20" xmlns="http://www.w3.org/2000/svg" xmlns:xlink="http://www.w3.org/1999/xlink"><defs><path d="m13.586 7.726-3.372 5.212a.527.527 0 0 1-.443.233H9.77a.528.528 0 0 1-.442-.235L7.12 9.496a.462.462 0 0 1 .111-.62.547.547 0 0 1 .672.006l1.822 1.474 3.033-3.203a.544.544 0 0 1 .694-.066.463.463 0 0 1 .134.639m2.107-4.305C11.87 1.834 10 5.247 10 5.247S8.13 1.834 4.307 3.42C.535 4.987.787 12.753 9.626 17.077a.866.866 0 0 0 .747 0c8.84-4.324 9.092-12.09 5.32-13.656" id="a"/></defs><use fill="#007bc7" xlink:href="#a" fill-rule="evenodd"/></svg>