<svg width="20" height="20" viewBox="0 0 20 20" xmlns="http://www.w3.org/2000/svg" xmlns:xlink="http://www.w3.org/1999/xlink"><defs><path d="m10.291 14.005 1.469 2.451H3s.283-2.86 1.012-3.626c.623-.656 2.625-1.228 3.205-1.384a.15.15 0 0 0 .017.01c.776.404 1.497.296 1.727.22.138-.045.138-.119.103-.18-.384-.018-.752-.109-.957-.28-.775-.653-1.405-1.388-1.556-2.646-.471-.145-.565-.732-.565-1.099 0-.366.064-.565.196-.626a.29.29 0 0 1 .201-.014c-.068-.773-.145-2.277.256-2.793.371-.478 1.076-.764 1.72-.939.927-.253 1.287.024 1.817.305.806-.203 1.269-.042 1.617.58.319.568.272 2.08.224 2.843a.283.283 0 0 1 .181.018c.132.061.196.26.196.626 0 .367-.094.954-.565 1.1a3.843 3.843 0 0 1-.983 2.091s.022.213.064.398c.046.21.186.386.393.443.638.174 1.923.56 2.673 1.018l-.771.863-1.07-.927a1.219 1.219 0 0 0-1.844 1.548Zm6.22-2.712a.449.449 0 0 1 .116.595l-2.93 4.852a.45.45 0 0 1-.385.216h-.002a.452.452 0 0 1-.384-.219l-1.919-3.202a.45.45 0 0 1 .681-.571l1.583 1.372 2.636-2.981a.45.45 0 0 1 .604-.062Z" id="a"/></defs><use fill="#007bc7" xlink:href="#a" fill-rule="evenodd"/></svg>