<svg width="20" height="20" viewBox="0 0 20 20" xmlns="http://www.w3.org/2000/svg" xmlns:xlink="http://www.w3.org/1999/xlink"><defs><path d="m19.885 7.155-9.68-3.123a.663.663 0 0 0-.41 0L.115 7.155a.167.167 0 0 0-.009.313l1.895.734v2.356a.992.992 0 0 0-.333.74c0 .255.098.485.255.662-.478.75-1.065 2.015-1.098 2.593-.04.686.843.972 1.274 1.05.432.08 1.451.028 1.549-.815.076-.656-.191-2.111-.314-2.726v-.024a.99.99 0 0 0 0-1.48v-1.84l5.23 2.028c0 .021-.01.094-.128.088l-3.77-.6v3.375h.004c0 .008-.003.014-.003.022 0 1.289 2.388 2.333 5.333 2.333 2.945 0 5.332-1.044 5.332-2.333l-.002-.022h.002V9.234l4.562-1.766a.167.167 0 0 0-.01-.313" id="a"/></defs><use fill="#007bc7" xlink:href="#a" fill-rule="evenodd"/></svg>