<svg xmlns="http://www.w3.org/2000/svg" width="20" height="20" viewBox="0 0 20 20"><path fill="#007bc7" d="M3.991 9.482V7.781H5.42c.378-1.54 1.077-2.705 2.1-3.496 1.022-.792 2.274-1.187 3.758-1.187.42 0 .809.017 1.166.053.357.035.76.101 1.207.199v2.373a24.79 24.79 0 0 0-1.291-.21 9.148 9.148 0 0 0-1.144-.063c-.757 0-1.372.2-1.848.598-.477.4-.826.977-1.05 1.733h3.696v1.701h-3.99a8.29 8.29 0 0 0-.032 1.218c.007.112.017.217.032.315h3.99v1.659H8.296c.224.784.587 1.351 1.091 1.701a2.95 2.95 0 0 0 1.723.525 9.5 9.5 0 0 0 1.291-.074c.357-.049.808-.129 1.355-.241v2.247c-.589.14-1.064.231-1.428.273-.365.042-.833.063-1.408.063-1.47 0-2.698-.371-3.685-1.113-.987-.742-1.634-1.869-1.942-3.381H3.991v-1.659h1.133v-.42a15.902 15.902 0 0 1 .043-1.113H3.99z"/></svg>