<svg width="20" height="20" viewBox="0 0 20 20" xmlns="http://www.w3.org/2000/svg" xmlns:xlink="http://www.w3.org/1999/xlink"><defs><path d="M11.304 12.871v.621c0 .342-.298.62-.665.62h-1.33c-.366 0-.663-.278-.663-.62v-.62c0-.01.005-.018.005-.027-2.808-.105-4.78-.52-5.986-.875v4.004c0 .343.322.62.69.62h13.29a.62.62 0 0 0 .64-.62v-3.989c-1.218.353-3.192.762-5.987.863.001.008.006.015.006.023m.69-7.446h-1.355v3.723h-1.33V5.425H8.008v-.87c0-.052.077-.14.117-.147a10.653 10.653 0 0 1 3.748 0c.044.008.121.095.121.148v.869Zm5.465.543c-.042-.31-.324-.543-.658-.543h-3.479v-.87c0-.643-.524-1.243-1.197-1.366a12.078 12.078 0 0 0-4.252 0c-.67.123-1.196.723-1.196 1.367v.869H3.199c-.334 0-.616.233-.658.543l-.536 3.957a.613.613 0 0 0 .415.655c.974.347 3.456 1.05 7.58 1.05 4.124 0 6.605-.703 7.58-1.05a.613.613 0 0 0 .415-.655l-.536-3.957Z" id="a"/></defs><use fill="#007bc7" xlink:href="#a" fill-rule="evenodd"/></svg>